<svg width="22" height="20" viewBox="0 0 22 20" fill="none" xmlns="http://www.w3.org/2000/svg">
<path d="M20.6791 9.65289V19.5596H18.7268V14.5605C18.3063 14.6499 17.9246 14.7322 17.5642 14.8093C17.5642 15.1938 17.6079 15.5794 17.5565 15.9496C17.3622 17.3438 16.2948 18.3216 14.8748 18.481C13.2528 18.664 11.8473 18.1376 10.9849 16.694C10.4643 15.8231 10.5896 15.9115 10 14.5697C10.5536 14.3312 11.0898 14.1019 11.6599 13.8562C11.7551 14.1358 11.8415 14.4021 11.9357 14.6643C12.4777 15.745 12.3815 15.4488 12.8002 15.9917C13.3033 16.4914 13.8909 16.7403 14.5892 16.6169C14.9807 16.548 15.2711 16.3279 15.4478 15.9444C15.9471 14.8587 15.3439 13.7122 14.2114 13.6217C13.8656 13.594 13.517 13.6176 13.1498 13.6176V11.9221C13.5422 11.8676 13.9443 11.8419 14.3328 11.7494C14.7485 11.6507 15.0613 11.3885 15.1827 10.9237C15.3905 10.1238 15.0312 9.49969 14.2512 9.46884C13.7705 9.45033 13.2829 9.60765 12.8002 9.6971C12.6826 9.71869 12.5719 9.78244 12.4243 9.83899C12.2728 9.26012 12.1271 8.70489 11.9707 8.10853C13.3353 7.50293 14.6883 7.25821 16.0199 8.11368C17.4972 9.0627 17.6176 11.1571 16.2928 12.3355C16.1724 12.4424 16.0471 12.5431 15.8606 12.7015C16.2006 12.8537 16.4929 13.0644 16.8066 13.1087C17.4282 13.1971 18.0392 13.0583 18.6122 12.7796C18.6666 12.7529 18.721 12.6563 18.722 12.5915C18.7288 11.6167 18.7268 10.643 18.7268 9.63438H17.4953V7.83401H17.8964C20.8131 7.83401 18.7472 7.83401 21.6639 7.83401C21.7756 7.83401 21.8883 7.82681 22 7.82269V9.61073H20.9442" fill="#3E150F"/>
<path d="M5.77661 2.69824L3.34985 10.5596H0.772705L4.42993 0.606445H6.06372L5.77661 2.69824ZM7.78638 10.5596L5.35278 2.69824L5.03833 0.606445H6.69263L10.3704 10.5596H7.78638ZM7.69067 6.84766V8.7002H2.58423V6.84766H7.69067Z" fill="#3E150F"/>
</svg>
