<svg xmlns="http://www.w3.org/2000/svg" viewBox="0 0 297.64 297.64"><defs><style>.cls-1{fill:#fff;}</style></defs><g id="Layer_2" data-name="Layer 2"><path class="cls-1" d="M122.87,149.21c4.75,6.3,17,1.08,15.46-6.6C135.07,127.76,112.3,136.45,122.87,149.21Z"/><path d="M122.87,149.21a6.8,6.8,0,0,0,2.71,2.1,8.11,8.11,0,0,0,3.37.5,9.87,9.87,0,0,0,6-2.69,6.56,6.56,0,0,0,2.23-5.34,5.28,5.28,0,0,0-.31-1.4c-.09-.25-.16-.5-.25-.73s-.22-.46-.31-.7a9,9,0,0,0-1.63-2.43c-2.58-2.82-7.52-3.27-11.18-1a7.17,7.17,0,0,0-2.25,2.27,6.25,6.25,0,0,0-.91,3.15A10,10,0,0,0,122.87,149.21Zm0,0a15.73,15.73,0,0,1-1.93-2.9,12.78,12.78,0,0,1-.69-1.61,9.25,9.25,0,0,1-.35-1.74,7.94,7.94,0,0,1,2.65-6.63,10.87,10.87,0,0,1,7-2.81,10.05,10.05,0,0,1,3.92.66,9.81,9.81,0,0,1,3.36,2.26,10.32,10.32,0,0,1,2.13,3.38,11.3,11.3,0,0,1,.55,1.86,7.79,7.79,0,0,1,.24,2,7.62,7.62,0,0,1-1.18,3.87,9.33,9.33,0,0,1-2.71,2.71,11.73,11.73,0,0,1-6.9,1.93,8.54,8.54,0,0,1-3.41-.82A7.29,7.29,0,0,1,122.87,149.21Z"/><path class="cls-1" d="M140.18,150.49c4.75,6.3,17,1.09,15.46-6.6C152.38,129,129.61,137.73,140.18,150.49Z"/><path d="M140.18,150.49a6.71,6.71,0,0,0,2.71,2.1,8,8,0,0,0,3.37.5,9.91,9.91,0,0,0,6-2.68,6.59,6.59,0,0,0,2.23-5.35,4.92,4.92,0,0,0-.31-1.4c-.09-.24-.16-.49-.25-.73s-.22-.46-.31-.7A9,9,0,0,0,152,139.8c-2.58-2.81-7.52-3.27-11.18-1a7.17,7.17,0,0,0-2.25,2.27,6.28,6.28,0,0,0-.91,3.15A10,10,0,0,0,140.18,150.49Zm0,0a16,16,0,0,1-1.93-2.89,13.58,13.58,0,0,1-.69-1.62,9.25,9.25,0,0,1-.35-1.74,7.9,7.9,0,0,1,2.65-6.62,10.88,10.88,0,0,1,7-2.82,10.06,10.06,0,0,1,3.92.67,9.54,9.54,0,0,1,3.36,2.26,10.18,10.18,0,0,1,2.13,3.37,11.13,11.13,0,0,1,.55,1.87,7.41,7.41,0,0,1-.94,5.89,9.49,9.49,0,0,1-2.71,2.72,11.88,11.88,0,0,1-6.9,1.93,8.89,8.89,0,0,1-3.41-.82A7.5,7.5,0,0,1,140.18,150.49Z"/><path class="cls-1" d="M108.72,151.39c4.75,6.3,17,1.08,15.46-6.61C120.92,129.94,98.16,138.63,108.72,151.39Z"/><path d="M108.72,151.39a6.76,6.76,0,0,0,2.72,2.1,8,8,0,0,0,3.36.5,9.84,9.84,0,0,0,6-2.69A6.57,6.57,0,0,0,123,146a5,5,0,0,0-.32-1.4c-.08-.25-.15-.5-.25-.73s-.21-.47-.31-.7a8.42,8.42,0,0,0-1.63-2.43c-2.57-2.82-7.51-3.27-11.17-1a7.31,7.31,0,0,0-2.26,2.27,6.34,6.34,0,0,0-.9,3.15A9.94,9.94,0,0,0,108.72,151.39Zm0,0a15.68,15.68,0,0,1-1.92-2.9,12.83,12.83,0,0,1-.7-1.61,9.24,9.24,0,0,1-.34-1.74,7.94,7.94,0,0,1,2.65-6.63,10.84,10.84,0,0,1,7-2.81,10,10,0,0,1,3.92.66,9.85,9.85,0,0,1,3.37,2.26A10.29,10.29,0,0,1,124.8,142a10.41,10.41,0,0,1,.55,1.86,7.43,7.43,0,0,1-.94,5.9,9.3,9.3,0,0,1-2.7,2.71,11.75,11.75,0,0,1-6.9,1.93,8.46,8.46,0,0,1-3.41-.82A7.41,7.41,0,0,1,108.72,151.39Z"/><path class="cls-1" d="M133.06,155.54c4.74,6.3,17,1.08,15.46-6.61C145.26,134.08,122.49,142.77,133.06,155.54Z"/><path d="M133.06,155.54a6.8,6.8,0,0,0,2.71,2.1,8.11,8.11,0,0,0,3.37.5,9.87,9.87,0,0,0,6-2.69,6.57,6.57,0,0,0,2.23-5.35,5.46,5.46,0,0,0-.31-1.4c-.09-.24-.16-.49-.25-.72s-.22-.47-.31-.7a8.86,8.86,0,0,0-1.64-2.44c-2.57-2.81-7.51-3.26-11.17-1a7.17,7.17,0,0,0-2.25,2.27,6.25,6.25,0,0,0-.91,3.15A10,10,0,0,0,133.06,155.54Zm0,0a16.07,16.07,0,0,1-1.93-2.9,12.78,12.78,0,0,1-.69-1.61,9.25,9.25,0,0,1-.35-1.74,7.94,7.94,0,0,1,2.65-6.63,10.87,10.87,0,0,1,7-2.81,10.05,10.05,0,0,1,3.92.66,9.81,9.81,0,0,1,3.36,2.26,10.49,10.49,0,0,1,2.13,3.38,11,11,0,0,1,.55,1.86,7.79,7.79,0,0,1,.24,2,7.65,7.65,0,0,1-1.18,3.87,9.45,9.45,0,0,1-2.71,2.71,11.73,11.73,0,0,1-6.9,1.93,8.72,8.72,0,0,1-3.41-.82A7.29,7.29,0,0,1,133.06,155.54Z"/><path class="cls-1" d="M160.75,148.64a29.18,29.18,0,0,1-14.57,23,28.75,28.75,0,0,1-27.2.23,28.34,28.34,0,0,1-14.56-22.94c17.29,1.87,34.38,1.12,51.66-.82"/><path d="M160.75,148.64a28.68,28.68,0,0,1-8.31,19.41,28.36,28.36,0,0,1-19.82,8.44,34.33,34.33,0,0,1-5.54-.39,27.77,27.77,0,0,1-10.41-3.88,32.58,32.58,0,0,1-4.42-3.42A29.38,29.38,0,0,1,103,149v0a1.42,1.42,0,0,1,1.34-1.48h.24q6.38.76,12.8,1.09c4.28.25,8.58.35,12.87.36,8.6,0,17.21-.36,25.84-.85A220.33,220.33,0,0,1,130.29,151q-6.5.3-13,.19t-13-.78l1.57-1.5a27.25,27.25,0,0,0,8.44,17.79,26.56,26.56,0,0,0,18.31,7.23,34.21,34.21,0,0,0,5.06-.43,30,30,0,0,0,4.92-1.32,29.4,29.4,0,0,0,4.58-2.24,30.51,30.51,0,0,0,4.11-3.07A29.9,29.9,0,0,0,160.75,148.64Z"/><path class="cls-1" d="M86.1,149c3.73,6.95,16.62,3.65,16.28-4.18C101.42,129.62,77.6,134.74,86.1,149Z"/><path d="M86.1,149a6.77,6.77,0,0,0,2.36,2.48,7.91,7.91,0,0,0,3.25,1A9.88,9.88,0,0,0,98,150.72a6.56,6.56,0,0,0,3-4.95,4.73,4.73,0,0,0-.1-1.43c0-.25-.07-.51-.13-.76s-.14-.49-.2-.73a8.66,8.66,0,0,0-1.24-2.66c-2.12-3.17-6.93-4.37-10.89-2.68a7.07,7.07,0,0,0-2.58,1.9,6.25,6.25,0,0,0-1.37,3A9.9,9.9,0,0,0,86.1,149Zm0,0a16.51,16.51,0,0,1-1.47-3.16,13.67,13.67,0,0,1-.44-1.7,9.47,9.47,0,0,1-.07-1.77,7.92,7.92,0,0,1,3.63-6.15,10.88,10.88,0,0,1,7.33-1.71,9.82,9.82,0,0,1,3.77,1.25,9.64,9.64,0,0,1,3,2.74,10.26,10.26,0,0,1,1.59,3.66,10.65,10.65,0,0,1,.26,1.93,7.38,7.38,0,0,1-1.83,5.68A9.39,9.39,0,0,1,98.77,152a11.81,11.81,0,0,1-7.12.85,8.74,8.74,0,0,1-3.25-1.33A7.56,7.56,0,0,1,86.1,149Z"/><path class="cls-1" d="M103,152.87c3.73,6.95,16.63,3.66,16.29-4.17C118.34,133.52,94.51,138.65,103,152.87Z"/><path d="M103,152.87a6.67,6.67,0,0,0,2.37,2.49,7.8,7.8,0,0,0,3.25,1,9.85,9.85,0,0,0,6.31-1.74,6.59,6.59,0,0,0,3-4.94,5.14,5.14,0,0,0-.1-1.44c-.05-.25-.08-.5-.14-.75s-.14-.49-.2-.74a8.49,8.49,0,0,0-1.24-2.65c-2.12-3.18-6.93-4.38-10.89-2.69a7.19,7.19,0,0,0-2.58,1.9,6.24,6.24,0,0,0-1.37,3A10,10,0,0,0,103,152.87Zm0,0a15.89,15.89,0,0,1-1.46-3.16,13.23,13.23,0,0,1-.44-1.7,8.69,8.69,0,0,1-.08-1.77,7.92,7.92,0,0,1,3.63-6.14,10.84,10.84,0,0,1,7.33-1.72,9.88,9.88,0,0,1,3.77,1.25,9.58,9.58,0,0,1,3,2.75,10.24,10.24,0,0,1,1.58,3.66,9.64,9.64,0,0,1,.26,1.92,7.42,7.42,0,0,1-.07,2,7.64,7.64,0,0,1-1.75,3.65,9.65,9.65,0,0,1-3.09,2.27,11.86,11.86,0,0,1-7.11.86,8.78,8.78,0,0,1-3.25-1.34A7.49,7.49,0,0,1,103,152.87Z"/><path class="cls-1" d="M71.79,149c3.73,6.95,16.62,3.65,16.28-4.18C87.11,129.62,63.29,134.74,71.79,149Z"/><path d="M71.79,149a6.77,6.77,0,0,0,2.36,2.48,7.86,7.86,0,0,0,3.25,1,9.88,9.88,0,0,0,6.32-1.74,6.56,6.56,0,0,0,3-4.95,4.73,4.73,0,0,0-.1-1.43c0-.25-.07-.51-.13-.76s-.14-.49-.2-.73a8.89,8.89,0,0,0-1.24-2.66c-2.12-3.17-6.93-4.37-10.89-2.68a7,7,0,0,0-2.58,1.9,6.25,6.25,0,0,0-1.37,3A9.9,9.9,0,0,0,71.79,149Zm0,0a16.51,16.51,0,0,1-1.47-3.16,13.67,13.67,0,0,1-.44-1.7,8.69,8.69,0,0,1-.07-1.77,7.92,7.92,0,0,1,3.63-6.15,10.88,10.88,0,0,1,7.33-1.71,9.54,9.54,0,0,1,6.75,4,10.26,10.26,0,0,1,1.59,3.66,11.62,11.62,0,0,1,.26,1.93,7.85,7.85,0,0,1-.07,2,7.49,7.49,0,0,1-1.76,3.64A9.39,9.39,0,0,1,84.46,152a11.81,11.81,0,0,1-7.12.85,8.6,8.6,0,0,1-3.25-1.33A7.46,7.46,0,0,1,71.79,149Z"/><path class="cls-1" d="M95.2,156.77c3.74,6.95,16.63,3.66,16.29-4.17C110.53,137.43,86.71,142.55,95.2,156.77Z"/><path d="M95.2,156.77a6.67,6.67,0,0,0,2.37,2.49,8,8,0,0,0,3.25,1,9.88,9.88,0,0,0,6.32-1.75,6.53,6.53,0,0,0,3-4.94,5.07,5.07,0,0,0-.1-1.43c0-.26-.07-.51-.13-.76a6.77,6.77,0,0,1-.2-.74,8.86,8.86,0,0,0-1.25-2.65c-2.11-3.17-6.92-4.38-10.89-2.69a7.27,7.27,0,0,0-2.57,1.9,6.44,6.44,0,0,0-1.38,3A10,10,0,0,0,95.2,156.77Zm0,0a16.67,16.67,0,0,1-1.46-3.15,14.14,14.14,0,0,1-.44-1.7,8.82,8.82,0,0,1-.07-1.78A7.91,7.91,0,0,1,96.85,144a10.87,10.87,0,0,1,7.34-1.72,10.17,10.17,0,0,1,3.77,1.25,9.66,9.66,0,0,1,3,2.75,10.44,10.44,0,0,1,1.59,3.66,11.48,11.48,0,0,1,.26,1.93,7.53,7.53,0,0,1-1.83,5.68,9.3,9.3,0,0,1-3.09,2.27,11.78,11.78,0,0,1-7.11.86,8.77,8.77,0,0,1-3.25-1.33A7.43,7.43,0,0,1,95.2,156.77Z"/><path d="M229.11,39l-19.23.44q-9.6.23-19.14.37c-12.72.21-25.43.48-38.07.59l-37.88.43c-12.61,0-25.2.18-37.79.14l2-1.29q-3.24,7.44-6.66,14.79c-2.29,4.89-4.63,9.75-7,14.6-4.7,9.71-9.4,19.38-13.85,29.17l.12-1.1a18.33,18.33,0,0,0,4.69,9.58,13.69,13.69,0,0,0,9.55,4,18,18,0,0,0,10.3-3.16,23.83,23.83,0,0,0,7.5-8.23l0,0a1.32,1.32,0,0,1,1.79-.5,1.34,1.34,0,0,1,.62.79,18.5,18.5,0,0,0,5.15,8.83,14.27,14.27,0,0,0,9.36,3.71,16.33,16.33,0,0,0,9.79-3.17,19.31,19.31,0,0,0,6.44-8.29h0a.71.71,0,0,1,.94-.39.73.73,0,0,1,.43.48,19.87,19.87,0,0,0,6,9.75,15.89,15.89,0,0,0,21.15.06,23.35,23.35,0,0,0,6.49-9.57.71.71,0,0,1,.93-.4.7.7,0,0,1,.4.39v0a23.36,23.36,0,0,0,6.4,9.31,14.51,14.51,0,0,0,10.19,3.59,16.66,16.66,0,0,0,9.95-4.29,28.22,28.22,0,0,0,6.62-9,1.44,1.44,0,0,1,1.93-.66,1.41,1.41,0,0,1,.72.8l0,0a20.19,20.19,0,0,0,5.56,8.65,13.51,13.51,0,0,0,4.26,2.54,13.09,13.09,0,0,0,4.85.73,15.36,15.36,0,0,0,9.15-3.66,18.76,18.76,0,0,0,5.63-8.37h0a1.79,1.79,0,0,1,3.2-.4,25.12,25.12,0,0,0,7.66,7.92,15.94,15.94,0,0,0,4.93,2,13.21,13.21,0,0,0,5.24.08,14.45,14.45,0,0,0,8.82-5.61,23,23,0,0,0,4.23-10.19l.07.72c-3.32-9.6-7-19.1-10.95-28.49-2-4.7-3.94-9.39-6-14-1.05-2.32-2.11-4.63-3.21-6.93Zm.21-.34c.65,1.1,1.34,2.26,2,3.4l1.86,3.35q1.82,3.38,3.55,6.79c2.31,4.56,4.57,9.15,6.7,13.79,4.24,9.3,8.24,18.71,11.9,28.29a1.29,1.29,0,0,1,.07.67v0a25.48,25.48,0,0,1-4.6,11.65,17.75,17.75,0,0,1-10.71,7,16.56,16.56,0,0,1-6.58,0,19.64,19.64,0,0,1-6-2.43,28.63,28.63,0,0,1-8.85-9l3.21-.41a21.89,21.89,0,0,1-6.74,10,18.47,18.47,0,0,1-11.33,4.38,16.09,16.09,0,0,1-11.39-4.3,23.28,23.28,0,0,1-6.14-10.17l2.67.19a30.69,30.69,0,0,1-7.6,9.63A18.84,18.84,0,0,1,169.79,116a16.39,16.39,0,0,1-11.4-4.4,26,26,0,0,1-6.61-10.1h1.35a25.83,25.83,0,0,1-7,10,18.77,18.77,0,0,1-5.32,3.14,17.45,17.45,0,0,1-17.52-3.16,21.21,21.21,0,0,1-6.49-10.38l1.37.08a21.83,21.83,0,0,1-6.79,9.09,18.14,18.14,0,0,1-10.79,3.8,16.47,16.47,0,0,1-10.87-4,21,21,0,0,1-6.17-9.81l2.42.25A26.57,26.57,0,0,1,77.83,110a21,21,0,0,1-12,3.93,17.44,17.44,0,0,1-6.41-1.2,17.15,17.15,0,0,1-5.53-3.58A18.84,18.84,0,0,1,50,103.9a25.14,25.14,0,0,1-2-6.08,1.73,1.73,0,0,1,.11-1.06v0c4.37-9.89,9-19.65,13.55-29.4q3.44-7.3,6.79-14.64C70.7,47.79,72.91,42.9,75,38A2.14,2.14,0,0,1,77,36.68h0c12.77,0,25.55.09,38.32.14l38.22.43c12.73.11,25.4.38,38,.59q9.49.15,18.92.37Z"/><path d="M151.36,238.28a47.94,47.94,0,0,1-12.79,33,46.56,46.56,0,0,1-14.89,10.65,46.06,46.06,0,0,1-18.06,3.93A47.14,47.14,0,0,1,62.21,220.3a46.77,46.77,0,0,1,43.41-28.55,46.38,46.38,0,0,1,17.71,3.78,45.82,45.82,0,0,1,14.78,10.26A47.32,47.32,0,0,1,151.36,238.28Zm-.4,0a44.55,44.55,0,0,0-3.45-17.35A44.87,44.87,0,0,0,74.34,207a43.77,43.77,0,0,0-9.13,48,44.48,44.48,0,0,0,40.41,26.8,45.63,45.63,0,0,0,31.44-12.09,44.59,44.59,0,0,0,10.17-14.21c.52-1.38,1.1-2.74,1.58-4.13s.84-2.84,1.16-4.28.5-2.92.71-4.39Z"/><path d="M103.64,201.49q.87,7.22,1.43,14.47c.19,2.42.42,4.84.45,7.26s0,4.86-.21,7.29a.07.07,0,0,1-.06,0,0,0,0,0,1,0,0c-.35-2.42-.5-4.83-.69-7.25s-.17-4.83-.25-7.25q-.28-7.26-.73-14.51a.06.06,0,0,1,0-.06A0,0,0,0,1,103.64,201.49Z"/><path d="M111.42,232.77c1.61-1.94,3.38-3.72,5.12-5.51s3.66-3.41,5.51-5.1q5.52-5.07,11.11-10.1a.06.06,0,0,1,.07,0s0,.05,0,.07q-5.28,5.33-10.63,10.6c-1.78,1.77-3.52,3.57-5.37,5.25s-3.74,3.34-5.75,4.85a0,0,0,0,1-.07,0S111.4,232.78,111.42,232.77Z"/><path d="M95.16,248.25c-1.43,1.84-3,3.55-4.49,5.31s-3.15,3.38-4.7,5.1q-4.62,5.18-8.94,10.63s0,0-.07,0a.06.06,0,0,1,0-.07q4-5.72,8.42-11.09c1.47-1.8,2.94-3.6,4.57-5.26a55.94,55.94,0,0,1,5.15-4.7,0,0,0,0,1,.07,0S95.18,248.23,95.16,248.25Z"/><path d="M105.58,247.81c.32,2.5.42,5,.55,7.51s0,5,0,7.51q0,7.53-.16,15a.05.05,0,0,1,0,.05,0,0,0,0,1,0-.05q-.31-7.51-.54-15c-.09-2.5-.23-5-.19-7.51s.1-5,.35-7.52a.06.06,0,0,1,.06-.05S105.58,247.78,105.58,247.81Z"/><path d="M246.36,238.28a47.94,47.94,0,0,1-12.79,33,46.56,46.56,0,0,1-14.89,10.65,46.06,46.06,0,0,1-18.06,3.93,47.14,47.14,0,0,1-43.41-65.52,46.77,46.77,0,0,1,43.41-28.55,46.38,46.38,0,0,1,17.71,3.78,45.82,45.82,0,0,1,14.78,10.26A47.32,47.32,0,0,1,246.36,238.28Zm-.4,0a44.55,44.55,0,0,0-3.45-17.35A44.87,44.87,0,0,0,169.34,207a43.77,43.77,0,0,0-9.13,48,44.48,44.48,0,0,0,40.41,26.8,45.63,45.63,0,0,0,31.44-12.09,44.59,44.59,0,0,0,10.17-14.21c.52-1.38,1.1-2.74,1.58-4.13s.84-2.84,1.16-4.28.5-2.92.71-4.39Z"/><path d="M206.42,232.77c1.61-1.94,3.38-3.72,5.12-5.51s3.66-3.41,5.51-5.1q5.52-5.07,11.11-10.1a.06.06,0,0,1,.07,0s0,.05,0,.07q-5.28,5.33-10.63,10.6c-1.78,1.77-3.52,3.57-5.37,5.25s-3.74,3.34-5.75,4.85a0,0,0,0,1-.07,0S206.4,232.78,206.42,232.77Z"/><path d="M163.08,240.68q6.63-.52,13.29-.67c2.21-.06,4.43-.15,6.65,0a59.08,59.08,0,0,1,6.63.67,0,0,0,0,1,0,.06,0,0,0,0,1,0,0c-2.23.18-4.44.18-6.65.23s-4.42-.12-6.63-.17q-6.65-.13-13.28,0a0,0,0,0,1-.05-.05A0,0,0,0,1,163.08,240.68Z"/><path d="M210.08,239.68a61.82,61.82,0,0,1,6.63-.69c2.22-.12,4.44,0,6.66,0q6.65.12,13.28.64a.05.05,0,0,1,0,0s0,.05,0,.05q-6.65-.09-13.28.06c-2.22.05-4.42.19-6.63.18s-4.43,0-6.65-.21a.05.05,0,0,1-.05-.05A0,0,0,0,1,210.08,239.68Z"/><path d="M190.16,248.25c-1.43,1.84-3,3.55-4.49,5.31s-3.15,3.38-4.7,5.1q-4.62,5.18-8.94,10.63s-.05,0-.07,0a.06.06,0,0,1,0-.07q4-5.72,8.42-11.09c1.47-1.8,2.94-3.6,4.57-5.26a55.94,55.94,0,0,1,5.15-4.7,0,0,0,0,1,.07,0S190.18,248.23,190.16,248.25Z"/><path d="M56.29,110.64l-.72.07.26-.27,1,30.95.75,30.94q.2,7.74.47,15.48t0,15.47c-.17,5.15-.37,10.31-.74,15.46s-.79,10.32-1.5,15.48a.25.25,0,0,1-.28.21.27.27,0,0,1-.22-.21c-.71-5.16-1.15-10.32-1.5-15.48s-.57-10.32-.74-15.47-.15-10.32,0-15.48.34-10.31.47-15.47l.75-30.94.47-15.47c.16-5.16.29-10.32.54-15.48h0a.28.28,0,0,1,.26-.26l.71,0a.25.25,0,0,1,.26.24A.24.24,0,0,1,56.29,110.64Z"/><path d="M250.88,107.86l-.26-.24.45-.19c.4,10.75.66,21.49,1,32.24l.75,32.23c.14,5.38.29,10.75.48,16.12s.16,10.75,0,16.12-.37,10.74-.74,16.11-.79,10.75-1.5,16.12a.26.26,0,0,1-.29.22.25.25,0,0,1-.21-.22c-.72-5.37-1.16-10.74-1.51-16.12s-.57-10.74-.74-16.11-.14-10.75,0-16.12.34-10.74.47-16.12l.75-32.23c.33-10.75.6-21.49,1-32.24v0a.24.24,0,0,1,.26-.24.23.23,0,0,1,.18.08l.24.25a.25.25,0,0,1,0,.36A.25.25,0,0,1,250.88,107.86Z"/><path d="M64.2,175.57h-.74v-.42l44.24-.8,44.23-.6c14.75-.17,29.49-.68,44.24-.39,7.37.14,14.75.31,22.12.6s14.74.66,22.12,1.2a.2.2,0,0,1,.18.22.19.19,0,0,1-.18.18q-11.07.81-22.12,1.2c-7.37.3-14.75.46-22.12.6-14.75.29-29.49-.22-44.24-.39l-44.23-.6-44.24-.8h0a.21.21,0,0,1-.21-.21.22.22,0,0,1,.22-.21h.74a.2.2,0,1,1,0,.4Z"/><path class="cls-1" d="M123.63,154.17a29.22,29.22,0,0,1-17.91,20.53,28.79,28.79,0,0,1-26.92-3.92,28.34,28.34,0,0,1-10.89-24.89c16.8,4.48,33.81,6.34,51.18,7.06"/><path d="M123.63,154.17a28.77,28.77,0,0,1-11.17,17.92,28.4,28.4,0,0,1-20.88,5.32,34.68,34.68,0,0,1-5.41-1.22A32.2,32.2,0,0,1,81.05,174a30.88,30.88,0,0,1-4.58-3.21,32,32,0,0,1-3.85-4,29.4,29.4,0,0,1-6.13-21v0A1.41,1.41,0,0,1,68,144.47a.85.85,0,0,1,.23,0q6.18,1.74,12.49,3c4.19.91,8.42,1.66,12.67,2.32,8.49,1.34,17.06,2.26,25.66,3.1a222.37,222.37,0,0,1-25.92-1.14c-4.31-.45-8.61-1.06-12.89-1.79s-8.53-1.68-12.74-2.75L69.32,146A27.2,27.2,0,0,0,75,164.89a26.57,26.57,0,0,0,17,9.94,35.8,35.8,0,0,0,5.07.35,30.73,30.73,0,0,0,5.06-.56,26.82,26.82,0,0,0,9.39-3.93A29.93,29.93,0,0,0,123.63,154.17Z"/><path d="M231.58,172.15,231.11,157c-.17-5-.33-9.87-.42-14.75l.89.89-15,.27c-5,.09-10,.14-15,.18l-15,.11-15,.05,1.5-1.47c-.08,5.39-.06,10.83,0,16.25l.11,8.13c0,2.71.1,5.43.24,8.09l-1.81-1.16a6,6,0,0,1,1-.32,3.62,3.62,0,0,1,1.36,0l-.32,0q7.09-.26,14.22-.41t14.32-.31Zm0,0-28.48,2q-7.23.51-14.53.94c-4.86.3-9.73.59-14.62.83h-.25l-.07,0a.71.71,0,0,0-.33,0,5.07,5.07,0,0,0-.59.2,1.32,1.32,0,0,1-1.72-.75,1.24,1.24,0,0,1-.09-.38v0c-.2-2.76-.3-5.47-.4-8.2s-.14-5.44-.19-8.16l-.08-8.16c0-2.73,0-5.44,0-8.19h0a1.48,1.48,0,0,1,1.49-1.46l15,0,15,.12q7.49,0,15,.18l15,.27h0a.86.86,0,0,1,.85.88c-.09,5.09-.25,10.14-.42,15.12Z"/><path d="M173.65,148c4.55-.62,9.09-1,13.64-1.17,2.27-.14,4.54-.17,6.81-.25l6.82-.08c4.55,0,9.09.11,13.64.33s9.09.54,13.64,1.17c-4.55.62-9.09.95-13.64,1.17s-9.09.34-13.64.33l-6.82-.09c-2.27-.08-4.54-.11-6.81-.25C182.74,148.93,178.2,148.61,173.65,148Z"/><path d="M174.15,156.54c4.67-.62,9.34-.95,14-1.17,2.33-.14,4.67-.17,7-.25l7-.08,7,.08c2.33.08,4.67.11,7,.25,4.67.22,9.34.54,14,1.17-4.67.62-9.34,1-14,1.17-2.33.14-4.67.16-7,.25l-7,.08-7-.09c-2.33-.08-4.67-.11-7-.25C183.49,157.48,178.82,157.16,174.15,156.54Z"/><path d="M174.64,165.71l-.25,0v-.07c4.67-.61,9.34-.92,14-1.14,2.34-.14,4.67-.16,7-.24l7-.08,7,.08c2.34.08,4.67.11,7,.25,4.67.22,9.34.54,14,1.17-4.67.62-9.34.94-14,1.16-2.34.14-4.67.17-7,.25l-7,.09-7-.08c-2.34-.09-4.67-.11-7-.25-4.67-.21-9.34-.53-14-1.14h0s0,0,0,0a0,0,0,0,1,0,0Z"/><path d="M244.22,110.79a1.74,1.74,0,0,0-.49,2.18.14.14,0,0,1,0,.06v.06c.49,5.2.77,10.41,1,15.61.07,2.61.16,5.21.19,7.81s.07,5.21.05,7.81c0,5.2-.11,10.41-.35,15.61s-.54,10.41-1.14,15.62c-.6-5.21-.92-10.41-1.14-15.62s-.32-10.41-.35-15.61c0-2.6,0-5.21.05-7.81s.12-5.2.19-7.81c.2-5.2.48-10.41,1-15.61l0,.12a1.82,1.82,0,0,1,.07-1.45A1.91,1.91,0,0,1,244.22,110.79Z"/><path d="M62.65,114.87c.62,4.86.94,9.73,1.16,14.59.14,2.44.17,4.87.25,7.3l.08,7.3-.07,7.3c-.09,2.43-.11,4.86-.25,7.3-.22,4.86-.55,9.73-1.17,14.59-.63-4.86-1-9.73-1.18-14.59-.13-2.44-.16-4.87-.24-7.3l-.08-7.3.08-7.3c.08-2.43.11-4.86.25-7.3C61.7,124.6,62,119.73,62.65,114.87Z"/><circle cx="105.32" cy="238.32" r="6"/><circle cx="198.82" cy="238.82" r="6"/></g></svg>