<svg width="18" height="21" viewBox="0 0 18 21" fill="none" xmlns="http://www.w3.org/2000/svg">
<path d="M9.00004 4.05957C8.45004 4.05957 7.97921 3.86374 7.58754 3.47207C7.19587 3.0804 7.00004 2.60957 7.00004 2.05957C7.00004 1.50957 7.19587 1.03874 7.58754 0.64707C7.97921 0.255404 8.45004 0.0595703 9.00004 0.0595703C9.55004 0.0595703 10.0209 0.255404 10.4125 0.64707C10.8042 1.03874 11 1.50957 11 2.05957C11 2.60957 10.8042 3.0804 10.4125 3.47207C10.0209 3.86374 9.55004 4.05957 9.00004 4.05957ZM6.00004 19.0596V7.05957C5.18337 6.9929 4.35837 6.90124 3.52504 6.78457C2.69171 6.6679 1.87504 6.5179 1.07504 6.33457C0.791706 6.2679 0.562539 6.10957 0.387539 5.85957C0.212539 5.60957 0.166706 5.3429 0.250039 5.05957C0.333373 4.77624 0.508373 4.5679 0.775039 4.43457C1.04171 4.30124 1.32504 4.2679 1.62504 4.33457C2.79171 4.58457 4.00421 4.7679 5.26254 4.88457C6.52087 5.00124 7.76671 5.05957 9.00004 5.05957C10.2334 5.05957 11.4792 5.00124 12.7375 4.88457C13.9959 4.7679 15.2084 4.58457 16.375 4.33457C16.675 4.2679 16.9584 4.30124 17.225 4.43457C17.4917 4.5679 17.6667 4.77624 17.75 5.05957C17.8334 5.3429 17.7875 5.60957 17.6125 5.85957C17.4375 6.10957 17.2084 6.2679 16.925 6.33457C16.125 6.5179 15.3084 6.6679 14.475 6.78457C13.6417 6.90124 12.8167 6.9929 12 7.05957V19.0596C12 19.3429 11.9042 19.5804 11.7125 19.7721C11.5209 19.9637 11.2834 20.0596 11 20.0596C10.7167 20.0596 10.4792 19.9637 10.2875 19.7721C10.0959 19.5804 10 19.3429 10 19.0596V14.0596H8.00004V19.0596C8.00004 19.3429 7.90421 19.5804 7.71254 19.7721C7.52087 19.9637 7.28337 20.0596 7.00004 20.0596C6.71671 20.0596 6.47921 19.9637 6.28754 19.7721C6.09587 19.5804 6.00004 19.3429 6.00004 19.0596Z" fill="#3E150F"/>
</svg>
