<svg width="48" height="49" viewBox="0 0 48 49" fill="none" xmlns="http://www.w3.org/2000/svg">
<mask id="mask0_28_948" style="mask-type:alpha" maskUnits="userSpaceOnUse" x="0" y="0" width="48" height="49">
<rect y="0.940918" width="48" height="48" fill="#D9D9D9"/>
</mask>
<g mask="url(#mask0_28_948)">
<path d="M34.25 26.3409H9.5C9.06667 26.3409 8.70833 26.1993 8.425 25.9159C8.14167 25.6326 8 25.2743 8 24.8409C8 24.4076 8.14167 24.0493 8.425 23.7659C8.70833 23.4826 9.06667 23.3409 9.5 23.3409H34.25L26.85 15.9409C26.55 15.6409 26.4083 15.2909 26.425 14.8909C26.4417 14.4909 26.6 14.1409 26.9 13.8409C27.2 13.5409 27.55 13.3909 27.95 13.3909C28.35 13.3909 28.7 13.5409 29 13.8409L38.95 23.7909C39.1167 23.9576 39.2333 24.1243 39.3 24.2909C39.3667 24.4576 39.4 24.6409 39.4 24.8409C39.4 25.0409 39.3667 25.2243 39.3 25.3909C39.2333 25.5576 39.1167 25.7243 38.95 25.8909L29.05 35.7909C28.75 36.0909 28.4 36.2409 28 36.2409C27.6 36.2409 27.25 36.0909 26.95 35.7909C26.65 35.4909 26.5 35.1326 26.5 34.7159C26.5 34.2993 26.65 33.9409 26.95 33.6409L34.25 26.3409Z" fill="#3E150F"/>
</g>
</svg>
