<svg xmlns="http://www.w3.org/2000/svg" viewBox="0 0 297.64 297.64"><defs><style>.cls-1{fill:#fff;}</style></defs><g id="Layer_2" data-name="Layer 2"><path d="M183.33,150.24a106.66,106.66,0,0,1,17.88,20.44,147.1,147.1,0,0,1,12.92,24A161.21,161.21,0,0,1,223,220.46a171.21,171.21,0,0,1,4.37,26.87l-.3,0c-2.32-8.77-4.48-17.51-7-26.15s-4.91-17.28-8.2-25.64a145.34,145.34,0,0,0-12-24.1,105.72,105.72,0,0,0-16.82-21Z"/><path d="M177.68,157.5A152.16,152.16,0,0,1,192,181.07a157.13,157.13,0,0,1,9.75,25.87,129.9,129.9,0,0,1,4.93,27.26A110.88,110.88,0,0,1,205,261.8l-.3,0a241.1,241.1,0,0,0-1-27.33,197.85,197.85,0,0,0-4.27-26.9,154.86,154.86,0,0,0-8.78-25.84,151.38,151.38,0,0,0-13.16-24Z"/><path d="M169.11,167.48a96.93,96.93,0,0,1,12,23.88A135.45,135.45,0,0,1,187,217.54a172.67,172.67,0,0,1,1.54,26.78A231,231,0,0,1,186.23,271l-.3,0c-.36-8.92-.27-17.8-.41-26.66s-.08-17.69-.93-26.49a133.46,133.46,0,0,0-4.9-26,95.9,95.9,0,0,0-10.83-24.17Z"/><path d="M55.12,137.58a32.38,32.38,0,0,1-7.65-6.8,40.56,40.56,0,0,1-8.73-18.5,32.56,32.56,0,0,1-.38-10.23c.8,3.32,1.63,6.53,2.65,9.65a79,79,0,0,0,8.34,17.7C51.11,132.18,53.06,134.86,55.12,137.58Z"/><path class="cls-1" d="M11.05,66.13c48.33,41.52,140.38,36.17,168.77,78.69a113.66,113.66,0,0,1-17.91,18.28C95.2,108.85,70.12,136.27,7.19,97.71"/><path d="M11.15,66a114.86,114.86,0,0,0,9.57,6.85c3.29,2.13,6.72,4,10.17,5.88a182.52,182.52,0,0,0,21.49,9.44c14.68,5.52,29.85,9.65,45,14q11.36,3.25,22.62,6.87c7.51,2.43,14.95,5.08,22.24,8.14a127.64,127.64,0,0,1,21,10.91,70.34,70.34,0,0,1,9.35,7.33,59.85,59.85,0,0,1,7.8,9l.26.38-.29.39a120.24,120.24,0,0,1-8.34,9.85,129,129,0,0,1-9.39,8.88l-.67.57-.72-.57c-11.09-8.69-22.69-16.76-35.16-23.18a150.92,150.92,0,0,0-19.29-8.24,194.64,194.64,0,0,0-20.25-5.68c-13.73-3-27.79-5.58-41.31-10.16a163.81,163.81,0,0,1-19.68-8.23A184.86,184.86,0,0,1,7.11,97.83l.16-.25a189.34,189.34,0,0,0,38.63,17,210.37,210.37,0,0,0,20.47,5.11l10.4,2c3.47.68,7,1.38,10.43,2.13a167.61,167.61,0,0,1,20.62,5.7,140.86,140.86,0,0,1,19.61,8.62,187.25,187.25,0,0,1,18.25,11.15c5.85,4.06,11.44,8.46,16.92,13h-1.39a125.21,125.21,0,0,0,9.55-8.4,112.53,112.53,0,0,0,8.54-9.45l0,.77a57.93,57.93,0,0,0-16.58-16.28A86.16,86.16,0,0,0,152.54,123c-3.51-1.77-7.11-3.32-10.76-4.76-14.65-5.67-29.95-9.42-45.13-13.55-7.6-2.07-15.19-4.21-22.72-6.56s-15-4.9-22.37-7.83a177.09,177.09,0,0,1-21.4-10.23,112,112,0,0,1-10-6.39A94.39,94.39,0,0,1,11,66.24Z"/><path class="cls-1" d="M95.44,94.26c8.38,18.83,27.52,19.62,33.64,30.22,3.23,9.93,10.23,24.09,23,19.1-.31-10.86-.7-22.07-5.28-31.93-6.62-11-12.65-22.65-19.75-33.34-12.71-15.89-33.71-19.9-50-30.57C59.9,36.55,46.82,20.45,31.23,7.42"/><path d="M95.58,94.2a35.51,35.51,0,0,0,6.59,9.24,46.33,46.33,0,0,0,9,6.84c3.25,1.94,6.67,3.65,10,5.62a34.94,34.94,0,0,1,4.88,3.35,18.65,18.65,0,0,1,4,4.62.66.66,0,0,1,.09.19l0,0a62.14,62.14,0,0,0,3.17,7.67,32.36,32.36,0,0,0,4.45,6.79,14,14,0,0,0,6.27,4.35,12,12,0,0,0,7.55-.37l-.72,1.07c0-5.43-.05-10.83-.6-16.2a56.53,56.53,0,0,0-1.34-8,42.81,42.81,0,0,0-2.63-7.61l0,0c-3.33-5.55-6.51-11.18-9.86-16.7s-6.73-11-10.41-16.28l.06.08a50.07,50.07,0,0,0-11-9.66,97.43,97.43,0,0,0-13-7.15c-4.49-2.13-9.11-4.06-13.65-6.26a94.84,94.84,0,0,1-13.29-7.44Q72.18,46.33,69.18,44c-2-1.57-3.91-3.21-5.81-4.88-3.78-3.34-7.4-6.84-11-10.37L41.89,18c-3.51-3.57-7.07-7.07-10.75-10.47a.14.14,0,0,1,0-.21.15.15,0,0,1,.2,0c4,3,7.81,6.32,11.55,9.66L54,27.11c3.66,3.4,7.36,6.75,11.19,9.91C67.08,38.6,69,40.14,71,41.61s4,2.93,6,4.28C85.26,51.3,94.54,55,103.57,59.5a101.43,101.43,0,0,1,13.19,7.6,51.77,51.77,0,0,1,11.15,10.52l0,0,0,0c3.46,5.51,6.61,11.18,9.71,16.85s6.2,11.34,9.53,16.86c0,0,0,0,0,0a48.25,48.25,0,0,1,2.81,7.73,73.68,73.68,0,0,1,1.71,8,160.29,160.29,0,0,1,1.46,16.32,1.08,1.08,0,0,1-.66,1.06l0,0a16.36,16.36,0,0,1-4.42,1.16,12.91,12.91,0,0,1-4.66-.4,15.93,15.93,0,0,1-7.57-5,32.84,32.84,0,0,1-4.77-7.41,57.18,57.18,0,0,1-3.16-8.07l.11.23A16.55,16.55,0,0,0,124.6,121a38.57,38.57,0,0,0-4.51-3.28c-3.19-2-6.6-3.84-9.83-6a43,43,0,0,1-8.9-7.54,33.27,33.27,0,0,1-6-9.87.14.14,0,0,1,.08-.19A.15.15,0,0,1,95.58,94.2Z"/><path class="cls-1" d="M52.24,116.92c-2.7,6.18,2.21,22.08,8.83,29.42,5.86,6.46,20.09,5.21,13.06-5.23-3.67-6.18-7.28-9-11.19-18.83C61,117.42,54.94,110.74,52.24,116.92Z"/><path d="M52.38,117a11.88,11.88,0,0,0-.47,5.65,28.14,28.14,0,0,0,1.29,5.57c.26.92.64,1.8.95,2.7s.71,1.76,1.11,2.62.78,1.72,1.2,2.57.85,1.68,1.28,2.51a41.15,41.15,0,0,0,2.93,4.73c.27.38.53.76.82,1.1s.57.73.85,1a9.39,9.39,0,0,0,1.93,1.6,12,12,0,0,0,4.83,1.83,6.92,6.92,0,0,0,4.71-.72,2.47,2.47,0,0,0,1-1.62,4.79,4.79,0,0,0-.29-2.31,12.51,12.51,0,0,0-1.2-2.4c-.48-.83-1-1.67-1.49-2.46-2.06-3.19-4.49-6.32-6.33-9.82a57.2,57.2,0,0,1-2.43-5.36c-.35-.91-.65-1.85-1-2.71A17.81,17.81,0,0,0,60.77,119a11.24,11.24,0,0,0-4-4,2.91,2.91,0,0,0-2.67-.15A4.3,4.3,0,0,0,52.38,117Zm-.27-.12A4.57,4.57,0,0,1,54,114.6a3.26,3.26,0,0,1,2.92.11,9.33,9.33,0,0,1,2.41,1.71,17.19,17.19,0,0,1,2,2.2,18,18,0,0,1,1.61,2.49c.47.9.85,1.78,1.26,2.65a55.68,55.68,0,0,0,2.7,5.06c1.9,3.32,4.37,6.25,6.64,9.48.57.81,1.09,1.62,1.62,2.45a14.6,14.6,0,0,1,1.49,2.74,6.86,6.86,0,0,1,.51,3.39,4.78,4.78,0,0,1-1.88,3.21,7.45,7.45,0,0,1-3.2,1.34,12.24,12.24,0,0,1-3.25.11,15,15,0,0,1-6.08-1.95,12.22,12.22,0,0,1-2.58-2c-.4-.39-.69-.78-1-1.18a11.91,11.91,0,0,1-.94-1.21A34,34,0,0,1,55.07,140a40.6,40.6,0,0,1-3.44-11.39,39,39,0,0,1-.47-5.9A14.41,14.41,0,0,1,52.11,116.86Z"/><path class="cls-1" d="M70.42,118.69c-4,4,3.23,33.27,15.36,40.13,7.64,4.31,18-.19,12.3-7.52C92.32,144.63,79.25,109.83,70.42,118.69Z"/><path d="M70.52,118.8A5.67,5.67,0,0,0,69.6,122a21.39,21.39,0,0,0,.2,3.48,41.8,41.8,0,0,0,1.58,6.79c.68,2.23,1.49,4.4,2.38,6.54s1.82,4.24,2.87,6.28A52,52,0,0,0,80.07,151a25.55,25.55,0,0,0,4.31,5,12.05,12.05,0,0,0,5.55,2.93,10.17,10.17,0,0,0,6.14-.44,4.44,4.44,0,0,0,2.13-1.74,3,3,0,0,0,.4-1.2,4.17,4.17,0,0,0-.14-1.34,6.34,6.34,0,0,0-.6-1.37,11,11,0,0,0-.93-1.35,30,30,0,0,1-2-3.06c-2.35-4.15-4.38-8.38-6.57-12.53-1.07-2.09-2.16-4.16-3.31-6.2s-2.33-4.06-3.66-6a22.53,22.53,0,0,0-4.69-5.14,5.88,5.88,0,0,0-3.18-1.18A4.34,4.34,0,0,0,70.52,118.8Zm-.21-.21a4.63,4.63,0,0,1,3.23-1.44,6.3,6.3,0,0,1,3.34,1.2,23.61,23.61,0,0,1,5,5,95.83,95.83,0,0,1,7.78,11.84c2.33,4.1,4.52,8.29,6.94,12.25a27.63,27.63,0,0,0,1.93,2.8,13.66,13.66,0,0,1,1.12,1.52,8.54,8.54,0,0,1,.86,1.83,6.3,6.3,0,0,1,.28,2.14,5.39,5.39,0,0,1-.62,2.15,6.86,6.86,0,0,1-3.11,2.8,12.67,12.67,0,0,1-7.68.87,15.06,15.06,0,0,1-6.94-3.26,33.52,33.52,0,0,1-8.54-11.89,54.7,54.7,0,0,1-4.11-13.75,58.37,58.37,0,0,1-.77-7.1,26.61,26.61,0,0,1,.09-3.57A5.86,5.86,0,0,1,70.31,118.59Z"/><path class="cls-1" d="M88.85,117.29c-8.46,10.84,9.55,41.35,17.8,43.58,4,1.08,10.95.84,11.38-3.48,1.64-4.87-8.74-18.11-15.67-31.14C97.78,117.64,91.68,113.67,88.85,117.29Z"/><path d="M89,117.39a10.57,10.57,0,0,0-1.61,3.55,15.94,15.94,0,0,0-.31,3.9,28.4,28.4,0,0,0,1.63,7.65,61,61,0,0,0,3.07,7.21q1.73,3.51,3.75,6.86A75.21,75.21,0,0,0,99.87,153a29.5,29.5,0,0,0,5.19,5.48,8.64,8.64,0,0,0,1.45.88,7,7,0,0,0,1.63.47,16.15,16.15,0,0,0,3.67.29,9,9,0,0,0,3.4-.73,2.72,2.72,0,0,0,1.71-2.12v-.1a.57.57,0,0,1,0-.14,5.09,5.09,0,0,0-.14-2.67,20.28,20.28,0,0,0-1.1-3c-.88-2-2-4-3-5.9-2.19-3.89-4.58-7.7-6.79-11.62-1.1-2-2.2-3.93-3.21-5.94a41,41,0,0,0-3.28-5.83,19.14,19.14,0,0,0-4.58-4.79,6.5,6.5,0,0,0-3-1.17A3.16,3.16,0,0,0,89,117.39Zm-.24-.19a3.47,3.47,0,0,1,3.07-1.35A7.07,7.07,0,0,1,95,117a21.14,21.14,0,0,1,4.89,4.69l1,1.37,1,1.41c.59,1,1.17,1.94,1.73,2.91,1.15,1.92,2.31,3.83,3.52,5.72,2.4,3.78,4.84,7.54,7.19,11.4,1.17,1.93,2.32,3.89,3.32,6a22.18,22.18,0,0,1,1.3,3.28,7,7,0,0,1,.21,4l.05-.25a4.74,4.74,0,0,1-.94,2.43,5.55,5.55,0,0,1-.89.92,7.76,7.76,0,0,1-1,.66,11.48,11.48,0,0,1-4.32,1.12,18.66,18.66,0,0,1-4.29-.19,9.76,9.76,0,0,1-2.22-.56,10.81,10.81,0,0,1-2-1.1,28.58,28.58,0,0,1-6-5.88,52.08,52.08,0,0,1-4.59-6.78A51.19,51.19,0,0,1,87,133a32.16,32.16,0,0,1-.73-8.12,17.13,17.13,0,0,1,.65-4A11.09,11.09,0,0,1,88.73,117.2Z"/><path class="cls-1" d="M108.35,116c-8.93,4.62,8.11,34.28,12.1,40.88,2.09,3.47,10.39,5.3,14.23,3.74,11.53-4.68,1.76-14.4-6.38-25.48C123.62,128.8,117.64,114.56,108.35,116Z"/><path d="M108.39,116.17a4.36,4.36,0,0,0-2.06,2.84,10.28,10.28,0,0,0-.11,3.67,31,31,0,0,0,2,7.16c.91,2.32,2,4.58,3.08,6.83s2.23,4.47,3.4,6.68,2.34,4.43,3.55,6.62l1.81,3.3.93,1.63.47.81.23.41.18.27a6.79,6.79,0,0,0,2.42,1.88,15.45,15.45,0,0,0,3.26,1.19A16.49,16.49,0,0,0,131,160a8.52,8.52,0,0,0,3.25-.43c2.18-.84,4.18-2.19,4.52-4.19a6.57,6.57,0,0,0-.32-3.21,18.54,18.54,0,0,0-1.48-3.26c-2.43-4.27-5.68-8.19-8.62-12.31s-5.13-8.77-8-12.9a24.8,24.8,0,0,0-5-5.53,10.86,10.86,0,0,0-3.31-1.71A8.42,8.42,0,0,0,108.39,116.17Zm-.09-.28a9.87,9.87,0,0,1,7.24,2,26.38,26.38,0,0,1,5.37,5.39c1.58,2,3,4.1,4.39,6.22a75,75,0,0,0,4.29,6.16c3,4,6.39,7.8,9.11,12.24a20.82,20.82,0,0,1,1.74,3.58,8.64,8.64,0,0,1,.5,4.24,6.53,6.53,0,0,1-2.2,3.86,12.76,12.76,0,0,1-3.55,2.16,11,11,0,0,1-4.18.73,19.34,19.34,0,0,1-4-.42,18.55,18.55,0,0,1-3.89-1.25,9.45,9.45,0,0,1-3.57-2.63,5.3,5.3,0,0,1-.36-.51l-.25-.41-.5-.81-1-1.64c-.65-1.1-1.29-2.2-1.91-3.31-1.23-2.22-2.4-4.49-3.5-6.78a79.83,79.83,0,0,1-5.33-14.36,36.84,36.84,0,0,1-1.22-7.6,11.66,11.66,0,0,1,.42-3.85A4.67,4.67,0,0,1,108.3,115.89Z"/><path class="cls-1" d="M237.25,244.47c-11.2-19,15.9-35.61,32.6-36.19,2.85,19.05-4.6,38.83-26.74,37.49"/><path d="M237.25,244.47a18.24,18.24,0,0,1-2.87-6.67,16.16,16.16,0,0,1,.26-7.41,22.16,22.16,0,0,1,3.22-6.74,32.32,32.32,0,0,1,5-5.53,46.24,46.24,0,0,1,12.51-7.84,42.3,42.3,0,0,1,14.45-3.49l1.34-.06.19,1.33a49.73,49.73,0,0,1,.13,13.84,34.07,34.07,0,0,1-4.5,13.15,22.58,22.58,0,0,1-10.4,9.12,26,26,0,0,1-13.45,1.6,28.16,28.16,0,0,0,12.84-2.9,21.77,21.77,0,0,0,9-9,33.77,33.77,0,0,0,3.7-12.35,50,50,0,0,0-.3-13l1.52,1.27a41,41,0,0,0-13.45,3.16,47.09,47.09,0,0,0-12.07,7,31.66,31.66,0,0,0-4.91,4.91,20.68,20.68,0,0,0-3.39,6,15.4,15.4,0,0,0-.86,6.84A20,20,0,0,0,237.25,244.47Z"/><path class="cls-1" d="M231.37,262.67c3.68-15.87-15.07-23.47-28-24.85-3.93,14.8.87,34.22,19.3,33.83,2.93.15,6.66-1.2,7.67-3.44"/><path d="M231.37,262.67a15.8,15.8,0,0,0-1.59-10.08,20.23,20.23,0,0,0-7.13-7.11,41,41,0,0,0-9.37-4.16,55.58,55.58,0,0,0-10.11-2l1.57-1.08a39.88,39.88,0,0,0-1.19,10.88,32.74,32.74,0,0,0,.64,5.42,26.29,26.29,0,0,0,1.54,5.19,18.32,18.32,0,0,0,6.54,8.29,19.45,19.45,0,0,0,10.35,3.11h0a10.84,10.84,0,0,0,4.18-.46,8.8,8.8,0,0,0,1.95-.89,4.37,4.37,0,0,0,1.52-1.53A4.55,4.55,0,0,1,229,270a8,8,0,0,1-1.92,1.21,10.74,10.74,0,0,1-4.46,1h0a18.78,18.78,0,0,1-19.35-11.44,30.54,30.54,0,0,1-2.67-11.58,37.56,37.56,0,0,1,1.29-11.75l.34-1.22,1.23.14a48.9,48.9,0,0,1,10.63,2.41,38,38,0,0,1,9.75,4.91A20.56,20.56,0,0,1,231,252,15.18,15.18,0,0,1,231.37,262.67Z"/><path class="cls-1" d="M239.26,266.49c5-20.45,32.65-17.93,45.56-6.24-9.3,15.31-28.57,24.61-43.54,10.8"/><path d="M239.26,266.49a20.17,20.17,0,0,1,2.3-6.52,18.34,18.34,0,0,1,4.63-5.31,24.24,24.24,0,0,1,13.32-4.54,37.74,37.74,0,0,1,14,2,35.86,35.86,0,0,1,12.33,7.06l.93.83-.65,1a41.88,41.88,0,0,1-8.72,10.14,33.55,33.55,0,0,1-11.72,6.45,23.88,23.88,0,0,1-13.3.28,24.14,24.14,0,0,1-11.08-6.85,26.1,26.1,0,0,0,11.4,5.45A23.49,23.49,0,0,0,265,275.43a33.3,33.3,0,0,0,10.61-6.4,40.64,40.64,0,0,0,8-9.55l.28,1.88a33.8,33.8,0,0,0-11.28-6.56,37.18,37.18,0,0,0-13-2.31,23.58,23.58,0,0,0-12.54,3.4,17.64,17.64,0,0,0-4.78,4.54A22,22,0,0,0,239.26,266.49Z"/><path d="M236.59,288.12a54.4,54.4,0,0,1-2.49-9.27,59.62,59.62,0,0,1-.83-9.63,61.75,61.75,0,0,1,2.95-19.15,60.73,60.73,0,0,1,3.71-9,51.39,51.39,0,0,1,5.18-8.24c3.95-5.13,9.08-9.55,15.09-11.82A44.55,44.55,0,0,0,247,234.2a60.39,60.39,0,0,0-4.53,8.13c-.68,1.4-1.27,2.84-1.87,4.27s-1.1,2.9-1.54,4.39a66.75,66.75,0,0,0-2.3,9,75.51,75.51,0,0,0-1.17,9.27,81.68,81.68,0,0,0,0,9.39C235.73,281.83,236.11,285,236.59,288.12Z"/><path d="M215,250.63a20.82,20.82,0,0,1,7,2.88,26.63,26.63,0,0,1,5.84,5,27.25,27.25,0,0,1,4.22,6.41,20.92,20.92,0,0,1,2,7.34c-1.36-2.15-2.63-4.21-4-6.16a65.28,65.28,0,0,0-9.42-10.68C218.88,253.75,217,252.24,215,250.63Z"/><path d="M237.62,269.19a21.34,21.34,0,0,1,6.16-6.47,26.93,26.93,0,0,1,8.21-3.84,26.63,26.63,0,0,1,9-.9,21.29,21.29,0,0,1,8.6,2.42,53.8,53.8,0,0,0-8.6-.06,43.63,43.63,0,0,0-16,4.4A53.39,53.39,0,0,0,237.62,269.19Z"/><path class="cls-1" d="M143.25,244.47c-11.2-19,15.9-35.61,32.6-36.19,2.85,19.05-4.6,38.83-26.74,37.49"/><path d="M143.25,244.47a18.24,18.24,0,0,1-2.87-6.67,16.16,16.16,0,0,1,.26-7.41,22.16,22.16,0,0,1,3.22-6.74,32.32,32.32,0,0,1,5-5.53,46.24,46.24,0,0,1,12.51-7.84,42.3,42.3,0,0,1,14.45-3.49l1.34-.06.19,1.33a49.73,49.73,0,0,1,.13,13.84,34.07,34.07,0,0,1-4.5,13.15,22.58,22.58,0,0,1-10.4,9.12,26,26,0,0,1-13.45,1.6,28.16,28.16,0,0,0,12.84-2.9,21.77,21.77,0,0,0,9-9,33.77,33.77,0,0,0,3.7-12.35,50,50,0,0,0-.3-13l1.52,1.27a41,41,0,0,0-13.45,3.16,47.09,47.09,0,0,0-12.07,7,31.66,31.66,0,0,0-4.91,4.91,20.68,20.68,0,0,0-3.39,6,15.4,15.4,0,0,0-.86,6.84A20,20,0,0,0,143.25,244.47Z"/><path class="cls-1" d="M137.37,262.67c3.68-15.87-15.07-23.47-28-24.85-3.93,14.8.87,34.22,19.3,33.83,2.93.15,6.66-1.2,7.67-3.44"/><path d="M137.37,262.67a15.8,15.8,0,0,0-1.59-10.08,20.23,20.23,0,0,0-7.13-7.11,41,41,0,0,0-9.37-4.16,55.58,55.58,0,0,0-10.11-2l1.57-1.08a39.88,39.88,0,0,0-1.19,10.88,32.74,32.74,0,0,0,.64,5.42,26.29,26.29,0,0,0,1.54,5.19,18.32,18.32,0,0,0,6.54,8.29,19.45,19.45,0,0,0,10.35,3.11h0a10.84,10.84,0,0,0,4.18-.46,8.8,8.8,0,0,0,1.95-.89,4.37,4.37,0,0,0,1.52-1.53A4.55,4.55,0,0,1,135,270a8,8,0,0,1-1.92,1.21,10.74,10.74,0,0,1-4.46,1h0a18.78,18.78,0,0,1-19.35-11.44,30.54,30.54,0,0,1-2.67-11.58,37.56,37.56,0,0,1,1.29-11.75l.34-1.22,1.23.14a48.9,48.9,0,0,1,10.63,2.41,38,38,0,0,1,9.75,4.91A20.56,20.56,0,0,1,137,252,15.18,15.18,0,0,1,137.37,262.67Z"/><path class="cls-1" d="M145.26,266.49c5-20.45,32.65-17.93,45.56-6.24-9.3,15.31-28.57,24.61-43.54,10.8"/><path d="M145.26,266.49a20.17,20.17,0,0,1,2.3-6.52,18.34,18.34,0,0,1,4.63-5.31,24.24,24.24,0,0,1,13.32-4.54,37.74,37.74,0,0,1,14,2,35.86,35.86,0,0,1,12.33,7.06l.93.83-.65,1a41.88,41.88,0,0,1-8.72,10.14,33.55,33.55,0,0,1-11.72,6.45,23.88,23.88,0,0,1-13.3.28,24.14,24.14,0,0,1-11.08-6.85,26.1,26.1,0,0,0,11.4,5.45A23.49,23.49,0,0,0,171,275.43a33.3,33.3,0,0,0,10.61-6.4,40.64,40.64,0,0,0,8-9.55l.28,1.88a33.8,33.8,0,0,0-11.28-6.56,37.18,37.18,0,0,0-12.95-2.31,23.58,23.58,0,0,0-12.54,3.4,17.64,17.64,0,0,0-4.78,4.54A22,22,0,0,0,145.26,266.49Z"/><path d="M142.59,288.12a54.4,54.4,0,0,1-2.49-9.27,59.62,59.62,0,0,1-.83-9.63,61.75,61.75,0,0,1,2.95-19.15,60.73,60.73,0,0,1,3.71-9,51.39,51.39,0,0,1,5.18-8.24c3.95-5.13,9.08-9.55,15.09-11.82A44.55,44.55,0,0,0,153,234.2a60.39,60.39,0,0,0-4.53,8.13c-.68,1.4-1.27,2.84-1.87,4.27s-1.1,2.9-1.54,4.39a66.75,66.75,0,0,0-2.3,9,75.51,75.51,0,0,0-1.17,9.27,81.68,81.68,0,0,0,0,9.39C141.73,281.83,142.11,285,142.59,288.12Z"/><path d="M121,250.63a20.82,20.82,0,0,1,7,2.88,26.63,26.63,0,0,1,5.84,5,27.25,27.25,0,0,1,4.22,6.41,20.92,20.92,0,0,1,2,7.34c-1.36-2.15-2.63-4.21-4-6.16a65.28,65.28,0,0,0-9.42-10.68C124.88,253.75,123,252.24,121,250.63Z"/><path d="M143.62,269.19a21.34,21.34,0,0,1,6.16-6.47,26.93,26.93,0,0,1,8.21-3.84,26.63,26.63,0,0,1,9-.9,21.29,21.29,0,0,1,8.6,2.42,53.8,53.8,0,0,0-8.6-.06,43.63,43.63,0,0,0-16,4.4A53.39,53.39,0,0,0,143.62,269.19Z"/><path class="cls-1" d="M49.25,244.47c-11.2-19,15.9-35.61,32.6-36.19,2.85,19.05-4.6,38.83-26.74,37.49"/><path d="M49.25,244.47a18.24,18.24,0,0,1-2.87-6.67,16.16,16.16,0,0,1,.26-7.41,22.16,22.16,0,0,1,3.22-6.74,32.32,32.32,0,0,1,5-5.53,46.24,46.24,0,0,1,12.51-7.84,42.3,42.3,0,0,1,14.45-3.49l1.34-.06.19,1.33a49.73,49.73,0,0,1,.13,13.84A34.07,34.07,0,0,1,79,235.05a22.58,22.58,0,0,1-10.4,9.12,26,26,0,0,1-13.45,1.6A28.16,28.16,0,0,0,68,242.87a21.77,21.77,0,0,0,9-9,33.77,33.77,0,0,0,3.7-12.35,50,50,0,0,0-.3-13l1.52,1.27a41,41,0,0,0-13.45,3.16,47.09,47.09,0,0,0-12.07,7,31.66,31.66,0,0,0-4.91,4.91,20.68,20.68,0,0,0-3.39,6,15.4,15.4,0,0,0-.86,6.84A20,20,0,0,0,49.25,244.47Z"/><path class="cls-1" d="M43.37,262.67c3.68-15.87-15.07-23.47-28-24.85-3.93,14.8.87,34.22,19.3,33.83,2.93.15,6.66-1.2,7.67-3.44"/><path d="M43.37,262.67a15.8,15.8,0,0,0-1.59-10.08,20.23,20.23,0,0,0-7.13-7.11,41,41,0,0,0-9.37-4.16,55.58,55.58,0,0,0-10.11-2l1.57-1.08a39.88,39.88,0,0,0-1.19,10.88,32.74,32.74,0,0,0,.64,5.42,26.29,26.29,0,0,0,1.54,5.19A18.32,18.32,0,0,0,24.27,268a19.45,19.45,0,0,0,10.35,3.11h0a10.84,10.84,0,0,0,4.18-.46,8.8,8.8,0,0,0,2-.89,4.37,4.37,0,0,0,1.52-1.53A4.55,4.55,0,0,1,41,270a8,8,0,0,1-1.92,1.21,10.74,10.74,0,0,1-4.46,1h0a19.87,19.87,0,0,1-11.48-2.45,19.74,19.74,0,0,1-7.87-9,30.54,30.54,0,0,1-2.67-11.58,37.56,37.56,0,0,1,1.29-11.75l.34-1.22,1.23.14a48.9,48.9,0,0,1,10.63,2.41,38,38,0,0,1,9.75,4.91A20.56,20.56,0,0,1,43,252,15.18,15.18,0,0,1,43.37,262.67Z"/><path class="cls-1" d="M51.26,266.49c5-20.45,32.65-17.93,45.56-6.24-9.3,15.31-28.57,24.61-43.54,10.8"/><path d="M51.26,266.49a20.17,20.17,0,0,1,2.3-6.52,18.34,18.34,0,0,1,4.63-5.31,24.24,24.24,0,0,1,13.32-4.54,37.74,37.74,0,0,1,14,2,35.86,35.86,0,0,1,12.33,7.06l.93.83-.65,1a41.88,41.88,0,0,1-8.72,10.14,33.55,33.55,0,0,1-11.72,6.45,23.88,23.88,0,0,1-13.3.28,24.14,24.14,0,0,1-11.08-6.85,26.1,26.1,0,0,0,11.4,5.45A23.49,23.49,0,0,0,77,275.43,33.3,33.3,0,0,0,87.56,269a40.64,40.64,0,0,0,8-9.55l.28,1.88a33.8,33.8,0,0,0-11.28-6.56,37.18,37.18,0,0,0-13-2.31,23.58,23.58,0,0,0-12.54,3.4,17.64,17.64,0,0,0-4.78,4.54A22,22,0,0,0,51.26,266.49Z"/><path d="M48.59,288.12a54.4,54.4,0,0,1-2.49-9.27,59.62,59.62,0,0,1-.83-9.63,61.75,61.75,0,0,1,2.95-19.15,60.73,60.73,0,0,1,3.71-9,51.39,51.39,0,0,1,5.18-8.24c4-5.13,9.08-9.55,15.09-11.82A44.55,44.55,0,0,0,59,234.2a60.39,60.39,0,0,0-4.53,8.13c-.68,1.4-1.27,2.84-1.87,4.27s-1.1,2.9-1.54,4.39a66.75,66.75,0,0,0-2.3,9,75.51,75.51,0,0,0-1.17,9.27,81.68,81.68,0,0,0,0,9.39C47.73,281.83,48.11,285,48.59,288.12Z"/><path d="M27,250.63a20.82,20.82,0,0,1,7,2.88,26.63,26.63,0,0,1,5.84,5,27.25,27.25,0,0,1,4.22,6.41,20.92,20.92,0,0,1,2,7.34c-1.36-2.15-2.63-4.21-4-6.16a65.13,65.13,0,0,0-4.42-5.6,64.71,64.71,0,0,0-5-5.08C30.88,253.75,29,252.24,27,250.63Z"/><path d="M49.62,269.19a21.34,21.34,0,0,1,6.16-6.47A26.93,26.93,0,0,1,64,258.88a26.63,26.63,0,0,1,9-.9,21.29,21.29,0,0,1,8.6,2.42,53.8,53.8,0,0,0-8.6-.06,43.63,43.63,0,0,0-16,4.4A53.39,53.39,0,0,0,49.62,269.19Z"/></g></svg>