<svg xmlns="http://www.w3.org/2000/svg" viewBox="0 0 297.64 297.64"><defs><style>.cls-1{fill:none;stroke:#000;stroke-miterlimit:10;}</style></defs><g id="Layer_1" data-name="Layer 1"><path d="M147.32,97.32c-6.37-.8-14.64-1-19.26,4.06a33,33,0,0,0-6.62,2.2l-.12-.26c-1.1-12.2-1.62-25.24.13-36.85.77,3.76,4.12,8.86,8,8.9,1.48,11.37,5.8,21.5,18.49,18.36a10,10,0,0,1,.1,3.74Z"/><path d="M128.65,60.41c-2.47-.13-5.12.27-6.47,1.91,4.08-19.78,15.82-34.26,44.44-31.08,27.47,3.05,33.1,47.19,38.08,69.38-3.49-.53-6.93,0-11.9-3-3,0-5.44,1.4-7.68,3.65-10.8-3.1-10.43-15.9-8.47-24.53,5.74,1.64,10.41-6.58,9.15-11.59-1.48-5.82-8.39-5.8-11.48-1.82a28.65,28.65,0,0,1-16.64-3.39c-8.29-4.36-14.77-12.34-13.81-21.85-1.22,7.89-6.47,17.64-15.24,17.36,0,1.3,0,2.77,0,4.34C128.65,60,128.65,60.2,128.65,60.41Z"/><ellipse cx="149.47" cy="65.57" rx="1.8" ry="2.25"/><ellipse cx="132.17" cy="64.82" rx="1.6" ry="2"/></g><g id="Layer_2" data-name="Layer 2"><path d="M158.21,62.73c-1.09-.43-2.07-.83-3.06-1.17a25.59,25.59,0,0,0-2.93-.87,9.12,9.12,0,0,0-5.94.33,4.34,4.34,0,0,1,2.77-2.21,7.13,7.13,0,0,1,3.61-.07,9.26,9.26,0,0,1,3.22,1.43A7.25,7.25,0,0,1,158.21,62.73Z"/><path d="M137.3,60.1a17.75,17.75,0,0,0-2.3-.49,14.65,14.65,0,0,0-2.08-.11c-.69,0-1.39.07-2.13.15l-2.4.28a4.64,4.64,0,0,1,1.92-1.78,6,6,0,0,1,2.58-.65,5.28,5.28,0,0,1,2.63.64A3.78,3.78,0,0,1,137.3,60.1Z"/><ellipse cx="149.47" cy="65.57" rx="1.8" ry="2.25"/><ellipse cx="132.17" cy="64.82" rx="1.6" ry="2"/><path d="M128.63,55.37c.39,4.21.54,8.42.89,12.6a83.66,83.66,0,0,0,1.77,12.32c1,4,2.44,7.94,5.3,10.6a10,10,0,0,0,5.17,2.51,17.21,17.21,0,0,0,6-.16l.59-.11,0,.54c.05.65.1,1.3.11,2a5.56,5.56,0,0,1-.28,2,3.61,3.61,0,0,1-1.27,1.6,14.38,14.38,0,0,1-1.66,1A14.89,14.89,0,0,0,146.77,99a3.13,3.13,0,0,0,.92-1.54,10.51,10.51,0,0,0-.29-3.7l.63.43a16.63,16.63,0,0,1-6.49.69,11.2,11.2,0,0,1-6.16-2.64,16,16,0,0,1-3.93-5.37,28.87,28.87,0,0,1-2.06-6.17A60.8,60.8,0,0,1,128.09,68C128.06,63.79,128.3,59.58,128.63,55.37Z"/><path d="M127,55.28a11.56,11.56,0,0,0,6.47-1A14.18,14.18,0,0,0,138.39,50a23.92,23.92,0,0,0,3.15-5.74A27.84,27.84,0,0,0,143.19,38l1.36.18a18,18,0,0,0,2.26,10.32,24.76,24.76,0,0,0,7.13,8,32,32,0,0,0,9.63,4.85,26.08,26.08,0,0,0,10.62,1l-.65.38a8.22,8.22,0,0,1,8.06-3,6.41,6.41,0,0,1,3.82,2.46,7.77,7.77,0,0,1,1.46,4.2,12.3,12.3,0,0,1-2.69,7.95,9.21,9.21,0,0,1-3.34,2.73,6.19,6.19,0,0,1-4.4.34l.9-.53A34.83,34.83,0,0,0,176.54,91a13.9,13.9,0,0,0,2.85,6.41,12.65,12.65,0,0,0,5.93,3.88A12.36,12.36,0,0,1,179,97.76a14.64,14.64,0,0,1-3.34-6.54,26.41,26.41,0,0,1-.66-7.35,41.64,41.64,0,0,1,.91-7.3l.16-.74.75.2a4.72,4.72,0,0,0,3.34-.36,7.77,7.77,0,0,0,2.68-2.34,10.71,10.71,0,0,0,2.2-6.82,5.93,5.93,0,0,0-1.15-3.18,4.57,4.57,0,0,0-2.73-1.71,6.31,6.31,0,0,0-6.09,2.3l-.24.32-.41.06A26.83,26.83,0,0,1,163,63.18,32.63,32.63,0,0,1,152.81,58a26.55,26.55,0,0,1-7.5-8.68A19.67,19.67,0,0,1,143.18,38l1.37.17a29.12,29.12,0,0,1-2,6.55A23.32,23.32,0,0,1,139,50.55a14.81,14.81,0,0,1-5.39,4.12A11.24,11.24,0,0,1,127,55.28Z"/><path d="M168.32,128.32c1.82-2.87,3.38-5.86,4.9-8.88s3-6.08,4.56-9.1a46.18,46.18,0,0,1,5.62-8.69,16.59,16.59,0,0,1,4.07-3.5,10.45,10.45,0,0,1,5.33-1.47h.27l.22.14A17.88,17.88,0,0,0,198.36,99a50.71,50.71,0,0,0,5.69.86,12.63,12.63,0,0,1,5.62,2.15,20.33,20.33,0,0,1,4.14,4.2,24.32,24.32,0,0,0-4.54-3.55,12.35,12.35,0,0,0-5.37-1.52,45.49,45.49,0,0,1-5.9-.53,19,19,0,0,1-5.69-2.23l.49.14a8.92,8.92,0,0,0-4.33,1.29,16.22,16.22,0,0,0-3.58,3.12,52.94,52.94,0,0,0-5.58,8.24c-1.68,2.91-3.31,5.89-5.08,8.8A57.22,57.22,0,0,1,168.32,128.32Z"/><path d="M145.32,100.32c-1.1,4-2.16,7.91-3,11.9a89.19,89.19,0,0,0-2,12.1,38.16,38.16,0,0,1,1-12.32A52.4,52.4,0,0,1,145.32,100.32Z"/><path d="M78.62,98.15a82.77,82.77,0,0,0-8.26-4.87c-1.41-.74-2.85-1.44-4.31-2a19.53,19.53,0,0,0-4.47-1.38c-.72-.11-1.55,0-1.7.39a2.67,2.67,0,0,0,.17,2,15,15,0,0,0,2.5,3.89,27.2,27.2,0,0,0,7.14,6.06l0,0,0,0A12,12,0,0,1,73,107.55c.65,2,1,4,1.51,5.92a17.23,17.23,0,0,0,2.2,5.54,9.36,9.36,0,0,0,4.75,3.52,9.21,9.21,0,0,1-5.06-3.29,16.27,16.27,0,0,1-2.52-5.6c-.56-2-1-3.94-1.68-5.81a11.14,11.14,0,0,0-3.06-4.91l.09.06a22.24,22.24,0,0,1-4-2.79,26.78,26.78,0,0,1-3.43-3.47,15.83,15.83,0,0,1-2.62-4.19,3.45,3.45,0,0,1-.1-2.69A1.63,1.63,0,0,1,60.37,89a4.21,4.21,0,0,1,1.33,0,18.27,18.27,0,0,1,4.64,1.57c1.47.68,2.89,1.43,4.29,2.22A64,64,0,0,1,78.62,98.15Z"/><path d="M104.22,174.31A40.6,40.6,0,0,0,102.16,160a116.79,116.79,0,0,0-5.55-13.45c-2.09-4.4-4.23-8.82-6-13.45a44.15,44.15,0,0,1-3.14-14.59A89.48,89.48,0,0,0,86.28,104a50.73,50.73,0,0,0-4.4-13.71,40.92,40.92,0,0,0-8.57-11.55L72,77.54,70.6,76.37c-.91-.79-1.9-1.5-2.87-2.22s-2-1.37-3-2.05a3.3,3.3,0,0,0-1.4-.71c-.31,0-.54.42-.61,1v0h0a6.34,6.34,0,0,0,0,3,7.62,7.62,0,0,0,1.4,2.71,38.4,38.4,0,0,0,4.58,4.42l0,0a13.19,13.19,0,0,1,2.23,2.65,23.34,23.34,0,0,1,1.71,3,9.35,9.35,0,0,1,1,3.27,2.14,2.14,0,0,1-.51,1.67,2.27,2.27,0,0,1-1.64.56v-.2a2.07,2.07,0,0,0,1.47-.53,1.88,1.88,0,0,0,.41-1.48,8.92,8.92,0,0,0-1-3.13,23.32,23.32,0,0,0-1.74-2.87,12.71,12.71,0,0,0-2.17-2.48l0,0h0a39.91,39.91,0,0,1-4.74-4.39A8.06,8.06,0,0,1,62,75.59a6.91,6.91,0,0,1-.1-3.35v0a2.75,2.75,0,0,1,.3-1,1.26,1.26,0,0,1,1.07-.69,2.22,2.22,0,0,1,1.08.31c.31.16.54.33.8.49,1,.67,2.11,1.27,3.1,2s2,1.41,3,2.21l1.44,1.16L74.05,78a42.46,42.46,0,0,1,9,11.73,52.14,52.14,0,0,1,4.76,14,92.33,92.33,0,0,1,1.53,14.71,45.38,45.38,0,0,0,3.2,13.9c1.69,4.52,3.76,8.94,5.69,13.44a93,93,0,0,1,5.08,13.86,36.77,36.77,0,0,1,1.09,14.67Z"/><path d="M62.51,97.09a3.55,3.55,0,0,0-.57,2.51,10.69,10.69,0,0,0,.57,2.55,20.1,20.1,0,0,0,2.4,4.68,13.77,13.77,0,0,0,3.58,3.75,4.66,4.66,0,0,0,2.36.82,3.6,3.6,0,0,0,2.41-.88,3.57,3.57,0,0,1-2.38,1.37,4.81,4.81,0,0,1-2.78-.64,12.24,12.24,0,0,1-4-3.85,16.55,16.55,0,0,1-2.31-5,9.22,9.22,0,0,1-.32-2.77A3.5,3.5,0,0,1,62.51,97.09Z"/><path d="M61.62,98.88l-.73.21c-.24.09-.46.2-.68.3a3.37,3.37,0,0,0-1.05,1,4.72,4.72,0,0,0-.73,2.7A12.72,12.72,0,0,0,60,108.65a12.53,12.53,0,0,0,1.6,2.44,7.47,7.47,0,0,0,2.18,1.83,3.25,3.25,0,0,0,2.69.24,5.72,5.72,0,0,0,2.35-1.74,5.46,5.46,0,0,1-2.17,2.2A3.9,3.9,0,0,1,65,114a4.66,4.66,0,0,1-1.61-.36,9.69,9.69,0,0,1-4.34-4.52A12,12,0,0,1,57.65,103a5,5,0,0,1,1.13-3A3.73,3.73,0,0,1,61.62,98.88Z"/><path d="M58,102.46a7.61,7.61,0,0,0-2,4.59,10,10,0,0,0,.83,4.86,5.56,5.56,0,0,0,3.22,3.36,2.94,2.94,0,0,0,2.27-.38,7.61,7.61,0,0,0,1.92-1.68,6.61,6.61,0,0,1-1.65,2.09A3.37,3.37,0,0,1,60,116a4.51,4.51,0,0,1-2.47-1.4A8.08,8.08,0,0,1,56,112.32a9.44,9.44,0,0,1-.69-5.37A6.7,6.7,0,0,1,58,102.46Z"/><path d="M58,115.82a8.1,8.1,0,0,0,.29,3.72,30.48,30.48,0,0,0,1.24,3.55c1,2.32,2.09,4.57,3.13,6.9A20.88,20.88,0,0,1,64,133.62l.44,1.88.32,1.9a59.27,59.27,0,0,1,.6,7.63c.13,5.1-.19,10.16-.33,15.19a101.16,101.16,0,0,0,.32,15v.15a39.21,39.21,0,0,0,2.81,14.69,53.81,53.81,0,0,0,7.18,13.33c3,4,6.72,7.69,11.29,9.84A17.07,17.07,0,0,0,93.89,215a18,18,0,0,0,7.43-1.65,17.24,17.24,0,0,1-7.41,2.19,18.09,18.09,0,0,1-7.71-1.38c-4.89-2-8.89-5.72-12.13-9.79a53.16,53.16,0,0,1-7.72-13.62,40.85,40.85,0,0,1-3-15.44v.15a98.8,98.8,0,0,1-.22-15.28c.25-5.07.61-10.09.67-15.11a66.65,66.65,0,0,0-.34-7.48l-.23-1.85-.35-1.83a23.18,23.18,0,0,0-1.1-3.53c-.9-2.34-1.9-4.68-2.73-7.08a30.74,30.74,0,0,1-1-3.67A8.18,8.18,0,0,1,58,115.82Z"/><path d="M128.32,101.32a39.18,39.18,0,0,0-12.21,6.23,46.38,46.38,0,0,0-9.42,9.81,66.38,66.38,0,0,0-6.77,11.89,92.36,92.36,0,0,0-4.6,13.07,53.36,53.36,0,0,1,3.15-13.66,52.6,52.6,0,0,1,6.61-12.48,40,40,0,0,1,10.13-9.89A30.16,30.16,0,0,1,128.32,101.32Z"/><path d="M122.34,156.42a14.36,14.36,0,0,0-2.36.73,3.22,3.22,0,0,0-1.75,1.5,7.12,7.12,0,0,0-.47,2.35l-.12,1.25a4.57,4.57,0,0,1-.31,1.3,12.37,12.37,0,0,1-1.34,2.21c-.48.68-.93,1.36-1.34,2.07a17.19,17.19,0,0,0-1.07,2.15,11.85,11.85,0,0,0-.49,2.34,33.5,33.5,0,0,0-.21,4.91c.08,1.62.15,3.37.08,5a26.75,26.75,0,0,0,.06,4.84l.6,2.35a6.29,6.29,0,0,0,.39,1.13l.44,1.12a4.78,4.78,0,0,0,.53,1.06l.59,1c.42.67,1,1.23,1.45,1.86s1.14,1.09,1.78,1.56a19.25,19.25,0,0,0,2,1.31,81.5,81.5,0,0,0,9.06,4,53.74,53.74,0,0,1,9.07,4.54l2.12,1.43c.68.5,1.34,1,2,1.58,1.34,1.06,2.55,2.12,3.85,3.17a140.88,140.88,0,0,0,16.33,11.37c2.85,1.72,5.77,3.31,8.72,4.85s6,2.91,9.06,4.19a98,98,0,0,0,9.36,3.44,80.65,80.65,0,0,0,9.69,2.28,47.64,47.64,0,0,0,9.89.76,34.15,34.15,0,0,0,9.7-1.61,26,26,0,0,0,8.47-4.74,29.28,29.28,0,0,0,6.23-7.47c3.36-5.62,5.27-12,6.6-18.48a149.34,149.34,0,0,0,2.39-19.72c.39-6.63.63-13.27.41-19.9a130.3,130.3,0,0,0-2.05-19.73,90.53,90.53,0,0,0-2.35-9.62,70.31,70.31,0,0,0-3.6-9.19,49.28,49.28,0,0,0-11.7-15.76,51,51,0,0,0-8.08-5.71,55.68,55.68,0,0,0-9.15-3.93l.06-.2a56.63,56.63,0,0,1,9.38,3.58,47.24,47.24,0,0,1,8.45,5.49,46.12,46.12,0,0,1,7,7.28,49.43,49.43,0,0,1,5.41,8.56A71.89,71.89,0,0,1,241,138.3a94.38,94.38,0,0,1,2.57,9.78,121.58,121.58,0,0,1,2.22,20c.13,3.36.13,6.71.07,10.07s-.21,6.7-.46,10a149.62,149.62,0,0,1-2.63,20,58.71,58.71,0,0,1-7.09,18.94A29.84,29.84,0,0,1,229,234.8a27,27,0,0,1-9,4.73c-6.54,2-13.46,1.64-20,.51a95.9,95.9,0,0,1-19.2-5.78,152.89,152.89,0,0,1-34.87-19.75c-1.31-1-2.61-2.16-3.9-3.16-.65-.49-1.28-1-1.94-1.49l-2-1.36a62.9,62.9,0,0,0-8.81-4.39A81.93,81.93,0,0,1,120,200a21.44,21.44,0,0,1-2.16-1.45c-.7-.52-1.31-1.16-2-1.75s-1.14-1.35-1.6-2.1l-.65-1.15a6.33,6.33,0,0,1-.57-1.17l-.46-1.22a6.83,6.83,0,0,1-.41-1.23c-.2-.84-.4-1.67-.58-2.52a26.71,26.71,0,0,1,0-5.15c.12-1.66.09-3.25.06-5a33.28,33.28,0,0,1,.35-5.08,12.41,12.41,0,0,1,.61-2.53,15.45,15.45,0,0,1,1.23-2.28c.46-.71,1-1.4,1.47-2.07a11.91,11.91,0,0,0,1.35-2,8.6,8.6,0,0,0,.48-2.35,7.54,7.54,0,0,1,.63-2.5,3.49,3.49,0,0,1,2-1.6,14.19,14.19,0,0,1,2.45-.62Z"/><path d="M126.23,170.27a3,3,0,0,0,0-1.94,13.52,13.52,0,0,0-.59-1.94c-.46-1.29-1-2.55-1.53-3.81a56.5,56.5,0,0,1-2.81-7.76,17.39,17.39,0,0,1-.6-4.14,7.93,7.93,0,0,1,1-4.14,7.58,7.58,0,0,1,.63-.89l.38-.39a1.85,1.85,0,0,1,.53-.42,1,1,0,0,1,.86.09,2.54,2.54,0,0,1,.49.39,6.77,6.77,0,0,1,.7.86c.8,1.17,1.45,2.38,2.12,3.58a68.81,68.81,0,0,0,4.16,7c1.57,2.21,3.36,4.27,5,6.53a39.71,39.71,0,0,1,4.14,7.25,19.09,19.09,0,0,0,4.48,6.46c3.87,3.62,9.06,5.55,14.25,6.87,2.62.68,5.28,1.19,8,1.64s5.38.88,8.09,1.27c5.4.87,10.86,1.61,16.23,2.94a61.6,61.6,0,0,1,7.92,2.49,30.42,30.42,0,0,1,7.21,4.05l-.12.17a32.17,32.17,0,0,0-7.41-3.37,62.36,62.36,0,0,0-7.89-2c-5.35-1-10.78-1.65-16.22-2.32a121.79,121.79,0,0,1-16.28-3,48,48,0,0,1-7.88-2.87,25.9,25.9,0,0,1-7-4.77,20.73,20.73,0,0,1-4.7-7,38.57,38.57,0,0,0-3.87-7.08c-1.54-2.22-3.31-4.33-4.88-6.62a71.46,71.46,0,0,1-4.09-7.2c-.64-1.21-1.26-2.43-2-3.54a5.11,5.11,0,0,0-.58-.75.93.93,0,0,0-.42-.31,3,3,0,0,0-.26.23l-.34.34a6,6,0,0,0-.57.76,7.14,7.14,0,0,0-1,3.73,16.94,16.94,0,0,0,.48,4,56,56,0,0,0,2.6,7.75c.5,1.28,1,2.55,1.45,3.86a15,15,0,0,1,.55,2,3.26,3.26,0,0,1-.12,2.09Z"/><path d="M198.32,147.32a59.34,59.34,0,0,0-3.82,21.77,159.63,159.63,0,0,0,1.81,22.12l-2,.22a157.55,157.55,0,0,1-.82-22.37A59.58,59.58,0,0,1,198.32,147.32Z"/><path d="M207.32,104.32a2.68,2.68,0,0,0-1.83,1.11l-.32.43-.27.49a8.23,8.23,0,0,0-.48,1,29.5,29.5,0,0,0-1.29,4.26c-.71,2.89-1.28,5.84-1.89,8.78-1.18,5.89-2.51,11.77-4.1,17.59q-1.23,4.36-2.64,8.66c-1,2.86-2,5.7-3.15,8.49a119,119,0,0,1-8,16.2q3.59-8.3,6.57-16.75t5.32-17.13c1.62-5.76,3-11.58,4.51-17.41.75-2.91,1.52-5.83,2.47-8.71a30.94,30.94,0,0,1,1.76-4.21,9.79,9.79,0,0,1,.59-1l.34-.48.39-.42A2.79,2.79,0,0,1,207.32,104.32Z"/><path d="M147.32,97.32c-1.62-.09-3.25-.14-4.86-.14a36.26,36.26,0,0,0-4.79.4,21.92,21.92,0,0,0-4.56,1.23,13.37,13.37,0,0,0-3.84,2.47,12.15,12.15,0,0,0-2.53,3.72c-.54,1.39-.94,3-1.37,4.54-.84,3.12-1.65,6.24-2.33,9.4A150.19,150.19,0,0,0,119.93,138c-.28,3.21-.43,6.43-.39,9.65a62.84,62.84,0,0,0,.78,9.67,60.14,60.14,0,0,1-1.94-19.42c.14-3.27.48-6.53.93-9.76s1.07-6.45,1.78-9.64,1.55-6.34,2.46-9.47a49.8,49.8,0,0,1,1.59-4.74,13,13,0,0,1,3.08-4.15,14,14,0,0,1,4.43-2.54,22,22,0,0,1,4.9-1A38.85,38.85,0,0,1,147.32,97.32Z"/><path d="M107.4,151.37c-1,9.49-2,19-2.93,28.47s-1.67,19-2.18,28.5-.84,19-.91,28.55.13,19.07.52,28.61c-1.16-9.48-1.85-19-2.08-28.59s0-19.13.47-28.68,1.43-19.08,2.63-28.56S105.62,160.75,107.4,151.37Z"/><path d="M220.74,238.28a45.11,45.11,0,0,0,1.3,10.53c.79,3.44,1.73,6.9,2.6,10.36s1.66,6.95,2.36,10.46,1.36,7,1.82,10.6c-1.26-3.37-2.33-6.79-3.33-10.23s-1.91-6.89-2.79-10.36-1.69-6.95-2.19-10.55A28.48,28.48,0,0,1,220.74,238.28Z"/><path d="M138.51,67.82c-.08.81-.29,1.58-.43,2.34a7.74,7.74,0,0,0-.17,2.16,2.12,2.12,0,0,0,.92,1.63,8,8,0,0,0,2.1.87,3.43,3.43,0,0,1-3.07-.55,6,6,0,0,1-.48-.52,4.18,4.18,0,0,1-.31-.64,4,4,0,0,1-.15-.67,5.43,5.43,0,0,1,.42-2.5A9.31,9.31,0,0,1,138.51,67.82Z"/><path d="M139.73,82.78a19.27,19.27,0,0,0,4.15.85,20.16,20.16,0,0,0,4.23-.12,6.68,6.68,0,0,1-8.38-.73Z"/><path d="M130.29,75.29a5,5,0,0,0,2.49-1.45,8.87,8.87,0,0,0,1.62-2.41,11.06,11.06,0,0,0,1-5.57,5.86,5.86,0,0,0-.81-2.51A3,3,0,0,0,132.7,62a16.74,16.74,0,0,0-2.7-.5,15,15,0,0,0-2.76-.1,8.73,8.73,0,0,0-2.59.42,3.83,3.83,0,0,0-2,1.26c-.93,1.21-.81,3.18-.25,5a13.37,13.37,0,0,0,2.72,5,8,8,0,0,0,2.28,1.77A5,5,0,0,0,130.29,75.29Zm0,0a5,5,0,0,1-2.88-.36A8.92,8.92,0,0,1,125,73.29a15.82,15.82,0,0,1-3.46-4.87,10.33,10.33,0,0,1-.9-3,5.25,5.25,0,0,1,.66-3.33A5.44,5.44,0,0,1,124,60a10.05,10.05,0,0,1,3.16-.61,16.16,16.16,0,0,1,6.11,1,4.49,4.49,0,0,1,2.53,2.29,6.78,6.78,0,0,1,.58,3.15,12.84,12.84,0,0,1-1.74,5.73,10,10,0,0,1-1.8,2.33A5.11,5.11,0,0,1,130.29,75.29Z"/><path d="M143.32,74.32A5.43,5.43,0,0,0,146,75.73a6.75,6.75,0,0,0,3-.16,10.54,10.54,0,0,0,5-3.22,9.74,9.74,0,0,0,2.46-5.06,4.87,4.87,0,0,0-.2-2.49,3.31,3.31,0,0,0-1.72-1.55,13.48,13.48,0,0,0-5.52-1,16.42,16.42,0,0,0-2.89.24,5.68,5.68,0,0,0-2.55,1,6.79,6.79,0,0,0-2.19,5.23A8.06,8.06,0,0,0,143.32,74.32Zm0,0a7.11,7.11,0,0,1-1.61-2.59,10.61,10.61,0,0,1-.67-3,9.35,9.35,0,0,1,.26-3.11,6.44,6.44,0,0,1,1.53-2.86,6.68,6.68,0,0,1,2.88-1.66,16.43,16.43,0,0,1,3.17-.61,16.75,16.75,0,0,1,3.24.07,11.52,11.52,0,0,1,3.22.91A5.16,5.16,0,0,1,158,64.05a5.06,5.06,0,0,1,.31,1.85,8.77,8.77,0,0,1-.19,1.7,10.42,10.42,0,0,1-3.46,5.46,12.09,12.09,0,0,1-5.57,2.78A6.22,6.22,0,0,1,143.32,74.32Z"/><path d="M121.32,103.32A200,200,0,0,1,119.86,80a89.57,89.57,0,0,1,3-23.29,44,44,0,0,1,4.67-10.91,31.49,31.49,0,0,1,18.65-14.22,46.22,46.22,0,0,1,11.78-1.73c1,0,2,0,3,0l1.48,0,1.48.13,3,.26c1,.18,2,.28,3,.54a27,27,0,0,1,10.73,5.37,39.17,39.17,0,0,1,7.8,9,63.18,63.18,0,0,1,5.39,10.51,142.5,142.5,0,0,1,6.7,22.48c1.66,7.63,3,15.31,4.43,23-1.92-7.56-3.41-15.22-5.38-22.74a143,143,0,0,0-7.17-22.11,70.66,70.66,0,0,0-5.41-10.17,37.85,37.85,0,0,0-7.5-8.54,25.27,25.27,0,0,0-10-4.92c-.91-.23-1.85-.31-2.77-.48L163.71,32l-1.44-.11-1.44,0c-1,0-1.91-.05-2.87,0a44.12,44.12,0,0,0-11.29,1.56A29.71,29.71,0,0,0,129,46.68a46,46,0,0,0-4.67,10.44A88.4,88.4,0,0,0,120.84,80,227.2,227.2,0,0,0,121.32,103.32Z"/><path class="cls-1" d="M135.84,65.2a9.14,9.14,0,0,1,5.48.12"/><path d="M196.38,187.24a53,53,0,0,0,23.75,6.52,46.57,46.57,0,0,0,6.14-.24c2-.32,4.07-.49,6.06-1,1-.21,2-.31,3-.61s2-.56,3-.81a27.51,27.51,0,0,0,3-.94c1-.32,2-.67,3-1l.1.18a36.73,36.73,0,0,1-11.61,5.11,34.72,34.72,0,0,1-6.33,1c-1.07,0-2.14,0-3.2,0a26.11,26.11,0,0,1-3.19-.15,51.54,51.54,0,0,1-12.43-2.49,50.55,50.55,0,0,1-11.35-5.47Z"/><path d="M128.32,152.32a100.14,100.14,0,0,0,.58-13.52c-.05-2.25-.19-4.5-.39-6.75s-.48-4.49-.89-6.69l-.05-.27.28,0,51.33,6.62.42.06.07.41a112,112,0,0,1,1.41,14.11c.19,4.72.19,9.44-.05,14.16s-.62,9.43-1.29,14.1c-.27,2.35-.7,4.67-1.08,7s-.91,4.63-1.37,6.95l-1.94-.44c.48-2.29,1-4.56,1.45-6.86s.87-4.59,1.17-6.91c.73-4.61,1.15-9.27,1.48-13.94s.37-9.34.25-14a111.68,111.68,0,0,0-1.17-13.94l.49.47-51.23-7.38.23-.24c.38,2.24.61,4.49.79,6.75s.28,4.51.29,6.77A100.12,100.12,0,0,1,128.32,152.32Z"/><path d="M131.32,125.32l-.38-2v0h0l51.35,6.94.33,0,.07.32a109.1,109.1,0,0,1,1.74,14.6c.29,4.88.35,9.78.18,14.67s-.51,9.79-1.15,14.65c-.25,2.43-.68,4.85-1,7.27s-.89,4.82-1.33,7.23l-2-.42c.47-2.38,1-4.74,1.44-7.13s.86-4.77,1.14-7.18c.72-4.8,1.11-9.64,1.41-14.48s.27-9.7.08-14.55a107.19,107.19,0,0,0-1.47-14.45l.4.37L131,123.34l0,0Z"/></g></svg>