<svg width="180" height="181" viewBox="0 0 180 181" fill="none" xmlns="http://www.w3.org/2000/svg">
<g clip-path="url(#clip0_2_798)">
<path d="M66.4034 115.576L52.9341 123.335L52.911 123.3L50.6662 119.404C50.3378 116.973 49.8036 114.575 49.0695 112.234C50.1455 107.239 49.8795 104.163 49.3932 102.37C49.2041 101.613 48.7959 100.929 48.2197 100.402C47.6435 99.8759 46.9248 99.5308 46.1534 99.4101C45.5647 99.3365 44.9672 99.4349 44.4333 99.6935C43.8993 99.9521 43.4518 100.36 43.1447 100.867C42.0803 97.8259 43.6538 93.7324 47.8544 93.7324C52.6448 93.7324 53.9873 99.0053 51.9507 102.047C53.5995 101.606 55.3479 101.72 56.9251 102.372C58.5022 103.025 59.8203 104.178 60.6753 105.654L66.2992 115.391L66.4034 115.576Z" fill="black"/>
<path d="M52.9108 123.3L51.0364 124.411C51.0673 126.701 50.7632 128.984 50.1338 131.187L94.0242 106.29L73.7163 62.5682L21.668 89.6273L20.3606 92.5182L31.2029 112.373C32.3277 112.92 33.5363 113.276 34.7785 113.425C32.4411 110.014 30.393 106.441 28.4027 102.833C26.3472 99.1077 24.4855 95.2789 22.8252 91.3619C25.2084 94.8859 27.41 98.5293 29.4211 102.278C31.3767 105.92 33.2626 109.609 34.8713 113.437C35.9993 113.606 37.1516 113.394 38.1458 112.835L38.1342 112.824L28.7731 92.5182L71.6914 68.9053L87.5789 102.81L66.2992 115.391L52.9108 123.3Z" fill="black"/>
<path d="M75.9826 129.205C76.5213 126.696 77.4174 124.277 78.6435 122.022C79.8433 119.749 81.2459 117.588 82.8342 115.567C86.0453 111.549 89.8139 108.009 94.0259 105.056C95.089 104.34 96.1397 103.606 97.2286 102.936L100.583 101.08L102.259 100.159L103.993 99.3545C105.146 98.813 106.309 98.2971 107.447 97.7354C109.773 96.7174 112.134 95.7883 114.448 94.7475C116.833 93.8866 119.204 92.9831 121.562 92.0371C121.629 92.0103 121.703 92.0024 121.774 92.0146L121.834 92.025C125.164 92.5771 128.538 92.8199 131.912 92.7501C135.248 92.7467 138.571 92.3481 141.813 91.5627C144.969 90.8204 147.907 89.3482 150.391 87.2645C151.566 86.2125 152.581 84.9929 153.4 83.6452C154.204 82.268 154.822 80.7914 155.241 79.2531L155.27 79.1527C155.336 78.9289 155.472 78.7321 155.658 78.591C155.844 78.4498 156.07 78.3718 156.303 78.3682C158.639 78.3758 160.966 78.6461 163.241 79.1739C165.47 79.6773 167.658 80.3467 169.787 81.1768C171.891 82.0277 173.94 83.0074 175.922 84.1105C177.88 85.2301 179.765 86.4711 181.567 87.8263C181.579 87.8354 181.589 87.8469 181.597 87.86C181.605 87.8731 181.61 87.8875 181.612 87.9026C181.614 87.9177 181.613 87.933 181.609 87.9477C181.606 87.9625 181.599 87.9763 181.59 87.9885C181.572 88.0104 181.548 88.0255 181.52 88.0312C181.493 88.0369 181.464 88.0328 181.44 88.0197L178.475 86.4591C177.46 85.9935 176.483 85.4636 175.448 85.0555C173.431 84.149 171.36 83.3674 169.247 82.7151C167.148 82.0776 165.011 81.5722 162.848 81.2019C160.738 80.821 158.594 80.6541 156.45 80.7038L157.513 79.8192C157.078 81.5919 156.409 83.2989 155.524 84.8953C154.581 86.4782 153.395 87.9037 152.011 89.1198C149.205 91.4106 145.882 92.9831 142.331 93.7011C138.9 94.4402 135.385 94.7138 131.882 94.5146C128.418 94.3276 124.979 93.8286 121.606 93.0234L121.877 93.0113C119.479 93.7721 117.09 94.5726 114.711 95.4129C113.548 95.8972 112.396 96.407 111.245 96.9199C110.098 97.4392 108.931 97.9171 107.826 98.5218C106.717 99.1179 105.633 99.7597 104.539 100.376L102.903 101.308L101.333 102.349L98.2049 104.426L95.2094 106.674C91.2004 109.623 87.5061 112.978 84.185 116.684C82.5427 118.554 81.035 120.538 79.673 122.621C78.2698 124.694 77.1075 126.92 76.2083 129.256L76.2042 129.267C76.1941 129.294 76.1742 129.316 76.1484 129.33C76.1226 129.343 76.0929 129.346 76.065 129.338C76.0371 129.33 76.0131 129.312 75.9979 129.288C75.9826 129.263 75.9771 129.234 75.9825 129.205L75.9826 129.205Z" fill="black"/>
<path d="M124.67 93.1388C123.251 91.9385 121.658 90.6331 119.886 91.125C118.987 91.3389 118.107 91.6246 117.254 91.9793L114.577 92.9615C112.754 93.6611 110.859 94.1552 108.926 94.4347C107.922 94.5603 106.907 94.5751 105.9 94.4787C104.875 94.3502 103.874 94.081 102.923 93.6786C101.053 92.853 99.3958 91.6125 98.0771 90.0513C96.7875 88.56 95.6681 86.9299 94.7397 85.1909C93.804 83.505 92.9806 81.8476 92.0163 80.2428C91.5525 79.438 91.0749 78.64 90.5612 77.9024C90.3208 77.5441 90.0571 77.202 89.7718 76.8783C89.6644 76.7502 89.5458 76.6317 89.4176 76.5245C89.3626 76.4745 89.3572 76.4885 89.4297 76.4941C89.5927 76.5182 89.7589 76.4825 89.8976 76.3935C90.0362 76.3046 90.1379 76.1684 90.1838 76.0102L89.5185 76.6056C88.4286 76.7778 87.3139 76.5324 86.3972 75.9186C85.9169 75.6064 85.5262 75.1747 85.2632 74.666C84.9948 74.1425 84.8983 73.5479 84.9873 72.9664C85.367 70.7549 87.1925 69.6514 88.1224 68.486C89.1621 67.2072 89.8854 65.7016 90.2336 64.0912C90.6069 62.4596 90.6866 60.7746 90.4692 59.1151L90.5994 59.3363C89.4546 58.3064 88.5979 56.9964 88.1135 55.5352C87.622 54.1125 87.3467 52.6243 87.2967 51.12C87.2207 49.632 87.2655 48.1403 87.4308 46.6596C87.565 45.1727 87.7977 43.6963 88.1274 42.2402C88.1479 42.152 88.1904 42.0704 88.2509 42.003C88.3115 41.9356 88.3881 41.8846 88.4737 41.8549C88.5593 41.8251 88.6511 41.8175 88.7404 41.8327C88.8297 41.848 88.9137 41.8856 88.9846 41.9421L89.0152 41.9669C92.4904 44.7682 96.1002 47.4237 99.733 49.9959C101.553 51.2771 103.398 52.52 105.285 53.6504C106.227 54.2147 107.177 54.7584 108.137 55.2194C108.951 55.6715 109.847 55.9578 110.773 56.0618L109.738 57.125C109.793 55.9891 109.989 54.8645 110.323 53.7772C110.661 52.5752 111.321 51.4882 112.232 50.6332C112.487 50.3959 112.777 50.1977 113.091 50.0451L113.568 49.8085L114.081 49.6726C114.253 49.6321 114.426 49.5872 114.598 49.5584L115.106 49.5454C115.435 49.5233 115.766 49.5486 116.088 49.6205C117.35 49.8178 118.521 50.4002 119.439 51.288C120.302 52.1052 120.998 53.0826 121.487 54.1656C121.967 55.1819 122.333 56.2484 122.577 57.3455C122.819 58.4281 122.957 59.531 122.991 60.6397C123.006 61.2112 122.987 61.7832 122.932 62.3524C122.891 62.6686 122.833 62.9824 122.757 63.2922L122.589 63.8172C122.463 64.0716 122.309 64.3106 122.128 64.5295L121.849 62.6373C124.253 63.9275 126.702 65.1953 129.158 66.3914C130.39 66.9772 131.629 67.5561 132.88 68.0606C134.039 68.5775 135.259 68.9437 136.511 69.15L136.62 69.1602C136.757 69.1734 136.889 69.2195 137.004 69.2946C140.081 71.309 143.182 73.3424 146.372 75.1938C147.971 76.1123 149.572 77.03 151.219 77.8517C152.038 78.2637 152.877 78.6338 153.734 78.9606C154.546 79.3408 155.443 79.502 156.336 79.428L156.359 79.423C156.388 79.4168 156.418 79.4219 156.443 79.4373C156.468 79.4526 156.487 79.4771 156.494 79.5055C156.502 79.534 156.498 79.5643 156.484 79.5901C156.47 79.616 156.446 79.6353 156.418 79.6442C155.472 79.8461 154.488 79.7799 153.577 79.453C152.674 79.1951 151.784 78.8915 150.912 78.5432C149.17 77.8562 147.472 77.0762 145.807 76.2356C142.481 74.5456 139.208 72.78 136.018 70.8321L136.511 70.9765C135.02 70.8343 133.557 70.477 132.169 69.9155C130.837 69.4366 129.549 68.894 128.264 68.3432C125.699 67.2317 123.2 66.0338 120.721 64.7371L120.442 62.8446C120.399 62.838 120.371 62.8867 120.382 62.8966C120.397 62.824 120.416 62.7522 120.438 62.6815C120.483 62.5362 120.497 62.2899 120.533 62.1004C120.567 61.642 120.573 61.182 120.553 60.7228C120.499 59.7702 120.368 58.8237 120.16 57.8924C119.838 56.0944 119.005 54.4268 117.761 53.0884C117.195 52.5241 116.471 52.1447 115.685 52.0004C115.354 51.9144 115.007 51.9072 114.673 51.9793C114.338 52.0514 114.026 52.2008 113.76 52.4155C112.652 53.322 112.093 55.4313 111.951 57.2071L111.944 57.297C111.922 57.5571 111.805 57.8001 111.615 57.9797C111.426 58.1592 111.177 58.2627 110.915 58.2706C110.205 58.2688 109.502 58.1342 108.841 57.8737C108.277 57.6599 107.726 57.4148 107.189 57.1395C106.161 56.6115 105.162 56.0301 104.195 55.3976C102.283 54.1512 100.458 52.818 98.6638 51.4508C95.0807 48.7087 91.6819 45.7722 88.3012 42.804L89.1887 42.5308C88.3828 45.308 88.0111 48.193 88.0866 51.0837C88.1067 52.5168 88.3419 53.9388 88.7843 55.3021C89.2149 56.6425 90.0043 57.8395 91.0669 58.7637L91.0821 58.7764C91.145 58.8295 91.186 58.9039 91.1973 58.9853C91.46 60.7402 91.4318 62.5264 91.1139 64.2721C90.8192 66.0556 90.1211 67.7484 89.0728 69.2215C88.8035 69.5915 88.5113 69.9442 88.1979 70.2775C87.9133 70.609 87.6453 70.8855 87.3945 71.2015C86.9247 71.7491 86.6142 72.415 86.4969 73.1268C86.4748 73.4109 86.5393 73.695 86.6819 73.9417C86.8245 74.1884 87.0386 74.3862 87.2958 74.509C87.8478 74.8258 88.4941 74.9373 89.1204 74.824L88.4554 75.4191C88.5552 75.1541 88.7476 74.9341 88.997 74.7996C89.2464 74.6652 89.536 74.6254 89.8124 74.6876C90.0431 74.7412 90.2616 74.8376 90.4567 74.9717C90.7124 75.1421 90.9473 75.3417 91.1569 75.5663C91.513 75.9411 91.8435 76.3395 92.1461 76.7587C92.7425 77.5589 93.2654 78.3739 93.7756 79.1955C94.7731 80.8378 95.6697 82.5635 96.5593 84.2009C98.2854 87.4172 100.504 90.5242 103.657 92.0079C105.264 92.7282 107.028 93.0258 108.783 92.8724C110.622 92.7102 112.437 92.3441 114.195 91.7809C116.017 91.1667 117.879 90.6804 119.769 90.3256C120.797 90.186 121.841 90.4335 122.696 91.0201C123.48 91.5876 124.197 92.2429 124.832 92.973C124.853 92.9953 124.864 93.0251 124.863 93.0558C124.862 93.0865 124.849 93.1156 124.827 93.1366C124.805 93.1559 124.778 93.1667 124.749 93.1671C124.72 93.1675 124.692 93.1575 124.67 93.1388Z" fill="black"/>
<path d="M117.66 66.8751C118.21 66.2837 118.795 65.7252 119.411 65.2025L120.279 64.4657C120.6 64.1877 120.936 63.9278 121.285 63.6871C121.292 64.1438 121.196 64.5963 121.002 65.0102C120.809 65.4241 120.524 65.7886 120.168 66.0759C119.827 66.37 119.435 66.5978 119.01 66.7477C118.58 66.9125 118.113 66.9566 117.66 66.8751Z" fill="black"/>
<path d="M143.694 74.3835C143.694 74.3835 150.431 78.9026 157.102 66.8751C163.772 54.8476 147.531 54.123 147.531 54.123C147.531 54.123 154.201 22.0978 128.799 18.1853C103.397 14.2727 88.658 42.3853 88.658 42.3853C88.658 42.3853 106.054 57.2643 110.844 57.1661C110.844 57.1661 111.122 47.8574 117.97 51.6535C117.97 51.6535 122.754 54.6076 121.285 63.687C121.285 63.687 135.225 70.3304 136.511 70.0631C137.796 69.7958 143.694 74.3835 143.694 74.3835Z" fill="black"/>
<path d="M94.02 81.6794C95.0295 81.5114 96.0281 81.2842 97.0109 80.9992C97.4588 80.857 97.8892 80.665 98.294 80.4267C98.7412 80.1518 99.1713 79.8501 99.582 79.5233C99.5287 80.1163 99.2816 80.6754 98.8789 81.1142C98.4739 81.5685 97.9555 81.9072 97.3765 82.0956C96.8133 82.2753 96.2184 82.3335 95.631 82.2664C95.0522 82.2134 94.4971 82.0112 94.02 81.6794Z" fill="black"/>
<path d="M90.833 59.0499C91.2851 58.3685 91.8777 57.7915 92.5711 57.3576C93.2628 56.9086 94.0247 56.5782 94.8253 56.3799C95.6313 56.1751 96.4693 56.1277 97.2933 56.2402C98.11 56.3363 98.8934 56.6201 99.5819 57.0695C98.7594 57.0977 98.012 57.0563 97.2679 57.1422C96.5362 57.198 95.8109 57.3185 95.1004 57.5024C93.6335 57.8863 92.205 58.4043 90.833 59.0499Z" fill="black"/>
<path d="M94.6516 71.4639C95.0248 71.5986 95.3361 71.8646 95.5274 72.212C95.7398 72.5742 95.8258 72.9966 95.7719 73.4129C95.7141 73.8486 95.4867 74.244 95.139 74.5132C94.9836 74.6395 94.8047 74.7338 94.6126 74.7908C94.4206 74.8478 94.2192 74.8663 94.02 74.8452C94.1851 74.4624 94.3502 74.1953 94.4454 73.9354C94.5404 73.7175 94.6017 73.4865 94.627 73.2501C94.678 72.6561 94.6863 72.0591 94.6516 71.4639Z" fill="black"/>
<path d="M119.472 87.887C120.835 85.6031 122.023 83.2197 123.027 80.7572C123.529 79.5388 123.969 78.2958 124.345 77.033C124.752 75.7699 125.032 74.4756 125.393 73.1545C125.523 74.5174 125.466 75.8916 125.224 77.2391C124.997 78.594 124.62 79.9195 124.099 81.1909C123.587 82.4643 122.942 83.6798 122.173 84.8169C121.426 85.9653 120.516 86.9994 119.472 87.887Z" fill="black"/>
<path d="M95.7149 65.3535C96.1848 65.3372 96.63 65.1393 96.9567 64.8014C97.2834 64.4634 97.466 64.012 97.466 63.5421C97.466 63.0722 97.2834 62.6207 96.9567 62.2828C96.63 61.9449 96.1848 61.7469 95.7149 61.7307C95.245 61.7469 94.7998 61.9449 94.4731 62.2828C94.1464 62.6207 93.9639 63.0722 93.9639 63.5421C93.9639 64.012 94.1464 64.4634 94.4731 64.8014C94.7998 65.1393 95.245 65.3372 95.7149 65.3535Z" fill="black"/>
<path d="M117.66 63.7761C117.973 63.7652 118.27 63.6333 118.487 63.408C118.705 63.1827 118.827 62.8817 118.827 62.5685C118.827 62.2553 118.705 61.9543 118.487 61.729C118.27 61.5037 117.973 61.3717 117.66 61.3609C117.346 61.3717 117.049 61.5037 116.832 61.729C116.614 61.9543 116.492 62.2553 116.492 62.5685C116.492 62.8817 116.614 63.1827 116.832 63.408C117.049 63.6333 117.346 63.7652 117.66 63.7761Z" fill="black"/>
<path d="M62.6966 158.391C61.2331 156.402 59.8559 154.35 58.565 152.234C57.2752 150.123 56.0289 147.979 54.909 145.768C53.7839 143.56 52.732 141.314 51.7533 139.031C50.7636 136.756 49.9096 134.419 49.1035 132.039C49.0515 131.886 49.0506 131.721 49.1009 131.567L49.1193 131.511C50.0247 128.444 50.3135 125.227 49.9691 122.047C49.8329 120.434 49.6062 118.83 49.2901 117.242C48.9824 115.661 48.5826 114.098 48.0928 112.563C48.0362 112.387 48.0255 112.199 48.0618 112.017C48.4767 110.124 48.7175 108.197 48.7811 106.26C48.8043 105.322 48.7382 104.384 48.5837 103.458C48.5197 103.038 48.4147 102.625 48.2701 102.225C48.1226 101.869 47.9159 101.54 47.6588 101.252C47.4162 100.975 47.1186 100.752 46.7848 100.596C46.451 100.44 46.0885 100.355 45.7201 100.347C45.3612 100.354 45.0096 100.45 44.6961 100.624C44.3825 100.799 44.1166 101.048 43.9216 101.349C42.9058 102.953 42.1728 104.718 41.7546 106.57L40.9392 109.469C40.7885 109.969 40.6757 110.412 40.4697 110.966C40.2636 111.508 39.9675 112.011 39.594 112.454C38.8166 113.329 37.7418 113.885 36.5777 114.014C35.5008 114.13 34.4115 114.033 33.3723 113.728C31.3781 113.137 29.5161 112.169 27.8875 110.876C27.0707 110.237 26.3363 109.5 25.7011 108.681C25.0863 107.896 24.441 107.133 23.788 106.376C21.1788 103.343 18.403 100.446 15.5736 97.6089L13.4473 95.4981C12.7467 94.8361 11.9518 94.2814 11.0885 93.8524C10.2325 93.4238 9.30765 93.1493 8.35634 93.0417C7.49699 92.8574 6.59962 93.0113 5.85094 93.4714C5.58089 93.7824 5.39407 94.1568 5.30789 94.5595C5.22171 94.9622 5.239 95.3801 5.35811 95.7744C5.45013 96.2323 5.5665 96.685 5.70672 97.1306C5.87566 97.5755 6.07237 98.0162 6.25563 98.4576C7.14556 100.207 8.21157 101.861 9.43714 103.395C11.8996 106.504 14.5842 109.431 17.4698 112.153C17.6117 112.289 17.7068 112.467 17.7416 112.66C17.7764 112.854 17.7491 113.053 17.6636 113.23L17.6559 113.245C16.9996 114.806 16.7505 116.508 16.9317 118.191C16.9972 119.052 17.1454 119.904 17.3742 120.736C17.5878 121.574 17.9238 122.362 18.2353 123.323C18.8726 125.202 19.1943 127.174 19.1873 129.157C19.1329 130.877 19.4006 132.592 19.9767 134.214C20.5394 135.842 21.382 137.359 22.4667 138.698C23.0131 139.357 23.6164 139.967 24.2695 140.521C24.943 141.088 25.6571 141.604 26.406 142.066L35.6806 148.194C35.9124 148.347 36.0858 148.573 36.1729 148.836L36.1828 148.866C37.9164 154.103 40.0105 159.397 42.0335 164.64L48.1698 180.406L54.3193 196.176C56.3743 201.43 58.3838 206.71 60.3873 211.98L60.3896 211.987C60.4002 212.015 60.3995 212.046 60.3877 212.073C60.3759 212.101 60.3539 212.122 60.3263 212.134C60.2987 212.146 60.2676 212.146 60.2397 212.135C60.2118 212.125 60.1891 212.103 60.1765 212.076C57.8035 206.945 55.4801 201.799 53.2061 196.637C50.9451 191.466 48.6412 186.311 46.4558 181.106L39.9025 165.486C37.7946 160.23 35.6375 155.06 33.8139 149.586L34.3158 150.258L25.0403 144.084C24.2197 143.557 23.438 142.972 22.7012 142.333C20.4308 140.36 18.7433 137.804 17.8208 134.942C17.1816 133.049 16.9016 131.054 16.995 129.059C17.0153 127.326 16.753 125.602 16.2184 123.954C15.9768 123.146 15.592 122.218 15.3735 121.249C15.1354 120.286 14.9905 119.301 14.9409 118.31C14.7817 116.282 15.1487 114.247 16.0064 112.403L16.1924 113.494C13.3021 110.638 10.6525 107.548 8.27042 104.256C7.05445 102.601 6.00668 100.829 5.14266 98.9662C4.95593 98.4762 4.75987 97.9918 4.59135 97.4941C4.44584 96.9786 4.3305 96.4552 4.24592 95.9264C4.16306 95.3697 4.17473 94.803 4.28046 94.2503C4.39115 93.6322 4.7202 93.0745 5.20771 92.6785C5.68909 92.3748 6.22612 92.17 6.78752 92.0759C7.34891 91.9818 7.92346 92.0002 8.47764 92.1302C9.51957 92.291 10.5293 92.6164 11.4688 93.0943C12.4 93.5712 13.2553 94.1834 14.0069 94.911L16.1261 97.0669C18.9134 99.961 21.6741 102.88 24.3483 105.888L26.3157 108.184C26.9301 108.938 27.6363 109.612 28.4178 110.19C29.971 111.364 31.7464 112.211 33.6365 112.68C35.4652 113.13 37.5317 112.953 38.5673 111.605C39.0698 110.848 39.399 109.99 39.5315 109.092L40.228 106.167C40.6157 104.081 41.3723 102.08 42.4625 100.259C42.8181 99.7459 43.2721 99.3084 43.7982 98.9718C44.3726 98.6178 45.033 98.4277 45.7078 98.4223C46.3463 98.4191 46.9786 98.548 47.5648 98.801C48.151 99.054 48.6785 99.4256 49.1139 99.8923C49.5389 100.343 49.8837 100.864 50.1332 101.431C50.3524 101.966 50.5101 102.525 50.6033 103.096C50.7854 104.149 50.8668 105.217 50.8462 106.286C50.8002 108.362 50.5424 110.427 50.0766 112.451L50.0457 111.905C50.5491 113.533 50.9557 115.188 51.2633 116.864C51.5784 118.53 51.7973 120.213 51.919 121.904C52.2112 125.342 51.8154 128.804 50.7549 132.088L50.7706 131.561C51.4647 133.877 52.2066 136.206 53.0977 138.489C53.9693 140.776 54.9215 143.034 55.9541 145.26C56.9892 147.483 58.0476 149.699 59.2122 151.863C60.3737 154.029 61.6062 156.157 62.8892 158.263C62.9049 158.288 62.91 158.319 62.9036 158.348C62.8972 158.377 62.8797 158.403 62.8548 158.419C62.8299 158.436 62.7995 158.442 62.77 158.437C62.7405 158.432 62.7142 158.415 62.6967 158.391H62.6966Z" fill="black"/>
<path d="M34.9984 113.749C34.9289 113.645 34.8481 113.529 34.7786 113.425C34.8072 113.44 34.8399 113.444 34.8712 113.437C34.9057 113.541 34.952 113.645 34.9984 113.749Z" fill="black"/>
<path d="M78.4535 95.1073C77.5985 93.6294 76.2801 92.4742 74.7022 91.8204C73.1243 91.1665 71.3747 91.0504 69.7241 91.49C71.7627 88.4533 70.414 83.1747 65.6278 83.1747C58.9268 83.1747 58.9158 93.582 65.6278 93.582C65.8212 93.5729 66.0141 93.5537 66.2056 93.5246C65.0036 94.7339 64.2331 96.3047 64.0129 97.9948C63.7926 99.6849 64.1349 101.401 64.9868 102.877L70.7127 112.788L84.1794 105.018L78.4535 95.1073Z" fill="black"/>
</g>
<defs>
<clipPath id="clip0_2_798">
<rect width="180" height="180" fill="white" transform="translate(0 0.940796)"/>
</clipPath>
</defs>
</svg>
