<svg width="20" height="20" viewBox="0 0 20 20" fill="none" xmlns="http://www.w3.org/2000/svg">
<mask id="mask0_1_3638" style="mask-type:alpha" maskUnits="userSpaceOnUse" x="0" y="0" width="20" height="20">
<rect width="20" height="20" fill="#D9D9D9"/>
</mask>
<g mask="url(#mask0_1_3638)">
<path d="M9.99579 13.7917C10.1482 13.7917 10.2772 13.7397 10.3829 13.6358C10.4887 13.5321 10.5416 13.4035 10.5416 13.25V9.54166C10.5416 9.38818 10.4901 9.2595 10.387 9.15561C10.284 9.05186 10.1563 8.99999 10.0041 8.99999C9.85177 8.99999 9.72274 9.05186 9.61704 9.15561C9.51121 9.2595 9.45829 9.38818 9.45829 9.54166V13.25C9.45829 13.4035 9.50982 13.5321 9.61288 13.6358C9.71593 13.7397 9.84357 13.7917 9.99579 13.7917ZM9.99558 7.74041C10.1614 7.74041 10.3019 7.6843 10.417 7.57207C10.5322 7.45985 10.5898 7.32082 10.5898 7.15499C10.5898 6.98916 10.5336 6.84867 10.4214 6.73353C10.3092 6.61853 10.1702 6.56103 10.0043 6.56103C9.8385 6.56103 9.69802 6.61707 9.58288 6.72916C9.46774 6.84138 9.41017 6.98041 9.41017 7.14624C9.41017 7.31207 9.46628 7.45256 9.5785 7.5677C9.69072 7.68284 9.82975 7.74041 9.99558 7.74041ZM10.007 17.5833C8.96385 17.5833 7.98135 17.386 7.05954 16.9912C6.13774 16.5965 5.33093 16.0534 4.63913 15.3619C3.94732 14.6703 3.40392 13.8642 3.00892 12.9433C2.61406 12.0226 2.41663 11.0388 2.41663 9.99186C2.41663 8.94492 2.61399 7.96402 3.00871 7.04916C3.40343 6.13429 3.94656 5.33096 4.63808 4.63916C5.32961 3.94735 6.13579 3.40395 7.05663 3.00895C7.97732 2.61409 8.96114 2.41666 10.0081 2.41666C11.055 2.41666 12.0359 2.61402 12.9508 3.00874C13.8657 3.40346 14.669 3.94659 15.3608 4.63811C16.0526 5.32964 16.596 6.13416 16.991 7.05166C17.3859 7.9693 17.5833 8.94971 17.5833 9.99291C17.5833 11.0361 17.3859 12.0186 16.9912 12.9404C16.5965 13.8622 16.0534 14.669 15.3618 15.3608C14.6703 16.0526 13.8658 16.596 12.9483 16.991C12.0307 17.3859 11.0502 17.5833 10.007 17.5833ZM9.99996 16.5C11.8055 16.5 13.3402 15.868 14.6041 14.6042C15.868 13.3403 16.5 11.8055 16.5 9.99999C16.5 8.19443 15.868 6.65971 14.6041 5.39582C13.3402 4.13193 11.8055 3.49999 9.99996 3.49999C8.1944 3.49999 6.65968 4.13193 5.39579 5.39582C4.1319 6.65971 3.49996 8.19443 3.49996 9.99999C3.49996 11.8055 4.1319 13.3403 5.39579 14.6042C6.65968 15.868 8.1944 16.5 9.99996 16.5Z" fill="#BF2C2D"/>
</g>
</svg>
