<svg width="20" height="20" viewBox="0 0 20 20" fill="none" xmlns="http://www.w3.org/2000/svg">
<mask id="mask0_1_3634" style="mask-type:alpha" maskUnits="userSpaceOnUse" x="0" y="0" width="20" height="20">
<rect width="20" height="20" fill="#D9D9D9"/>
</mask>
<g mask="url(#mask0_1_3634)">
<path d="M9.99996 14.1667C10.2361 14.1667 10.434 14.0868 10.5937 13.9271C10.7534 13.7674 10.8333 13.5695 10.8333 13.3334C10.8333 13.0972 10.7534 12.8993 10.5937 12.7396C10.434 12.5799 10.2361 12.5 9.99996 12.5C9.76385 12.5 9.56593 12.5799 9.40621 12.7396C9.24649 12.8993 9.16663 13.0972 9.16663 13.3334C9.16663 13.5695 9.24649 13.7674 9.40621 13.9271C9.56593 14.0868 9.76385 14.1667 9.99996 14.1667ZM9.99996 10.8334C10.2361 10.8334 10.434 10.7535 10.5937 10.5938C10.7534 10.434 10.8333 10.2361 10.8333 10V6.66669C10.8333 6.43058 10.7534 6.23266 10.5937 6.07294C10.434 5.91321 10.2361 5.83335 9.99996 5.83335C9.76385 5.83335 9.56593 5.91321 9.40621 6.07294C9.24649 6.23266 9.16663 6.43058 9.16663 6.66669V10C9.16663 10.2361 9.24649 10.434 9.40621 10.5938C9.56593 10.7535 9.76385 10.8334 9.99996 10.8334ZM9.99996 18.3334C8.84718 18.3334 7.76385 18.1146 6.74996 17.6771C5.73607 17.2396 4.85413 16.6459 4.10413 15.8959C3.35413 15.1459 2.76038 14.2639 2.32288 13.25C1.88538 12.2361 1.66663 11.1528 1.66663 10C1.66663 8.84724 1.88538 7.76391 2.32288 6.75002C2.76038 5.73613 3.35413 4.85419 4.10413 4.10419C4.85413 3.35419 5.73607 2.76044 6.74996 2.32294C7.76385 1.88544 8.84718 1.66669 9.99996 1.66669C11.1527 1.66669 12.2361 1.88544 13.25 2.32294C14.2638 2.76044 15.1458 3.35419 15.8958 4.10419C16.6458 4.85419 17.2395 5.73613 17.677 6.75002C18.1145 7.76391 18.3333 8.84724 18.3333 10C18.3333 11.1528 18.1145 12.2361 17.677 13.25C17.2395 14.2639 16.6458 15.1459 15.8958 15.8959C15.1458 16.6459 14.2638 17.2396 13.25 17.6771C12.2361 18.1146 11.1527 18.3334 9.99996 18.3334ZM9.99996 16.6667C11.8611 16.6667 13.4375 16.0209 14.7291 14.7292C16.0208 13.4375 16.6666 11.8611 16.6666 10C16.6666 8.13891 16.0208 6.56252 14.7291 5.27085C13.4375 3.97919 11.8611 3.33335 9.99996 3.33335C8.13885 3.33335 6.56246 3.97919 5.27079 5.27085C3.97913 6.56252 3.33329 8.13891 3.33329 10C3.33329 11.8611 3.97913 13.4375 5.27079 14.7292C6.56246 16.0209 8.13885 16.6667 9.99996 16.6667Z" fill="#BF2C2D"/>
</g>
</svg>
