<svg width="180" height="181" viewBox="0 0 180 181" fill="none" xmlns="http://www.w3.org/2000/svg">
<g clip-path="url(#clip0_2_54)">
<path d="M100.192 81.0853C102.056 78.6138 102.433 76.9964 103.55 74.1303C104.669 71.2613 105.515 68.2926 106.077 65.264C106.631 62.2375 106.954 59.1731 107.044 56.0975C107.107 53.0331 106.986 49.9149 107.081 46.8147C107.185 43.713 107.366 40.6113 107.721 37.5253C108.033 34.4332 108.531 31.3627 109.213 28.3308C109.881 25.2928 110.806 22.3175 111.98 19.4374C113.133 16.5453 114.812 13.8921 116.93 11.6121C114.943 13.9779 113.392 16.6779 112.347 19.5866C111.256 22.4683 110.411 25.4372 109.82 28.4617C108.636 34.5176 107.989 40.6667 107.887 46.8369C107.768 49.9241 107.865 52.9966 107.777 56.1208C107.679 59.2345 107.312 62.3339 106.683 65.3848C106.045 68.4316 105.118 71.4103 103.913 74.2803C103.301 75.7081 102.605 77.0983 101.829 78.4436C101.412 79.3979 100.861 80.2875 100.192 81.0853Z" fill="black"/>
<path d="M101.923 77.8372C100.973 77.2748 100.09 76.6062 99.291 75.844C98.8974 75.4622 98.5156 75.0642 98.1374 74.6546C97.7935 74.2273 97.4439 73.7952 97.1209 73.3409C96.7966 72.8893 96.3928 72.4575 96.027 71.9976C95.6759 71.5416 95.4847 70.9824 95.4829 70.4066C95.4768 69.7855 95.5973 69.1697 95.837 68.5968C96.131 67.8867 96.5836 67.2535 97.1601 66.7459L97.6948 66.6697C98.3609 66.9629 98.9891 67.336 99.5654 67.7807C99.9799 68.0993 100.35 68.4719 100.666 68.8887C100.938 69.256 101.073 69.7066 101.05 70.1631C101.015 70.6465 101.025 71.1321 101.082 71.6134C101.147 72.0854 101.244 72.5529 101.34 73.0281C101.422 73.511 101.514 73.9982 101.625 74.4847C101.817 75.4736 102.077 76.4662 102.34 77.4933L101.923 77.8372Z" fill="black"/>
<path d="M104.517 70.0712C103.567 69.5089 102.684 68.8402 101.885 68.078C101.491 67.6962 101.109 67.2982 100.731 66.8886C100.387 66.4614 100.038 66.0292 99.7147 65.5749C99.3906 65.1233 98.9866 64.6915 98.6208 64.2317C98.2698 63.7756 98.0786 63.2165 98.0769 62.6407C98.0706 62.0196 98.1911 61.4037 98.431 60.8309C98.7249 60.1207 99.1775 59.4876 99.7541 58.9801L100.289 58.9039C100.955 59.1969 101.583 59.57 102.159 60.0148C102.574 60.3334 102.944 60.7059 103.26 61.1227C103.532 61.4901 103.667 61.9407 103.643 62.3972C103.608 62.8806 103.619 63.3661 103.675 63.8474C103.741 64.3195 103.838 64.787 103.934 65.2621C104.016 65.745 104.108 66.2322 104.219 66.7187C104.411 67.7077 104.671 68.7004 104.934 69.7273L104.517 70.0712Z" fill="black"/>
<path d="M107.046 61.7288C106.096 61.1665 105.213 60.4978 104.414 59.7357C104.02 59.3539 103.638 58.9558 103.26 58.5462C102.916 58.119 102.566 57.6867 102.243 57.2325C101.919 56.781 101.515 56.3492 101.149 55.8892C100.798 55.4332 100.607 54.874 100.605 54.2983C100.599 53.6772 100.72 53.0613 100.96 52.4885C101.253 51.7783 101.706 51.1452 102.283 50.6376L102.817 50.5614C103.483 50.8545 104.112 51.2275 104.688 51.6724C105.102 51.9909 105.472 52.3635 105.788 52.7802C106.06 53.1476 106.196 53.5983 106.172 54.0548C106.137 54.5381 106.148 55.0237 106.204 55.505C106.27 55.977 106.367 56.4445 106.463 56.9197C106.545 57.4026 106.637 57.8899 106.747 58.3763C106.94 59.3652 107.199 60.3579 107.462 61.385L107.046 61.7288Z" fill="black"/>
<path d="M107.543 50.7506C106.593 50.1883 105.71 49.5196 104.911 48.7574C104.517 48.3757 104.135 47.9776 103.757 47.568C103.413 47.1408 103.063 46.7086 102.741 46.2543C102.416 45.8027 102.012 45.371 101.647 44.9111C101.296 44.455 101.104 43.8959 101.103 43.3201C101.096 42.699 101.217 42.0831 101.457 41.5103C101.751 40.8001 102.203 40.1669 102.78 39.6594L103.314 39.5832C103.981 39.8764 104.609 40.2494 105.185 40.6942C105.6 41.0127 105.97 41.3853 106.286 41.8021C106.557 42.1695 106.693 42.6201 106.669 43.0766C106.634 43.5599 106.645 44.0455 106.701 44.5268C106.767 44.9988 106.864 45.4663 106.96 45.9415C107.042 46.4244 107.134 46.9116 107.245 47.3981C107.437 48.3871 107.697 49.3797 107.96 50.4067L107.543 50.7506Z" fill="black"/>
<path d="M108.013 39.5334C107.063 38.9711 106.18 38.3025 105.381 37.5403C104.987 37.1584 104.605 36.7604 104.227 36.3508C103.883 35.9237 103.534 35.4914 103.211 35.0371C102.886 34.5856 102.482 34.1538 102.117 33.6939C101.766 33.2379 101.574 32.6787 101.572 32.103C101.566 31.4818 101.687 30.866 101.927 30.2931C102.221 29.583 102.673 28.9499 103.25 28.4423L103.784 28.3661C104.451 28.6592 105.079 29.0322 105.655 29.4771C106.069 29.7956 106.44 30.1682 106.755 30.5849C107.027 30.9523 107.163 31.4029 107.139 31.8595C107.104 32.3428 107.115 32.8284 107.171 33.3097C107.237 33.7817 107.334 34.2492 107.43 34.7244C107.512 35.2073 107.604 35.6945 107.715 36.181C107.907 37.1699 108.167 38.1626 108.43 39.1897L108.013 39.5334Z" fill="black"/>
<path d="M109.796 29.0583C108.846 28.4959 107.963 27.8272 107.164 27.0651C106.77 26.6833 106.388 26.2852 106.01 25.8756C105.666 25.4484 105.317 25.0162 104.994 24.5619C104.669 24.1103 104.266 23.6786 103.9 23.2187C103.549 22.7626 103.357 22.2035 103.356 21.6277C103.349 21.0066 103.47 20.3907 103.71 19.8179C104.004 19.1078 104.456 18.4746 105.033 17.967L105.567 17.8908C106.234 18.1839 106.862 18.557 107.438 19.0018C107.853 19.3203 108.223 19.693 108.539 20.1097C108.81 20.4771 108.946 20.9277 108.922 21.3842C108.887 21.8676 108.898 22.3531 108.954 22.8345C109.02 23.3064 109.117 23.7739 109.213 24.2492C109.295 24.7319 109.387 25.2193 109.498 25.7057C109.69 26.6947 109.95 27.6873 110.213 28.7144L109.796 29.0583Z" fill="black"/>
<path d="M112.2 19.6104C111.25 19.0481 110.367 18.3794 109.568 17.6173C109.174 17.2355 108.792 16.8375 108.414 16.4279C108.07 16.0006 107.721 15.5684 107.398 15.1142C107.073 14.6626 106.67 14.2308 106.304 13.771C105.953 13.3149 105.762 12.7557 105.76 12.1799C105.754 11.5588 105.874 10.943 106.114 10.3701C106.408 9.66004 106.86 9.02686 107.437 8.51925L107.972 8.44305C108.638 8.73622 109.266 9.10927 109.842 9.55402C110.257 9.87259 110.627 10.2452 110.943 10.662C111.215 11.0293 111.35 11.4799 111.326 11.9365C111.291 12.4198 111.302 12.9054 111.358 13.3867C111.424 13.8587 111.521 14.3262 111.617 14.8014C111.699 15.2842 111.791 15.7715 111.902 16.258C112.094 17.2469 112.354 18.2396 112.617 19.2666L112.2 19.6104Z" fill="black"/>
<path d="M101.591 76.912C102.458 76.3039 103.301 75.7196 104.09 75.0944C104.49 74.7974 104.876 74.4874 105.253 74.1744C105.634 73.8763 106.012 73.5847 106.369 73.2692C106.725 72.9406 107.048 72.579 107.336 72.1894C107.615 71.8272 108.011 71.5736 108.456 71.472C108.967 71.3616 109.49 71.3201 110.012 71.3485C110.738 71.3865 111.458 71.5128 112.154 71.7247L112.51 72.131C112.618 72.8921 112.55 73.6678 112.311 74.3985C112.121 74.9896 111.812 75.5356 111.403 76.003C111.027 76.4389 110.519 76.7387 109.956 76.856C109.379 76.9666 108.792 77.031 108.252 77.1624C107.711 77.2967 107.165 77.3968 106.626 77.4968C106.073 77.5613 105.524 77.6146 104.977 77.6477C103.875 77.7053 102.77 77.6372 101.683 77.4446L101.591 76.912Z" fill="black"/>
<path d="M105.092 69.6333C105.72 68.78 106.333 67.9571 106.882 67.1126C107.166 66.7032 107.434 66.286 107.691 65.8692C107.958 65.4647 108.223 65.0677 108.46 64.6548C108.693 64.2297 108.885 63.7836 109.033 63.3224C109.182 62.8902 109.477 62.5234 109.866 62.2849C110.315 62.0171 110.798 61.8106 111.301 61.671C112.002 61.475 112.724 61.3649 113.451 61.3434L113.919 61.6147C114.263 62.3017 114.446 63.0586 114.452 63.8273C114.46 64.4484 114.341 65.0646 114.103 65.638C113.885 66.1712 113.499 66.6177 113.002 66.9087C112.491 67.1977 111.955 67.4464 111.485 67.7433C111.016 68.0432 110.53 68.3126 110.051 68.5794C109.547 68.8172 109.044 69.0429 108.536 69.249C107.51 69.6556 106.441 69.944 105.35 70.1086L105.092 69.6333Z" fill="black"/>
<path d="M106.595 61.3497C107.097 60.4162 107.587 59.5153 108.012 58.6016C108.236 58.1562 108.442 57.7053 108.638 57.2564C108.845 56.8183 109.052 56.3879 109.229 55.9455C109.399 55.4919 109.526 55.0232 109.608 54.5456C109.695 54.0967 109.935 53.692 110.287 53.4009C110.694 53.0725 111.142 52.8 111.621 52.5906C112.287 52.2977 112.987 52.0869 113.704 51.9628L114.204 52.1656C114.642 52.7971 114.929 53.5207 115.044 54.2807C115.139 54.8945 115.108 55.5213 114.953 56.1227C114.813 56.6812 114.493 57.1779 114.043 57.536C113.577 57.8942 113.081 58.216 112.658 58.5762C112.236 58.9395 111.792 59.2748 111.356 59.6066C110.89 59.913 110.424 60.2074 109.95 60.4832C108.992 61.0306 107.974 61.4669 106.917 61.7838L106.595 61.3497Z" fill="black"/>
<path d="M107.527 49.8017C108.029 48.8682 108.52 47.9672 108.944 47.0536C109.169 46.6082 109.375 46.1573 109.57 45.7084C109.777 45.2702 109.984 44.8399 110.161 44.3975C110.331 43.9439 110.459 43.4752 110.541 42.9976C110.627 42.5487 110.867 42.144 111.219 41.8529C111.626 41.5244 112.075 41.2519 112.554 41.0426C113.22 40.7497 113.919 40.5389 114.636 40.4148L115.137 40.6176C115.574 41.249 115.862 41.9726 115.976 42.7327C116.072 43.3465 116.041 43.9733 115.885 44.5747C115.745 45.1331 115.425 45.6298 114.975 45.9879C114.509 46.3462 114.014 46.668 113.591 47.0283C113.168 47.3914 112.725 47.7267 112.288 48.0585C111.823 48.365 111.357 48.6594 110.883 48.9352C109.924 49.4825 108.906 49.9189 107.849 50.2359L107.527 49.8017Z" fill="black"/>
<path d="M108.181 38.7368C108.683 37.8033 109.173 36.9023 109.597 35.9888C109.822 35.5432 110.028 35.0924 110.224 34.6435C110.431 34.2054 110.638 33.7751 110.815 33.3326C110.985 32.879 111.112 32.4103 111.194 31.9327C111.281 31.4838 111.521 31.0791 111.873 30.7881C112.279 30.4596 112.728 30.1871 113.207 29.9777C113.873 29.6848 114.573 29.474 115.29 29.3499L115.79 29.5527C116.228 30.1841 116.515 30.9078 116.63 31.6678C116.725 32.2817 116.694 32.9085 116.539 33.5099C116.399 34.0683 116.079 34.565 115.628 34.9231C115.163 35.2813 114.667 35.6032 114.244 35.9634C113.821 36.3265 113.378 36.6618 112.942 36.9937C112.476 37.3001 112.01 37.5945 111.536 37.8703C110.578 38.4176 109.56 38.854 108.503 39.1709L108.181 38.7368Z" fill="black"/>
<path d="M109.307 28.2626C110.055 27.5121 110.783 26.7896 111.451 26.036C111.793 25.6735 112.119 25.3007 112.435 24.9267C112.759 24.5663 113.08 24.2133 113.377 23.8403C113.67 23.4545 113.925 23.0419 114.141 22.6079C114.352 22.2026 114.698 21.8837 115.118 21.7058C115.602 21.5078 116.11 21.3754 116.628 21.3121C117.351 21.2225 118.081 21.2211 118.803 21.3078L119.225 21.6457C119.464 22.3763 119.532 23.152 119.424 23.9131C119.34 24.5285 119.131 25.1202 118.81 25.6518C118.516 26.1467 118.068 26.5308 117.534 26.7447C116.985 26.9545 116.418 27.1206 115.91 27.3444C115.401 27.5711 114.881 27.7652 114.367 27.9579C113.834 28.1181 113.303 28.2665 112.77 28.3948C111.695 28.6443 110.595 28.7704 109.491 28.7708L109.307 28.2626Z" fill="black"/>
<path d="M111.71 19.2267C112.212 18.2932 112.703 17.3921 113.127 16.4785C113.351 16.0331 113.557 15.5822 113.753 15.1333C113.96 14.6951 114.167 14.2648 114.344 13.8225C114.514 13.3689 114.641 12.9001 114.724 12.4226C114.81 11.9737 115.05 11.5689 115.402 11.2778C115.809 10.9494 116.258 10.6769 116.736 10.4676C117.403 10.1746 118.102 9.96375 118.819 9.83975L119.32 10.0425C119.757 10.6739 120.045 11.3975 120.159 12.1576C120.254 12.7714 120.223 13.3982 120.068 13.9996C119.928 14.5581 119.608 15.0548 119.158 15.4128C118.692 15.7711 118.197 16.093 117.773 16.4532C117.351 16.8163 116.908 17.1516 116.471 17.4834C116.006 17.79 115.539 18.0844 115.066 18.3601C114.107 18.9075 113.089 19.3438 112.032 19.6608L111.71 19.2267Z" fill="black"/>
<path d="M130.91 59.9627C128.804 61.9525 127.054 64.2881 125.734 66.8685C125.664 66.9844 125.603 67.1079 125.541 67.2315C125.517 67.2685 125.497 67.3073 125.479 67.3474C125.471 67.3552 125.471 67.3629 125.464 67.3706C124.19 69.8362 123.111 72.3984 122.239 75.0334V75.0411C122.222 75.0964 122.201 75.1506 122.177 75.2033V75.2187C122.1 75.4505 122.031 75.6746 121.954 75.9063C121.923 76.0067 121.892 76.1071 121.861 76.2075C121.83 76.2848 121.806 76.365 121.791 76.447C121.375 77.7601 120.989 79.0888 120.634 80.4174H119.909C120.303 78.942 120.75 77.4666 121.259 76.0221C121.298 75.9217 121.329 75.8135 121.367 75.7132C121.576 75.1184 121.791 74.5314 122.023 73.9443V73.9365C122.872 71.6453 123.888 69.4197 125.062 67.2779C125.078 67.2548 125.086 67.2393 125.101 67.2162C125.109 67.2085 125.109 67.193 125.117 67.1853C125.286 66.884 125.464 66.5905 125.656 66.2892V66.2815C127.029 63.8862 128.806 61.748 130.91 59.9627Z" fill="black"/>
<path d="M121.865 76.4986C120.984 75.8332 120.181 75.0696 119.472 74.2224C119.124 73.7988 118.789 73.3604 118.459 72.9109C118.165 72.4478 117.866 71.9791 117.596 71.4914C117.325 71.0062 116.972 70.5319 116.66 70.0338C116.362 69.5412 116.235 68.9641 116.297 68.3918C116.361 67.7738 116.55 67.1754 116.852 66.6331C117.224 65.9604 117.744 65.3821 118.374 64.9425L118.914 64.9268C119.543 65.2929 120.125 65.7341 120.648 66.2409C121.024 66.6039 121.351 67.0157 121.618 67.4653C121.847 67.8609 121.931 68.3239 121.856 68.7749C121.767 69.2512 121.723 69.735 121.726 70.2196C121.738 70.6959 121.782 71.1715 121.824 71.6544C121.852 72.1434 121.888 72.6379 121.944 73.1337C122.024 74.1381 122.171 75.1537 122.317 76.2038L121.865 76.4986Z" fill="black"/>
<path d="M125.312 67.3804C124.431 66.715 123.628 65.9513 122.92 65.1042C122.571 64.6806 122.236 64.2422 121.907 63.7928C121.613 63.3296 121.314 62.8609 121.044 62.3732C120.772 61.888 120.419 61.4136 120.107 60.9156C119.809 60.423 119.682 59.8459 119.745 59.2735C119.808 58.6556 119.997 58.0572 120.299 57.5149C120.671 56.8423 121.192 56.2639 121.821 55.8243L122.361 55.8086C122.99 56.1746 123.573 56.6159 124.095 57.1227C124.472 57.4858 124.798 57.8976 125.065 58.3472C125.294 58.7427 125.378 59.2058 125.303 59.6567C125.214 60.1331 125.171 60.6168 125.173 61.1013C125.185 61.5777 125.229 62.0532 125.271 62.5362C125.299 63.0252 125.335 63.5197 125.391 64.0156C125.471 65.0198 125.618 66.0355 125.765 67.0855L125.312 67.3804Z" fill="black"/>
<path d="M121.468 75.6532C122.296 74.9914 123.1 74.3551 123.848 73.6813C124.229 73.3596 124.595 73.0258 124.951 72.6897C125.313 72.368 125.672 72.0531 126.008 71.7157C126.342 71.3653 126.642 70.984 126.905 70.5769C127.16 70.198 127.539 69.9198 127.977 69.7902C128.48 69.6478 129 69.5733 129.522 69.5686C130.25 69.5607 130.975 69.6413 131.684 69.8087L132.065 70.1917C132.22 70.9445 132.201 71.723 132.009 72.4672C131.856 73.0692 131.582 73.6337 131.204 74.126C130.856 74.5847 130.368 74.916 129.813 75.0686C129.245 75.2154 128.663 75.3169 128.132 75.4821C127.601 75.6503 127.062 75.7848 126.531 75.9186C125.983 76.0179 125.439 76.1057 124.895 76.1734C123.798 76.3005 122.691 76.3023 121.594 76.1788L121.468 75.6532Z" fill="black"/>
<path d="M124.868 66.9441C125.471 66.0728 126.06 65.2325 126.584 64.3724C126.857 63.9549 127.112 63.5301 127.357 63.106C127.612 62.6939 127.865 62.2894 128.091 61.8697C128.311 61.4381 128.49 60.9866 128.625 60.5213C128.761 60.085 129.045 59.7097 129.427 59.46C129.868 59.1793 130.345 58.959 130.844 58.8047C131.539 58.5884 132.257 58.4575 132.984 58.4147L133.458 58.6724C133.823 59.3491 134.027 60.1004 134.056 60.8685C134.082 61.4892 133.981 62.1085 133.759 62.6887C133.557 63.2279 133.184 63.6855 132.696 63.9907C132.193 64.2945 131.665 64.5587 131.204 64.8691C130.743 65.1824 130.265 65.4659 129.794 65.7466C129.298 65.9989 128.802 66.2391 128.3 66.4599C127.286 66.8961 126.225 67.2154 125.139 67.4116L124.868 66.9441Z" fill="black"/>
<path d="M88.7118 80.7728C88.7427 80.8732 88.7735 80.9736 88.812 81.074L88.3039 80.6492C88.1111 80.6106 87.9511 80.4451 87.7659 80.3987C87.3802 79.2477 87.2923 78.942 86.9529 77.7833C86.9374 77.737 86.9297 77.6907 86.9143 77.6444C86.2278 75.2651 85.5874 72.8705 85.0474 70.4528C84.9162 69.8889 84.7928 69.3173 84.6771 68.7534C84.6231 68.4752 84.5613 68.2049 84.5073 67.9268V67.9191C83.949 65.2633 83.5369 62.5789 83.273 59.8778C83.2576 59.7696 83.2499 59.6615 83.2421 59.5533C83.1882 58.92 83.1342 58.2866 83.0956 57.6531V57.6453C82.9285 55.2149 82.9311 52.7757 83.1033 50.3457C83.1021 50.3222 83.1047 50.2987 83.1111 50.2762V50.2375C83.1419 49.8822 83.1805 49.5423 83.2267 49.187V49.1792C83.4845 46.4349 84.2153 43.756 85.3868 41.2615C84.3014 43.9436 83.678 46.7906 83.543 49.6813C83.5277 49.8282 83.5199 49.9672 83.5122 50.1139V50.1216C83.5122 50.1603 83.5045 50.1989 83.5045 50.2375V50.2684C83.372 53.0338 83.4597 55.8054 83.7668 58.5569C83.7668 58.6321 83.7746 58.7072 83.7898 58.7808C83.8053 59.0203 83.8361 59.2521 83.8593 59.4916C83.8748 59.5919 83.8825 59.6925 83.8979 59.7928C83.904 59.8757 83.9142 59.9582 83.9287 60.04C84.3125 63.1715 84.8584 66.281 85.5642 69.3558V69.3713C85.5951 69.5258 85.626 69.6571 85.6722 69.8115C85.6725 69.8439 85.6805 69.8756 85.6954 69.9043C85.7136 70.0268 85.7394 70.1481 85.7725 70.2674C86.3434 72.716 86.9992 75.1416 87.7243 77.5516C87.9481 78.324 88.1794 79.081 88.4185 79.8457V79.8535C88.4803 80.0621 88.5498 80.2552 88.6114 80.4637V80.4715C88.6423 80.5719 88.6809 80.6723 88.7118 80.7728Z" fill="black"/>
<path d="M88.9046 80.9273L89.028 80.3711L88.3039 80.7975C88.111 80.7589 87.8246 80.5101 87.6394 80.4637C86.7523 80.232 86.3279 80.6878 85.4948 80.3093C85.0011 80.0698 84.515 79.8072 84.029 79.5368C83.5662 79.2356 83.1033 78.9343 82.6558 78.6022C82.2084 78.2777 81.6838 77.9919 81.1978 77.6674C80.7222 77.3431 80.3669 76.8706 80.1872 76.3233C79.9885 75.7348 79.9123 75.1118 79.9634 74.4926C80.017 73.7258 80.2496 72.9824 80.6424 72.322L81.1283 72.0825C81.8514 72.1563 82.5634 72.3144 83.2498 72.5537C83.741 72.7305 84.2076 72.9693 84.6384 73.2643C85.0119 73.5307 85.2817 73.9183 85.4022 74.3613C85.5174 74.8314 85.6776 75.2892 85.8805 75.7285C86.0888 76.1534 86.3279 76.5705 86.5671 76.9954C86.6827 77.2117 86.7908 77.428 86.9142 77.6443C87.0375 77.8606 87.1611 78.0768 87.2922 78.2853C87.624 78.8878 87.9942 79.4826 88.3723 80.0929C88.4494 80.2164 88.5266 80.3401 88.6113 80.4636V80.4714C88.6731 80.5641 88.7349 80.6568 88.7965 80.7572C88.8352 80.8113 88.866 80.8731 88.9046 80.9273Z" fill="black"/>
<path d="M85.579 70.5738C84.5015 70.335 83.4546 69.9742 82.4585 69.4984C81.9658 69.258 81.4793 68.9984 80.9928 68.7268C80.5333 68.4278 80.0669 68.1257 79.6189 67.7945C79.1706 67.4662 78.6527 67.1814 78.1622 66.8581C77.687 66.5339 77.3318 66.0619 77.1514 65.5152C76.9527 64.9268 76.8761 64.3039 76.9263 63.6848C76.9853 62.9184 77.219 62.1757 77.6095 61.5138L78.0941 61.2751C78.8182 61.3464 79.5311 61.5055 80.2169 61.749C80.7097 61.9228 81.1771 62.1618 81.6067 62.4596C81.9791 62.7242 82.2479 63.1103 82.3668 63.5517C82.4836 64.022 82.6445 64.4802 82.8475 64.9201C83.0562 65.3483 83.2937 65.7624 83.5323 66.1843C83.7602 66.6177 83.9986 67.0523 84.255 67.4801C84.7447 68.3603 85.2997 69.2231 85.8683 70.1173L85.579 70.5738Z" fill="black"/>
<path d="M84.0224 60.0624C82.9449 59.8236 81.898 59.4628 80.9019 58.987C80.4092 58.7467 79.9229 58.4871 79.4364 58.2154C78.9769 57.9164 78.5104 57.6144 78.0625 57.2831C77.6141 56.9548 77.0963 56.67 76.6059 56.3468C76.1307 56.0225 75.7754 55.5506 75.595 55.0039C75.3963 54.4154 75.3197 53.7926 75.3699 53.1734C75.4289 52.407 75.6626 51.6643 76.0531 51.0025L76.5375 50.7637C77.2617 50.835 77.9745 50.9942 78.6603 51.2377C79.1532 51.4114 79.6206 51.6504 80.0503 51.9483C80.4226 52.2129 80.6914 52.599 80.8104 53.0404C80.9271 53.5107 81.088 53.9688 81.2909 54.4088C81.4997 54.837 81.7373 55.2511 81.9759 55.673C82.2038 56.1064 82.4422 56.541 82.6985 56.9688C83.1882 57.8489 83.7433 58.7116 84.3119 59.6059L84.0224 60.0624Z" fill="black"/>
<path d="M83.3756 50.3344C82.2981 50.0955 81.2512 49.7347 80.2551 49.259C79.7624 49.0185 79.2761 48.759 78.7894 48.4873C78.3299 48.1883 77.8635 47.8862 77.4157 47.555C76.9672 47.2267 76.4495 46.9419 75.959 46.6186C75.4838 46.2945 75.1285 45.8225 74.9482 45.2757C74.7494 44.6873 74.6728 44.0644 74.7229 43.4453C74.7819 42.6788 75.0157 41.9362 75.4062 41.2743L75.8907 41.0356C76.6148 41.1069 77.3276 41.2661 78.0135 41.5095C78.5063 41.6833 78.9738 41.9223 79.4034 42.2201C79.7757 42.4847 80.0444 42.8709 80.1634 43.3122C80.2801 43.7825 80.4411 44.2407 80.6441 44.6806C80.8529 45.1088 81.0905 45.523 81.3289 45.9448C81.5569 46.3782 81.7952 46.8128 82.0517 47.2406C82.5414 48.1208 83.0963 48.9835 83.6651 49.8778L83.3756 50.3344Z" fill="black"/>
<path d="M88.304 80.485C88.4914 79.4414 88.678 78.4324 88.7978 77.4321C88.8729 76.9388 88.9289 76.4461 88.9755 75.9586C89.0366 75.4776 89.0993 75.0042 89.1304 74.5287C89.1515 74.0446 89.1268 73.5595 89.0567 73.08C88.9995 72.6264 89.1019 72.1671 89.3462 71.7809C89.6309 71.3422 89.9729 70.9435 90.3631 70.5955C90.9054 70.1097 91.5047 69.6917 92.1478 69.3507L92.6865 69.3877C93.2985 69.8517 93.7961 70.4501 94.141 71.1368C94.422 71.6906 94.587 72.296 94.626 72.916C94.6663 73.4904 94.5164 74.062 94.1994 74.5424C93.8681 75.0279 93.4969 75.488 93.2063 75.9621C92.9174 76.4388 92.6002 76.8954 92.2883 77.3466C91.941 77.7828 91.5894 78.2076 91.2245 78.6172C90.4831 79.4357 89.6511 80.1672 88.7446 80.7975L88.304 80.485Z" fill="black"/>
<path d="M85.491 69.7646C85.6784 68.721 85.865 67.712 85.9848 66.7116C86.0599 66.2183 86.1159 65.7257 86.1626 65.2382C86.2236 64.7572 86.2865 64.2838 86.3174 63.8083C86.3385 63.3242 86.3138 62.8391 86.2437 62.3597C86.1866 61.9061 86.289 61.4467 86.5332 61.0605C86.8179 60.6218 87.1599 60.2231 87.5501 59.8751C88.0925 59.3893 88.6918 58.9714 89.3348 58.6303L89.8735 58.6673C90.4855 59.1314 90.9831 59.7297 91.3281 60.4164C91.609 60.9702 91.7741 61.5756 91.813 62.1956C91.8533 62.77 91.7034 63.3416 91.3864 63.8221C91.0551 64.3075 90.6839 64.7677 90.3935 65.2417C90.1044 65.7184 89.7872 66.175 89.4753 66.6262C89.128 67.0624 88.7764 67.4872 88.4116 67.8968C87.6702 68.7154 86.8382 69.4468 85.9316 70.077L85.491 69.7646Z" fill="black"/>
<path d="M83.311 59.4584C83.789 58.5124 84.2567 57.5991 84.6575 56.675C84.8705 56.2241 85.0651 55.768 85.2494 55.3143C85.4453 54.871 85.641 54.4355 85.8068 53.9888C85.9655 53.531 86.0806 53.0592 86.1505 52.5797C86.2255 52.1287 86.455 51.718 86.7995 51.418C87.1978 51.0793 87.6395 50.7954 88.1128 50.5739C88.7714 50.2641 89.4651 50.0355 90.1788 49.8931L90.6845 50.083C91.1382 50.7031 91.4437 51.4192 91.5776 52.1761C91.6884 52.7873 91.6734 53.4147 91.5335 54.0198C91.4077 54.5817 91.1005 55.0864 90.6595 55.4559C90.2033 55.8259 89.7158 56.1603 89.3019 56.5312C88.8888 56.905 88.4543 57.2515 88.0262 57.5944C87.5689 57.9126 87.1103 58.2188 86.6436 58.5066C85.6992 59.0782 84.6929 59.5404 83.644 59.8842L83.311 59.4584Z" fill="black"/>
<path d="M82.7908 50.1222C82.9782 49.0786 83.1648 48.0696 83.2844 47.0692C83.3596 46.5759 83.4155 46.0833 83.4624 45.5957C83.5232 45.1148 83.5862 44.6414 83.6171 44.1659C83.6383 43.6817 83.6136 43.1967 83.5434 42.7172C83.4864 42.2636 83.5888 41.8043 83.8331 41.4181C84.1178 40.9794 84.4598 40.5807 84.8499 40.2327C85.3923 39.747 85.9915 39.329 86.6345 38.9879L87.1734 39.0249C87.7854 39.4889 88.2829 40.0873 88.6277 40.774C88.9087 41.3279 89.0738 41.9333 89.1129 42.5532C89.1531 43.1276 89.0032 43.6992 88.6863 44.1797C88.355 44.6651 87.9838 45.1252 87.6932 45.5993C87.4043 46.0759 87.0871 46.5326 86.7752 46.9838C86.4279 47.4199 86.0763 47.8448 85.7114 48.2544C84.97 49.0729 84.138 49.8043 83.2315 50.4346L82.7908 50.1222Z" fill="black"/>
<path d="M67.7206 80.2707C67.7371 80.3238 67.7499 80.378 67.7592 80.4328V80.4406C67.6434 80.5256 67.5278 80.6105 67.412 80.6878L67.1651 80.5179C67.1307 80.5111 67.0971 80.5008 67.0648 80.487C67.0661 80.4711 67.0634 80.4552 67.0571 80.4406C67.0417 80.3557 67.0262 80.2861 67.003 80.2011V80.1934C66.8565 79.4827 66.6946 78.7876 66.5249 78.0846V78.0769C66.2934 77.1267 66.0387 76.1843 65.7688 75.2419C65.2211 73.4575 64.6117 71.6732 64.0176 69.8733C63.6319 68.7224 63.2616 67.5714 62.9221 66.4128C62.9067 66.3509 62.8836 66.2891 62.8682 66.2274V66.2196C62.1815 63.8559 61.549 61.4767 61.0167 59.0744C60.8855 58.5105 60.762 57.9466 60.6463 57.3827C60.5923 57.1046 60.5307 56.8342 60.4766 56.5562V56.5485C59.922 53.892 59.51 51.2077 59.2423 48.5071C59.2269 48.399 59.2192 48.2832 59.2115 48.1749C59.1574 47.5416 59.1034 46.9159 59.0649 46.2824V46.2747C58.8977 43.8417 58.9003 41.4 59.0726 38.9673C59.0714 38.9438 59.074 38.9203 59.0803 38.8977V38.8591C59.1111 38.5115 59.1497 38.1716 59.1961 37.8163V37.8086C59.4527 35.0616 60.1836 32.3799 61.3562 29.8832C60.2718 32.5706 59.6509 35.4229 59.52 38.3184C59.5046 38.4575 59.4969 38.5888 59.4891 38.7278V38.7355C59.4904 38.7743 59.4878 38.8131 59.4814 38.8514V38.89C59.3463 41.6552 59.4314 44.4268 59.736 47.1785C59.7361 47.2538 59.7439 47.3288 59.7592 47.4025V47.4102C59.7747 47.6497 59.8055 47.8738 59.8286 48.1132C59.8441 48.2136 59.8518 48.3218 59.8671 48.4222C59.8749 48.4994 59.8826 48.5844 59.898 48.6617C60.2848 51.7953 60.8307 54.9072 61.5336 57.9852V57.9929C61.5644 58.1398 61.5953 58.271 61.6338 58.4177C61.6405 58.4547 61.6508 58.491 61.6647 58.526V58.5337C61.683 58.6536 61.7088 58.7723 61.7419 58.889V58.8968C62.3128 61.3455 62.9761 63.771 63.6936 66.181C63.9173 66.9535 64.1488 67.7182 64.3802 68.4829C64.3879 68.4907 64.3879 68.4984 64.3802 68.4984C64.4496 68.6915 64.519 68.8924 64.5808 69.0855V69.0932C64.6117 69.2014 64.6502 69.3018 64.6811 69.4021C64.7119 69.5026 64.7427 69.603 64.7736 69.6958V69.7035C65.3445 71.4724 65.9385 73.2336 66.4708 75.0411C66.7717 76.1458 67.0571 77.2504 67.3195 78.3627C67.4351 78.8648 67.5431 79.3669 67.6434 79.8767V79.8844C67.6773 80.0114 67.7031 80.1404 67.7206 80.2707Z" fill="black"/>
<path d="M67.8054 80.1394L67.7207 80.2706L67.5201 80.5951C67.3965 80.5719 67.2809 80.5411 67.1651 80.5179C67.1307 80.5111 67.0971 80.5007 67.0649 80.4869C66.1465 80.2508 65.2527 79.9275 64.3957 79.5214C63.9019 79.2818 63.4159 79.0192 62.9299 78.7489C62.4747 78.4476 62.0041 78.1464 61.5567 77.8142C61.1093 77.4898 60.5924 77.204 60.0986 76.8796C59.6257 76.5524 59.2712 76.0809 59.0881 75.5354C58.8893 74.9469 58.8132 74.3238 58.8643 73.7047C58.9257 72.9384 59.1605 72.1961 59.5509 71.5341L60.0369 71.2946C60.7609 71.3676 61.4732 71.5284 62.1584 71.7735C62.6523 71.944 63.1197 72.1832 63.547 72.4842C63.9179 72.7481 64.1853 73.1333 64.303 73.5734C64.4244 74.0426 64.5871 74.5002 64.7891 74.9407C64.9974 75.3732 65.2365 75.7825 65.4679 76.2074C65.6994 76.64 65.9386 77.0726 66.1931 77.5052C66.3011 77.6983 66.4091 77.8837 66.5249 78.0768V78.0845C66.7409 78.4398 66.9568 78.7952 67.1883 79.1582C67.3349 79.3977 67.4892 79.6294 67.6434 79.8766V79.8843C67.6975 79.9694 67.7515 80.0544 67.8054 80.1394Z" fill="black"/>
<path d="M64.5838 70.0065C63.5063 69.7677 62.4594 69.407 61.4634 68.9311C60.9707 68.6908 60.4844 68.4312 59.9979 68.1595C59.5381 67.8605 59.0718 67.5585 58.6239 67.2272C58.1755 66.8989 57.6577 66.6141 57.1673 66.2909C56.692 65.9667 56.3367 65.4947 56.1564 64.948C55.9577 64.3595 55.881 63.7367 55.9312 63.1175C55.9903 62.3511 56.224 61.6084 56.6145 60.9466L57.0989 60.7078C57.823 60.7791 58.5359 60.9383 59.2217 61.1817C59.7145 61.3556 60.182 61.5946 60.6116 61.8924C60.984 62.157 61.2527 62.5431 61.3716 62.9845C61.4884 63.4548 61.6493 63.9129 61.8523 64.3529C62.0611 64.7811 62.2987 65.1952 62.5371 65.6171C62.7652 66.0504 63.0034 66.485 63.26 66.9129C63.7496 67.793 64.3045 68.6557 64.8733 69.5501L64.5838 70.0065Z" fill="black"/>
<path d="M61.5494 59.1984C60.4719 58.9596 59.425 58.5989 58.4289 58.123C57.9362 57.8827 57.45 57.6231 56.9635 57.3514C56.5039 57.0524 56.0374 56.7504 55.5895 56.419C55.141 56.0908 54.6233 55.806 54.1328 55.4827C53.6576 55.1585 53.3024 54.6866 53.122 54.1399C52.9233 53.5514 52.8466 52.9286 52.8967 52.3094C52.9558 51.543 53.1896 50.8003 53.5801 50.1385L54.0645 49.8997C54.7886 49.971 55.5015 50.1302 56.1873 50.3736C56.6802 50.5474 57.1476 50.7864 57.5772 51.0843C57.9495 51.3488 58.2182 51.7349 58.3372 52.1763C58.454 52.6465 58.615 53.1047 58.8179 53.5447C59.0267 53.973 59.2643 54.3871 59.5027 54.8089C59.7308 55.2422 59.9692 55.6768 60.2256 56.1047C60.7153 56.9849 61.2701 57.8476 61.8389 58.7419L61.5494 59.1984Z" fill="black"/>
<path d="M59.993 48.6871C58.9155 48.4483 57.8686 48.0875 56.8725 47.6117C56.3798 47.3713 55.8933 47.1117 55.4068 46.84C54.9473 46.541 54.481 46.239 54.0329 45.9077C53.5846 45.5794 53.0667 45.2947 52.5764 44.9713C52.1012 44.6471 51.7458 44.1752 51.5654 43.6284C51.3668 43.04 51.2902 42.4171 51.3403 41.7981C51.3993 41.0316 51.633 40.2889 52.0235 39.6271L52.5081 39.3884C53.2323 39.4597 53.9451 39.6188 54.6309 39.8623C55.1237 40.0361 55.5911 40.275 56.0207 40.5729C56.3931 40.8374 56.6618 41.2235 56.7808 41.6649C56.8976 42.1352 57.0585 42.5934 57.2615 43.0333C57.4702 43.4616 57.7077 43.8757 57.9463 44.2975C58.1744 44.7309 58.4126 45.1655 58.669 45.5934C59.1587 46.4735 59.7137 47.3362 60.2825 48.2306L59.993 48.6871Z" fill="black"/>
<path d="M59.3459 38.9589C58.2684 38.7201 57.2215 38.3593 56.2254 37.8835C55.7327 37.6432 55.2464 37.3836 54.7599 37.1119C54.3004 36.8129 53.8338 36.5109 53.386 36.1796C52.9375 35.8513 52.4198 35.5665 51.9293 35.2432C51.4541 34.919 51.0989 34.4471 50.9185 33.9004C50.7198 33.3119 50.6432 32.689 50.6934 32.0699C50.7524 31.3035 50.9861 30.5608 51.3766 29.899L51.861 29.6602C52.5851 29.7315 53.298 29.8906 53.9838 30.1341C54.4767 30.3079 54.9441 30.5469 55.3737 30.8448C55.7461 31.1093 56.0149 31.4955 56.1339 31.9369C56.2506 32.4071 56.4115 32.8653 56.6144 33.3053C56.8232 33.7334 57.0607 34.1476 57.2994 34.5694C57.5272 35.0027 57.7657 35.4374 58.022 35.8653C58.5117 36.7454 59.0668 37.6081 59.6354 38.5024L59.3459 38.9589Z" fill="black"/>
<path d="M73.2982 72.8088C73.3351 73.3822 73.1834 73.952 72.8661 74.4308C72.5344 74.9176 72.1641 75.381 71.8709 75.8522C71.5855 76.3311 71.2691 76.7869 70.9529 77.235C70.6058 77.6752 70.2586 78.1 69.8959 78.5094C69.2494 79.2203 68.5336 79.8646 67.759 80.4328V80.4406C67.6433 80.5256 67.5277 80.6105 67.4119 80.6878L67.165 80.5179L67.057 80.4406L66.9722 80.3788C66.9799 80.3171 66.9953 80.2629 67.0029 80.2012V80.1934C67.0647 79.8458 67.1265 79.4982 67.1882 79.1584C67.2344 78.8957 67.2807 78.6253 67.3194 78.3627C67.3733 78.0151 67.4196 77.6675 67.4659 77.3198C67.543 76.8333 67.597 76.3388 67.6433 75.8522C67.7051 75.3656 67.7668 74.8944 67.7976 74.4231C67.8207 73.9379 67.7975 73.4517 67.7282 72.971C67.6688 72.5183 67.7698 72.059 68.0136 71.6732C68.298 71.2326 68.6406 70.8324 69.032 70.4837C69.5749 70.0001 70.173 69.5826 70.814 69.2399L71.354 69.2786C71.9649 69.7434 72.4632 70.3401 72.812 71.0244C73.0918 71.5806 73.2571 72.1874 73.2982 72.8088Z" fill="black"/>
<path d="M64.2744 69.1096C64.4618 68.0661 64.6487 67.057 64.7683 66.0567C64.8434 65.5634 64.8993 65.0707 64.946 64.5831C65.0071 64.1022 65.07 63.6289 65.1008 63.1534C65.122 62.6692 65.0973 62.1841 65.0272 61.7047C64.9701 61.2511 65.0725 60.7918 65.3167 60.4055C65.6014 59.9668 65.9434 59.5682 66.3335 59.2202C66.8759 58.7344 67.4752 58.3165 68.1183 57.9754L68.6569 58.0124C69.269 58.4763 69.7666 59.0748 70.1115 59.7615C70.3924 60.3153 70.5575 60.9207 70.5967 61.5407C70.6368 62.1151 70.4868 62.6867 70.1699 63.1671C69.8386 63.6526 69.4674 64.1127 69.177 64.5867C68.888 65.0634 68.5709 65.5201 68.2588 65.9713C67.9117 66.4074 67.5598 66.8322 67.195 67.2419C66.4536 68.0604 65.6217 68.7919 64.7151 69.4221L64.2744 69.1096Z" fill="black"/>
<path d="M61.4617 58.3891C61.6491 57.3456 61.8357 56.3366 61.9553 55.3362C62.0305 54.843 62.0864 54.3503 62.1333 53.8627C62.1941 53.3818 62.2571 52.9084 62.288 52.4329C62.3092 51.9488 62.2845 51.4637 62.2143 50.9842C62.1573 50.5306 62.2597 50.0713 62.504 49.6851C62.7886 49.2463 63.1306 48.8477 63.5208 48.4997C64.0632 48.014 64.6624 47.596 65.3054 47.2549L65.8443 47.2919C66.4563 47.7559 66.9538 48.3543 67.2986 49.0411C67.5796 49.5949 67.7447 50.2003 67.7838 50.8202C67.824 51.3946 67.6741 51.9662 67.3572 52.4467C67.0259 52.9321 66.6545 53.3923 66.3641 53.8663C66.0752 54.3429 65.758 54.7996 65.4461 55.2508C65.0988 55.6869 64.7471 56.1118 64.3823 56.5214C63.6409 57.3399 62.8089 58.0714 61.9024 58.7016L61.4617 58.3891Z" fill="black"/>
<path d="M59.2815 48.083C59.7595 47.137 60.227 46.2237 60.6278 45.2997C60.841 44.8486 61.0354 44.3925 61.2197 43.9389C61.4156 43.4955 61.6113 43.0601 61.777 42.6133C61.9358 42.1555 62.0509 41.6837 62.121 41.2042C62.1959 40.7532 62.4254 40.3425 62.77 40.0426C63.1682 39.7039 63.6099 39.42 64.0833 39.1985C64.7419 38.8886 65.4356 38.6601 66.1492 38.5178L66.6548 38.7076C67.1084 39.3277 67.414 40.0438 67.5481 40.8007C67.6588 41.4119 67.6438 42.0393 67.5038 42.6444C67.3781 43.2063 67.0709 43.7109 66.6299 44.0804C66.1736 44.4505 65.6863 44.7848 65.2724 45.1557C64.8592 45.5296 64.4246 45.876 63.9967 46.2189C63.5392 46.5372 63.0808 46.8434 62.6141 47.1312C61.6696 47.7028 60.6632 48.165 59.6144 48.5089L59.2815 48.083Z" fill="black"/>
<path d="M58.7612 38.7467C58.9486 37.7033 59.1353 36.6942 59.2551 35.6939C59.3302 35.2006 59.3862 34.7079 59.4328 34.2203C59.4939 33.7394 59.5566 33.2661 59.5877 32.7905C59.6088 32.3064 59.5841 31.8213 59.514 31.3418C59.4569 30.8883 59.5593 30.429 59.8035 30.0428C60.0882 29.604 60.4302 29.2054 60.8204 28.8574C61.3627 28.3716 61.962 27.9536 62.6051 27.6126L63.1438 27.6495C63.7558 28.1136 64.2534 28.712 64.5983 29.3987C64.8793 29.9525 65.0444 30.5579 65.0833 31.1779C65.1236 31.7522 64.9737 32.3239 64.6567 32.8043C64.3254 33.2898 63.9542 33.7498 63.6638 34.224C63.3747 34.7006 63.0575 35.1572 62.7456 35.6085C62.3983 36.0446 62.0467 36.4695 61.6818 36.879C60.9404 37.6976 60.1085 38.429 59.2019 39.0593L58.7612 38.7467Z" fill="black"/>
<path d="M57.5021 95.5548C56.8801 93.0657 56.2756 90.5734 55.6885 88.0778L53.9586 80.585C53.9297 80.4597 53.9289 80.3295 53.9561 80.2039C53.9833 80.0782 54.0379 79.9601 54.116 79.858C54.1941 79.7559 54.2937 79.6723 54.4078 79.6133C54.5219 79.5542 54.6476 79.5211 54.7759 79.5163L54.845 79.5143L64.488 79.2149L74.1312 78.9911C80.5599 78.8904 86.9888 78.7638 93.4175 78.7394C99.8462 78.6795 106.275 78.6582 112.704 78.7371C119.133 78.7973 125.561 79.0321 131.99 79.1965L132.056 79.1981C132.371 79.2062 132.671 79.3394 132.888 79.5685C133.106 79.7976 133.223 80.1038 133.215 80.4198C133.213 80.4916 133.205 80.5631 133.19 80.6335C131.542 88.5172 129.832 96.39 128.336 104.301C126.833 112.211 125.467 120.146 124.178 128.094L122.328 140.032L120.581 151.987C119.417 159.957 118.134 167.906 116.816 175.848C116.747 176.267 116.533 176.647 116.211 176.923C115.89 177.199 115.482 177.353 115.059 177.358L115.018 177.359L104.218 177.484C100.618 177.515 97.0175 177.591 93.4175 177.585L82.6172 177.594L71.8168 177.491L71.7847 177.491C71.3291 177.486 70.8896 177.322 70.543 177.026C70.1964 176.73 69.9647 176.321 69.8884 175.871C69.0908 171.16 68.3795 166.435 67.6209 161.717L65.4794 147.54C64.7846 142.811 64.1142 138.078 63.4682 133.341C62.8632 128.596 62.2001 123.861 61.6597 119.105C61.6541 119.056 61.6674 119.007 61.6968 118.967C61.7262 118.928 61.7696 118.901 61.818 118.893C61.8664 118.884 61.9163 118.894 61.9575 118.921C61.9986 118.948 62.028 118.99 62.0396 119.038C63.1621 123.691 64.1618 128.366 65.2196 133.03C66.2364 137.702 67.2277 142.379 68.1933 147.06L71.0321 161.113C71.9338 165.806 72.8825 170.49 73.7453 175.189L71.8168 173.569L82.6172 173.467L93.4175 173.475C97.0175 173.469 100.618 173.545 104.218 173.577L115.018 173.702L113.22 175.212C114.701 167.297 116.217 159.388 117.852 151.501L122.729 127.835C124.286 119.935 125.765 112.02 127.108 104.081C128.457 96.1431 129.593 88.1668 130.79 80.2015L131.99 81.6384C125.561 81.8027 119.133 82.0376 112.704 82.0978C106.275 82.1766 99.8463 82.1552 93.4175 82.0954C86.9888 82.0711 80.5599 81.9444 74.1312 81.8438L64.488 81.6199L54.8451 81.3206L55.7311 80.25L56.848 87.8587C57.2122 90.3964 57.5565 92.9379 57.881 95.4831C57.8874 95.5321 57.8748 95.5815 57.8458 95.6215C57.8169 95.6614 57.7738 95.6888 57.7254 95.6979C57.6769 95.7071 57.6269 95.6974 57.5854 95.6708C57.5439 95.6442 57.5141 95.6027 57.5021 95.5548H57.5021Z" fill="black"/>
<path d="M-35.3119 48.0156C-38.4583 47.0552 -41.526 45.853 -44.4875 44.4197C-45.9548 43.6789 -47.4421 42.9679 -48.8764 42.1627C-50.3223 41.376 -51.7246 40.5176 -53.141 39.6809C-55.9442 37.9617 -58.7028 36.1677 -61.3597 34.2312C-64.0191 32.2953 -66.5743 30.2338 -69.0809 28.0932L-69.0982 28.0786C-69.1852 28.0043 -69.2391 27.8984 -69.2482 27.7843C-69.2572 27.6701 -69.2206 27.5571 -69.1464 27.4699C-69.125 27.4451 -69.1009 27.4226 -69.0747 27.4029C-66.1133 25.2101 -63.1086 23.1062 -60.137 20.9477C-57.1729 18.7803 -54.1703 16.668 -51.1804 14.5318C-45.2073 10.2326 -39.0057 6.26107 -32.6029 2.63461C-26.2232 -1.10434 -19.4568 -4.13835 -12.4227 -6.41401C-8.88435 -7.56848 -5.21261 -8.26309 -1.49756 -8.48079C0.369186 -8.58136 2.24107 -8.43833 4.07096 -8.05529C5.89716 -7.66616 7.6243 -6.90632 9.14574 -5.82269C9.16221 -5.81052 9.17318 -5.7923 9.17625 -5.77204C9.17931 -5.75178 9.17422 -5.73113 9.16209 -5.71463C9.15044 -5.69932 9.13358 -5.6888 9.11472 -5.68508C9.09586 -5.68137 9.07629 -5.68471 9.05972 -5.69446C5.88963 -7.57258 2.13221 -7.87505 -1.43353 -7.52613C-5.03297 -7.10786 -8.57312 -6.28047 -11.9855 -5.05997C-18.8329 -2.56009 -25.4796 0.459393 -31.868 3.97219C-38.2871 7.46394 -44.5803 11.215 -50.7691 15.1445C-56.9631 19.0693 -62.8936 23.3965 -68.5222 28.0982L-68.5159 27.4081C-65.9373 29.3951 -63.2441 31.2568 -60.5743 33.126C-57.8953 34.9864 -55.2125 36.8401 -52.4723 38.6073C-51.0876 39.4656 -49.7151 40.347 -48.3013 41.1559C-46.9156 42.0161 -45.4905 42.8032 -44.0736 43.6114C-41.1995 45.1473 -38.2834 46.6044 -35.2613 47.8697C-35.2423 47.8773 -35.227 47.8921 -35.2189 47.9109C-35.2107 47.9297 -35.2104 47.951 -35.2179 47.97C-35.2254 47.9878 -35.239 48.0022 -35.2563 48.0106C-35.2736 48.019 -35.2934 48.0208 -35.3119 48.0156Z" fill="black"/>
<path d="M22.3658 103.352C12.7829 101.354 3.55443 97.9248 -5.00988 93.1788C-9.27949 90.7573 -13.3325 87.9716 -17.1239 84.8525C-17.6007 84.4666 -18.061 84.0615 -18.5304 83.6668C-18.9945 83.2723 -19.468 82.8835 -19.939 82.4152C-20.835 81.4984 -21.614 80.4739 -22.2582 79.3651C-23.4958 77.188 -24.4455 74.8591 -25.0836 72.4369C-26.3353 67.6719 -27.0926 62.7904 -27.3435 57.8698C-27.6471 52.9834 -27.6816 48.084 -27.4469 43.1938C-27.3924 41.9724 -27.322 40.7514 -27.2357 39.5309C-27.1567 38.306 -26.9821 37.0783 -26.8478 35.8763C-26.5555 33.4559 -26.2702 31.0352 -25.9333 28.6204C-25.6013 26.205 -25.2553 23.7914 -24.8735 21.3829C-24.5422 18.9654 -24.0471 16.5733 -23.3915 14.2231C-23.6795 15.4055 -23.8966 16.6042 -24.0417 17.8126C-24.2026 19.0189 -24.3587 20.2255 -24.4973 21.4347C-24.7734 23.8533 -25.0136 26.2762 -25.2397 28.7003L-25.9047 35.9736C-26.1457 38.4037 -26.2527 40.7921 -26.3041 43.2321C-26.3989 48.0844 -26.308 52.942 -25.9412 57.7697C-25.6288 62.5837 -24.8521 67.3562 -23.6221 72.0205C-23.0019 74.3107 -22.1006 76.5151 -20.9389 78.5834C-20.3638 79.5856 -19.6669 80.5128 -18.8643 81.3438C-18.4743 81.7365 -18.0102 82.1257 -17.5489 82.5213C-17.0891 82.9123 -16.6378 83.3142 -16.1707 83.6965C-12.4606 86.7919 -8.51214 89.5891 -4.36223 92.062C-0.204561 94.5433 4.13332 96.7083 8.61487 98.539C13.1082 100.391 17.6986 101.998 22.3658 103.352Z" fill="black"/>
<path d="M-1.7116 2.37216C1.09269 3.3305 3.50945 5.17645 5.17368 7.63126C6.86837 10.0438 8.1309 12.7332 8.90481 15.5792C9.68011 18.4145 10.1555 21.3237 10.323 24.2586C10.4894 27.1653 10.6213 30.0733 10.7188 32.9829C10.8237 35.893 10.8516 38.8062 10.8336 41.7229C10.8101 44.6334 10.7209 47.5748 10.4442 50.4794C10.2311 53.3292 10.3572 56.1943 10.82 59.0142C11.2627 61.8389 11.9535 64.619 12.8843 67.3221L12.8249 67.2029C13.276 67.7931 13.7986 68.3249 14.3807 68.786C14.9826 69.2971 15.6151 69.7885 16.2571 70.2694C17.5426 71.231 18.8704 72.1513 20.2086 73.0565C22.8952 74.8538 25.609 76.6196 28.3497 78.3539C33.8299 81.8165 39.3815 85.1751 44.958 88.4914C47.7433 90.1549 50.5457 91.7893 53.3651 93.3945L55.4777 94.6016C55.8094 94.8069 56.1545 94.9898 56.5105 95.1491C56.8548 95.2727 57.2233 95.3137 57.5863 95.2688C57.9493 95.2238 58.2967 95.0941 58.6005 94.8902C58.886 94.6937 59.209 94.382 59.5122 94.1321L61.3611 92.5453C61.9893 92.0155 62.6504 91.5262 63.3405 91.0802C64.0292 90.6231 64.7523 90.2472 65.4274 89.8181C66.114 89.3898 66.7757 88.9437 67.4525 88.4779C67.8211 88.225 68.2439 88.0626 68.6868 88.0039C69.1298 87.9451 69.5803 87.9918 70.0018 88.14C70.2282 88.2145 70.4366 88.3355 70.6138 88.4951C70.7909 88.6548 70.9329 88.8496 71.0307 89.0672C71.1893 89.5077 71.1965 89.9885 71.051 90.4335C70.9251 90.8601 70.7105 91.2553 70.4212 91.5929C70.127 91.936 69.8166 92.179 69.5241 92.4627L65.9511 95.7703L66.0041 95.7047C65.7897 95.9871 65.687 96.3388 65.7159 96.6923C65.7447 97.0458 65.903 97.3761 66.1603 97.6199C66.7544 98.1251 67.4558 98.4881 68.211 98.6813C68.9697 98.9182 69.7531 99.0668 70.5458 99.1243C71.3481 99.0813 72.145 98.9679 72.9275 98.7855C76.1344 98.0899 79.305 97.1253 82.4576 96.1475L84.8183 95.3941C85.2275 95.2662 85.566 95.1385 86.0323 95.0076C86.5064 94.8812 87.0027 94.8623 87.4851 94.9523C87.745 95.0023 87.9954 95.0935 88.2266 95.2225C88.5023 95.3785 88.7217 95.618 88.8532 95.9065C89.047 96.4313 89.0275 97.0113 88.7989 97.5219C88.4565 98.4076 87.8482 99.1653 87.0577 99.6904C86.6735 99.9475 86.2576 100.154 85.8205 100.304L84.6505 100.718L82.3103 101.547L77.6296 103.205L77.7417 103.153C77.5614 103.257 77.3934 103.381 77.2405 103.523C77.1647 103.583 77.109 103.664 77.0811 103.757C77.0772 103.745 77.0887 103.818 77.2144 103.933C77.3525 104.052 77.5074 104.15 77.6741 104.223L77.3833 104.174L85.1613 103.669L89.0507 103.425C89.8393 103.366 90.6282 103.533 91.3258 103.906C91.6998 104.109 92.0302 104.383 92.2981 104.713C92.4613 104.919 92.5807 105.155 92.6488 105.408C92.7169 105.662 92.7323 105.926 92.6939 106.186C92.609 106.633 92.4088 107.051 92.113 107.397C91.8636 107.706 91.5711 107.977 91.2446 108.202C90.6034 108.637 89.8656 108.908 89.0957 108.992L85.194 109.34L81.3122 109.685L80.3417 109.771L79.8565 109.814C79.7272 109.824 79.5988 109.843 79.4722 109.87C79.2416 109.918 79.0208 110.005 78.8194 110.127C78.6502 110.229 78.5045 110.366 78.3916 110.528C78.3641 110.572 78.3472 110.621 78.3426 110.672C78.338 110.722 78.3456 110.774 78.365 110.821C78.4202 110.976 78.5212 111.111 78.6546 111.207C78.7304 111.264 78.8133 111.311 78.9012 111.347C79.0106 111.39 79.1241 111.422 79.24 111.443L80.1895 111.661L83.9868 112.539L85.8833 112.986C86.2177 113.07 86.4699 113.112 86.8907 113.237C87.2894 113.362 87.6641 113.554 87.9988 113.804C88.3572 114.074 88.652 114.42 88.8625 114.816C88.9922 115.06 89.0687 115.328 89.087 115.604C89.1053 115.879 89.0649 116.155 88.9686 116.414C88.7849 116.847 88.4912 117.224 88.1169 117.508C87.7426 117.792 87.3006 117.973 86.8348 118.033C86.4587 118.075 86.0795 118.082 85.7021 118.054C85.3604 118.039 85.0288 118.011 84.6968 117.984C84.0372 117.924 83.3832 117.854 82.7348 117.775L78.8638 117.288L76.9476 117.067C76.3643 116.99 75.7753 116.965 75.1877 116.994C74.9949 117.012 74.809 117.075 74.6449 117.178C74.5336 117.278 74.5639 117.258 74.561 117.285C74.5501 117.482 74.9633 117.93 75.2171 117.958C75.2561 117.962 75.2941 117.973 75.3298 117.989L75.3817 118.014L80.6264 120.486L80.4641 120.431C80.9264 120.517 81.3628 120.708 81.7396 120.99C82.1164 121.271 82.4235 121.636 82.6373 122.055C82.7589 122.318 82.8193 122.606 82.8139 122.895C82.8086 123.185 82.7377 123.47 82.6066 123.729C82.3824 124.151 82.0583 124.512 81.6625 124.779C80.9183 125.287 80.0076 125.488 79.1191 125.342C78.6509 125.257 78.363 125.146 78.018 125.055L77.0099 124.765L68.9446 122.449L67.9365 122.159L67.4325 122.015L67.3064 121.978L67.275 121.969L67.2593 121.965C67.285 121.97 67.1795 121.946 67.3128 121.976L67.2421 121.963L66.9611 121.907C66.2364 121.734 65.5346 121.476 64.8704 121.139L61.0544 119.372C58.5183 118.18 56.0016 116.953 53.4918 115.72C48.5303 113.168 43.405 110.948 38.1497 109.076L22.3406 103.425C22.331 103.421 22.3222 103.416 22.3147 103.409C22.3072 103.403 22.3011 103.394 22.2968 103.385C22.2924 103.376 22.29 103.366 22.2895 103.356C22.289 103.346 22.2905 103.336 22.2939 103.326C22.3008 103.307 22.3148 103.292 22.3329 103.283C22.351 103.274 22.3718 103.273 22.391 103.279L38.3673 108.411C43.6966 110.176 48.903 112.293 53.9523 114.748L61.567 118.262L65.3906 119.969C65.9768 120.261 66.596 120.482 67.2349 120.627L67.4685 120.67L67.5271 120.68L67.6598 120.712L67.7863 120.747L68.2923 120.884L69.3043 121.16L77.4005 123.365L78.4125 123.641C78.7433 123.727 79.1195 123.845 79.3416 123.876C79.8501 123.955 80.3697 123.837 80.7934 123.544C80.9785 123.416 81.1318 123.248 81.2414 123.051C81.2718 122.998 81.2876 122.937 81.2875 122.875C81.2873 122.814 81.2711 122.753 81.2404 122.699C81.1226 122.5 80.9622 122.328 80.7706 122.198C80.579 122.067 80.361 121.981 80.1321 121.945C80.0808 121.934 80.0308 121.918 79.9832 121.896L79.9694 121.889L74.7169 119.434L74.8812 119.49C74.4129 119.377 73.9878 119.13 73.658 118.778C73.3053 118.427 73.0749 117.971 73.0008 117.479C72.9599 117.162 73.0139 116.84 73.1561 116.555C73.2863 116.299 73.4753 116.079 73.7073 115.911C74.0829 115.647 74.5183 115.481 74.974 115.428C75.6833 115.376 76.3961 115.397 77.1013 115.488L79.0574 115.707L82.9211 116.181C83.5623 116.257 84.2003 116.323 84.8348 116.379C85.1502 116.404 85.4661 116.429 85.7732 116.441C86.0438 116.461 86.3155 116.459 86.5857 116.435C86.7678 116.416 86.9423 116.352 87.0934 116.248C87.2446 116.145 87.3677 116.005 87.4518 115.843C87.47 115.796 87.4764 115.745 87.4703 115.695C87.4642 115.645 87.4459 115.597 87.4169 115.556C87.3158 115.379 87.1798 115.225 87.0172 115.103C86.8291 114.965 86.619 114.86 86.396 114.792C86.1947 114.729 85.8073 114.649 85.5114 114.577L83.6136 114.135L79.8218 113.234L78.874 113.008C78.6711 112.966 78.4725 112.905 78.2809 112.826C78.0683 112.737 77.8681 112.62 77.6852 112.48C77.2945 112.184 77.0034 111.776 76.8506 111.31C76.7657 111.048 76.7376 110.771 76.7681 110.497C76.7986 110.223 76.887 109.959 77.0275 109.723C77.2711 109.339 77.6014 109.017 77.9917 108.784C78.3475 108.569 78.7375 108.417 79.1448 108.334C79.3359 108.294 79.5295 108.267 79.7243 108.253L80.2099 108.213L81.181 108.135L85.0653 107.82L88.9296 107.505C89.4579 107.453 89.9656 107.273 90.4085 106.98C90.796 106.743 91.0919 106.381 91.2481 105.954C91.2578 105.891 91.2534 105.827 91.2351 105.766C91.2168 105.705 91.1851 105.648 91.1424 105.601C90.9966 105.428 90.8201 105.283 90.6218 105.175C90.1658 104.931 89.6504 104.821 89.1349 104.858L85.2438 105.072L77.4604 105.484L77.4349 105.486C77.3436 105.49 77.2526 105.473 77.1694 105.435C76.86 105.299 76.5751 105.114 76.3263 104.885C76.1578 104.739 76.0228 104.558 75.9305 104.355C75.8382 104.152 75.7908 103.931 75.7915 103.708C75.828 103.282 76.0277 102.886 76.3489 102.603C76.5779 102.392 76.8306 102.208 77.1019 102.055C77.1376 102.035 77.1752 102.017 77.2142 102.004L81.9167 100.409L84.2678 99.6118L85.4433 99.2132C85.7926 99.1023 86.126 98.9463 86.435 98.7489C87.0433 98.3646 87.5177 97.8009 87.7931 97.1356C87.9206 96.8885 87.9555 96.6038 87.8913 96.3331C87.8477 96.179 87.6078 96.0327 87.2756 95.9586C86.942 95.8912 86.5977 95.8993 86.2677 95.9821C85.9353 96.0668 85.4923 96.2151 85.1097 96.3267L82.7251 97.0346C79.5361 97.9486 76.3483 98.8601 73.0718 99.5113C72.2384 99.69 71.3906 99.7934 70.5387 99.8202C69.6801 99.7493 68.8331 99.5758 68.0157 99.3034C67.166 99.0675 66.3827 98.6371 65.7274 98.0462C65.3751 97.7044 65.1626 97.2435 65.1312 96.7533C65.1236 96.2793 65.2556 95.8137 65.5109 95.4144C65.5254 95.3901 65.5433 95.3679 65.564 95.3486L69.1583 92.0643C69.4506 91.7864 69.7805 91.5226 70.015 91.2481C70.2581 90.9692 70.4394 90.6418 70.5469 90.2876C70.6612 89.9561 70.6632 89.596 70.5525 89.2632C70.4823 89.11 70.3808 88.9732 70.2546 88.8617C70.1283 88.7501 69.98 88.6664 69.8194 88.6158C69.4726 88.4937 69.1019 88.4551 68.7375 88.5031C68.373 88.551 68.0249 88.6842 67.7213 88.8918C67.0589 89.3416 66.3716 89.7984 65.6786 90.2244C64.9817 90.6621 64.2571 91.0269 63.5945 91.4703C62.9251 91.9112 62.2844 92.3942 61.6761 92.9164L59.8442 94.5164C59.5233 94.7842 59.2684 95.0486 58.8906 95.3202C58.52 95.5733 58.0952 95.7357 57.6504 95.7944C57.2057 95.8531 56.7533 95.8064 56.3299 95.6581C55.9426 95.4928 55.5676 95.3001 55.2077 95.0815L53.0835 93.8922L44.5989 89.1129C38.9462 85.9187 33.3179 82.6794 27.7519 79.3239C24.9705 77.6435 22.1984 75.9434 19.4892 74.1332C18.1333 73.2294 16.7864 72.3096 15.4663 71.336C14.8065 70.8484 14.1532 70.3485 13.5143 69.8136C12.8192 69.2708 12.2004 68.6366 11.6744 67.9282C11.6521 67.8961 11.6339 67.8612 11.6203 67.8245L11.6147 67.8089C10.616 65.0244 9.90205 62.1457 9.48365 59.2169C9.02885 56.2898 8.92367 53.3188 9.17032 50.3668C9.63541 44.5932 9.7838 38.7983 9.61482 33.0084C9.44742 27.2072 9.68272 21.3492 8.1834 15.7752C7.50921 12.9768 6.35971 10.3153 4.78506 7.90688C3.97831 6.71761 3.02071 5.6383 1.93629 4.69603C0.863394 3.73602 -0.388165 2.99743 -1.74663 2.52259L-1.75653 2.51947C-1.77574 2.51325 -1.79176 2.49972 -1.8011 2.4818C-1.81044 2.46388 -1.81235 2.44299 -1.80645 2.42366C-1.80055 2.40432 -1.7873 2.38809 -1.76955 2.37846C-1.7518 2.36882 -1.731 2.36657 -1.7116 2.37216Z" fill="black"/>
<path d="M28.312 49.3563C28.8871 50.9629 29.4083 52.5845 29.9448 54.2017C30.4892 55.817 30.9932 57.4433 31.5047 59.0675C32.5161 62.3191 33.4839 65.5829 34.4295 68.8525L34.2522 68.5407C35.9322 70.2369 37.6779 71.8962 39.416 73.5461C41.1619 75.1915 42.9333 76.8067 44.7303 78.3916C46.5346 79.9671 48.3702 81.5036 50.2821 82.9373C52.1367 84.4533 54.2396 85.6361 56.4975 86.4334C55.2866 86.2792 54.1089 85.9285 53.0106 85.395C51.8975 84.8956 50.82 84.32 49.7858 83.6724C47.7251 82.3827 45.7467 80.9656 43.8621 79.4293C41.9687 77.9118 40.1479 76.3108 38.374 74.6622C36.5938 73.0166 34.8853 71.3107 33.2029 69.5519L33.1953 69.5439C33.114 69.4585 33.0556 69.3538 33.0254 69.2398C32.166 65.9462 31.3285 62.6466 30.5347 59.335C30.1437 57.6775 29.7452 56.0222 29.3867 54.3557C29.0206 52.6914 28.6392 51.0313 28.312 49.3563Z" fill="black"/>
<path d="M120.225 145.291H66.4397L68.2373 154.616H118.428L120.225 145.291Z" fill="black"/>
<path d="M73.3284 174.106L77.3742 165.377C77.3816 165.362 77.392 165.347 77.4049 165.335C77.4178 165.323 77.4329 165.314 77.4493 165.308C77.4658 165.302 77.4832 165.299 77.5007 165.3C77.5182 165.301 77.5354 165.305 77.5513 165.313C77.5816 165.327 77.6056 165.352 77.6189 165.383L81.3654 174.017L80.9398 174.031L83.8929 165.338C83.9054 165.301 83.9251 165.267 83.9508 165.237C83.9766 165.208 84.0078 165.184 84.0428 165.167C84.0777 165.15 84.1158 165.139 84.1547 165.137C84.1936 165.134 84.2326 165.14 84.2695 165.152C84.3111 165.167 84.3491 165.191 84.3807 165.222C84.4123 165.253 84.4368 165.29 84.4526 165.332L87.7251 173.987L87.0898 173.986L90.3378 165.308C90.3545 165.263 90.3798 165.222 90.4122 165.187C90.4447 165.152 90.4837 165.124 90.527 165.105C90.5703 165.085 90.6171 165.074 90.6646 165.072C90.7122 165.071 90.7595 165.079 90.8041 165.095C90.8904 165.128 90.9611 165.192 91.0022 165.275L95.2902 173.936L94.5757 173.998L97.1271 165.334C97.1538 165.242 97.216 165.164 97.3001 165.118C97.3841 165.071 97.4831 165.06 97.5753 165.087C97.6274 165.102 97.6754 165.129 97.7159 165.166C97.7563 165.202 97.7882 165.247 97.8093 165.297L101.373 173.976L100.739 173.999L103.652 165.343C103.664 165.306 103.683 165.272 103.708 165.242C103.733 165.213 103.764 165.188 103.798 165.171C103.833 165.153 103.87 165.142 103.909 165.139C103.948 165.136 103.986 165.141 104.023 165.153C104.063 165.166 104.099 165.188 104.13 165.216C104.161 165.244 104.186 165.279 104.203 165.317L107.931 174.016L107.517 174.027L110.887 165.391C110.892 165.375 110.901 165.36 110.912 165.348C110.924 165.336 110.937 165.326 110.952 165.319C110.967 165.312 110.984 165.308 111 165.307C111.017 165.306 111.034 165.309 111.049 165.314C111.068 165.322 111.085 165.333 111.099 165.348C111.113 165.363 111.123 165.381 111.129 165.4L113.502 174.106L110.883 165.471L111.125 165.481L107.935 174.185C107.92 174.227 107.893 174.263 107.857 174.289C107.821 174.315 107.778 174.33 107.734 174.331C107.69 174.333 107.646 174.321 107.609 174.298C107.571 174.274 107.541 174.24 107.523 174.2L107.521 174.196L103.662 165.554L104.213 165.529L101.382 174.213C101.354 174.298 101.294 174.369 101.214 174.409C101.134 174.45 101.041 174.457 100.956 174.429C100.909 174.414 100.867 174.388 100.831 174.355C100.795 174.321 100.767 174.281 100.748 174.236L97.1403 165.574L97.8222 165.537L95.3144 174.214C95.2928 174.288 95.2492 174.355 95.1892 174.404C95.1293 174.454 95.0558 174.484 94.9785 174.49C94.9011 174.497 94.8236 174.48 94.756 174.442C94.6884 174.404 94.6339 174.346 94.5998 174.276L90.3517 165.596L91.0159 165.564L87.7246 174.226C87.7091 174.268 87.6855 174.306 87.6552 174.338C87.6249 174.371 87.5885 174.397 87.548 174.416C87.5076 174.434 87.4639 174.445 87.4194 174.446C87.3749 174.448 87.3306 174.441 87.2889 174.425C87.2434 174.408 87.2021 174.381 87.1677 174.346C87.1333 174.312 87.1065 174.27 87.0892 174.225L83.8952 165.54L84.4547 165.534L81.3706 174.181L81.3695 174.185C81.354 174.228 81.3257 174.266 81.2885 174.293C81.2512 174.32 81.2066 174.335 81.1606 174.336C81.1147 174.337 81.0695 174.324 81.031 174.299C80.9925 174.274 80.9625 174.237 80.945 174.195L77.3715 165.488L77.6161 165.494L73.3284 174.106Z" fill="black"/>
<path d="M65.7412 141.133L70.6319 128.715C70.6442 128.684 70.6655 128.657 70.6931 128.638C70.7206 128.619 70.7533 128.608 70.7869 128.607C70.8205 128.607 70.8535 128.616 70.8819 128.634C70.9102 128.652 70.9326 128.678 70.9462 128.709L70.9481 128.714C72.7452 132.806 74.5237 136.907 76.2837 141.015L75.7197 141.034L79.9337 128.65C79.9598 128.574 80.0088 128.507 80.074 128.459C80.1393 128.412 80.2177 128.385 80.2985 128.384C80.3793 128.382 80.4586 128.406 80.5256 128.451C80.5926 128.496 80.6441 128.561 80.673 128.636L80.6752 128.642L85.3339 140.976L84.4922 140.974L89.1221 128.61C89.1442 128.551 89.1777 128.497 89.2207 128.451C89.2637 128.405 89.3154 128.368 89.3728 128.342C89.4301 128.316 89.4921 128.301 89.555 128.299C89.618 128.297 89.6808 128.307 89.7398 128.329C89.8541 128.373 89.9478 128.458 90.0021 128.568L96.1097 140.907L95.1631 140.99L98.796 128.646C98.8313 128.523 98.9138 128.42 99.0251 128.359C99.1365 128.297 99.2676 128.283 99.3897 128.318C99.4588 128.339 99.5224 128.374 99.576 128.422C99.6296 128.471 99.6719 128.53 99.6998 128.596L104.78 140.961L103.94 140.992L108.086 128.657L108.087 128.653C108.113 128.578 108.16 128.512 108.223 128.465C108.286 128.417 108.362 128.39 108.441 128.387C108.52 128.384 108.598 128.404 108.665 128.447C108.732 128.489 108.785 128.55 108.816 128.623L114.133 141.014L113.585 141.028C115.163 136.918 116.763 132.817 118.384 128.723L118.386 128.719C118.402 128.679 118.432 128.647 118.472 128.63C118.511 128.613 118.555 128.612 118.595 128.628C118.62 128.638 118.642 128.654 118.659 128.675C118.677 128.696 118.689 128.721 118.694 128.747L121.089 141.133L118.377 128.813L118.687 128.838C117.184 132.976 115.668 137.11 114.139 141.238C114.112 141.312 114.056 141.371 113.985 141.404C113.914 141.436 113.832 141.439 113.759 141.412C113.684 141.383 113.624 141.325 113.591 141.252L108.099 128.938L108.829 128.904L104.791 141.275C104.754 141.388 104.674 141.481 104.568 141.535C104.462 141.589 104.34 141.598 104.227 141.561C104.165 141.541 104.109 141.507 104.061 141.463C104.014 141.419 103.976 141.365 103.951 141.305L98.8134 128.964L99.7172 128.915L96.1418 141.276C96.1132 141.375 96.0554 141.463 95.9759 141.529C95.8965 141.594 95.7991 141.634 95.6967 141.643C95.5942 141.652 95.4915 141.629 95.402 141.579C95.3124 141.528 95.2403 141.451 95.195 141.359L89.1405 128.993L90.0206 128.95L85.3333 141.292C85.3127 141.348 85.2814 141.398 85.2413 141.441C85.2011 141.485 85.1528 141.52 85.0992 141.544C85.0456 141.569 84.9877 141.582 84.9288 141.584C84.8699 141.587 84.8111 141.577 84.7559 141.556C84.6956 141.533 84.6409 141.498 84.5953 141.452C84.5498 141.406 84.5144 141.351 84.4916 141.291L79.9366 128.918L80.6781 128.91L76.2907 141.233C76.2779 141.27 76.2578 141.305 76.2315 141.335C76.2053 141.365 76.1735 141.389 76.1379 141.406C76.1023 141.424 76.0636 141.434 76.024 141.436C75.9845 141.439 75.9448 141.434 75.9073 141.421C75.8672 141.406 75.8305 141.384 75.7994 141.355C75.7684 141.325 75.7436 141.29 75.7267 141.251C74.0098 137.124 72.3119 132.99 70.6329 128.847L70.9489 128.845L65.7412 141.133Z" fill="black"/>
<path d="M73.4653 160.276C73.7653 160.265 74.0496 160.139 74.2581 159.923C74.4667 159.706 74.5832 159.418 74.5832 159.117C74.5832 158.816 74.4667 158.528 74.2581 158.311C74.0496 158.095 73.7653 157.969 73.4653 157.958C73.1653 157.969 72.8811 158.095 72.6725 158.311C72.464 158.528 72.3474 158.816 72.3474 159.117C72.3474 159.418 72.464 159.706 72.6725 159.923C72.8811 160.139 73.1653 160.265 73.4653 160.276Z" fill="black"/>
<path d="M81.1799 160.276C81.4799 160.265 81.7641 160.139 81.9727 159.923C82.1812 159.706 82.2978 159.418 82.2978 159.117C82.2978 158.816 82.1812 158.528 81.9727 158.311C81.7641 158.095 81.4799 157.969 81.1799 157.958C80.8799 157.969 80.5957 158.095 80.3871 158.311C80.1786 158.528 80.062 158.816 80.062 159.117C80.062 159.418 80.1786 159.706 80.3871 159.923C80.5957 160.139 80.8799 160.265 81.1799 160.276Z" fill="black"/>
<path d="M88.8943 160.276C89.1943 160.265 89.4785 160.139 89.6871 159.923C89.8956 159.706 90.0122 159.418 90.0122 159.117C90.0122 158.816 89.8956 158.528 89.6871 158.311C89.4785 158.095 89.1943 157.969 88.8943 157.958C88.5943 157.969 88.3101 158.095 88.1015 158.311C87.8929 158.528 87.7764 158.816 87.7764 159.117C87.7764 159.418 87.8929 159.706 88.1015 159.923C88.3101 160.139 88.5943 160.265 88.8943 160.276Z" fill="black"/>
<path d="M96.6089 160.276C96.9089 160.265 97.1931 160.139 97.4017 159.923C97.6102 159.706 97.7268 159.418 97.7268 159.117C97.7268 158.816 97.6102 158.528 97.4017 158.311C97.1931 158.095 96.9089 157.969 96.6089 157.958C96.3089 157.969 96.0247 158.095 95.8161 158.311C95.6075 158.528 95.491 158.816 95.491 159.117C95.491 159.418 95.6075 159.706 95.8161 159.923C96.0247 160.139 96.3089 160.265 96.6089 160.276Z" fill="black"/>
<path d="M104.323 160.276C104.623 160.265 104.908 160.139 105.116 159.923C105.325 159.706 105.441 159.418 105.441 159.117C105.441 158.816 105.325 158.528 105.116 158.311C104.908 158.095 104.623 157.969 104.323 157.958C104.023 157.969 103.739 158.095 103.531 158.311C103.322 158.528 103.206 158.816 103.206 159.117C103.206 159.418 103.322 159.706 103.531 159.923C103.739 160.139 104.023 160.265 104.323 160.276Z" fill="black"/>
<path d="M112.038 160.276C112.338 160.265 112.622 160.139 112.831 159.923C113.039 159.706 113.156 159.418 113.156 159.117C113.156 158.816 113.039 158.528 112.831 158.311C112.622 158.095 112.338 157.969 112.038 157.958C111.738 157.969 111.454 158.095 111.245 158.311C111.036 158.528 110.92 158.816 110.92 159.117C110.92 159.418 111.036 159.706 111.245 159.923C111.454 160.139 111.738 160.265 112.038 160.276Z" fill="black"/>
</g>
<defs>
<clipPath id="clip0_2_54">
<rect width="180" height="180" fill="white" transform="translate(0 0.940796)"/>
</clipPath>
</defs>
</svg>
