<svg id="Layer_1" data-name="Layer 1" xmlns="http://www.w3.org/2000/svg" viewBox="0 0 297.64 297.64"><defs><style>.cls-1{fill:#fff;}</style></defs><path d="M109.34,85.34a9.35,9.35,0,0,1-.76,6.14,32.06,32.06,0,0,1-3.17,5.44c-2.4,3.44-5.12,6.6-7.75,9.8a193.75,193.75,0,0,0-15,19.61,77.5,77.5,0,0,0-10.06,22,60,60,0,0,0-1.24,5.9,57.45,57.45,0,0,0-.67,6,61.28,61.28,0,0,0,.45,12,89.66,89.66,0,0,0,2.57,11.86,87.61,87.61,0,0,0,4.08,11.46,65.61,65.61,0,0,0,5.77,10.62,58.93,58.93,0,0,0,7.77,9.22,78.72,78.72,0,0,0,9.49,7.67c3.33,2.41,6.86,4.66,10.09,7.45A21.5,21.5,0,0,1,118,241.12a19.4,19.4,0,0,1,.72,6.29,9.37,9.37,0,0,1-.73,3.09,5,5,0,0,1-2,2.38,4.85,4.85,0,0,0,1.71-2.49,9,9,0,0,0,.42-3,18.29,18.29,0,0,0-1.17-5.94,20.31,20.31,0,0,0-7.3-9.33c-3.21-2.47-6.81-4.51-10.33-6.76a78.48,78.48,0,0,1-10.16-7.56,61,61,0,0,1-14.88-20.61,90.25,90.25,0,0,1-4.35-11.94,79.76,79.76,0,0,1-2.72-12.43A62.87,62.87,0,0,1,69,147.4a76.15,76.15,0,0,1,11.11-22.75,167.18,167.18,0,0,1,16.13-19.18c2.84-3,5.7-6,8.32-9.19a32.21,32.21,0,0,0,3.49-5A9.09,9.09,0,0,0,109.34,85.34Z"/><path d="M140.15,79.05A8.94,8.94,0,0,0,144,83.73a31.89,31.89,0,0,0,5.45,2.89c3.8,1.63,7.74,3,11.67,4.37a171.85,171.85,0,0,1,23.26,9.65,76.51,76.51,0,0,1,20.48,15.12,62.15,62.15,0,0,1,13.37,21.85A80.61,80.61,0,0,1,221.49,150a89.56,89.56,0,0,1,1.5,12.68,60.44,60.44,0,0,1-4.1,25.23,80.09,80.09,0,0,1-5.77,11.35c-2.16,3.6-4.49,7.05-6.28,10.7a20.24,20.24,0,0,0-2.38,11.64,18.06,18.06,0,0,0,1.65,5.85,9,9,0,0,0,1.74,2.49,4.91,4.91,0,0,0,2.67,1.44,5.13,5.13,0,0,1-2.88-1.2,9.11,9.11,0,0,1-2.08-2.42,18.75,18.75,0,0,1-2.24-6,18.44,18.44,0,0,1-.14-6.46,26.53,26.53,0,0,1,1.81-6.21c1.67-3.94,3.84-7.55,5.77-11.21a78.74,78.74,0,0,0,5.13-11.14A58.42,58.42,0,0,0,218.75,175a64.75,64.75,0,0,0,.4-12.14,85.81,85.81,0,0,0-1.53-12.12,88.77,88.77,0,0,0-3.11-11.79,60.76,60.76,0,0,0-5.14-11,53.12,53.12,0,0,0-3.37-5,57.28,57.28,0,0,0-3.85-4.68,77.76,77.76,0,0,0-19.22-15,199.7,199.7,0,0,0-22.48-10.55c-3.83-1.64-7.72-3.21-11.45-5.17a32.76,32.76,0,0,1-5.34-3.39A9.31,9.31,0,0,1,140.15,79.05Z"/><path d="M111.55,250.17a7.38,7.38,0,0,0-.32,4.2,10.43,10.43,0,0,0,1.63,3.81,18,18,0,0,0,6.19,5.44c4.86,2.73,10.48,3.9,16.08,4.41,11.27.87,22.7-.87,33.85-3.45a144.24,144.24,0,0,0,16.44-4.82,85.33,85.33,0,0,0,15.34-7.22,48.13,48.13,0,0,0,6.76-5,29.84,29.84,0,0,0,5.48-6.24,17.24,17.24,0,0,0,2.9-7.67,9.69,9.69,0,0,0-2.44-7.82,8.63,8.63,0,0,1,2.82,3.41,11.88,11.88,0,0,1,1,4.44,18.7,18.7,0,0,1-2.15,8.88c-2.82,5.48-7.33,9.81-12.22,13.28a74.21,74.21,0,0,1-15.83,8.4,119.1,119.1,0,0,1-17,5.2,122.94,122.94,0,0,1-17.55,2.83,76.57,76.57,0,0,1-17.89-.42c-5.92-.89-11.88-2.69-16.91-6.21a18.93,18.93,0,0,1-6.07-6.78,11.27,11.27,0,0,1-1.19-4.39A7.45,7.45,0,0,1,111.55,250.17Z"/><path d="M112.52,60.34A16.35,16.35,0,0,0,105.07,68c-1.56,3.14-2.16,6.92-.81,9.85a7.37,7.37,0,0,0,3.26,3.34,13.23,13.23,0,0,0,4.8,1.34,35.33,35.33,0,0,0,10.54-.85,30.24,30.24,0,0,0,9.86-3.56,11.42,11.42,0,0,0,3.56-3.34,7.66,7.66,0,0,0,1.18-4.51,10.34,10.34,0,0,0-1.52-4.72,15.23,15.23,0,0,0-3.35-4,13.55,13.55,0,0,0-9.88-3.59,10.85,10.85,0,0,1,5.6,0,16,16,0,0,1,5.21,2.39,17,17,0,0,1,4.13,4.11,12.52,12.52,0,0,1,2.2,5.6,9.75,9.75,0,0,1-1.29,6.1,13.86,13.86,0,0,1-4.28,4.37,31,31,0,0,1-10.82,4.06,46,46,0,0,1-5.65.82,26.49,26.49,0,0,1-5.83-.11,15.74,15.74,0,0,1-5.73-1.86,9.42,9.42,0,0,1-4.09-4.69,10.87,10.87,0,0,1-.47-6,16,16,0,0,1,2.14-5.41A15.66,15.66,0,0,1,112.52,60.34Z"/><path d="M116.07,61.65a3.75,3.75,0,0,1-2-1.67,5.35,5.35,0,0,1-.74-2.64,4.64,4.64,0,0,1,.82-2.8,4,4,0,0,1,1.15-1.09,4.79,4.79,0,0,1,.72-.35c.23-.07.44-.16.68-.21a4.64,4.64,0,0,1,3,.13,4.25,4.25,0,0,1,2.16,2,6.7,6.7,0,0,1,.32,5.14,9.87,9.87,0,0,0-1.64-4.31,2.89,2.89,0,0,0-3.32-1.06c-.17,0-.34.1-.5.15a3.39,3.39,0,0,0-.39.18,2.23,2.23,0,0,0-.65.54,3.47,3.47,0,0,0-.77,1.75A5,5,0,0,0,116.07,61.65Z"/><path class="cls-1" d="M155.14,102a15.68,15.68,0,0,1,2-11.21A16.37,16.37,0,0,1,185,107.91a15.61,15.61,0,0,1-9,6.83"/><path d="M155,102a15.8,15.8,0,0,1,.54-9.34,16.58,16.58,0,0,1,5.84-7.59A17.22,17.22,0,0,1,170.59,82a17.67,17.67,0,0,1,5,.52,19.38,19.38,0,0,1,4.67,1.86,19.07,19.07,0,0,1,7.12,7.17,16.11,16.11,0,0,1-2.59,19.13,14.36,14.36,0,0,1-8.66,4.23l-.12-.38a17.59,17.59,0,0,0,6.62-5.66,19.53,19.53,0,0,0,1.07-1.81,13.67,13.67,0,0,0,.78-1.91,13.23,13.23,0,0,0,.8-4,16.49,16.49,0,0,0-1.44-7.85,14.08,14.08,0,0,0-2.16-3.47,16,16,0,0,0-3.09-2.76,16.4,16.4,0,0,0-3.78-1.8,15.37,15.37,0,0,0-4.16-.71,15,15,0,0,0-8.18,2.15,14.06,14.06,0,0,0-3.36,2.75,14.69,14.69,0,0,0-2.45,3.65,15.65,15.65,0,0,0-1.28,8.78Z"/><path d="M174.86,49.72a20,20,0,0,1,8.11,9.7,15.65,15.65,0,0,1,1,6.68,15,15,0,0,1-2.16,6.63,15.38,15.38,0,0,1-5,5A16.31,16.31,0,0,1,170.18,80a19.26,19.26,0,0,1-13-3.34,18.7,18.7,0,0,1-7.56-10.82A15.81,15.81,0,0,1,151.8,53a14.51,14.51,0,0,1,4.88-4.38,15.72,15.72,0,0,1,6.15-1.85A19.25,19.25,0,0,1,174.86,49.72Zm-.22.33A16.55,16.55,0,0,0,169,47.62a15.32,15.32,0,0,0-6.07,0,14.31,14.31,0,0,0-9.48,6.5,13.51,13.51,0,0,0-1.37,11A15.83,15.83,0,0,0,158.91,74,15.28,15.28,0,0,0,169.61,76a13.64,13.64,0,0,0,8.87-5.51A14.46,14.46,0,0,0,180.91,60a14.78,14.78,0,0,0-2.06-5.55A15.53,15.53,0,0,0,174.64,50.05Z"/><path d="M185.26,30.94a55.8,55.8,0,0,1,5.37-9.71A24.14,24.14,0,0,1,194.36,17a10.15,10.15,0,0,1,2.5-1.62,4.5,4.5,0,0,1,3.37-.21,4.9,4.9,0,0,1,2.49,2.46,10.18,10.18,0,0,1,.93,3,23.56,23.56,0,0,1,0,5.93,40.21,40.21,0,0,1-3.11,11.09,40,40,0,0,1-6.06,9.81,23,23,0,0,1-4.39,4,10.23,10.23,0,0,1-2.86,1.37,4.85,4.85,0,0,1-3.5-.18A4.52,4.52,0,0,1,181.63,50a10.23,10.23,0,0,1-.49-2.94,23.79,23.79,0,0,1,.61-5.62A55.17,55.17,0,0,1,185.26,30.94Zm0,0a37.53,37.53,0,0,0-3,10.61,21.34,21.34,0,0,0,.05,5.42,8.14,8.14,0,0,0,.77,2.43,2.63,2.63,0,0,0,1.47,1.41c1.15.34,2.63-.52,3.86-1.59a22.61,22.61,0,0,0,3.36-3.89,55.28,55.28,0,0,0,5.12-9.27,56.16,56.16,0,0,0,3.37-10,22,22,0,0,0,.59-5.12c0-1.62-.42-3.3-1.45-3.92a2.68,2.68,0,0,0-2-.13,8.09,8.09,0,0,0-2.31,1.09,20.88,20.88,0,0,0-4,3.63A37.83,37.83,0,0,0,185.26,30.94Z"/><path d="M155.6,96.37a75.93,75.93,0,0,0-7.9-.94l.36-.15c-1.05,1.4-2.13,2.78-3.2,4.16l-.38-1a51.73,51.73,0,0,1,6,1.21,58.85,58.85,0,0,1,5.79,1.82,61.57,61.57,0,0,1,11,5.22,52.56,52.56,0,0,1,9.6,7.52,47.68,47.68,0,0,1,7.56,9.55l-1.08-.14,4.51-4.13-.05.63c-.86-1.29-1.76-2.58-2.68-3.83-.46-.63-.94-1.25-1.43-1.86a19.7,19.7,0,0,0-1.52-1.77,28.22,28.22,0,0,1,3.35,3.3c1.05,1.17,2.06,2.37,3.06,3.59l.25.31-.3.32-4.22,4.42-.59.62-.49-.76a42.76,42.76,0,0,0-3.58-4.66,57.56,57.56,0,0,0-13.42-11.41,72.48,72.48,0,0,0-21.88-8.74l-1.07-.22.69-.77c1.16-1.31,2.32-2.62,3.5-3.91l.16-.17.19,0c1.35.19,2.65.45,4,.74S154.32,96,155.6,96.37Z"/><path d="M71.43,166.63a14.07,14.07,0,0,0,3.34,3.7A24.25,24.25,0,0,0,79,173a44.34,44.34,0,0,0,9.34,3.38,91.7,91.7,0,0,0,19.74,2.52,136.81,136.81,0,0,0,19.93-1,147,147,0,0,0,19.63-3.62,199.42,199.42,0,0,0,19.19-5.71,152.74,152.74,0,0,0,18.44-7.72,78.72,78.72,0,0,0,16.64-10.82,33.27,33.27,0,0,0,6.48-7.43,18,18,0,0,0,2.91-9.42,16.46,16.46,0,0,1-.23,5.09,20.66,20.66,0,0,1-1.71,4.86,33.66,33.66,0,0,1-6.1,8.32,73.33,73.33,0,0,1-16.53,12.15c-12,6.67-24.94,11.2-38.13,14.56a145.09,145.09,0,0,1-20.18,3.51,123,123,0,0,1-20.49.3,82.85,82.85,0,0,1-20.15-3.75,43.65,43.65,0,0,1-9.34-4.3,24.28,24.28,0,0,1-4-3.18A14.46,14.46,0,0,1,71.43,166.63Z"/></svg>