<svg width="200" height="121" viewBox="0 0 200 121" fill="none" xmlns="http://www.w3.org/2000/svg">
<path d="M190.373 56.6659C190.843 56.6659 191.277 56.787 191.729 57.012C192.164 57.2543 192.512 57.5831 192.755 58.033C192.998 58.4657 193.12 58.9329 193.12 59.4002C193.12 59.8674 192.998 60.3347 192.755 60.7673C192.512 61.2 192.181 61.5461 191.729 61.7884C191.295 62.0306 190.843 62.1518 190.356 62.1518C189.887 62.1518 189.417 62.0306 188.983 61.7884C188.548 61.5461 188.2 61.2173 187.957 60.7673C187.713 60.3347 187.592 59.8847 187.592 59.4002C187.592 58.9156 187.713 58.4657 187.957 58.033C188.2 57.6004 188.548 57.2543 188.983 57.012C189.417 56.7697 189.869 56.6659 190.339 56.6659H190.373ZM190.373 57.1158C189.991 57.1158 189.608 57.2197 189.243 57.41C188.878 57.6004 188.583 57.8946 188.391 58.258C188.183 58.6214 188.079 59.0022 188.079 59.4002C188.079 59.7982 188.183 60.1789 188.391 60.5424C188.6 60.9058 188.878 61.1827 189.243 61.3903C189.608 61.598 189.991 61.7018 190.391 61.7018C190.791 61.7018 191.173 61.598 191.538 61.3903C191.903 61.1827 192.181 60.9058 192.39 60.5424C192.598 60.1789 192.685 59.7982 192.685 59.4002C192.685 59.0022 192.581 58.6214 192.372 58.258C192.164 57.8946 191.886 57.6004 191.521 57.41C191.156 57.2197 190.773 57.1158 190.391 57.1158H190.373ZM189.156 60.9231V57.9811H190.182C190.53 57.9811 190.791 58.0157 190.93 58.0677C191.086 58.1196 191.208 58.2234 191.295 58.3445C191.382 58.483 191.434 58.6214 191.434 58.7772C191.434 58.9848 191.364 59.1752 191.208 59.331C191.051 59.4867 190.843 59.5732 190.599 59.6079C190.704 59.6598 190.791 59.7117 190.843 59.7636C190.964 59.8847 191.103 60.0751 191.277 60.352L191.642 60.9231H191.069L190.808 60.4558C190.599 60.0924 190.425 59.8674 190.304 59.7636C190.217 59.6944 190.095 59.6598 189.921 59.6598H189.643V60.9058H189.174L189.156 60.9231ZM189.626 59.2617H190.199C190.478 59.2617 190.669 59.2271 190.773 59.1406C190.877 59.0541 190.93 58.9502 190.93 58.8118C190.93 58.7253 190.912 58.6387 190.86 58.5868C190.808 58.5176 190.738 58.4657 190.651 58.4311C190.565 58.3965 190.408 58.3792 190.165 58.3792H189.626V59.2617Z" fill="#201E1E" stroke="#201E1E" stroke-width="0.287997"/>
<path d="M72.4595 46.9629C72.4595 46.9629 93.6335 39.4003 84.9066 57.9866C84.9066 57.9866 108.532 43.8998 95.0243 81.4876C95.0243 81.4876 103.351 66.0683 105.42 41.9269C105.507 40.9405 104.812 40.0406 103.821 39.8849C99.0574 39.1407 85.2369 38.0159 72.4595 46.9629Z" fill="#FBB04D"/>
<path d="M23.2954 55.964L22.3219 61.1037H21.5396C21.5048 59.477 21.2267 58.3521 20.7399 57.7464C20.2532 57.1407 19.4709 56.8292 18.4104 56.8292H15.3682L14.0818 63.5265H14.725C15.768 63.5265 16.5329 63.3189 17.0023 62.8862C17.4717 62.4536 17.8715 61.7094 18.2192 60.6192H19.0189L17.6803 67.6626H16.8806C16.9328 67.2472 16.9675 66.9184 16.9675 66.6762C16.9675 65.9839 16.7937 65.4128 16.446 64.9975C16.0983 64.5822 15.4377 64.3745 14.4816 64.3745H13.9253L12.5346 71.8505H14.6033L14.4294 72.7331H6.91943L7.07589 71.8505H8.81432L11.7001 56.8119H9.57923L9.75307 55.9467H23.2954V55.964Z" fill="#201E1E"/>
<path d="M20.9673 72.7287L23.1056 63.5567H21.4193L21.5931 62.7779H23.4706C23.9574 62.7779 24.4963 62.7433 25.0874 62.6914L25.9392 62.6049H26.426L25.8175 65.0969L25.8697 65.1488C26.9127 63.4528 27.9732 62.6049 29.0857 62.6049C29.5551 62.6049 29.955 62.7433 30.3026 63.0375C30.6329 63.3317 30.8068 63.7297 30.8068 64.2662C30.8068 64.7161 30.6677 65.0623 30.3896 65.3392C30.1114 65.616 29.8159 65.7545 29.503 65.7545C29.0162 65.7545 28.6338 65.5122 28.3035 65.0276C27.9905 64.5431 27.7472 64.3008 27.5733 64.3008C27.2256 64.3008 26.791 64.7508 26.2521 65.6333C25.7306 66.5159 25.2786 67.71 24.9135 69.2156L24.0791 72.7114H21.0021L20.9673 72.7287Z" fill="#201E1E"/>
<path d="M37.3236 63.2985C36.7499 63.2985 36.2632 63.5234 35.8459 63.9734C35.4287 64.4233 35.0115 65.5828 34.5943 67.4518C34.1597 69.3208 33.951 70.4284 33.951 70.7918C33.951 71.2244 34.0727 71.5706 34.3335 71.8647C34.5943 72.1589 34.9419 72.2974 35.3766 72.2974C35.9502 72.2974 36.4544 72.0897 36.8716 71.6917C37.2888 71.2764 37.7234 70.1169 38.1754 68.1786C38.6274 66.2404 38.8534 65.0982 38.8534 64.7175C38.8534 63.7657 38.3319 63.2811 37.3062 63.2811L37.3236 63.2985ZM35.2201 73.0242C33.9337 73.0242 32.8906 72.6608 32.0909 71.934C31.2739 71.2071 30.874 70.2034 30.874 68.9574C30.874 67.2268 31.5694 65.7386 32.9601 64.4925C34.3509 63.2465 35.8981 62.6235 37.5844 62.6235C38.836 62.6235 39.8791 62.9696 40.7135 63.6619C41.548 64.3541 41.9652 65.3405 41.9652 66.6384C41.9652 68.3344 41.2872 69.84 39.9486 71.1206C38.61 72.4012 37.0281 73.0415 35.2375 73.0415L35.2201 73.0242Z" fill="#201E1E"/>
<path d="M43.3069 72.7287L45.393 63.6086H43.585L43.7763 62.8298H45.1496C45.7233 62.8298 46.4013 62.7952 47.1662 62.7087L48.244 62.6049H48.7308L48.244 64.6296L48.2962 64.6815C49.4783 63.2971 50.73 62.6049 52.0512 62.6049C52.677 62.6049 53.1985 62.7606 53.6158 63.1067C54.0156 63.4355 54.2242 63.9201 54.2242 64.5604C54.2242 64.8027 54.1721 65.1661 54.0678 65.668L53.129 69.8905C53.0073 70.4616 52.9378 70.8423 52.9378 71.0673C52.9378 71.3096 53.0073 71.4307 53.1638 71.4307C53.807 71.4307 54.4502 70.6174 55.1282 68.9733L55.841 69.1464C55.3368 70.4616 54.7284 71.448 54.033 72.071C53.3376 72.7114 52.6075 73.0229 51.86 73.0229C51.2863 73.0229 50.8169 72.8325 50.4518 72.4691C50.0868 72.1057 49.8955 71.673 49.8955 71.2058C49.8955 70.8423 49.9651 70.3059 50.1215 69.6136L51.1994 64.8719C51.3037 64.595 51.3558 64.3354 51.3558 64.0758C51.3558 63.7816 51.2167 63.6432 50.956 63.6432C50.7995 63.6432 50.6083 63.6951 50.3823 63.7816C50.1563 63.8855 49.9129 64.0239 49.6348 64.2143C49.3566 64.4046 49.0263 64.6815 48.6439 65.0623C48.244 65.443 48.0528 65.6853 48.018 65.7891L46.4013 72.7287H43.3243H43.3069Z" fill="#201E1E"/>
<path d="M64.4805 62.8302L64.3241 63.609H61.9424L60.3605 70.4447C60.2909 70.7562 60.2562 70.9985 60.2562 71.1889C60.2562 71.5177 60.4126 71.6734 60.7255 71.6734C61.7686 71.6734 62.7074 70.7043 63.5418 68.7834L64.2372 69.0257C63.281 71.5696 61.786 72.8329 59.752 72.8329C59.0045 72.8329 58.4134 72.6252 57.9788 72.2272C57.5442 71.8292 57.3356 71.3619 57.3356 70.8254C57.3356 70.6005 57.353 70.3755 57.3704 70.2024C57.3878 70.0121 57.4921 69.4929 57.6833 68.6622L58.8307 63.5917H57.1965L57.3878 62.8129H59.0393L59.6651 60.2171L62.7943 59.871L62.1163 62.8129H64.4979L64.4805 62.8302Z" fill="#201E1E"/>
<path d="M67.5729 58.4855C67.5729 58.0009 67.7294 57.5683 68.0597 57.2222C68.39 56.8761 68.7724 56.703 69.2418 56.703C69.6764 56.703 70.0588 56.8761 70.3891 57.2222C70.7195 57.5683 70.8759 58.0009 70.8759 58.4855C70.8759 58.9873 70.7195 59.42 70.3891 59.7661C70.0762 60.1295 69.6764 60.3026 69.2418 60.3026C68.7898 60.3026 68.39 60.1295 68.0597 59.7661C67.7294 59.4027 67.5729 58.97 67.5729 58.4855ZM70.337 62.6561L68.4943 70.6513C68.4943 70.686 68.4595 70.7898 68.4247 70.9629C68.39 71.1359 68.3726 71.257 68.3726 71.3436C68.3726 71.5859 68.4769 71.707 68.6855 71.707C69.3287 71.707 69.9372 70.8763 70.5282 69.215L71.1367 69.6995C70.3718 71.9147 69.1549 73.0222 67.5034 73.0222C66.0605 73.0222 65.3303 72.4684 65.3303 71.3436C65.3303 71.0148 65.3999 70.5994 65.5215 70.063L67.0688 63.608H65.6432L65.8171 62.8292H67.3991C67.9032 62.8292 68.4421 62.7946 69.0158 62.7427L69.7807 62.6561H70.337Z" fill="#201E1E"/>
<path d="M75.674 67.7273C77.1691 67.7966 78.1947 67.485 78.7336 66.8101C79.2725 66.1179 79.5507 65.4257 79.5507 64.7335C79.5507 64.3354 79.4464 63.9893 79.2204 63.7124C78.9944 63.4355 78.6815 63.2971 78.2469 63.2971C77.621 63.2971 77.0995 63.6432 76.7171 64.3527C76.3346 65.0623 75.9695 66.1871 75.674 67.7273ZM81.0805 69.3714L81.6716 69.804C80.3156 71.9326 78.4033 73.0055 75.9348 73.0055C74.5788 73.0055 73.5705 72.6248 72.9099 71.8807C72.2493 71.1365 71.9016 70.2366 71.9016 69.1983C71.9016 67.5889 72.5274 66.1006 73.7617 64.6988C74.996 63.2971 76.6475 62.6049 78.6815 62.6049C79.6898 62.6049 80.4547 62.8298 80.9588 63.2798C81.4804 63.7297 81.7411 64.3354 81.7411 65.1142C81.7411 67.485 79.655 68.5926 75.4654 68.4196C75.222 69.5271 75.0829 70.2886 75.0829 70.7385C75.0829 71.6384 75.5697 72.1057 76.5258 72.1057C78.1947 72.1057 79.7072 71.1885 81.0457 69.3714H81.0805Z" fill="#201E1E"/>
<path d="M83.3054 72.7287L85.4437 63.5567H83.7574L83.9313 62.7779H85.8088C86.2955 62.7779 86.8344 62.7433 87.4255 62.6914L88.2773 62.6049H88.7641L88.1556 65.0969L88.2078 65.1488C89.2508 63.4528 90.3113 62.6049 91.4239 62.6049C91.8933 62.6049 92.2931 62.7433 92.6408 63.0375C92.9711 63.3317 93.1449 63.7297 93.1449 64.2662C93.1449 64.7161 93.0059 65.0623 92.7277 65.3392C92.4496 65.616 92.154 65.7545 91.8411 65.7545C91.3543 65.7545 90.9719 65.5122 90.6416 65.0276C90.3287 64.5431 90.0853 64.3008 89.9114 64.3008C89.5638 64.3008 89.1292 64.7508 88.5902 65.6333C88.0687 66.5159 87.6167 67.71 87.2517 69.2156L86.4172 72.7114H83.3402L83.3054 72.7287Z" fill="#201E1E"/>
<path d="M113.328 55.9591L115.031 67.1905H115.084L120.994 55.9591H127.079L126.922 56.8071H125.114L122.211 71.8457H124.28L124.123 72.7283H116.37L116.526 71.8457H118.56L121.446 56.859L121.394 56.8071L113.05 72.7283H112.267L109.851 56.9628H109.816L106.982 71.8457H109.26L109.086 72.7283H103.94L104.097 71.8457H106.165L109.086 56.8071H106.982L107.156 55.9591H113.328Z" fill="#201E1E"/>
<path d="M131.981 63.4874C131.546 63.4874 131.198 63.6951 130.938 64.0931C130.694 64.4912 130.312 65.7026 129.842 67.71C129.356 69.7175 129.13 70.9289 129.13 71.3442C129.13 71.9499 129.425 72.2441 130.016 72.2441C130.486 72.2441 130.972 71.9672 131.494 71.4307C132.015 70.877 132.45 69.8213 132.815 68.2638C133.163 66.689 133.354 65.6333 133.354 65.0623C133.354 64.6642 133.232 64.3181 132.972 63.9893C132.728 63.6605 132.398 63.5048 131.998 63.5048L131.981 63.4874ZM134.032 62.8817H137.109L135.527 69.6136C135.388 70.2886 135.318 70.7039 135.318 70.8943C135.318 71.3096 135.44 71.5 135.701 71.5C136.188 71.5 136.744 70.7039 137.335 69.1118L137.943 69.5963C137.039 71.8807 135.91 73.0055 134.536 73.0055C133.476 73.0055 132.78 72.4345 132.45 71.3096C131.598 72.4518 130.607 73.0055 129.477 73.0055C128.556 73.0055 127.774 72.6594 127.13 71.9672C126.487 71.275 126.174 70.3751 126.174 69.3021C126.174 67.5716 126.748 66.0141 127.895 64.6469C129.043 63.2798 130.329 62.6049 131.737 62.6049C132.693 62.6049 133.354 63.1067 133.702 64.0931H133.754L134.032 62.8644V62.8817Z" fill="#201E1E"/>
<path d="M138.989 72.7287L141.127 63.5567H139.441L139.614 62.7779H141.492C141.979 62.7779 142.518 62.7433 143.109 62.6914L143.96 62.6049H144.447L143.839 65.0969L143.891 65.1488C144.934 63.4528 145.994 62.6049 147.107 62.6049C147.576 62.6049 147.976 62.7433 148.324 63.0375C148.654 63.3317 148.828 63.7297 148.828 64.2662C148.828 64.7161 148.689 65.0623 148.411 65.3392C148.133 65.616 147.837 65.7545 147.524 65.7545C147.037 65.7545 146.655 65.5122 146.325 65.0276C146.012 64.5431 145.768 64.3008 145.595 64.3008C145.247 64.3008 144.812 64.7508 144.273 65.6333C143.752 66.5159 143.3 67.71 142.935 69.2156L142.1 72.7114H139.023L138.989 72.7287Z" fill="#201E1E"/>
<path d="M158.908 69.238L159.533 69.5495C158.612 71.8165 157.378 72.9587 155.848 72.9587C155.257 72.9587 154.805 72.7683 154.475 72.3876C154.144 72.0069 153.988 71.5223 153.988 70.9339C153.988 70.4148 154.057 69.9475 154.197 69.5668C154.336 69.1861 154.457 68.8053 154.579 68.4246C154.701 68.0439 154.753 67.7324 154.753 67.5074C154.753 67.369 154.648 67.2132 154.457 67.0402C154.04 67.4209 153.692 67.6112 153.414 67.6112C153.067 67.6112 152.893 67.4382 152.893 67.0921C152.893 66.8671 152.997 66.6767 153.223 66.4864C153.449 66.296 153.779 66.2441 154.214 66.296C154.44 66.071 154.874 65.3961 155.518 64.2712C156.161 63.1637 156.943 62.6099 157.865 62.6099C158.317 62.6099 158.699 62.7657 159.012 63.0599C159.325 63.3541 159.481 63.7521 159.481 64.2539C159.481 64.7385 159.342 65.1192 159.081 65.3615C158.821 65.6038 158.525 65.7422 158.195 65.7422C157.865 65.7422 157.604 65.6211 157.378 65.3615C157.169 65.1192 157.065 64.9289 157.065 64.8077L157.117 64.202C157.03 64.029 156.943 63.9597 156.839 63.9597C156.596 63.9597 156.283 64.3232 155.9 65.0327C155.518 65.7422 155.222 66.2268 155.031 66.4518C156.439 66.7806 157.134 67.6285 157.134 68.9957C157.134 69.1687 157.1 69.5149 157.013 70.034C156.943 70.5705 156.891 70.8647 156.891 70.9166C156.891 71.2108 156.995 71.3666 157.187 71.3666C157.604 71.3666 158.073 70.8301 158.595 69.7744C158.612 69.7052 158.716 69.5322 158.873 69.238H158.908ZM148.234 72.7337L152.041 56.726H150.355L150.546 55.9645H152.319C152.754 55.9645 153.293 55.9126 153.971 55.8261L154.874 55.705H155.344L151.259 72.7337H148.216H148.234Z" fill="#201E1E"/>
<path d="M164.422 67.7273C165.917 67.7966 166.943 67.485 167.481 66.8101C168.02 66.1179 168.299 65.4257 168.299 64.7335C168.299 64.3354 168.194 63.9893 167.968 63.7124C167.742 63.4355 167.429 63.2971 166.995 63.2971C166.369 63.2971 165.847 63.6432 165.465 64.3527C165.082 65.0623 164.717 66.1871 164.422 67.7273ZM169.828 69.3714L170.419 69.804C169.063 71.9326 167.151 73.0055 164.683 73.0055C163.327 73.0055 162.318 72.6248 161.658 71.8807C160.997 71.1365 160.649 70.2366 160.649 69.1983C160.649 67.5889 161.275 66.1006 162.51 64.6988C163.744 63.2971 165.395 62.6049 167.429 62.6049C168.438 62.6049 169.202 62.8298 169.707 63.2798C170.228 63.7297 170.489 64.3354 170.489 65.1142C170.489 67.485 168.403 68.5926 164.213 68.4196C163.97 69.5271 163.831 70.2886 163.831 70.7385C163.831 71.6384 164.317 72.1057 165.274 72.1057C166.943 72.1057 168.455 71.1885 169.794 69.3714H169.828Z" fill="#201E1E"/>
<path d="M179.632 62.8302L179.475 63.609H177.094L175.512 70.4447C175.442 70.7562 175.407 70.9985 175.407 71.1889C175.407 71.5177 175.564 71.6734 175.877 71.6734C176.92 71.6734 177.858 70.7043 178.693 68.7834L179.388 69.0257C178.432 71.5696 176.937 72.8329 174.903 72.8329C174.156 72.8329 173.565 72.6252 173.13 72.2272C172.695 71.8292 172.487 71.3619 172.487 70.8254C172.487 70.6005 172.504 70.3755 172.521 70.2024C172.539 70.0121 172.643 69.4929 172.834 68.6622L173.982 63.5917H172.348L172.539 62.8129H174.19L174.816 60.2171L177.945 59.871L177.267 62.8129H179.649L179.632 62.8302Z" fill="#201E1E"/>
<path d="M181.022 65.6853C181.022 64.7681 181.404 64.0066 182.152 63.4528C182.899 62.8817 183.977 62.6049 185.385 62.6049C186.446 62.6049 187.28 62.7779 187.854 63.1413C188.445 63.5048 188.723 63.972 188.723 64.5431C188.723 64.9065 188.584 65.2007 188.306 65.4603C188.028 65.7199 187.715 65.841 187.332 65.841C186.967 65.841 186.672 65.7199 186.429 65.4776C186.185 65.2353 186.063 64.9065 186.063 64.5085C186.063 64.3527 186.081 64.197 186.116 64.0239C186.15 63.8509 186.168 63.7297 186.168 63.6605C186.168 63.349 185.82 63.1933 185.142 63.1933C183.96 63.1933 183.369 63.574 183.369 64.3181C183.369 64.5604 183.473 64.7854 183.699 65.0103C183.908 65.2353 184.534 65.616 185.542 66.1525C186.55 66.689 187.263 67.2255 187.663 67.7966C188.063 68.3503 188.254 68.956 188.254 69.6309C188.254 70.6174 187.819 71.4134 186.95 72.0537C186.081 72.6767 184.968 73.0055 183.595 73.0055C182.43 73.0055 181.474 72.7633 180.744 72.3133C180.014 71.8461 179.666 71.275 179.666 70.5828C179.666 70.202 179.805 69.8732 180.101 69.5963C180.379 69.3194 180.726 69.1983 181.126 69.1983C181.509 69.1983 181.822 69.3194 182.048 69.5617C182.274 69.804 182.395 70.0636 182.448 70.3232C182.448 71.05 182.552 71.5692 182.743 71.8634C182.952 72.1749 183.282 72.3133 183.769 72.3133C184.36 72.3133 184.847 72.2095 185.246 72.0018C185.646 71.7942 185.855 71.4827 185.855 71.1019C185.855 70.3059 185.055 69.5271 183.438 68.7657C181.822 68.0042 181.022 66.9832 181.022 65.7026V65.6853Z" fill="#201E1E"/>
<g style="mix-blend-mode:hue">
<rect width="198.201" height="120" transform="translate(0.919434 0.440918)" fill="transparent"/>
</g>
</svg>
