<svg width="36" height="37" viewBox="0 0 36 37" fill="none" xmlns="http://www.w3.org/2000/svg">
<path fill-rule="evenodd" clip-rule="evenodd" d="M18 3.94092C13.926 3.94092 13.416 3.95791 11.816 4.03092C10.219 4.10392 9.12799 4.35792 8.174 4.72891C7.174 5.10492 6.267 5.69491 5.517 6.45892C4.75422 7.20805 4.16386 8.11441 3.787 9.11491C3.418 10.0689 3.163 11.1609 3.09 12.7579C3.018 14.3569 3 14.8659 3 18.9409C3 23.016 3.01699 23.5249 3.09 25.125C3.163 26.7219 3.417 27.813 3.788 28.767C4.164 29.7669 4.75399 30.6739 5.518 31.4239C6.26715 32.1867 7.17351 32.7771 8.174 33.1539C9.12799 33.5239 10.219 33.7779 11.816 33.8509C13.416 33.924 13.926 33.9409 18 33.9409C22.074 33.9409 22.584 33.924 24.184 33.8509C25.7809 33.7779 26.872 33.5239 27.826 33.153C28.8259 32.7769 29.733 32.187 30.483 31.4229C31.2458 30.6738 31.8361 29.7675 32.2129 28.767C32.583 27.813 32.837 26.7219 32.91 25.125C32.9831 23.5249 33 23.0149 33 18.9409C33 14.8669 32.9831 14.3569 32.91 12.7569C32.837 11.1599 32.583 10.0689 32.2121 9.11491C31.8354 8.11398 31.245 7.20724 30.482 6.45792C29.7329 5.69514 28.8265 5.10478 27.826 4.72792C26.872 4.35892 25.7801 4.10392 24.183 4.03092C22.584 3.95892 22.0751 3.94092 18 3.94092ZM18 6.64392C22.005 6.64392 22.48 6.65892 24.062 6.73092C25.524 6.79792 26.318 7.04092 26.847 7.24792C27.5471 7.51891 28.047 7.84492 28.572 8.36892C29.097 8.89392 29.422 9.39391 29.6929 10.0939C29.899 10.6229 30.1429 11.4169 30.21 12.8789C30.282 14.4609 30.297 14.9359 30.297 18.9409C30.297 22.9459 30.282 23.421 30.21 25.0029C30.1429 26.4649 29.9 27.2589 29.6929 27.7879C29.4529 28.4395 29.0699 29.0289 28.572 29.5129C28.0881 30.0109 27.4986 30.394 26.847 30.6339C26.318 30.84 25.524 31.0839 24.062 31.1509C22.48 31.2229 22.0061 31.2379 18 31.2379C13.994 31.2379 13.52 31.2229 11.938 31.1509C10.476 31.0839 9.68201 30.8409 9.153 30.6339C8.50146 30.3939 7.91201 30.0108 7.428 29.5129C6.93018 29.0289 6.54712 28.4394 6.307 27.7879C6.10099 27.2589 5.857 26.4649 5.79 25.0029C5.718 23.421 5.703 22.9459 5.703 18.9409C5.703 14.9359 5.718 14.4609 5.79 12.8789C5.857 11.4169 6.1 10.6229 6.307 10.0939C6.57799 9.39391 6.90401 8.89392 7.428 8.36892C7.91195 7.87096 8.50142 7.48789 9.153 7.24792C9.68201 7.04191 10.476 6.79792 11.938 6.73092C13.52 6.65892 13.995 6.64392 18 6.64392Z" fill="white"/>
<path fill-rule="evenodd" clip-rule="evenodd" d="M18 23.9459C17.3427 23.9459 16.692 23.8164 16.0847 23.5649C15.4775 23.3133 14.9257 22.9446 14.461 22.4799C13.9962 22.0151 13.6275 21.4634 13.376 20.8562C13.1245 20.249 12.995 19.5981 12.995 18.9408C12.995 18.2835 13.1245 17.6327 13.376 17.0255C13.6275 16.4183 13.9962 15.8665 14.461 15.4017C14.9257 14.937 15.4775 14.5683 16.0847 14.3168C16.692 14.0653 17.3427 13.9358 18 13.9358C19.3275 13.9358 20.6004 14.4631 21.5391 15.4017C22.4777 16.3404 23.0051 17.6135 23.0051 18.9408C23.0051 20.2682 22.4777 21.5412 21.5391 22.4799C20.6004 23.4185 19.3275 23.9459 18 23.9459ZM18 11.2308C15.9552 11.2308 13.9941 12.0431 12.5482 13.489C11.1023 14.9349 10.29 16.896 10.29 18.9408C10.29 20.9856 11.1023 22.9467 12.5482 24.3926C13.9941 25.8386 15.9552 26.6508 18 26.6508C20.0448 26.6508 22.0059 25.8386 23.4518 24.3926C24.8978 22.9467 25.71 20.9856 25.71 18.9408C25.71 16.896 24.8978 14.9349 23.4518 13.489C22.0059 12.0431 20.0448 11.2308 18 11.2308ZM27.953 11.0908C27.953 11.5742 27.761 12.0377 27.4193 12.3795C27.0774 12.7213 26.6139 12.9133 26.1306 12.9133C25.6472 12.9133 25.1837 12.7213 24.8418 12.3795C24.5001 12.0377 24.308 11.5742 24.308 11.0908C24.308 10.6075 24.5001 10.1439 24.8418 9.8021C25.1837 9.46033 25.6472 9.26831 26.1306 9.26831C26.6139 9.26831 27.0774 9.46033 27.4193 9.8021C27.761 10.1439 27.953 10.6075 27.953 11.0908Z" fill="white"/>
</svg>
