<svg xmlns="http://www.w3.org/2000/svg" xmlns:xlink="http://www.w3.org/1999/xlink" viewBox="0 0 297.64 297.64"><defs><style>.cls-1{fill:none;}.cls-2{clip-path:url(#clip-path);}</style><clipPath id="clip-path"><rect class="cls-1" x="-409.18" y="-28.18" width="270" height="270"/></clipPath></defs><g id="Layer_1" data-name="Layer 1"><g class="cls-2"><image width="5100" height="7002" transform="translate(92.82 538.06) rotate(180) scale(0.12)" xlink:href="../../../Pictures/Scans/Scan_20240604%20(2).png"/></g><path d="M164.67,59.47c-6.06-3-10.58-9.69-11.56-16.35-5.33,13.25-28.22,8-31.42,22.64-1.63-5.92-9.12-2.72-10.18,1.86-1.06,5.11,2.15,11.85,7.63,12.72a49.17,49.17,0,0,1,.81,7.17l-.62,0C117.8,98.92,102.78,103,93.61,98.26c-16-7.63-8.59-32.91,8.71-26.21-10.73-22.41,15.5-40.23,46.46-36.82,12.59,1.38,26.2,15,16.59,26.68L165,62c-.14-.73-.32-1.46-.51-2.16Z"/></g><g id="Layer_2" data-name="Layer 2"><path d="M152.89,65.33a9.27,9.27,0,0,0,1.36,4.15c.7,1.29,1.5,2.56,2.16,4a9.2,9.2,0,0,1,.73,2.26,3.59,3.59,0,0,1-.45,2.45,5.77,5.77,0,0,1-4.1,2.07c1.36-.59,2.79-1.3,3.43-2.46s.09-2.6-.52-3.9-1.37-2.63-1.95-4A7.19,7.19,0,0,1,152.89,65.33Z"/><path d="M164.49,59.83a36.22,36.22,0,0,1,2.11,13.41,34.45,34.45,0,0,1-2.92,13.43,22.85,22.85,0,0,1-3.85,5.86,15.67,15.67,0,0,1-12.69,5.07A21.91,21.91,0,0,1,140.51,96a27.2,27.2,0,0,0,6.64.57,16.21,16.21,0,0,0,6.25-1.5,18.25,18.25,0,0,0,8.47-9.28,39,39,0,0,0,3.18-12.68A51.41,51.41,0,0,0,164.49,59.83Z"/><path d="M117.77,103.93a59.09,59.09,0,0,0,1-5.85,58.34,58.34,0,0,0,.44-5.89,55.1,55.1,0,0,0-.95-11.69l.74.72a9.26,9.26,0,0,1-6.49-4.8,12.74,12.74,0,0,1-1.62-7.71A6.73,6.73,0,0,1,112.43,65a8,8,0,0,1,3.17-2.32,5.24,5.24,0,0,1,4-.16,4.67,4.67,0,0,1,2.53,3.09l-.8,0a12.84,12.84,0,0,1,2-4.85,14,14,0,0,1,3.79-3.69A39.18,39.18,0,0,1,136.49,53a62.38,62.38,0,0,0,9.25-3.62,17.63,17.63,0,0,0,3.86-2.75,12.12,12.12,0,0,0,2.61-3.83l1.42-3.26.45,3.48a22.84,22.84,0,0,0,3.85,9.87A20.84,20.84,0,0,0,166,60l-.07.19a19.46,19.46,0,0,1-9.08-6.51,22.61,22.61,0,0,1-4.72-10.38l1.87.23a13.33,13.33,0,0,1-2.94,4.57,17.18,17.18,0,0,1-4.33,3.16,54.09,54.09,0,0,1-9.67,3.57,43.46,43.46,0,0,0-9.22,3.62,13.33,13.33,0,0,0-3.67,3.09,11.65,11.65,0,0,0-2.1,4.35l-.41,1.6-.39-1.58a3.81,3.81,0,0,0-2-2.71,4.52,4.52,0,0,0-3.46.11,6.24,6.24,0,0,0-4,5.52,11.62,11.62,0,0,0,2,6.84,8.46,8.46,0,0,0,5.49,3.82l.63.1.11.62a45.3,45.3,0,0,1-.31,18.07A42.38,42.38,0,0,1,118,104Z"/><path d="M165.29,61.84A14.09,14.09,0,0,0,168,55.67a12.34,12.34,0,0,0-.8-6.53,17.57,17.57,0,0,0-3.69-5.53,24,24,0,0,0-5.25-4.15,25.08,25.08,0,0,0-6.13-2.66,22.8,22.8,0,0,0-3.25-.65c-1.13-.12-2.27-.23-3.41-.31a73.59,73.59,0,0,0-13.68.28,51.53,51.53,0,0,0-13.3,3.35,35.49,35.49,0,0,0-11.45,7.43,21.65,21.65,0,0,0-6.23,11.79,21.93,21.93,0,0,0,2.3,13l.94,1.92L102,72.88a17.58,17.58,0,0,0-4.31-1,11.29,11.29,0,0,0-4.26.55,10.85,10.85,0,0,0-6.14,5.69,14.87,14.87,0,0,0,0,12.7,13.68,13.68,0,0,0,2.53,3.55,16.26,16.26,0,0,0,1.63,1.47,18,18,0,0,0,1.87,1.2,18.65,18.65,0,0,0,2,1,21.89,21.89,0,0,0,2.11.73,21.23,21.23,0,0,0,9,.24,17.36,17.36,0,0,0,8.2-3.72,13.17,13.17,0,0,0,4.59-7.77l.2,0A13.38,13.38,0,0,1,115.24,96a18.49,18.49,0,0,1-8.52,4.4,21.47,21.47,0,0,1-9.67.08c-.78-.24-1.6-.41-2.36-.73a22.54,22.54,0,0,1-2.24-1,19.38,19.38,0,0,1-2.13-1.28,17.13,17.13,0,0,1-1.91-1.61,15.94,15.94,0,0,1-3-4A16.73,16.73,0,0,1,83.92,87a16.47,16.47,0,0,1,1.47-9.79,12.87,12.87,0,0,1,7.42-6.61,13,13,0,0,1,5-.56,18.61,18.61,0,0,1,4.81,1.18l-1.12,1.22a27.71,27.71,0,0,1-2.1-6.83,19.48,19.48,0,0,1,.14-7.14,23.32,23.32,0,0,1,7-12.09,40,40,0,0,1,11.72-7.51,58.51,58.51,0,0,1,13.37-4,62.28,62.28,0,0,1,14-.81c1.17.07,2.32.18,3.5.3a22.34,22.34,0,0,1,3.53.73A26.14,26.14,0,0,1,159.14,38a21.66,21.66,0,0,1,9.15,10.7,12.53,12.53,0,0,1,.47,7.09A13.82,13.82,0,0,1,165.45,62Z"/><path d="M132.39,63.73a7.16,7.16,0,0,1,2.33-2.56,9.3,9.3,0,0,1,3.21-1.43,7.17,7.17,0,0,1,3.62.07A4.29,4.29,0,0,1,144.31,62a9.12,9.12,0,0,0-5.94-.33,26.2,26.2,0,0,0-2.93.87C134.45,62.9,133.47,63.3,132.39,63.73Z"/><path d="M154.29,61.1a5.34,5.34,0,0,1,2-1.58,6.54,6.54,0,0,1,2.44-.65,5.61,5.61,0,0,1,2.55.4,3.91,3.91,0,0,1,2,1.66c-.88-.07-1.6-.13-2.31-.13s-1.39,0-2.08.06l-2.14.17A22.73,22.73,0,0,1,154.29,61.1Z"/><path d="M144.05,83.93a20.38,20.38,0,0,0,4.5.89,7,7,0,0,0,4.39-.92L153,84a3.93,3.93,0,0,1-2,1.5,6.3,6.3,0,0,1-2.5.33,7.94,7.94,0,0,1-2.38-.55A7,7,0,0,1,144,84Z"/><path d="M153.62,96.55a5.83,5.83,0,0,0,1.45,4.1,6.91,6.91,0,0,0,4,1.67,37.87,37.87,0,0,0,4.53.21l4.57.12a100.24,100.24,0,0,1,18.16,2.28,77.53,77.53,0,0,1,8.81,2.64,64.53,64.53,0,0,1,8.37,3.84,69,69,0,0,1,14.73,11C227.1,131,234.19,141,241,151.14c3.4,5.06,6.65,10.21,9.91,15.35.81,1.3,1.62,2.53,2.43,3.91a26.25,26.25,0,0,1,2,4.32,25.53,25.53,0,0,1,1.37,9.33c-.26,6.34-2.59,12.32-5.58,17.69a89.06,89.06,0,0,1-10.83,14.9,180.26,180.26,0,0,1-12.85,13.08,148,148,0,0,1-14.07,11.76c-5,3.56-10.23,6.87-16.13,8.9a20.78,20.78,0,0,1-9.31,1.19,30.46,30.46,0,0,0-8.89-.1,32.21,32.21,0,0,0-8.54,2.51,46.33,46.33,0,0,1-4.3,1.79,2.86,2.86,0,0,1-1.46.1,1.71,1.71,0,0,1-.8-.45,2.74,2.74,0,0,1-.46-.55,2.43,2.43,0,0,1-.42-1.47,3,3,0,0,1,.4-1.37,10.16,10.16,0,0,1,3.54-3.32,27.59,27.59,0,0,1,4.17-2.1,29.49,29.49,0,0,1,4.45-1.4,15.69,15.69,0,0,1,4.71-.44l-.18,1.21a22.77,22.77,0,0,0-12.7,1.17c-2,.72-4,1.63-6,2.56-1,.46-2,.94-3.09,1.33a6.85,6.85,0,0,1-1.77.4,2.29,2.29,0,0,1-.52,0,3.13,3.13,0,0,1-.5-.14,4.42,4.42,0,0,1-.85-.41,2.53,2.53,0,0,1-.77-.7,1.83,1.83,0,0,1-.32-1.11,3.28,3.28,0,0,1,.79-1.8A12.18,12.18,0,0,1,157,245a35.86,35.86,0,0,1,5.93-3.15,44.28,44.28,0,0,1,12.9-3.48v.92a44.08,44.08,0,0,0-13.31,1.23c-2.2.47-4.38,1-6.62,1.49-.56.11-1.12.21-1.7.27a5.23,5.23,0,0,1-1.84-.06,1.32,1.32,0,0,1-.88-.71,2.53,2.53,0,0,1-.2-1,2.85,2.85,0,0,1,.72-1.76,9.5,9.5,0,0,1,2.78-2.14,28.27,28.27,0,0,1,3.12-1.43,55,55,0,0,1,6.51-2,66.07,66.07,0,0,1,6.67-1.32c1.13-.17,2.25-.3,3.39-.38a14.79,14.79,0,0,1,3.45.08l-.13.51c-3.63-1.14-7.56-.83-11.36-.45-1.92.18-3.82.47-5.78.48a7.47,7.47,0,0,1-1.48-.13,2,2,0,0,1-1.34-.79,1.27,1.27,0,0,1-.19-.81,1.72,1.72,0,0,1,.3-.75,4.32,4.32,0,0,1,1.12-1,16,16,0,0,1,5.5-1.86,41.45,41.45,0,0,1,5.77-.57,79.58,79.58,0,0,1,11.55.55.1.1,0,1,1,0,.2,79.24,79.24,0,0,0-11.52-.47,42.19,42.19,0,0,0-5.72.61,15.59,15.59,0,0,0-5.36,1.85,3.88,3.88,0,0,0-1,.92,1,1,0,0,0-.09,1.14,1.66,1.66,0,0,0,1.1.61,7.12,7.12,0,0,0,1.39.11c1.9,0,3.82-.32,5.73-.52,3.81-.4,7.78-.76,11.57.4a.27.27,0,0,1,.18.33.26.26,0,0,1-.3.18h0a14.06,14.06,0,0,0-3.31,0c-1.12.08-2.23.22-3.34.39-2.22.34-4.43.8-6.61,1.36a52.5,52.5,0,0,0-6.41,2,25.29,25.29,0,0,0-3,1.41,8.66,8.66,0,0,0-2.55,2,2.19,2.19,0,0,0-.55,1.32,1.66,1.66,0,0,0,.14.66.58.58,0,0,0,.41.29,8.59,8.59,0,0,0,3.18-.25c2.19-.45,4.38-1,6.59-1.53a44.82,44.82,0,0,1,13.57-1.34.46.46,0,0,1,0,.92h0a44,44,0,0,0-12.58,3.49,35.17,35.17,0,0,0-5.74,3.09,11.05,11.05,0,0,0-2.37,2.07,2.11,2.11,0,0,0-.55,1.17c0,.33.18.6.58.85a3.89,3.89,0,0,0,.65.3,1.27,1.27,0,0,0,.6.1,5.69,5.69,0,0,0,1.45-.36c1-.36,2-.83,3-1.3,2-.94,4-1.88,6.13-2.63a23.87,23.87,0,0,1,13.36-1.28.62.62,0,0,1,.46.74.61.61,0,0,1-.65.47h0a14.91,14.91,0,0,0-4.33.44,28.33,28.33,0,0,0-4.24,1.37,25.42,25.42,0,0,0-4,2,9.06,9.06,0,0,0-3.07,2.83,1.35,1.35,0,0,0,0,1.48,1.58,1.58,0,0,0,.27.32.35.35,0,0,0,.18.11,1.87,1.87,0,0,0,.79-.09c1.31-.41,2.7-1.16,4.1-1.75a33.77,33.77,0,0,1,8.9-2.67,31.78,31.78,0,0,1,9.29.06,19.55,19.55,0,0,0,8.62-1.17c5.63-2,10.79-5.24,15.66-8.78a145.31,145.31,0,0,0,13.83-11.73,178.41,178.41,0,0,0,12.63-13,90,90,0,0,0,10.52-14.63c2.9-5.2,5.09-10.91,5.32-16.79a23.47,23.47,0,0,0-1.26-8.61,24.19,24.19,0,0,0-1.81-4c-.73-1.25-1.6-2.56-2.39-3.84q-4.87-7.71-9.86-15.33c-6.67-10.11-13.61-20.15-22.21-28.64a70.6,70.6,0,0,0-14.27-11,62.68,62.68,0,0,0-8.14-3.9,75.74,75.74,0,0,0-8.62-2.74,107.06,107.06,0,0,0-18-2.65l-4.54-.22a39.22,39.22,0,0,1-4.58-.35,7.24,7.24,0,0,1-4.2-1.87,6.11,6.11,0,0,1-1.42-4.32.1.1,0,0,1,.1-.1A.09.09,0,0,1,153.62,96.55Z"/><path d="M113.82,101.82a14.53,14.53,0,0,0-1.45,2.65,26.65,26.65,0,0,0-1.08,2.81,40.29,40.29,0,0,0-1.44,5.8,27.63,27.63,0,0,0,.26,11.64,15.43,15.43,0,0,0,6.52,9.13,20.62,20.62,0,0,0,5.32,2.51,42,42,0,0,0,5.87,1.46,27.6,27.6,0,0,1-6.13-.51,24.8,24.8,0,0,1-3-.81,19.55,19.55,0,0,1-2.87-1.32A15.92,15.92,0,0,1,111,131a17.22,17.22,0,0,1-2.8-5.76,25.49,25.49,0,0,1,.15-12.49,31.71,31.71,0,0,1,2-5.85,25.4,25.4,0,0,1,1.5-2.7A12.09,12.09,0,0,1,113.82,101.82Z"/><path d="M160.82,103.82c-5.16,8.61-12,16.16-19.22,23.08s-15,13.31-22.73,19.68-15.44,12.7-22.7,19.53-14,14.19-19.35,22.71C81.44,179.91,88,172.08,95.08,165s14.81-13.57,22.52-20,15.52-12.62,22.94-19.28S155,112,160.82,103.82Z"/><path d="M81.63,151.35c-.75,5.63-1.59,11.24-2.28,16.84A167.37,167.37,0,0,0,78,185a68.82,68.82,0,0,0,.23,8.38,36.89,36.89,0,0,0,1.55,8.12,14,14,0,0,0,4.28,6.79c.27.21.52.44.8.63l.89.51a10.31,10.31,0,0,0,1.9.8c.66.21,1.35.29,2,.45l2.11.16a11.71,11.71,0,0,1-8.32-1.77,10.08,10.08,0,0,1-1.71-1.42,17.86,17.86,0,0,1-1.43-1.7,19.9,19.9,0,0,1-2-3.91c-2.07-5.51-2.39-11.38-2.3-17.08.08-2.87.28-5.72.58-8.56s.72-5.66,1.23-8.46C78.77,162.35,80.12,156.83,81.63,151.35Z"/><path d="M182.82,226.82c1.19-3.48,2.53-6.89,3.81-10.3s2.49-6.81,3.47-10.28a84.29,84.29,0,0,0,2.34-10.56c.58-3.58,1-7.2,1.38-10.86a57.34,57.34,0,0,1,.17,11,54.28,54.28,0,0,1-2,10.93,70.91,70.91,0,0,1-4,10.34A94.29,94.29,0,0,1,182.82,226.82Z"/><path d="M207.9,194.87c-1,2.93-1.66,5.78-2.49,8.7-.38,1.47-.87,2.92-1.39,4.39a35.91,35.91,0,0,1-2,4.33l-.63,1-.72,1c-.25.32-.47.67-.74,1s-.56.62-.86.91a13.33,13.33,0,0,1-1.88,1.63,10.39,10.39,0,0,1-2.1,1.31,17.25,17.25,0,0,1-9.28,1.76l0-.2a22.21,22.21,0,0,0,8.47-2.89,17.68,17.68,0,0,0,6-6.54,55.43,55.43,0,0,0,3.63-8.27,45.68,45.68,0,0,1,3.81-8.25Z"/><path d="M179.82,162.82a83.48,83.48,0,0,0,5.25,9.09c1,1.45,2,2.85,3.05,4.24s2.19,2.69,3.37,4a52.4,52.4,0,0,0,7.69,6.91,42,42,0,0,0,4.34,2.78,29,29,0,0,0,4.57,2.09l-1.24.9a41.44,41.44,0,0,1,3.37-13.46,42.81,42.81,0,0,1,7.35-11.68,40.91,40.91,0,0,1,5-4.78A42.82,42.82,0,0,1,228.2,159a50.94,50.94,0,0,1,12.62-5.13,58.1,58.1,0,0,0-12,6.05,46.65,46.65,0,0,0-5.3,4.08,40.28,40.28,0,0,0-4.62,4.8A44.12,44.12,0,0,0,212,180.09a43.38,43.38,0,0,0-2.1,6.29,36.85,36.85,0,0,0-1.12,6.47l-.09,1.31-1.15-.41a34.45,34.45,0,0,1-9.43-5.31,49.36,49.36,0,0,1-7.7-7.38,57.71,57.71,0,0,1-6.07-8.7A67.6,67.6,0,0,1,179.82,162.82Z"/><path d="M192.82,250.82a87.33,87.33,0,0,1,4.5,10.92,79.26,79.26,0,0,1,3,11.48,64.51,64.51,0,0,1,.94,11.85,55.18,55.18,0,0,1-1.4,11.75c.07-3.94.07-7.84-.16-11.72a101.26,101.26,0,0,0-1.35-11.53c-.65-3.82-1.53-7.61-2.49-11.39Z"/><path d="M189.53,110a130,130,0,0,0-13,21.38,171.49,171.49,0,0,0-9.26,23.22c-5.14,15.87-8.63,32.23-12.08,48.61-1.79,8.17-3.59,16.35-5.65,24.48a238.59,238.59,0,0,1-7.24,24.11,147.88,147.88,0,0,1-10.47,22.9,104.21,104.21,0,0,1-15,20.12A110,110,0,0,0,131,274.22a148,148,0,0,0,9.88-22.93c5.4-15.78,8.93-32.14,12.39-48.51,1.79-8.17,3.58-16.35,5.59-24.49s4.21-16.25,7-24.18a172.33,172.33,0,0,1,9.85-23.17A121.59,121.59,0,0,1,189.53,110Z"/><path d="M81.94,207.8c0,1.84.12,3.68.08,5.52s-.09,3.7-.3,5.53A85.94,85.94,0,0,1,80,229.79C78.35,237,76.32,244,75,251.21s-2.46,14.4-3.23,21.68-1.31,14.6-1.9,21.93c0-1.84-.09-3.68-.1-5.51s-.07-3.68,0-5.52c.11-3.68.16-7.36.46-11s.64-7.34,1-11l.82-5.48c.3-1.82.65-3.63,1-5.45s.79-3.6,1.19-5.41.87-3.58,1.35-5.36l2.92-10.61A106.33,106.33,0,0,0,81.94,207.8Z"/><path d="M150.82,217.82a87.84,87.84,0,0,0,11.5-2.07,82.22,82.22,0,0,0,11-3.6A68.71,68.71,0,0,0,183.64,207a52.77,52.77,0,0,0,9.18-7.14,33.28,33.28,0,0,1-8.31,8.43A49.84,49.84,0,0,1,174.08,214a56.54,56.54,0,0,1-11.44,3.26A43.85,43.85,0,0,1,150.82,217.82Z"/><path d="M118.21,100.88c-4.4,1.19-8.76,2.48-13,4.07-2.13.8-4.22,1.67-6.28,2.63s-4.12,1.92-6.09,3a47.29,47.29,0,0,0-5.65,3.7,29.67,29.67,0,0,0-4.84,4.6,47.64,47.64,0,0,0-7,11.43,77.46,77.46,0,0,0-4.4,12.75c-1.08,4.4-2,8.85-2.91,13.3-1.73,8.91-2.94,17.91-3.82,26.94-.67,9.1-2,18.18-3.57,27.16s-3.26,17.92-4.44,26.93q-.91,6.75-1.29,13.55A118.87,118.87,0,0,0,55,264.56q.66,13.65,1.84,27.26c-1.08-9.05-1.88-18.12-2.51-27.22a132.85,132.85,0,0,1-.42-13.69q.24-6.85,1-13.67c1-9.08,2.5-18.09,4-27.06s2.76-18,3.37-27A238.59,238.59,0,0,1,66.19,156c.9-4.48,1.89-8.93,3-13.38a74.42,74.42,0,0,1,4.63-13A49.63,49.63,0,0,1,81.33,118a32.22,32.22,0,0,1,5.15-4.68,51.21,51.21,0,0,1,5.86-3.65c2-1.07,4.16-1.94,6.25-2.84s4.25-1.7,6.41-2.42A121.43,121.43,0,0,1,118.21,100.88Z"/><path d="M164.8,126.72a180.14,180.14,0,0,0-15.29,30.55c-4.16,10.6-7.57,21.48-10.71,32.45s-6.08,22-9.36,33A279,279,0,0,1,118,255c3.86-10.76,7-21.74,10-32.75s5.79-22.1,8.95-33.11a284.39,284.39,0,0,1,11.2-32.48A145.77,145.77,0,0,1,164.8,126.72Z"/><path d="M63.31,187.31c1.27.77,2.43,1.56,3.6,2.34s2.32,1.52,3.49,2.26,2.35,1.47,3.55,2.18,2.42,1.43,3.65,2.25a14,14,0,0,1-4.31-.83,19.18,19.18,0,0,1-7.37-4.66A14.23,14.23,0,0,1,63.31,187.31Z"/><path d="M142.34,248.08a29.62,29.62,0,0,0,11.51.75A30.25,30.25,0,0,1,142,250Z"/><ellipse cx="142.12" cy="66.57" rx="1.8" ry="2.25"/><ellipse cx="159.42" cy="65.82" rx="1.6" ry="2"/></g></svg>