<svg width="179" height="49" viewBox="0 0 179 49" fill="none" xmlns="http://www.w3.org/2000/svg">
<g clip-path="url(#clip0_1_3960)">
<path d="M57.7045 5.80696L49.3885 11.4714C67.3867 11.9909 79.6207 6.25602 79.6207 6.25602C66.5752 12.592 52.8029 13.162 47.0192 13.0795L37.1105 19.8247C37.1105 19.8247 68.0895 19.0573 87.809 0.0595303C87.809 0.0595303 75.6205 9.07736 57.7045 5.80696Z" fill="#ED1D24"/>
<path d="M94.9727 19.7017H94.1621C94.1621 19.7017 94.5293 20.2467 94.0168 20.9988L87.1483 30.3253L87.9741 21.4502C88.138 20.3097 89.0404 19.6952 89.0404 19.6952H86.1098V19.7017H78.7158L70.8877 30.3253L71.7126 21.5058C71.7154 21.4965 71.7233 21.4868 71.7252 21.4794C71.8784 20.3273 72.7933 19.7063 72.7933 19.7063H71.8802V19.7035L62.4701 19.7017V19.7063C61.9775 19.6827 38.3953 18.5918 34.8626 24.8707C36.3142 21.9572 37.297 19.831 37.3606 19.7406H20.2407C20.4195 19.793 21.3641 20.3055 21.0452 21.1944V21.1962C20.1539 24.2326 17.9786 31.2702 15.554 36.4875C12.3746 43.317 5.21635 45.8176 0.303076 47.5601C-0.147678 47.72 -0.0775779 48.0532 0.393602 48.056C12.4823 48.1301 22.4068 47.1653 29.9169 34.1773C31.6577 31.1659 33.366 27.8714 34.7067 25.1868C34.6208 25.3851 34.5525 25.5886 34.5001 25.8096C32.9589 32.8153 46.073 33.2625 45.8799 34.9378C45.7058 36.4133 37.8921 35.9601 32.7374 34.2663C32.7101 34.2561 32.6896 34.2435 32.6697 34.2343C31.6786 33.9085 31.2603 33.3283 31.2603 33.3283L31.3049 33.7301L31.3002 33.7268C31.3002 33.7268 31.3086 33.7537 31.3114 33.788L31.5189 35.6565C31.7264 37.628 31.9993 40.403 31.9993 40.403C31.9993 40.403 59.3166 43.8499 59.8208 34.9864C60.1987 28.2797 47.0428 27.4687 47.189 25.9996C47.3231 24.6219 53.727 24.4481 57.6111 25.0246C57.6223 25.0274 57.6311 25.0311 57.6427 25.0311C59.3802 25.3045 59.6258 26.2429 59.6258 26.2429L59.9104 25.5886H59.915C59.9187 25.5589 62.2644 20.2059 62.4682 19.7406L60.7047 38.5386V38.5404C60.5496 39.6935 59.6365 40.3172 59.6365 40.3172H61.479L69.9491 40.3219L77.7883 29.6843L76.956 38.5539C76.7963 39.6981 75.8924 40.3172 75.8924 40.3172H76.7926V40.3209L86.2078 40.3144L101.396 19.7035L94.9727 19.7017Z" fill="#1751A4"/>
<path d="M175.382 18.3229C175.382 19.0115 175.135 19.6415 174.726 20.1342C174.722 20.1411 174.714 20.148 174.71 20.1528C174.616 20.2671 174.513 20.3721 174.4 20.4655C174.398 20.4701 174.398 20.4701 174.395 20.4701C174.39 20.4747 174.388 20.4795 174.383 20.4795C174.334 20.526 174.282 20.5658 174.228 20.6055C173.749 20.9624 173.155 21.1724 172.512 21.1724C171.03 21.1722 169.809 20.0516 169.659 18.6186V18.5974C169.655 18.5602 169.652 18.5229 169.65 18.4854C169.648 18.4505 169.648 18.4153 169.648 18.3804C169.645 18.3618 169.645 18.3408 169.645 18.322C169.645 17.6125 169.906 16.9636 170.338 16.4667C170.862 15.8551 171.642 15.4702 172.513 15.4704C173.375 15.4704 174.145 15.8463 174.671 16.444C175.114 16.9457 175.382 17.6016 175.382 18.3229Z" fill="#BF2C2D"/>
<path d="M168.252 33.8456L162.381 39.8034L162.362 39.8213C162.334 39.8538 162.299 39.8845 162.266 39.9169L162.25 39.9331C161.958 40.1911 161.575 40.3516 161.152 40.3516C160.241 40.3516 159.505 39.6175 159.505 38.7156H159.501L159.499 35.2832L159.505 29.2642V28.9774C159.505 28.3552 158.875 27.9944 158.361 28.1928C158.251 28.2344 158.145 28.3029 158.053 28.3985L156.255 30.2689L156.248 30.2762L156.255 39.9404L151.11 39.9386V29.4591C151.094 28.6654 150.439 28.0251 149.637 28.0251C149.198 28.0251 148.801 28.2145 148.528 28.5174L148.354 28.6942L148.264 28.604L148.109 28.4471L148.042 28.384L153.587 22.7636C153.865 22.4589 154.268 22.2658 154.718 22.2658C155.563 22.2658 156.251 22.9459 156.251 23.7899C156.251 23.8242 156.248 23.8567 156.246 23.8909L156.248 23.8874H156.251L156.248 28.5753L161.978 22.7674C162.259 22.4589 162.662 22.2658 163.112 22.2658C163.957 22.2658 164.642 22.9494 164.642 23.7899C164.642 23.8242 164.642 23.8567 164.638 23.8909L164.642 23.8874V32.9853C164.642 33.8618 165.356 34.5726 166.237 34.5761C166.253 34.5761 166.273 34.5726 166.293 34.5726C166.331 34.5726 166.371 34.569 166.407 34.5671C166.438 34.5635 166.467 34.56 166.494 34.5527C166.529 34.5454 166.561 34.5436 166.596 34.5365C166.901 34.4661 167.173 34.3165 167.387 34.1017C167.407 34.0819 167.43 34.0622 167.449 34.0386L167.944 33.5354L168.252 33.8456Z" fill="#BF2C2D"/>
<path d="M140.465 31.0408H140.463C140.463 31.5296 140.463 31.9103 140.461 31.9211C140.461 31.9481 140.459 31.9788 140.456 32.0058C140.408 32.3847 140.211 32.702 139.966 32.9691L139.906 33.0285L139.864 33.0718L138.732 34.2497L138.69 34.2928C138.632 34.3542 138.567 34.403 138.499 34.4408C138.499 34.4408 138.499 34.4426 138.498 34.4426C138.01 34.8251 137.264 34.495 137.249 33.8509C137.249 33.8491 137.247 33.8474 137.249 33.8456C137.242 33.8023 137.238 33.759 137.238 33.7139V33.3297L137.242 32.0239V31.6794L137.236 30.9147V30.9109V30.9074V30.9001C137.236 30.8676 137.236 30.8371 137.24 30.8082C137.24 30.781 137.244 30.7505 137.247 30.7233C137.296 30.3411 137.498 30.0163 137.746 29.7494L137.75 29.7458H137.746L137.801 29.6935L137.908 29.5834L139.008 28.4363L139.017 28.4272C139.08 28.3605 139.151 28.3081 139.225 28.2686C139.231 28.265 139.238 28.2613 139.243 28.2577C139.733 27.8987 140.465 28.2396 140.465 28.8817V28.9431C140.468 28.9648 140.468 28.9847 140.468 29.0063V29.4031L140.465 31.0408ZM148.574 33.8438L148.385 34.0332C148.365 34.0566 148.345 34.08 148.322 34.0999C148.111 34.3109 147.835 34.4643 147.53 34.531C147.5 34.54 147.465 34.5436 147.432 34.5509C147.402 34.5544 147.373 34.5599 147.342 34.5635C147.306 34.567 147.267 34.567 147.227 34.5707C147.211 34.5707 147.191 34.5743 147.171 34.5743C146.291 34.5707 145.576 33.86 145.576 32.9834L145.573 23.8783C145.576 23.8458 145.58 23.8116 145.58 23.7791C145.58 23.7413 145.576 23.7052 145.573 23.669C145.52 22.8809 144.858 22.2567 144.052 22.2532H144.046C143.684 22.2532 143.355 22.3776 143.092 22.5868C143.029 22.6339 142.969 22.6915 142.914 22.751L138.853 26.8616L137.418 28.3119L132.882 32.8986L132.564 33.2197C132.276 33.5137 132.109 33.9015 132.098 34.3092V34.3109C132.094 34.3273 132.094 34.3434 132.094 34.3597V38.7103H132.098V38.7715C132.101 38.7949 132.101 38.8148 132.105 38.8382V38.8473C132.192 39.6787 132.9 40.3281 133.76 40.3281C134.132 40.3281 134.478 40.209 134.752 40.0017C134.787 39.9781 134.816 39.9547 134.843 39.9277L134.851 39.9222C134.854 39.9222 134.854 39.9222 134.854 39.9187L134.859 39.9114C134.894 39.8809 134.927 39.8484 134.957 39.8159L134.965 39.8086L134.974 39.7978L135.032 39.7384L135.041 39.7275L140.438 34.2568V38.7103C140.441 39.1648 140.626 39.5705 140.926 39.8681C141.22 40.1622 141.633 40.3462 142.087 40.3462C142.51 40.3462 142.894 40.1891 143.186 39.9313L143.205 39.9151C143.237 39.8809 143.268 39.8519 143.297 39.8177L143.315 39.8014L148.882 34.1505L148.574 33.8438Z" fill="#BF2C2D"/>
<path d="M123.834 31.0408V31.9229C123.834 31.9499 123.831 31.9788 123.825 32.004C123.78 32.3864 123.582 32.702 123.337 32.9708L123.125 33.1854L123.116 33.1945L122.101 34.2497L122.059 34.2928C122.003 34.3507 121.941 34.3993 121.878 34.4353L121.876 34.4373C121.395 34.8231 120.653 34.5058 120.622 33.8745V33.869C120.613 33.8186 120.608 33.768 120.608 33.7139V33.3297L120.612 31.728V31.6794L120.608 30.9147V30.9109V30.9074V30.9019C120.608 30.8676 120.608 30.8389 120.612 30.8082C120.612 30.781 120.615 30.7505 120.619 30.7233C120.668 30.3411 120.871 30.0163 121.118 29.7494V29.7458L121.17 29.6935L121.187 29.6773L122.377 28.4363L122.386 28.4272C122.448 28.3623 122.517 28.3119 122.588 28.2721C123.081 27.8898 123.834 28.2288 123.834 28.8837V28.9431C123.838 28.9648 123.838 28.9847 123.838 29.0063V29.4031L123.834 31.0408ZM131.756 34.035C131.736 34.0566 131.718 34.0818 131.693 34.0999C131.483 34.3109 131.207 34.4643 130.902 34.531C130.871 34.54 130.836 34.5454 130.804 34.5509C130.773 34.5544 130.744 34.5617 130.713 34.5635C130.677 34.567 130.639 34.567 130.601 34.5707C130.581 34.5707 130.562 34.5725 130.543 34.5725C129.664 34.5707 128.947 33.86 128.947 32.9817L128.944 23.8783C128.947 23.844 128.953 23.8116 128.953 23.7791C128.953 23.7413 128.947 23.7052 128.944 23.6673C128.891 22.8809 128.231 22.2567 127.425 22.2532H127.418C127.055 22.2532 126.726 22.3758 126.465 22.5868C126.402 22.6356 126.34 22.6898 126.285 22.751L122.225 26.8616L120.789 28.3136L115.935 33.2197C115.647 33.5137 115.48 33.9033 115.469 34.3109C115.465 34.3273 115.465 34.3434 115.465 34.3597V38.7103H115.469V38.7715C115.474 38.7931 115.474 38.8148 115.476 38.8364V38.8473C115.565 39.6769 116.271 40.3299 117.131 40.3299C117.503 40.3299 117.85 40.209 118.124 40.0017C118.158 39.9781 118.187 39.9547 118.214 39.9277L118.223 39.9204C118.225 39.9204 118.225 39.9204 118.225 39.9187L118.231 39.9114C118.265 39.8826 118.3 39.8484 118.331 39.8141L118.347 39.7978L118.401 39.7384L118.412 39.7293L123.809 34.2568V38.7103C123.814 39.1648 123.997 39.5705 124.295 39.8681C124.591 40.1604 125.004 40.3462 125.456 40.3462C125.879 40.3462 126.267 40.1874 126.558 39.9313L126.574 39.9151C126.61 39.8826 126.639 39.8519 126.67 39.8195L126.687 39.8033L132.097 34.3109V34.3092L132.254 34.1505L132.881 32.8986L132.892 32.877L131.756 34.035Z" fill="#BF2C2D"/>
<path d="M178.349 33.8469L172.473 39.8046L172.464 39.8153L172.457 39.8208C172.426 39.855 172.393 39.8857 172.361 39.9182L172.344 39.9344H172.342C172.052 40.1924 171.668 40.3511 171.245 40.3511C170.789 40.3511 170.379 40.1688 170.08 39.8731C169.782 39.5755 169.597 39.1679 169.595 38.7169L169.601 26.3562H169.608L173.29 22.5252C173.382 22.4295 173.487 22.361 173.598 22.3195C174.112 22.1211 174.741 22.4819 174.741 23.1041L174.734 32.9883C174.734 33.865 175.447 34.5739 176.327 34.5774C176.347 34.5774 176.365 34.5739 176.385 34.5739C176.423 34.5721 176.461 34.5721 176.5 34.5666C176.53 34.5648 176.559 34.5595 176.589 34.554C176.621 34.5487 176.654 34.5432 176.687 34.5359C176.991 34.4674 177.265 34.3158 177.481 34.103C177.503 34.0831 177.525 34.0634 177.543 34.0398L178.038 33.5367L178.349 33.8469Z" fill="#BF2C2D"/>
<path d="M119.597 25.9449L119.585 25.9575L105.908 39.7937L105.899 39.8028L105.892 39.8118C105.861 39.8443 105.829 39.875 105.796 39.9055L105.789 39.9146L105.78 39.9236L105.778 39.9219C105.487 40.1834 105.104 40.3403 104.68 40.3403C104.397 40.3403 104.128 40.2681 103.896 40.1437C103.638 40.0047 103.426 39.801 103.272 39.5557C103.119 39.3067 103.034 39.0182 103.031 38.7062V37.6673C103.031 37.6545 103.029 37.6456 103.029 37.633V34.545L103.027 31.3958V31.3921L103.029 29.0906L103.027 28.9589C103.025 27.9019 101.786 27.3464 100.987 28.0084C100.967 28.0265 100.946 28.0462 100.926 28.0643L100.416 28.544L100.198 28.3259L100.109 28.2356L105.505 22.7668C105.787 22.4601 106.186 22.2672 106.636 22.2672C107.393 22.2672 108.021 22.8119 108.146 23.5297C108.149 23.5496 108.151 23.573 108.157 23.5947C108.158 23.6163 108.16 23.6344 108.162 23.6543L108.167 23.6974C108.171 23.7354 108.173 23.7714 108.173 23.8057C108.173 23.8346 108.171 23.8616 108.167 23.8888H108.171V24.7924C108.171 24.8121 108.173 24.8338 108.173 24.8537C108.173 24.8735 108.171 24.8934 108.167 24.9113V25.9197C108.171 25.9396 108.173 25.9611 108.173 25.981C108.173 26.0026 108.171 26.0207 108.167 26.0388V26.0802H108.173L108.171 31.9296C108.171 31.9802 108.175 32.0288 108.178 32.0757C108.264 32.8729 108.939 33.4898 109.761 33.4935C109.781 33.4935 109.799 33.4898 109.821 33.4898C109.857 33.4898 109.897 33.488 109.933 33.4844C109.964 33.4827 109.993 33.4754 110.022 33.4701C110.055 33.4646 110.087 33.4592 110.122 33.4537C110.425 33.3835 110.699 33.2319 110.915 33.0209C110.936 32.9992 113.01 30.9431 113.687 30.2378C115.703 28.1383 115.023 26.7313 114.936 26.5671C114.859 26.414 114.751 26.2823 114.622 26.1794C114.188 25.8241 113.524 25.7682 113.03 26.1776C113.01 26.1957 112.99 26.2156 112.97 26.2335L112.461 26.7134L112.243 26.4951L112.154 26.4049L118.146 20.2614C118.67 19.715 119.595 20.0847 119.595 20.8405L119.597 25.9449Z" fill="#BF2C2D"/>
</g>
<defs>
<clipPath id="clip0_1_3960">
<rect width="178.349" height="48" fill="white" transform="translate(0 0.0595703)"/>
</clipPath>
</defs>
</svg>
