<svg width="933" height="28" viewBox="0 0 933 28" fill="none" xmlns="http://www.w3.org/2000/svg">
<path d="M3.87178 18.9814C3.55044 19.0144 15.5798 24.7637 18.4144 26.1636C21.249 27.5635 24.8209 27.8926 30.4951 25.9702L50.1615 19.3071C58.4464 16.5001 64.0437 20.0693 64.1186 19.9146C64.1934 19.76 52.7179 14.1309 50.0065 12.7918C47.2952 11.4528 42.9854 11.0658 39.3364 12.3021L16.9083 19.9009C9.91217 22.2712 4.19558 18.9497 3.87178 18.9814Z" fill="url(#paint0_linear_2_792)"/>
<path d="M10.8618 15.3817C14.929 14.0037 17.1091 9.58945 15.7311 5.52225C14.3531 1.45504 9.93888 -0.724996 5.87167 0.652999C1.80446 2.03099 -0.375575 6.4452 1.00242 10.5124C2.38041 14.5796 6.79462 16.7597 10.8618 15.3817Z" fill="url(#paint1_linear_2_792)"/>
<path d="M61.7161 18.8814C61.3948 18.9143 73.4241 24.6636 76.2587 26.0635C79.0933 27.4635 82.6652 27.7926 88.3394 25.8701L108.006 19.207C116.291 16.4001 121.888 19.9692 121.963 19.8146C122.038 19.6599 110.562 14.0308 107.851 12.6918C105.14 11.3527 100.83 10.9658 97.1807 12.2021L74.7526 19.8008C67.7565 22.1712 62.0399 18.8497 61.7161 18.8814Z" fill="url(#paint2_linear_2_792)"/>
<path d="M68.7063 15.2816C72.7735 13.9036 74.9535 9.48941 73.5755 5.42221C72.1975 1.355 67.7833 -0.825037 63.7161 0.552957C59.6489 1.93095 57.4688 6.34516 58.8468 10.4124C60.2248 14.4796 64.639 16.6596 68.7063 15.2816Z" fill="url(#paint3_linear_2_792)"/>
<path d="M119.632 18.9814C119.311 19.0144 131.34 24.7637 134.175 26.1636C137.01 27.5635 140.581 27.8926 146.256 25.9702L165.922 19.3071C174.207 16.5001 179.804 20.0693 179.879 19.9146C179.954 19.76 168.478 14.1309 165.767 12.7918C163.056 11.4528 158.746 11.0658 155.097 12.3021L132.669 19.9009C125.673 22.2712 119.956 18.9497 119.632 18.9814Z" fill="url(#paint4_linear_2_792)"/>
<path d="M126.622 15.3817C130.69 14.0037 132.87 9.58945 131.492 5.52225C130.114 1.45504 125.699 -0.724996 121.632 0.652999C117.565 2.03099 115.385 6.4452 116.763 10.5124C118.141 14.5796 122.555 16.7597 126.622 15.3817Z" fill="url(#paint5_linear_2_792)"/>
<path d="M177.477 18.8814C177.155 18.9143 189.185 24.6636 192.019 26.0635C194.854 27.4635 198.426 27.7926 204.1 25.8701L223.767 19.207C232.051 16.4001 237.649 19.9692 237.724 19.8146C237.798 19.6599 226.323 14.0308 223.612 12.6918C220.9 11.3527 216.59 10.9658 212.941 12.2021L190.513 19.8008C183.517 22.1712 177.801 18.8497 177.477 18.8814Z" fill="url(#paint6_linear_2_792)"/>
<path d="M184.467 15.2816C188.534 13.9036 190.714 9.48941 189.336 5.42221C187.958 1.355 183.544 -0.825037 179.476 0.552957C175.409 1.93095 173.229 6.34516 174.607 10.4124C175.985 14.4796 180.399 16.6596 184.467 15.2816Z" fill="url(#paint7_linear_2_792)"/>
<path d="M235.293 18.9814C234.972 19.0144 247.001 24.7637 249.836 26.1636C252.671 27.5635 256.243 27.8926 261.917 25.9702L281.583 19.3071C289.868 16.5001 295.465 20.0693 295.54 19.9146C295.615 19.76 284.14 14.1309 281.428 12.7918C278.717 11.4528 274.407 11.0658 270.758 12.3021L248.33 19.9009C241.334 22.2712 235.617 18.9497 235.293 18.9814Z" fill="url(#paint8_linear_2_792)"/>
<path d="M242.284 15.3817C246.351 14.0037 248.531 9.58945 247.153 5.52225C245.775 1.45504 241.361 -0.724996 237.293 0.652999C233.226 2.03099 231.046 6.4452 232.424 10.5124C233.802 14.5796 238.216 16.7597 242.284 15.3817Z" fill="url(#paint9_linear_2_792)"/>
<path d="M293.137 18.8814C292.816 18.9143 304.845 24.6636 307.68 26.0635C310.515 27.4635 314.087 27.7926 319.761 25.8701L339.427 19.207C347.712 16.4001 353.309 19.9692 353.384 19.8146C353.459 19.6599 341.984 14.0308 339.272 12.6918C336.561 11.3527 332.251 10.9658 328.602 12.2021L306.174 19.8008C299.178 22.1712 293.461 18.8497 293.137 18.8814Z" fill="url(#paint10_linear_2_792)"/>
<path d="M300.128 15.2816C304.195 13.9036 306.375 9.48941 304.997 5.42221C303.619 1.355 299.205 -0.825037 295.138 0.552957C291.07 1.93095 288.89 6.34516 290.268 10.4124C291.646 14.4796 296.061 16.6596 300.128 15.2816Z" fill="url(#paint11_linear_2_792)"/>
<path d="M351.054 18.9814C350.732 19.0144 362.762 24.7637 365.596 26.1636C368.431 27.5635 372.003 27.8926 377.677 25.9702L397.343 19.3071C405.628 16.5001 411.226 20.0693 411.3 19.9146C411.375 19.76 399.9 14.1309 397.188 12.7918C394.477 11.4528 390.167 11.0658 386.518 12.3021L364.09 19.9009C357.094 22.2712 351.377 18.9497 351.054 18.9814Z" fill="url(#paint12_linear_2_792)"/>
<path d="M358.044 15.3817C362.111 14.0037 364.291 9.58945 362.913 5.52225C361.535 1.45504 357.121 -0.724996 353.054 0.652999C348.987 2.03099 346.807 6.4452 348.185 10.5124C349.563 14.5796 353.977 16.7597 358.044 15.3817Z" fill="url(#paint13_linear_2_792)"/>
<path d="M408.898 18.8814C408.577 18.9143 420.606 24.6636 423.441 26.0635C426.275 27.4635 429.847 27.7926 435.521 25.8701L455.188 19.207C463.473 16.4001 469.07 19.9692 469.145 19.8146C469.22 19.6599 457.744 14.0308 455.033 12.6918C452.322 11.3527 448.012 10.9658 444.363 12.2021L421.935 19.8008C414.938 22.1712 409.222 18.8497 408.898 18.8814Z" fill="url(#paint14_linear_2_792)"/>
<path d="M415.888 15.2816C419.955 13.9036 422.135 9.48941 420.758 5.42221C419.38 1.355 414.965 -0.825037 410.898 0.552957C406.831 1.93095 404.651 6.34516 406.029 10.4124C407.407 14.4796 411.821 16.6596 415.888 15.2816Z" fill="url(#paint15_linear_2_792)"/>
<path d="M467.137 18.9814C466.816 19.0144 478.845 24.7637 481.68 26.1636C484.514 27.5635 488.086 27.8926 493.76 25.9702L513.427 19.3071C521.712 16.5001 527.309 20.0693 527.384 19.9146C527.459 19.76 515.983 14.1309 513.272 12.7918C510.56 11.4528 506.251 11.0658 502.602 12.3021L480.173 19.9009C473.177 22.2712 467.461 18.9497 467.137 18.9814Z" fill="url(#paint16_linear_2_792)"/>
<path d="M474.127 15.3817C478.195 14.0037 480.375 9.58945 478.997 5.52225C477.619 1.45504 473.204 -0.724996 469.137 0.652999C465.07 2.03099 462.89 6.4452 464.268 10.5124C465.646 14.5796 470.06 16.7597 474.127 15.3817Z" fill="url(#paint17_linear_2_792)"/>
<path d="M524.981 18.8814C524.66 18.9143 536.689 24.6636 539.524 26.0635C542.359 27.4635 545.931 27.7926 551.605 25.8701L571.271 19.207C579.556 16.4001 585.153 19.9692 585.228 19.8146C585.303 19.6599 573.828 14.0308 571.116 12.6918C568.405 11.3527 564.095 10.9658 560.446 12.2021L538.018 19.8008C531.022 22.1712 525.305 18.8497 524.981 18.8814Z" fill="url(#paint18_linear_2_792)"/>
<path d="M531.972 15.2816C536.039 13.9036 538.219 9.48941 536.841 5.42221C535.463 1.355 531.049 -0.825038 526.981 0.552957C522.914 1.93095 520.734 6.34516 522.112 10.4124C523.49 14.4796 527.904 16.6596 531.972 15.2816Z" fill="url(#paint19_linear_2_792)"/>
<path d="M582.898 18.9814C582.576 19.0144 594.606 24.7637 597.44 26.1636C600.275 27.5635 603.847 27.8926 609.521 25.9702L629.187 19.3071C637.472 16.5001 643.07 20.0693 643.144 19.9146C643.219 19.76 631.744 14.1309 629.032 12.7918C626.321 11.4528 622.011 11.0658 618.362 12.3021L595.934 19.9009C588.938 22.2712 583.221 18.9497 582.898 18.9814Z" fill="url(#paint20_linear_2_792)"/>
<path d="M589.888 15.3817C593.955 14.0037 596.135 9.58945 594.757 5.52225C593.379 1.45504 588.965 -0.724996 584.898 0.652999C580.83 2.03099 578.65 6.4452 580.028 10.5124C581.406 14.5796 585.821 16.7597 589.888 15.3817Z" fill="url(#paint21_linear_2_792)"/>
<path d="M640.742 18.8814C640.421 18.9143 652.45 24.6636 655.284 26.0635C658.119 27.4635 661.691 27.7926 667.365 25.8701L687.032 19.207C695.316 16.4001 700.914 19.9692 700.989 19.8146C701.064 19.6599 689.588 14.0308 686.877 12.6918C684.165 11.3527 679.855 10.9658 676.206 12.2021L653.778 19.8008C646.782 22.1712 641.066 18.8497 640.742 18.8814Z" fill="url(#paint22_linear_2_792)"/>
<path d="M647.732 15.2816C651.799 13.9036 653.979 9.48941 652.601 5.42221C651.223 1.355 646.809 -0.825038 642.742 0.552957C638.675 1.93095 636.495 6.34516 637.873 10.4124C639.251 14.4796 643.665 16.6596 647.732 15.2816Z" fill="url(#paint23_linear_2_792)"/>
<path d="M698.559 18.9814C698.237 19.0144 710.267 24.7637 713.101 26.1636C715.936 27.5635 719.508 27.8926 725.182 25.9702L744.848 19.3071C753.133 16.5001 758.731 20.0693 758.805 19.9146C758.88 19.76 747.405 14.1309 744.693 12.7918C741.982 11.4528 737.672 11.0658 734.023 12.3021L711.595 19.9009C704.599 22.2712 698.882 18.9497 698.559 18.9814Z" fill="url(#paint24_linear_2_792)"/>
<path d="M705.549 15.3817C709.616 14.0037 711.796 9.58945 710.418 5.52225C709.04 1.45504 704.626 -0.724996 700.559 0.652999C696.491 2.03099 694.311 6.4452 695.689 10.5124C697.067 14.5796 701.481 16.7597 705.549 15.3817Z" fill="url(#paint25_linear_2_792)"/>
<path d="M756.403 18.8814C756.082 18.9143 768.111 24.6636 770.946 26.0635C773.78 27.4635 777.352 27.7926 783.026 25.8701L802.693 19.207C810.978 16.4001 816.575 19.9692 816.65 19.8146C816.725 19.6599 805.249 14.0308 802.538 12.6918C799.826 11.3527 795.517 10.9658 791.867 12.2021L769.439 19.8008C762.443 22.1712 756.727 18.8497 756.403 18.8814Z" fill="url(#paint26_linear_2_792)"/>
<path d="M763.393 15.2816C767.46 13.9036 769.64 9.48941 768.262 5.42221C766.884 1.355 762.47 -0.825038 758.403 0.552957C754.336 1.93095 752.156 6.34516 753.534 10.4124C754.912 14.4796 759.326 16.6596 763.393 15.2816Z" fill="url(#paint27_linear_2_792)"/>
<path d="M814.319 18.9814C813.998 19.0144 826.027 24.7637 828.862 26.1636C831.696 27.5635 835.268 27.8926 840.942 25.9702L860.609 19.3071C868.894 16.5001 874.491 20.0693 874.566 19.9146C874.641 19.76 863.165 14.1309 860.454 12.7918C857.742 11.4528 853.433 11.0658 849.784 12.3021L827.355 19.9009C820.359 22.2712 814.643 18.9497 814.319 18.9814Z" fill="url(#paint28_linear_2_792)"/>
<path d="M821.309 15.3817C825.377 14.0037 827.557 9.58945 826.179 5.52225C824.801 1.45504 820.386 -0.724996 816.319 0.652999C812.252 2.03099 810.072 6.4452 811.45 10.5124C812.828 14.5796 817.242 16.7597 821.309 15.3817Z" fill="url(#paint29_linear_2_792)"/>
<path d="M872.164 18.8814C871.842 18.9143 883.872 24.6636 886.706 26.0635C889.541 27.4635 893.113 27.7926 898.787 25.8701L918.453 19.207C926.738 16.4001 932.336 19.9692 932.41 19.8146C932.485 19.6599 921.01 14.0308 918.298 12.6918C915.587 11.3527 911.277 10.9658 907.628 12.2021L885.2 19.8008C878.204 22.1712 872.487 18.8497 872.164 18.8814Z" fill="url(#paint30_linear_2_792)"/>
<path d="M879.154 15.2816C883.221 13.9036 885.401 9.48941 884.023 5.42221C882.645 1.355 878.231 -0.825038 874.163 0.552957C870.096 1.93095 867.916 6.34516 869.294 10.4124C870.672 14.4796 875.086 16.6596 879.154 15.2816Z" fill="url(#paint31_linear_2_792)"/>
<defs>
<linearGradient id="paint0_linear_2_792" x1="0.589111" y1="13.7265" x2="932.411" y2="13.7265" gradientUnits="userSpaceOnUse">
<stop stop-color="#1751A4"/>
<stop offset="1" stop-color="#BF2C2D"/>
</linearGradient>
<linearGradient id="paint1_linear_2_792" x1="0.589111" y1="13.7265" x2="932.411" y2="13.7265" gradientUnits="userSpaceOnUse">
<stop stop-color="#1751A4"/>
<stop offset="1" stop-color="#BF2C2D"/>
</linearGradient>
<linearGradient id="paint2_linear_2_792" x1="0.589111" y1="13.7265" x2="932.411" y2="13.7265" gradientUnits="userSpaceOnUse">
<stop stop-color="#1751A4"/>
<stop offset="1" stop-color="#BF2C2D"/>
</linearGradient>
<linearGradient id="paint3_linear_2_792" x1="0.589111" y1="13.7265" x2="932.411" y2="13.7265" gradientUnits="userSpaceOnUse">
<stop stop-color="#1751A4"/>
<stop offset="1" stop-color="#BF2C2D"/>
</linearGradient>
<linearGradient id="paint4_linear_2_792" x1="0.589111" y1="13.7265" x2="932.411" y2="13.7265" gradientUnits="userSpaceOnUse">
<stop stop-color="#1751A4"/>
<stop offset="1" stop-color="#BF2C2D"/>
</linearGradient>
<linearGradient id="paint5_linear_2_792" x1="0.589111" y1="13.7265" x2="932.411" y2="13.7265" gradientUnits="userSpaceOnUse">
<stop stop-color="#1751A4"/>
<stop offset="1" stop-color="#BF2C2D"/>
</linearGradient>
<linearGradient id="paint6_linear_2_792" x1="0.589111" y1="13.7265" x2="932.411" y2="13.7265" gradientUnits="userSpaceOnUse">
<stop stop-color="#1751A4"/>
<stop offset="1" stop-color="#BF2C2D"/>
</linearGradient>
<linearGradient id="paint7_linear_2_792" x1="0.589111" y1="13.7265" x2="932.411" y2="13.7265" gradientUnits="userSpaceOnUse">
<stop stop-color="#1751A4"/>
<stop offset="1" stop-color="#BF2C2D"/>
</linearGradient>
<linearGradient id="paint8_linear_2_792" x1="0.589111" y1="13.7265" x2="932.411" y2="13.7265" gradientUnits="userSpaceOnUse">
<stop stop-color="#1751A4"/>
<stop offset="1" stop-color="#BF2C2D"/>
</linearGradient>
<linearGradient id="paint9_linear_2_792" x1="0.589111" y1="13.7265" x2="932.411" y2="13.7265" gradientUnits="userSpaceOnUse">
<stop stop-color="#1751A4"/>
<stop offset="1" stop-color="#BF2C2D"/>
</linearGradient>
<linearGradient id="paint10_linear_2_792" x1="0.589111" y1="13.7265" x2="932.411" y2="13.7265" gradientUnits="userSpaceOnUse">
<stop stop-color="#1751A4"/>
<stop offset="1" stop-color="#BF2C2D"/>
</linearGradient>
<linearGradient id="paint11_linear_2_792" x1="0.589111" y1="13.7265" x2="932.411" y2="13.7265" gradientUnits="userSpaceOnUse">
<stop stop-color="#1751A4"/>
<stop offset="1" stop-color="#BF2C2D"/>
</linearGradient>
<linearGradient id="paint12_linear_2_792" x1="0.589111" y1="13.7265" x2="932.411" y2="13.7265" gradientUnits="userSpaceOnUse">
<stop stop-color="#1751A4"/>
<stop offset="1" stop-color="#BF2C2D"/>
</linearGradient>
<linearGradient id="paint13_linear_2_792" x1="0.589111" y1="13.7265" x2="932.411" y2="13.7265" gradientUnits="userSpaceOnUse">
<stop stop-color="#1751A4"/>
<stop offset="1" stop-color="#BF2C2D"/>
</linearGradient>
<linearGradient id="paint14_linear_2_792" x1="0.589111" y1="13.7265" x2="932.411" y2="13.7265" gradientUnits="userSpaceOnUse">
<stop stop-color="#1751A4"/>
<stop offset="1" stop-color="#BF2C2D"/>
</linearGradient>
<linearGradient id="paint15_linear_2_792" x1="0.589111" y1="13.7265" x2="932.411" y2="13.7265" gradientUnits="userSpaceOnUse">
<stop stop-color="#1751A4"/>
<stop offset="1" stop-color="#BF2C2D"/>
</linearGradient>
<linearGradient id="paint16_linear_2_792" x1="0.589111" y1="13.7265" x2="932.411" y2="13.7265" gradientUnits="userSpaceOnUse">
<stop stop-color="#1751A4"/>
<stop offset="1" stop-color="#BF2C2D"/>
</linearGradient>
<linearGradient id="paint17_linear_2_792" x1="0.589111" y1="13.7265" x2="932.411" y2="13.7265" gradientUnits="userSpaceOnUse">
<stop stop-color="#1751A4"/>
<stop offset="1" stop-color="#BF2C2D"/>
</linearGradient>
<linearGradient id="paint18_linear_2_792" x1="0.589111" y1="13.7265" x2="932.411" y2="13.7265" gradientUnits="userSpaceOnUse">
<stop stop-color="#1751A4"/>
<stop offset="1" stop-color="#BF2C2D"/>
</linearGradient>
<linearGradient id="paint19_linear_2_792" x1="0.589111" y1="13.7265" x2="932.411" y2="13.7265" gradientUnits="userSpaceOnUse">
<stop stop-color="#1751A4"/>
<stop offset="1" stop-color="#BF2C2D"/>
</linearGradient>
<linearGradient id="paint20_linear_2_792" x1="0.589111" y1="13.7265" x2="932.411" y2="13.7265" gradientUnits="userSpaceOnUse">
<stop stop-color="#1751A4"/>
<stop offset="1" stop-color="#BF2C2D"/>
</linearGradient>
<linearGradient id="paint21_linear_2_792" x1="0.589111" y1="13.7265" x2="932.411" y2="13.7265" gradientUnits="userSpaceOnUse">
<stop stop-color="#1751A4"/>
<stop offset="1" stop-color="#BF2C2D"/>
</linearGradient>
<linearGradient id="paint22_linear_2_792" x1="0.589111" y1="13.7265" x2="932.411" y2="13.7265" gradientUnits="userSpaceOnUse">
<stop stop-color="#1751A4"/>
<stop offset="1" stop-color="#BF2C2D"/>
</linearGradient>
<linearGradient id="paint23_linear_2_792" x1="0.589111" y1="13.7265" x2="932.411" y2="13.7265" gradientUnits="userSpaceOnUse">
<stop stop-color="#1751A4"/>
<stop offset="1" stop-color="#BF2C2D"/>
</linearGradient>
<linearGradient id="paint24_linear_2_792" x1="0.589111" y1="13.7265" x2="932.411" y2="13.7265" gradientUnits="userSpaceOnUse">
<stop stop-color="#1751A4"/>
<stop offset="1" stop-color="#BF2C2D"/>
</linearGradient>
<linearGradient id="paint25_linear_2_792" x1="0.589111" y1="13.7265" x2="932.411" y2="13.7265" gradientUnits="userSpaceOnUse">
<stop stop-color="#1751A4"/>
<stop offset="1" stop-color="#BF2C2D"/>
</linearGradient>
<linearGradient id="paint26_linear_2_792" x1="0.589111" y1="13.7265" x2="932.411" y2="13.7265" gradientUnits="userSpaceOnUse">
<stop stop-color="#1751A4"/>
<stop offset="1" stop-color="#BF2C2D"/>
</linearGradient>
<linearGradient id="paint27_linear_2_792" x1="0.589111" y1="13.7265" x2="932.411" y2="13.7265" gradientUnits="userSpaceOnUse">
<stop stop-color="#1751A4"/>
<stop offset="1" stop-color="#BF2C2D"/>
</linearGradient>
<linearGradient id="paint28_linear_2_792" x1="0.589111" y1="13.7265" x2="932.411" y2="13.7265" gradientUnits="userSpaceOnUse">
<stop stop-color="#1751A4"/>
<stop offset="1" stop-color="#BF2C2D"/>
</linearGradient>
<linearGradient id="paint29_linear_2_792" x1="0.589111" y1="13.7265" x2="932.411" y2="13.7265" gradientUnits="userSpaceOnUse">
<stop stop-color="#1751A4"/>
<stop offset="1" stop-color="#BF2C2D"/>
</linearGradient>
<linearGradient id="paint30_linear_2_792" x1="0.589111" y1="13.7265" x2="932.411" y2="13.7265" gradientUnits="userSpaceOnUse">
<stop stop-color="#1751A4"/>
<stop offset="1" stop-color="#BF2C2D"/>
</linearGradient>
<linearGradient id="paint31_linear_2_792" x1="0.589111" y1="13.7265" x2="932.411" y2="13.7265" gradientUnits="userSpaceOnUse">
<stop stop-color="#1751A4"/>
<stop offset="1" stop-color="#BF2C2D"/>
</linearGradient>
</defs>
</svg>
