<svg width="36" height="37" viewBox="0 0 36 37" fill="none" xmlns="http://www.w3.org/2000/svg">
<g clip-path="url(#clip0_2_417)">
<path d="M33 6.1468V31.735C33 32.32 32.7676 32.8812 32.354 33.2949C31.9403 33.7086 31.3791 33.9409 30.7941 33.9409H5.20589C4.62084 33.9409 4.05977 33.7086 3.6461 33.2949C3.23241 32.8812 3 32.32 3 31.735V6.1468C3 5.56176 3.23241 5.00068 3.6461 4.58701C4.05977 4.17333 4.62084 3.94092 5.20589 3.94092H30.7941C31.3791 3.94092 31.9403 4.17333 32.354 4.58701C32.7676 5.00068 33 5.56176 33 6.1468ZM11.8235 15.4115H7.41177V29.5291H11.8235V15.4115ZM12.2206 10.5586C12.2229 10.2249 12.1595 9.89395 12.0339 9.58474C11.9084 9.27555 11.7231 8.9941 11.4888 8.7565C11.2545 8.51889 10.9756 8.32975 10.6682 8.19991C10.3608 8.07007 10.0308 8.00205 9.69707 7.99974H9.61765C8.93901 7.99974 8.28816 8.26933 7.80828 8.7492C7.32842 9.22908 7.05882 9.87993 7.05882 10.5586C7.05882 11.2372 7.32842 11.8881 7.80828 12.3679C8.28816 12.8478 8.93901 13.1174 9.61765 13.1174C9.95139 13.1256 10.2835 13.068 10.5949 12.9478C10.9064 12.8276 11.1911 12.6472 11.4328 12.417C11.6746 12.1867 11.8686 11.9111 12.0037 11.6059C12.1389 11.3006 12.2126 10.9717 12.2206 10.638V10.5586ZM28.5882 20.9527C28.5882 16.7086 25.8882 15.0586 23.2059 15.0586C22.3277 15.0146 21.4531 15.2016 20.6698 15.6011C19.8864 16.0005 19.2214 16.5984 18.7411 17.335H18.6177V15.4115H14.4706V29.5291H18.8823V22.0203C18.8185 21.2514 19.0608 20.4882 19.5564 19.8967C20.0521 19.3053 20.761 18.9333 21.5294 18.8616H21.6971C23.1 18.8616 24.1412 19.7439 24.1412 21.9673V29.5291H28.5529L28.5882 20.9527Z" fill="white"/>
</g>
<defs>
<clipPath id="clip0_2_417">
<rect width="36" height="36" fill="white" transform="translate(0 0.940918)"/>
</clipPath>
</defs>
</svg>
