<svg width="25" height="25" viewBox="0 0 25 25" fill="none" xmlns="http://www.w3.org/2000/svg">
<mask id="mask0_2_341" style="mask-type:alpha" maskUnits="userSpaceOnUse" x="0" y="0" width="25" height="25">
<rect x="0.800049" y="0.0595703" width="24" height="24" fill="#D9D9D9"/>
</mask>
<g mask="url(#mask0_2_341)">
<path d="M12.8 19.4096C14.8334 17.5429 16.3417 15.8471 17.325 14.3221C18.3084 12.7971 18.8 11.4429 18.8 10.2596C18.8 8.4429 18.2209 6.9554 17.0625 5.79707C15.9042 4.63874 14.4834 4.05957 12.8 4.05957C11.1167 4.05957 9.69588 4.63874 8.53755 5.79707C7.37922 6.9554 6.80005 8.4429 6.80005 10.2596C6.80005 11.4429 7.29172 12.7971 8.27505 14.3221C9.25838 15.8471 10.7667 17.5429 12.8 19.4096ZM12.8 21.3846C12.5667 21.3846 12.3334 21.3429 12.1 21.2596C11.8667 21.1762 11.6584 21.0512 11.475 20.8846C10.3917 19.8846 9.43338 18.9096 8.60005 17.9596C7.76672 17.0096 7.07088 16.0887 6.51255 15.1971C5.95422 14.3054 5.52922 13.4471 5.23755 12.6221C4.94588 11.7971 4.80005 11.0096 4.80005 10.2596C4.80005 7.75957 5.60422 5.7679 7.21255 4.28457C8.82088 2.80124 10.6834 2.05957 12.8 2.05957C14.9167 2.05957 16.7792 2.80124 18.3875 4.28457C19.9959 5.7679 20.8 7.75957 20.8 10.2596C20.8 11.0096 20.6542 11.7971 20.3625 12.6221C20.0709 13.4471 19.6459 14.3054 19.0875 15.1971C18.5292 16.0887 17.8334 17.0096 17 17.9596C16.1667 18.9096 15.2084 19.8846 14.125 20.8846C13.9417 21.0512 13.7334 21.1762 13.5 21.2596C13.2667 21.3429 13.0334 21.3846 12.8 21.3846ZM12.8 12.0596C13.35 12.0596 13.8209 11.8637 14.2125 11.4721C14.6042 11.0804 14.8 10.6096 14.8 10.0596C14.8 9.50957 14.6042 9.03874 14.2125 8.64707C13.8209 8.2554 13.35 8.05957 12.8 8.05957C12.25 8.05957 11.7792 8.2554 11.3875 8.64707C10.9959 9.03874 10.8 9.50957 10.8 10.0596C10.8 10.6096 10.9959 11.0804 11.3875 11.4721C11.7792 11.8637 12.25 12.0596 12.8 12.0596Z" fill="#3E150F"/>
</g>
</svg>
