<svg width="18" height="19" viewBox="0 0 18 19" fill="none" xmlns="http://www.w3.org/2000/svg">
<path d="M10 18.0596C9.71667 18.0596 9.47917 17.9637 9.2875 17.7721C9.09583 17.5804 9 17.3429 9 17.0596C9 16.7762 9.09583 16.5387 9.2875 16.3471C9.47917 16.1554 9.71667 16.0596 10 16.0596H16V2.05957H10C9.71667 2.05957 9.47917 1.96374 9.2875 1.77207C9.09583 1.5804 9 1.3429 9 1.05957C9 0.776237 9.09583 0.538737 9.2875 0.34707C9.47917 0.155404 9.71667 0.0595703 10 0.0595703H16C16.55 0.0595703 17.0208 0.255404 17.4125 0.64707C17.8042 1.03874 18 1.50957 18 2.05957V16.0596C18 16.6096 17.8042 17.0804 17.4125 17.4721C17.0208 17.8637 16.55 18.0596 16 18.0596H10ZM8.175 10.0596H1C0.716667 10.0596 0.479167 9.96374 0.2875 9.77207C0.0958333 9.5804 0 9.3429 0 9.05957C0 8.77624 0.0958333 8.53874 0.2875 8.34707C0.479167 8.1554 0.716667 8.05957 1 8.05957H8.175L6.3 6.18457C6.11667 6.00124 6.025 5.77624 6.025 5.50957C6.025 5.2429 6.11667 5.00957 6.3 4.80957C6.48333 4.60957 6.71667 4.5054 7 4.49707C7.28333 4.48874 7.525 4.58457 7.725 4.78457L11.3 8.35957C11.5 8.55957 11.6 8.7929 11.6 9.05957C11.6 9.32624 11.5 9.55957 11.3 9.75957L7.725 13.3346C7.525 13.5346 7.2875 13.6304 7.0125 13.6221C6.7375 13.6137 6.5 13.5096 6.3 13.3096C6.11667 13.1096 6.02917 12.8721 6.0375 12.5971C6.04583 12.3221 6.14167 12.0929 6.325 11.9096L8.175 10.0596Z" fill="#3E150F"/>
</svg>
