<svg xmlns="http://www.w3.org/2000/svg" xmlns:xlink="http://www.w3.org/1999/xlink" viewBox="0 0 297.64 297.64"><defs><style>.cls-1,.cls-4{fill:none;}.cls-2{clip-path:url(#clip-path);}.cls-3{fill:#fff;}.cls-4{stroke:#000;stroke-miterlimit:10;stroke-width:7px;}</style><clipPath id="clip-path"><rect class="cls-1" x="-409.18" y="395.82" width="270" height="270"/></clipPath></defs><g id="Layer_1" data-name="Layer 1"><g class="cls-2"><image width="5100" height="7002" transform="translate(92.82 962.06) rotate(180) scale(0.12)" xlink:href="../../../Pictures/Scans/Scan_20240604%20(2).png"/></g></g><g id="Layer_2" data-name="Layer 2"><path d="M.32,237.32c.3.08.59-.14.86-.25l.8-.47c.52-.32,1-.67,1.53-1,1-.71,2-1.46,3-2.21,1.94-1.52,3.83-3.11,5.69-4.73a146.94,146.94,0,0,0,10.6-10.28A98.51,98.51,0,0,0,32,206.91c1.38-2,2.61-4.15,3.92-6.25s2.6-4.2,3.94-6.28a160.76,160.76,0,0,1,18-23.62,97.74,97.74,0,0,1,23.28-18.51c8.58-4.82,16.85-10.18,25.26-15.37,4.21-2.6,8.44-5.17,12.79-7.56,2.19-1.19,4.4-2.34,6.69-3.37a32.08,32.08,0,0,1,7.27-2.46,9,9,0,0,1,4.23.12,4.73,4.73,0,0,1,2.07,1.29,5.26,5.26,0,0,1,1.14,2.09,11.1,11.1,0,0,1,.25,4.14,26.26,26.26,0,0,1-.68,3.83,32.58,32.58,0,0,1-7.45,13.32,71.06,71.06,0,0,1-11.3,10c-2,1.47-4.06,2.88-6,4.3-1,.71-2,1.43-2.84,2.17a10.13,10.13,0,0,0-1.14,1.12,2.65,2.65,0,0,0-.3.44c0,.11,0,.06,0-.09l-2.91.72a2.9,2.9,0,0,1,.23-1.89,5.72,5.72,0,0,1,.72-1.09,12.87,12.87,0,0,1,1.52-1.46c1-.85,2-1.58,3.06-2.3,2-1.43,4.08-2.79,6.06-4.22a67.3,67.3,0,0,0,11-9.44,30,30,0,0,0,7-12.19c.57-2.23,1-4.75.53-6.65a2.42,2.42,0,0,0-1.63-1.79,6.76,6.76,0,0,0-3.09-.07,30.44,30.44,0,0,0-6.74,2.23c-2.22,1-4.4,2.07-6.56,3.23-4.32,2.31-8.55,4.83-12.76,7.38-8.44,5.1-16.78,10.4-25.47,15.18A95.81,95.81,0,0,0,59,171.78,159.26,159.26,0,0,0,40.87,195q-2,3.09-4,6.22c-1.32,2.07-2.58,4.2-4,6.23a99,99,0,0,1-9.59,11.34,147.73,147.73,0,0,1-10.86,10.08c-1.9,1.59-3.82,3.13-5.8,4.61-1,.74-2,1.46-3,2.15-.51.35-1,.68-1.56,1-.27.15-.54.31-.81.44S.62,237.41.32,237.32Z"/><path class="cls-3" d="M130.74,41.52c34.94,23.22,67.84-34.32,127.08,25.3-58.39.85-80.73,59.12-127.08,48Z"/><path d="M130.64,41.34c.63.3,1.42.68,2.07,1s1.27.65,1.92.92a31.59,31.59,0,0,0,4,1.53,32.36,32.36,0,0,0,8.26,1.47,58,58,0,0,0,16.67-2c5.51-1.34,11-3,16.6-4.38a97,97,0,0,1,17.23-2.87,59.6,59.6,0,0,1,17.55,1.4,63.72,63.72,0,0,1,16.33,6.37c10.26,5.62,19,13.38,27,21.52l1.05,1.07h-1.49a78.61,78.61,0,0,0-17.16,2,83.57,83.57,0,0,0-16.3,5.7c-10.5,4.84-19.92,11.59-29.3,18.4-4.67,3.44-9.35,6.91-14.21,10.2a113.56,113.56,0,0,1-15.3,9,65.9,65.9,0,0,1-8.37,3.31,52.28,52.28,0,0,1-8.87,1.91,49.52,49.52,0,0,1-9.11.28,52.93,52.93,0,0,1-9-1.43l-1.6-.4v-1.62l.09-9.4.19-9.38c.11-6.26.33-12.47.51-18.64l.64-18.26Zm.19.35c.16,6.38.34,12.65.55,18.86L132,78.94c.18,6,.4,12,.51,18l.19,8.94.09,8.93-1.59-2a47.69,47.69,0,0,0,16.57,1,55.61,55.61,0,0,0,16.06-4.69c10.35-4.66,19.66-11.68,29.29-18.2S212.75,78,223.61,73.45a99.38,99.38,0,0,1,16.77-5.24,93,93,0,0,1,17.43-2l-.44,1.08a103.48,103.48,0,0,0-27.38-20,65,65,0,0,0-32.44-6.6,101.67,101.67,0,0,0-16.69,2.51c-5.54,1.22-11.08,2.73-16.77,3.84a55.57,55.57,0,0,1-17.42,1.12,33.8,33.8,0,0,1-8.48-2.18,30.82,30.82,0,0,1-3.93-1.88c-.64-.34-1.24-.76-1.86-1.13S131.42,42.15,130.83,41.69Z"/><path d="M157.37,173.09c3.33-2.13,6.68-4.2,10-6.38s6.58-4.34,9.77-6.63a131.8,131.8,0,0,0,18-15,47.88,47.88,0,0,0,7-9.05,34.34,34.34,0,0,0,2.33-5.13,12.52,12.52,0,0,0,.92-5.11,2.28,2.28,0,0,0-2.42-2.37,11.45,11.45,0,0,0-5,1.3,37,37,0,0,0-9.21,6.65c-1.41,1.33-2.7,2.73-4,4.2a55.61,55.61,0,0,1-4.32,4.23,62.08,62.08,0,0,1-9.82,7,131.2,131.2,0,0,1-21.81,9.59c-3.73,1.33-7.45,2.6-11.25,3.79s-7.68,2-11.56,2.81-7.74,1.53-11.56,2.48a109,109,0,0,0-11.3,3.45l-.11-.28a108.39,108.39,0,0,1,11.25-3.77c3.82-1.06,7.68-1.91,11.52-2.8s7.65-1.87,11.38-3.1,7.41-2.68,11.09-4.06a130.1,130.1,0,0,0,21.29-9.9,60.42,60.42,0,0,0,9.32-6.93,50.78,50.78,0,0,0,4-4.14c1.28-1.48,2.64-3,4.07-4.42a39.88,39.88,0,0,1,9.79-7.35,13.86,13.86,0,0,1,6.35-1.7,5.53,5.53,0,0,1,3.69,1.43,5.75,5.75,0,0,1,1.64,3.57,15.32,15.32,0,0,1-1,6.48,36.29,36.29,0,0,1-2.59,5.63,46.54,46.54,0,0,1-7.58,9.55A91.27,91.27,0,0,1,188,155c-3.18,2.41-6.46,4.66-9.82,6.78s-6.75,4.15-10.21,6.08-6.95,3.78-10.5,5.53Z"/><path d="M169.61,190.87a132.24,132.24,0,0,0,18.95-11q4.42-3.18,8.6-6.71t8.14-7.27c2.63-2.5,5.15-5.12,7.59-7.81a98.12,98.12,0,0,0,6.89-8.37,51.5,51.5,0,0,0,5.5-9.19,17.08,17.08,0,0,0,1.53-4.86,5.1,5.1,0,0,0-.17-2.17,2.35,2.35,0,0,0-1.19-1.36,7.11,7.11,0,0,0-4.6-.06,20.67,20.67,0,0,0-4.82,2,33.32,33.32,0,0,0-8.31,6.69,142.84,142.84,0,0,1-16.42,14.87,136.91,136.91,0,0,1-18.57,12c-3.31,1.65-6.68,3.13-10.09,4.52a28,28,0,0,1-5.32,1.62,14.3,14.3,0,0,1-2.78.24,5.8,5.8,0,0,1-2.73-.67l.15-.26a5.39,5.39,0,0,0,2.58.53,12.3,12.3,0,0,0,2.69-.33,29,29,0,0,0,5.16-1.75c3.36-1.44,6.71-3,10-4.65a134.08,134.08,0,0,0,18.07-12.39,143.18,143.18,0,0,0,15.91-15,35.62,35.62,0,0,1,8.66-7.24,23,23,0,0,1,5.3-2.3,13.16,13.16,0,0,1,3-.48,7,7,0,0,1,3.23.6,4.78,4.78,0,0,1,2.42,2.62,7.29,7.29,0,0,1,.38,3.26,19.4,19.4,0,0,1-1.58,5.66,54.48,54.48,0,0,1-5.54,9.84,104.54,104.54,0,0,1-14.79,16.69,124.55,124.55,0,0,1-17.61,13.58A102.63,102.63,0,0,1,180,187c-3.37,1.52-6.79,2.92-10.26,4.14Z"/><path d="M178.5,218.66c3.46-1.7,6.88-3.43,10.19-5.37a110.28,110.28,0,0,0,9.67-6.13,115.35,115.35,0,0,0,17.22-14.89,112.82,112.82,0,0,0,7.43-8.62c1.19-1.47,2.32-3,3.44-4.53s2.21-3.09,3.23-4.68a57.33,57.33,0,0,0,5.27-9.93,28.21,28.21,0,0,0,1.57-5.28,11.39,11.39,0,0,0-.07-5.14,3.27,3.27,0,0,0-3-2.64,7.57,7.57,0,0,0-4.59,1.79,15.5,15.5,0,0,0-2,1.81l-1.94,2.11L221,161.42c-5.28,5.62-10.75,11.2-17.25,15.55a144.57,144.57,0,0,1-20.54,10.69,53.52,53.52,0,0,1-5.4,2.12c-1.85.58-3.72,1.06-5.61,1.46a39.66,39.66,0,0,1-5.74.81,17.81,17.81,0,0,1-2.92-.07,7,7,0,0,1-2.8-.84l.15-.26a6.89,6.89,0,0,0,2.69.76,17,17,0,0,0,2.85,0,37.44,37.44,0,0,0,5.66-.89c1.87-.43,3.72-.95,5.53-1.54a47.75,47.75,0,0,0,5.28-2.24,143,143,0,0,0,20-11.22c6.23-4.36,11.53-9.95,16.66-15.63l3.81-4.31,1.92-2.18a18.52,18.52,0,0,1,2.23-2.1,9.74,9.74,0,0,1,6-2.34,5.38,5.38,0,0,1,3.38,1.24,6.3,6.3,0,0,1,1.88,2.93,13.87,13.87,0,0,1,.29,6.28,30.62,30.62,0,0,1-1.56,5.82A60.12,60.12,0,0,1,232.19,176c-1,1.66-2.1,3.31-3.25,4.87s-2.25,3.19-3.49,4.69a114.85,114.85,0,0,1-7.72,8.78,103.41,103.41,0,0,1-39.11,24.58Z"/><path d="M57.82,297.82c2.78-4.49,5.61-8.94,8.54-13.35,1.47-2.2,3-4.39,4.57-6.52a69.94,69.94,0,0,1,5.19-6.14,41.63,41.63,0,0,1,13.22-9.46,47.72,47.72,0,0,1,7.72-2.69,68.06,68.06,0,0,1,7.94-1.6q4-.62,8-.88c2.64-.2,5.39-.26,7.91-.41a102.71,102.71,0,0,0,15.35-2.23,179.93,179.93,0,0,0,29.81-9.4,208.05,208.05,0,0,0,28.08-13.88,137.66,137.66,0,0,0,13-8.71,56,56,0,0,0,11-10.72,13.65,13.65,0,0,0,2.84-6.56,6.25,6.25,0,0,0-.1-1.63,2.37,2.37,0,0,0-.59-1.15c-.48-.52-1.61-.55-2.77-.26a30.27,30.27,0,0,0-6.94,3.12c-2.27,1.29-4.5,2.69-6.74,4.09s-4.45,2.84-6.8,4.1a46.83,46.83,0,0,1-7.29,3.22c-5,1.65-10.37,2.84-15.6,2a6.14,6.14,0,0,0,2,.2c.66,0,1.31-.05,2-.1,1.31-.12,2.62-.29,3.91-.51a48.5,48.5,0,0,0,14.57-5.7c2.24-1.33,4.4-2.83,6.57-4.34s4.33-3,6.58-4.45c1.12-.72,2.27-1.41,3.46-2.05a19,19,0,0,1,3.83-1.62,7.51,7.51,0,0,1,2.27-.31,3.93,3.93,0,0,1,2.5.93,4.48,4.48,0,0,1,1.32,2.25,8.18,8.18,0,0,1,.23,2.29,16,16,0,0,1-3,7.94,42.26,42.26,0,0,1-5.26,6.24,78.26,78.26,0,0,1-6,5.38,128.43,128.43,0,0,1-13.07,9.23,199.52,199.52,0,0,1-28.41,14.53,178.54,178.54,0,0,1-30.43,9.73,107.8,107.8,0,0,1-16,2.23c-2.75.14-5.28.16-7.9.34s-5.18.35-7.74.68a59.8,59.8,0,0,0-14.89,3.61,40.9,40.9,0,0,0-12.74,8.28C70.39,280.73,64.4,289.59,57.82,297.82Z"/><line class="cls-4" x1="130.74" y1="38.53" x2="130.74" y2="199.35"/></g></svg>