<svg width="180" height="181" viewBox="0 0 180 181" fill="none" xmlns="http://www.w3.org/2000/svg">
<g clip-path="url(#clip0_2_844)">
<path d="M60.7321 112.272C60.7494 112.309 60.7617 112.349 60.7686 112.389L60.7933 112.545L60.8419 112.855L60.9325 113.477L61.0943 114.723C61.1926 115.555 61.2801 116.389 61.3617 117.222C61.5203 118.89 61.664 120.56 61.7618 122.233C61.9665 125.577 62.1017 128.925 62.1672 132.276C62.2307 135.626 62.219 138.976 62.1943 142.326C62.1716 144.001 62.1458 145.676 62.0961 147.35L61.9128 152.371L61.5854 151.955L83.0392 156.28L93.7756 158.391L99.15 159.407L101.84 159.887L103.186 160.107L103.857 160.203L104.189 160.24L104.347 160.252L104.418 160.254C104.435 160.256 104.461 160.246 104.418 160.261L104.37 160.288C105.708 159.409 107.07 158.588 108.446 157.785C109.827 156.991 111.233 156.24 112.673 155.557C114.103 154.845 115.581 154.236 117.097 153.735C117.862 153.488 118.641 153.291 119.43 153.144C120.23 152.987 121.048 152.941 121.86 153.009L121.612 153.242C121.365 149.505 121.095 145.768 120.804 142.032L119.925 130.829C119.615 127.097 119.302 123.365 118.924 119.642C118.735 117.781 118.533 115.922 118.292 114.071C118.171 113.147 118.041 112.224 117.884 111.312C117.805 110.857 117.719 110.404 117.618 109.963C117.568 109.744 117.514 109.526 117.45 109.326C117.421 109.233 117.388 109.142 117.35 109.053C117.332 109.016 117.316 108.986 117.305 108.968C117.309 108.961 117.277 108.966 117.411 109.037L117.597 109.077C112.503 108.954 107.395 108.93 102.301 109.052C99.7546 109.124 97.2078 109.207 94.6745 109.399C93.4086 109.496 92.1449 109.619 90.8994 109.809C90.2777 109.905 89.6588 110.017 89.0605 110.169C88.4956 110.282 87.9584 110.505 87.4795 110.825L87.4636 110.838C87.4002 110.892 87.3214 110.923 87.2389 110.928C82.8676 111.187 78.4837 111.393 74.0728 111.616L60.7321 112.272ZM60.6565 112.211L73.8351 111.158C78.2639 110.813 82.7198 110.45 87.1882 110.139L86.9478 110.242C87.5137 109.822 88.1628 109.528 88.8516 109.379C89.4887 109.207 90.1266 109.083 90.7651 108.974C92.0419 108.761 93.3205 108.619 94.5993 108.502C97.157 108.272 99.716 108.141 102.275 108.073C107.394 107.934 112.506 107.943 117.625 108.05L117.649 108.051C117.705 108.052 117.761 108.066 117.811 108.091C117.957 108.158 118.079 108.267 118.164 108.403C118.209 108.475 118.25 108.55 118.285 108.627C118.34 108.753 118.389 108.881 118.43 109.012C118.509 109.259 118.568 109.496 118.623 109.733C118.73 110.206 118.813 110.674 118.891 111.142C119.043 112.078 119.168 113.012 119.282 113.946C119.51 115.814 119.697 117.681 119.872 119.55C120.216 123.286 120.516 127.025 120.773 130.764C121.027 134.505 121.274 138.245 121.476 141.988L122.055 153.217C122.059 153.276 122.039 153.333 122 153.377C121.962 153.421 121.907 153.448 121.849 153.452C121.835 153.452 121.821 153.452 121.808 153.45C120.246 153.334 118.677 153.542 117.2 154.061C115.693 154.542 114.223 155.13 112.8 155.821C111.376 156.515 109.989 157.285 108.627 158.094C107.264 158.9 105.929 159.765 104.646 160.683L104.637 160.689C104.625 160.698 104.612 160.705 104.597 160.709C104.543 160.728 104.486 160.737 104.429 160.737L104.328 160.736L104.146 160.724L103.797 160.687L103.113 160.596L101.757 160.386L99.0566 159.929L93.6688 158.959L82.9111 156.939C75.7442 155.567 68.5787 154.192 61.4244 152.756C61.33 152.737 61.2454 152.686 61.1854 152.61C61.1255 152.535 61.094 152.441 61.0967 152.344L61.0969 152.34L61.2381 147.327L61.3539 142.313C61.413 138.97 61.4593 135.627 61.4304 132.284C61.4209 128.942 61.39 125.598 61.2629 122.257C61.1964 120.587 61.1374 118.916 61.0402 117.247C60.9917 116.413 60.9373 115.579 60.8722 114.745L60.6565 112.211Z" fill="black"/>
<path d="M61.3118 112.215C60.41 111.021 59.552 109.799 58.6735 108.591C58.647 108.554 58.6334 108.51 58.6346 108.465C58.6358 108.42 58.6519 108.377 58.6803 108.342L58.6899 108.33C59.7322 107.07 60.8882 105.908 62.1431 104.86C63.3934 103.797 64.7375 102.851 66.1588 102.032C67.5937 101.21 69.121 100.562 70.7087 100.101C72.3109 99.6405 73.977 99.4431 75.6422 99.516L75.654 99.5166C75.7283 99.5205 75.8004 99.5437 75.8631 99.5837C75.9258 99.6238 75.9771 99.6795 76.0119 99.7453C76.9495 101.521 77.8681 103.307 78.7677 105.103C79.2209 105.999 79.6638 106.901 80.0966 107.809C80.5338 108.714 80.9746 109.617 81.3905 110.533C80.8457 109.687 80.3256 108.827 79.802 107.97C79.2742 107.114 78.7563 106.253 78.2484 105.387C77.227 103.657 76.2239 101.917 75.2392 100.167L75.6088 100.396C74.0402 100.376 72.4772 100.589 70.9709 101.027C69.4545 101.47 67.992 102.079 66.61 102.844C65.2126 103.606 63.8772 104.477 62.6162 105.449C61.3442 106.417 60.1423 107.474 59.0195 108.612L59.0359 108.352C59.7955 109.639 60.5756 110.913 61.3118 112.215Z" fill="black"/>
<path d="M82.2639 110.533C82.5648 109.358 82.9917 108.218 83.5372 107.134C84.0725 106.034 84.7242 104.995 85.4812 104.034L86.0661 103.321C86.2722 103.093 86.4947 102.879 86.7088 102.657C87.1462 102.22 87.6086 101.809 88.0938 101.425C88.3358 101.232 88.6038 101.073 88.8596 100.897C89.1119 100.715 89.3764 100.551 89.6511 100.406C90.1937 100.099 90.7591 99.8352 91.3423 99.6161L92.2216 99.2948C92.5182 99.1992 92.8278 99.1511 93.1305 99.0774L94.0544 98.8772C94.4713 98.8213 94.8943 98.9203 95.2431 99.1556C95.4178 99.2731 95.5688 99.4226 95.6881 99.5962C95.788 99.7508 95.8638 99.8738 95.9464 100.018C96.1067 100.301 96.2455 100.596 96.3618 100.899C96.6089 101.524 96.7214 102.194 96.6919 102.865C96.6432 103.551 96.4216 104.214 96.0479 104.791C95.8621 105.068 95.6459 105.324 95.4032 105.553C95.2825 105.664 95.168 105.786 95.0414 105.887L94.6484 106.169C93.5957 106.852 92.44 107.36 91.2258 107.675L91.3303 107.626C90.6228 108.08 89.9212 108.583 89.2516 109.108C88.5729 109.631 87.923 110.19 87.3049 110.783C86.9483 111.078 86.5304 111.289 86.0817 111.4C85.6331 111.512 85.1652 111.522 84.7122 111.43C83.8456 111.293 83.014 110.989 82.2639 110.533ZM82.2639 110.533C82.6584 110.707 83.0667 110.847 83.4844 110.952C83.8937 111.067 84.3144 111.137 84.7389 111.161C85.1406 111.211 85.5482 111.17 85.9324 111.043C86.3166 110.916 86.6679 110.705 86.9608 110.426C87.5507 109.782 88.1748 109.172 88.8305 108.596C89.4951 108.023 90.1753 107.485 90.9001 106.972C90.9224 106.956 90.9468 106.943 90.9726 106.934L91.0048 106.923C92.1127 106.588 93.164 106.088 94.1236 105.44L94.4582 105.187C94.5638 105.097 94.6526 104.994 94.751 104.899C94.9427 104.711 95.1146 104.503 95.2639 104.28C95.5428 103.839 95.7069 103.335 95.741 102.815C95.7577 102.277 95.6607 101.742 95.4563 101.245C95.3562 100.986 95.2392 100.734 95.1059 100.49C95.0408 100.373 94.9584 100.239 94.8967 100.14C94.846 100.063 94.7812 99.9978 94.7057 99.9462C94.5507 99.8396 94.362 99.7937 94.1755 99.8173L93.3331 99.9948C93.0508 100.061 92.7608 100.101 92.4844 100.188L91.6601 100.468C91.1102 100.657 90.5759 100.888 90.0619 101.16C89.8004 101.289 89.5484 101.436 89.3077 101.6C89.0636 101.759 88.8068 101.901 88.5693 102.071C87.6144 102.759 86.7393 103.552 85.9603 104.435C84.3795 106.234 83.1282 108.299 82.2639 110.533Z" fill="black"/>
<path d="M54.3662 168.179C57.7402 168.179 60.4753 165.442 60.4753 162.065C60.4753 158.689 57.7402 155.952 54.3662 155.952C50.9922 155.952 48.2571 158.689 48.2571 162.065C48.2571 165.442 50.9922 168.179 54.3662 168.179Z" fill="black"/>
<path d="M31.0927 36.8329C31.1429 36.7895 31.1596 36.9067 31.2053 36.9607L31.3166 37.1601L31.5351 37.5609L31.9596 38.3686C32.2357 38.9105 32.5048 39.4558 32.7668 40.0046C33.292 41.1016 33.7847 42.2138 34.2579 43.334C35.2025 45.5753 36.0633 47.8497 36.8404 50.1572C38.3894 54.7719 39.6465 59.4798 40.6042 64.2527C41.5649 69.0271 42.2423 73.8542 42.6329 78.7087C43.0207 83.5656 43.1388 88.4402 42.9866 93.3102L42.64 92.9433L82.8666 93.6215L82.5866 93.7186C83.7196 92.8168 84.9087 91.9879 86.1466 91.2369C87.3811 90.4799 88.6649 89.8065 89.9894 89.2212C91.3242 88.6275 92.7141 88.1665 94.1391 87.8449C95.5895 87.5151 97.0832 87.4184 98.564 87.5584L97.9395 88.0657C98.7324 78.7588 99.4367 69.4438 100.052 60.1208C100.353 55.4609 100.63 50.7996 100.846 46.1403C100.95 43.811 101.037 41.4811 101.072 39.1575C101.086 37.9963 101.101 36.8356 101.073 35.6857C101.059 35.1117 101.037 34.5384 100.99 33.9825C100.966 33.7057 100.935 33.4313 100.891 33.18C100.872 33.0682 100.847 32.9575 100.815 32.8486C100.802 32.8065 100.788 32.7746 100.785 32.7678C100.803 32.7739 100.767 32.8155 101.011 32.9467L101.282 33.0056C98.1416 32.9238 94.9891 32.8845 91.8424 32.8743C88.6945 32.8584 85.5466 32.8621 82.4017 32.9269C79.2574 32.9925 76.1136 33.1034 72.9876 33.3413C71.4255 33.4623 69.8664 33.6148 68.3309 33.8497C67.5646 33.9689 66.8019 34.1069 66.0662 34.2953C65.3773 34.4335 64.7213 34.7024 64.1334 35.0874L64.106 35.1102C64.0212 35.1805 63.9159 35.2214 63.8059 35.2267L31.0927 36.8329ZM30.9641 36.7647L47.2106 35.4513L63.7369 34.1536L63.4095 34.2928C64.1119 33.7645 64.9205 33.3952 65.7795 33.2103C66.569 32.9972 67.3581 32.8445 68.1476 32.7107C69.7265 32.4479 71.3062 32.2728 72.8861 32.1292C76.0459 31.8466 79.2061 31.6936 82.3658 31.5857C88.6868 31.3717 94.9996 31.3731 101.323 31.5108L101.363 31.5117C101.443 31.5137 101.522 31.5336 101.594 31.5698C101.818 31.6709 102 31.8475 102.107 32.0689C102.161 32.1734 102.205 32.2822 102.24 32.3941C102.293 32.565 102.334 32.7388 102.365 32.9148C102.423 33.2389 102.457 33.5457 102.485 33.8505C102.539 34.4586 102.563 35.0532 102.58 35.6469C102.611 36.8329 102.609 38.0091 102.584 39.1839C102.535 41.5326 102.435 43.8725 102.318 46.2107C102.083 50.8867 101.763 55.5527 101.417 60.2161C100.722 69.5427 99.9141 78.8551 99.0574 88.1668C99.051 88.2401 99.0302 88.3115 98.9962 88.3767C98.9622 88.442 98.9158 88.4999 98.8594 88.5472C98.8031 88.5945 98.738 88.6302 98.6678 88.6523C98.5977 88.6744 98.5239 88.6824 98.4506 88.676L98.4328 88.6742C97.0712 88.5265 95.6948 88.596 94.3549 88.8801C92.9919 89.1665 91.6603 89.5862 90.3793 90.133C89.086 90.681 87.8308 91.3152 86.6222 92.0312C85.4101 92.7414 84.244 93.5273 83.1307 94.3844L83.1215 94.3916C83.0441 94.4518 82.9485 94.4836 82.8505 94.4815L42.6267 93.6507C42.5804 93.6501 42.5347 93.6402 42.4923 93.6219C42.4498 93.6035 42.4113 93.577 42.3791 93.5437C42.3469 93.5105 42.3215 93.4712 42.3045 93.4282C42.2874 93.3851 42.279 93.3391 42.2797 93.2928L42.28 93.2837C42.478 88.4396 42.4072 83.5881 42.0679 78.7519C41.7254 73.9133 41.0969 69.0993 40.1859 64.3351C39.277 59.5679 38.0689 54.8628 36.5691 50.2476C35.8147 47.9417 34.9779 45.6648 34.0588 43.4171C33.5974 42.2951 33.1167 41.1809 32.6034 40.0817C32.348 39.5316 32.0849 38.9852 31.8141 38.4425L31.3989 37.6335L31.1852 37.2323L31.0764 37.0331C31.0474 36.9549 30.9905 36.9393 30.9641 36.7647H30.9641Z" fill="black"/>
<path d="M75.5605 38.7333C76.7313 43.1415 77.7692 47.582 78.6742 52.0549C79.5964 56.522 80.4051 61.0117 81.1003 65.5241C81.7766 70.0372 82.3549 74.5703 82.6719 79.1303C82.8392 81.4088 82.9258 83.6957 82.9043 85.983C82.9076 88.2706 82.6932 90.5534 82.264 92.8003C82.5056 90.5386 82.5607 88.2608 82.4286 85.99C82.3369 83.7207 82.1487 81.4557 81.9173 79.1951C81.4489 74.6744 80.8323 70.1671 80.1414 65.6705C79.4646 61.1713 78.7015 56.6838 77.9329 52.1954L75.5605 38.7333Z" fill="black"/>
<path d="M39.5132 36.2524C38.805 35.6988 38.2507 34.9726 37.9034 34.1432C37.556 33.3139 37.4273 32.4092 37.5294 31.5157C37.6384 30.5665 37.9744 29.6575 38.5087 28.8657C38.6469 28.6685 38.7979 28.4779 38.9526 28.2902C39.1194 28.1213 39.2983 27.9346 39.4621 27.7815C39.7795 27.4933 40.0975 27.204 40.4284 26.9299C41.747 25.8108 43.1601 24.8084 44.6518 23.9338C45.4013 23.4932 46.1784 23.0955 46.973 22.7284C47.3721 22.5483 47.7764 22.3789 48.1859 22.2201C48.3797 22.1368 48.6219 22.065 48.8447 21.9899C49.0695 21.9094 49.2994 21.8438 49.5328 21.7935C51.4013 21.3473 53.3613 21.4807 55.1522 22.176C56.9189 22.8646 58.4332 24.0769 59.4923 25.6506C59.7508 26.0343 59.9814 26.436 60.1824 26.8528L60.7089 27.9972L61.7367 30.2998C62.3919 31.8512 63.0545 33.3986 63.6196 34.9993C62.5807 33.6573 61.6394 32.262 60.6908 30.8707L59.3128 28.7593L58.6365 27.6967C58.4288 27.3824 58.2037 27.0801 57.9622 26.7911C57.0113 25.6578 55.7661 24.8095 54.3639 24.3398C53.6766 24.1105 52.9603 23.9797 52.2364 23.9514C51.517 23.9081 50.7952 23.9766 50.0968 24.1545C49.9201 24.1887 49.7463 24.2362 49.5767 24.2966C49.4026 24.3544 49.2401 24.3939 49.0478 24.4738C48.6743 24.6119 48.3066 24.7675 47.937 24.9198C47.1979 25.2261 46.4764 25.5804 45.7584 25.9469C44.3176 26.6981 42.9216 27.5324 41.5775 28.4458L40.5667 29.1449L40.1401 29.474C40.0157 29.5979 39.8788 29.7132 39.7552 29.842C39.2585 30.3804 38.8952 31.028 38.6944 31.7327C38.4785 32.4988 38.44 33.304 38.5819 34.0872C38.7238 34.8704 39.0423 35.6109 39.5132 36.2524Z" fill="black"/>
<path d="M63.3635 34.6222C63.6212 33.1845 64.0508 31.783 64.6432 30.448C65.2279 29.088 65.9549 27.7938 66.812 26.5871C67.6901 25.3621 68.7119 24.247 69.8554 23.2657C71.0247 22.2729 72.3282 21.4504 73.7274 20.8225L74.2603 20.5999C74.4461 20.5188 74.636 20.4472 74.8292 20.3854C75.2678 20.2387 75.7245 20.153 76.1864 20.1305C77.1334 20.08 78.0746 20.3061 78.8956 20.7812C79.7049 21.2458 80.3781 21.9151 80.8477 22.722C81.3173 23.5289 81.5669 24.4452 81.5713 25.379C81.5615 26.335 81.2678 27.2665 80.7276 28.055C80.22 28.7584 79.5799 29.3557 78.8433 29.8133C77.5243 30.6291 76.0778 31.2173 74.5641 31.5535L74.7122 31.4962L72.0472 32.6237L69.3595 33.7045L69.2792 33.7368C69.2679 33.7413 69.2561 33.7447 69.2442 33.7468C68.1836 33.9323 67.1266 34.0926 66.1335 34.223C65.1402 34.3506 64.2172 34.4753 63.3635 34.6222ZM63.3635 34.6222C64.4192 34.2789 65.4055 33.9134 66.3216 33.5508C67.2378 33.191 68.0902 32.8609 68.9389 32.5562L68.8238 32.5985L71.3365 31.1565L73.872 29.7615C73.8856 29.7539 73.8998 29.7475 73.9144 29.7421L74.0202 29.7041C75.2804 29.2916 76.4767 28.7049 77.5746 27.961C78.0449 27.6355 78.4529 27.2283 78.7794 26.7585C79.0436 26.3465 79.1797 25.8652 79.1706 25.3757C79.1527 24.8672 79.0078 24.3713 78.7491 23.9334C78.4905 23.4954 78.1262 23.1293 77.6897 22.8685C77.3661 22.6785 77.0067 22.5579 76.6341 22.5141C76.2615 22.4704 75.8839 22.5045 75.5252 22.6142C75.4116 22.6382 75.2332 22.7148 75.0826 22.7647L74.6133 22.9332C72.096 23.9607 69.8458 25.5487 68.0333 27.5766C66.1345 29.679 64.5605 32.0538 63.3635 34.6222Z" fill="black"/>
<path d="M70.6868 117.284C72.2082 124.426 73.4394 131.614 74.5994 138.814C75.1633 142.416 75.7152 146.02 76.2113 149.633C76.7209 153.244 77.1686 156.865 77.5542 160.496C76.7956 156.924 76.0986 153.343 75.4633 149.752C74.8148 146.164 74.2222 142.566 73.6415 138.966C72.5124 131.762 71.4545 124.546 70.6868 117.284Z" fill="black"/>
<path d="M42.7124 134.757C45.0912 134.313 47.4729 133.918 49.8576 133.573L53.4353 133.066L57.0164 132.618C61.7922 132.037 66.5736 131.548 71.3604 131.152C73.752 130.923 76.1478 130.765 78.5433 130.602C80.9393 130.447 83.3325 130.245 85.7318 130.146L92.9259 129.785L100.128 129.556L99.6444 129.649C101.624 129.045 103.629 128.518 105.62 127.948C107.609 127.374 109.62 126.866 111.625 126.34C113.626 125.799 115.653 125.339 117.668 124.842L120.71 124.156C121.726 123.932 122.751 123.737 123.77 123.526L123.784 123.523C123.814 123.517 123.845 123.522 123.872 123.538C123.898 123.555 123.917 123.58 123.925 123.61C123.933 123.64 123.929 123.672 123.915 123.699C123.9 123.726 123.876 123.746 123.847 123.756L100.302 131.636C100.286 131.641 100.269 131.644 100.252 131.645L85.8744 132.544L71.4924 133.371L42.7268 134.999C42.6962 135.001 42.666 134.991 42.6424 134.971C42.6189 134.951 42.6037 134.923 42.6 134.893C42.5963 134.862 42.6044 134.831 42.6225 134.807C42.6407 134.782 42.6676 134.765 42.6978 134.759L42.7124 134.757Z" fill="black"/>
<path d="M44.6655 146.862C47.098 146.645 49.5287 146.472 51.9573 146.361L55.6001 146.197L59.2408 146.091C64.0943 145.968 68.9445 145.94 73.7913 146.006C76.2159 146.004 78.6373 146.092 81.0597 146.152C83.4819 146.218 85.9048 146.266 88.3247 146.396L95.5862 146.734L102.843 147.201L102.083 147.333L107.762 145.367C109.649 144.699 111.57 144.113 113.474 143.485C115.375 142.852 117.31 142.302 119.226 141.706L122.126 140.876L125.047 140.098L125.06 140.094C125.09 140.086 125.121 140.09 125.149 140.105C125.176 140.119 125.196 140.144 125.206 140.173C125.216 140.202 125.214 140.234 125.201 140.262C125.188 140.29 125.165 140.312 125.136 140.323L102.847 149.257C102.822 149.266 102.795 149.271 102.769 149.27L88.2385 148.789C83.395 148.632 78.5535 148.42 73.7109 148.238L44.6568 147.105C44.626 147.104 44.5967 147.091 44.575 147.069C44.5534 147.047 44.5409 147.018 44.5401 146.987C44.5393 146.956 44.5503 146.926 44.5709 146.903C44.5914 146.88 44.62 146.866 44.6507 146.864L44.6655 146.862Z" fill="black"/>
<path d="M38.0408 80.4871C41.6757 80.0955 45.3023 79.8967 48.9256 79.7743L51.6431 79.6827L54.3582 79.6444C56.1681 79.6239 57.9788 79.5864 59.7863 79.621L65.2106 79.6832L70.63 79.8576C72.4372 79.8995 74.2416 80.0053 76.0463 80.1053C77.8507 80.2107 79.6564 80.286 81.4598 80.4161L80.7654 80.5046L87.0839 78.8075C89.2056 78.293 91.3179 77.7474 93.4475 77.2584C95.5809 76.7822 97.7095 76.2901 99.8617 75.8752C100.933 75.6507 102.011 75.451 103.092 75.2603C104.17 75.0597 105.257 74.8861 106.348 74.7272L106.365 74.7246C106.395 74.7202 106.426 74.7273 106.451 74.7445C106.476 74.7617 106.494 74.7877 106.5 74.8174C106.507 74.847 106.502 74.8781 106.487 74.9044C106.472 74.9307 106.448 74.9503 106.419 74.9594L93.9327 78.8486L81.4352 82.6997C81.411 82.707 81.3858 82.7102 81.3606 82.7092L70.5262 82.255L59.6937 81.7598L48.8611 81.2646L38.0303 80.7297C37.9999 80.7282 37.9713 80.7153 37.95 80.6936C37.9288 80.6719 37.9165 80.643 37.9156 80.6126C37.9147 80.5822 37.9253 80.5526 37.9452 80.5297C37.9652 80.5068 37.9931 80.4922 38.0232 80.489L38.0408 80.4871Z" fill="black"/>
<path d="M104.763 176.022C108.137 176.022 110.872 173.285 110.872 169.908C110.872 166.531 108.137 163.794 104.763 163.794C101.389 163.794 98.6536 166.531 98.6536 169.908C98.6536 173.285 101.389 176.022 104.763 176.022Z" fill="black"/>
<path d="M40.3588 164.186C40.2326 164.147 40.1113 164.108 39.99 164.069C40.1217 164.071 40.2501 164.111 40.3588 164.186Z" fill="black"/>
<path d="M120.98 172.815C122.79 172.104 124.564 171.35 126.302 170.532C127.165 170.112 128.026 169.692 128.861 169.227C129.701 168.772 130.527 168.295 131.314 167.764C132.915 166.762 134.354 165.522 135.581 164.086C136.81 162.627 137.531 160.808 137.636 158.903C137.79 159.882 137.734 160.883 137.473 161.839C137.203 162.807 136.768 163.721 136.188 164.54C135.007 166.147 133.533 167.515 131.845 168.576C130.193 169.638 128.435 170.526 126.599 171.225C124.784 171.94 122.901 172.473 120.98 172.815Z" fill="black"/>
<path d="M132.621 175.434C134.537 174.183 136.387 172.86 138.17 171.464C139.951 170.079 141.63 168.567 143.194 166.94C144.758 165.339 146.089 163.525 147.147 161.551C148.211 159.559 148.747 157.326 148.703 155.068C149.13 157.372 148.826 159.753 147.832 161.875C146.857 163.997 145.527 165.936 143.898 167.608C142.294 169.272 140.525 170.767 138.618 172.072C136.736 173.389 134.727 174.516 132.621 175.434Z" fill="black"/>
<path d="M115.284 30.7283C113.989 29.2771 112.666 27.874 111.296 26.528C110.603 25.8631 109.91 25.2012 109.184 24.5795C108.466 23.9497 107.732 23.3398 106.961 22.7864C105.466 21.6319 103.804 20.7124 102.032 20.0596C100.238 19.4136 98.283 19.3692 96.4614 19.9329C97.3254 19.448 98.2824 19.1523 99.2691 19.0652C100.27 18.9822 101.277 19.0726 102.247 19.3327C104.162 19.883 105.957 20.7898 107.537 22.0054C109.106 23.1867 110.549 24.5279 111.842 26.0075C113.143 27.4628 114.296 29.0442 115.284 30.7283Z" fill="black"/>
<path d="M112.576 14.8753C110.738 13.5119 108.855 12.2362 106.928 11.048C105.011 9.85753 103.011 8.80728 100.944 7.90545C98.8995 6.99372 96.737 6.37513 94.5202 6.06798C92.2837 5.76183 90.0061 6.03503 87.9053 6.86144C89.9159 5.65917 92.2523 5.11763 94.5864 5.31293C96.913 5.49013 99.192 6.06506 101.325 7.01275C103.441 7.93952 105.457 9.08009 107.342 10.4167C109.23 11.7249 110.984 13.2185 112.576 14.8753Z" fill="black"/>
<path d="M60.5899 111.144C57.4339 112.629 54.2656 114.086 51.0968 115.541L46.3451 117.727L41.5844 119.889L41.3504 118.913L41.6171 118.895C41.7453 118.887 41.8719 118.927 41.9714 119.009C42.0709 119.09 42.1357 119.206 42.1527 119.334L42.1546 119.348L44.5005 137.366L46.7326 155.398L46.026 154.663L60.1219 156.842C64.8195 157.575 69.5105 158.35 74.201 159.128L102.327 163.909L102.261 163.904C104.543 163.858 106.82 163.652 109.073 163.287C111.331 162.941 113.553 162.39 115.712 161.642C117.871 160.93 119.893 159.855 121.693 158.465C123.479 157.09 124.772 155.173 125.378 153.001L125.368 153.096C125.189 149.234 125.039 145.371 124.835 141.51L124.238 129.926L123.625 118.343L123.035 106.759L124.102 107.448L111.869 112.524L99.6373 117.556L99.6279 117.56C99.5267 117.601 99.4194 117.625 99.3103 117.631L84.9083 118.38L70.5043 119.087L56.0975 119.732L41.6886 120.331L41.6475 120.332C41.4238 120.341 41.2051 120.265 41.0354 120.118C40.8657 119.972 40.7574 119.768 40.7323 119.545L39.2204 105.743C38.721 101.147 38.205 96.5527 37.7382 91.9527L36.305 78.1576L34.9296 64.3572L34.9288 64.3495C34.9236 64.2974 34.9376 64.2452 34.9682 64.2027C35.5349 63.4049 36.2435 62.7183 37.0586 62.1774C37.874 61.6559 38.7647 61.2634 39.6995 61.0135C39.7239 61.0065 39.7501 61.0094 39.7724 61.0215C39.7947 61.0336 39.8113 61.054 39.8188 61.0782C39.8263 61.1024 39.824 61.1287 39.8125 61.1512C39.8009 61.1738 39.7809 61.191 39.7569 61.199C38.8604 61.4835 38.013 61.9044 37.2445 62.447C36.4947 62.9998 35.8486 63.681 35.3361 64.4591L35.3747 64.3047L37.2442 78.043L39.0559 91.7866C39.6707 96.3662 40.2364 100.952 40.8186 105.535L42.5577 119.271L41.6016 118.485L56.003 117.724L70.4068 117.014L84.813 116.359L99.2212 115.746L98.8944 115.821L111.207 110.891L123.519 106.008L123.532 106.003C123.722 105.927 123.934 105.931 124.122 106.012C124.309 106.093 124.457 106.245 124.532 106.436C124.565 106.519 124.583 106.607 124.586 106.696L124.938 118.29L125.266 129.884L125.61 141.478C125.72 145.343 125.885 149.206 126.019 153.069L126.019 153.074C126.02 153.105 126.017 153.135 126.009 153.165C125.351 155.462 123.968 157.484 122.066 158.93C121.143 159.649 120.157 160.285 119.12 160.831C118.083 161.36 117.013 161.824 115.917 162.219C113.726 162.984 111.474 163.565 109.186 163.957C106.9 164.361 104.589 164.612 102.269 164.708C102.253 164.709 102.236 164.708 102.22 164.706L102.203 164.703L73.9598 160.674C69.2554 159.985 64.5517 159.291 59.8546 158.555L45.766 156.329L45.7597 156.328C45.5789 156.299 45.4126 156.212 45.2861 156.08C45.1596 155.947 45.0799 155.777 45.0594 155.595L43.0405 137.538L41.1355 119.468L41.6729 119.921L41.4059 119.932L41.3902 119.932C41.2713 119.937 41.1543 119.9 41.0598 119.828C40.9653 119.755 40.8993 119.652 40.8733 119.536C40.8473 119.419 40.863 119.298 40.9176 119.192C40.9722 119.086 41.0622 119.002 41.172 118.956C42.7814 118.278 44.3825 117.593 45.9969 116.932L50.8319 114.935C54.0542 113.602 57.2771 112.269 60.5123 110.966C60.5357 110.956 60.5619 110.956 60.5853 110.966C60.6087 110.976 60.6275 110.994 60.6376 111.017C60.6477 111.04 60.6484 111.067 60.6394 111.09C60.6305 111.114 60.6127 111.133 60.5899 111.144L60.5899 111.144Z" fill="black"/>
<path d="M125.694 153.083C124.624 157.201 121.076 159.808 117.055 161.459C117.555 162.198 118.21 162.819 118.975 163.277C119.74 163.736 120.596 164.021 121.483 164.113C122.37 164.204 123.267 164.101 124.109 163.809C124.952 163.517 125.721 163.044 126.361 162.423C127.002 161.802 127.498 161.048 127.817 160.215C128.135 159.381 128.267 158.488 128.203 157.598C128.14 156.707 127.882 155.842 127.449 155.062C127.015 154.282 126.416 153.607 125.694 153.083Z" fill="black"/>
<path d="M54.3662 168.179C57.7402 168.179 60.4753 165.442 60.4753 162.065C60.4753 158.689 57.7402 155.952 54.3662 155.952C50.9922 155.952 48.2571 158.689 48.2571 162.065C48.2571 165.442 50.9922 168.179 54.3662 168.179Z" fill="black"/>
<path d="M35.0974 64.2818L46.2215 64.951L57.5067 65.6653C61.2907 65.9236 65.0853 66.1722 68.8888 66.4617C72.6905 66.7441 76.4963 67.0317 80.2949 67.3566L80.0675 67.3786L86.3739 65.6574L92.6951 63.9884L105.337 60.6498L105.343 60.648C105.415 60.6292 105.491 60.6395 105.555 60.6767C105.619 60.7139 105.665 60.7749 105.684 60.8464C105.687 60.8588 105.689 60.8713 105.691 60.884L106.491 67.4946C106.76 69.6977 107.046 71.8989 107.347 74.098L108.23 80.6978L109.161 87.2914C109.172 87.3685 109.157 87.4471 109.117 87.5143C109.078 87.5815 109.017 87.6334 108.944 87.6616L108.935 87.665L95.8665 92.7133L82.7701 97.6873C82.7029 97.7128 82.632 97.7269 82.5602 97.7291L82.5477 97.7292L71.6909 97.9993C68.0722 98.0957 64.4531 98.1764 60.8337 98.2414L49.9752 98.4178L39.1156 98.5338L39.1024 98.534C38.9414 98.5351 38.7858 98.4764 38.6655 98.3693C38.5453 98.2622 38.469 98.1143 38.4514 97.9542L37.5489 89.4386C37.2435 86.6016 36.9891 83.778 36.7102 80.9645L35.0974 64.2818ZM35.2022 64.383L37.5426 81.2452C37.9226 84.0225 38.3271 86.7897 38.6806 89.5435L39.7546 97.8004L39.0906 97.2208L49.9468 96.9232L60.8041 96.6859C64.4234 96.6136 68.0429 96.5563 71.6627 96.5142L82.5218 96.3706L82.2996 96.4125L95.4825 91.6729L108.693 87.0076L108.467 87.381L107.698 80.7664L106.88 74.1581C106.613 71.9547 106.332 69.7531 106.036 67.5533L105.135 60.9557L105.489 61.1899L92.9604 64.9332L86.6964 66.8051L80.4176 68.6249C80.347 68.6454 80.2734 68.6532 80.2001 68.6478L80.1901 68.6469C76.4732 68.3603 72.7635 68.0364 69.0498 67.707C65.3379 67.3851 61.6171 67.0221 57.8856 66.6689L35.2022 64.383Z" fill="black"/>
<path d="M66.1413 158.745L65.4086 158.638L65.1707 157.097L63.6228 138.453L62.1475 119.561L61.9729 117.332L62.7347 117.284C62.8463 118.032 62.9532 118.784 63.055 119.532C63.2782 121.135 63.4773 122.738 63.6713 124.345C63.9723 126.671 64.1858 129.002 64.4428 131.334L65.0688 138.336L65.5688 145.344C65.6901 147.685 65.855 150.026 65.9278 152.367C65.9958 153.994 66.0541 155.621 66.0927 157.248C66.1171 158.185 66.1316 157.808 66.1413 158.745Z" fill="black"/>
<path d="M86.7456 161.885L85.9546 161.769L85.7266 160.492L83.9165 140.677L82.0192 118.784L81.9363 116.98L82.5915 116.946C82.7273 117.796 82.7179 117.901 82.8441 118.75C83.1741 120.98 83.47 123.214 83.7515 125.448C84.0863 127.958 84.3339 130.479 84.625 132.994L85.3626 140.551L85.9692 148.117C86.1245 150.648 86.3234 153.168 86.435 155.698C86.5223 157.35 86.6001 158.996 86.6631 160.647C86.6923 161.468 86.7214 161.065 86.7456 161.885Z" fill="black"/>
<path d="M99.2998 115.938L99.5568 117.935L101.745 137.375L104.793 163.25L104.929 164.387C104.931 164.404 104.94 164.42 104.953 164.432C104.967 164.443 104.984 164.45 105.002 164.45C105.021 164.449 105.039 164.441 105.053 164.428C105.066 164.414 105.074 164.396 105.074 164.377V164.367C105.074 163.988 105.069 163.61 105.065 163.231C105.021 159.054 104.783 154.902 104.473 150.75C104.327 148.487 104.094 146.233 103.9 143.97C103.682 141.717 103.424 139.463 103.187 137.21L102.347 130.464C102.017 128.221 101.736 125.972 101.362 123.733C101.047 121.698 100.707 119.659 100.343 117.629C100.188 116.779 100.067 116.55 99.8967 115.7L99.2998 115.938Z" fill="black"/>
<path d="M118.079 161.754C117.847 161.861 117.614 161.968 117.376 162.065L117.216 160.642L114.445 136.205L111.883 112.753L111.744 111.206L112.438 110.939C112.564 111.663 112.576 111.679 112.693 112.403C113.071 114.729 113.427 117.056 113.761 119.382C114.188 122.155 114.518 124.933 114.896 127.706L115.886 136.044L116.75 144.397C116.992 147.185 117.279 149.973 117.473 152.765C117.667 155.276 117.851 157.791 117.997 160.307C118.026 160.788 118.055 161.273 118.079 161.754Z" fill="black"/>
<path d="M95.8687 162.221C95.8687 162.944 95.8736 162.726 95.8687 163.45C95.6019 163.411 95.335 163.377 95.0681 163.338L94.9468 162.06L93.85 140.794L92.7922 118.304L92.666 116.705C92.8989 116.696 93.1367 116.686 93.3696 116.671C93.4715 117.536 93.5637 117.396 93.6463 118.26C93.8695 120.416 94.0635 122.568 94.2431 124.724C94.4906 127.385 94.646 130.056 94.8449 132.722L95.3058 140.726L95.6309 148.734C95.6989 151.405 95.8057 154.076 95.8203 156.752C95.8494 158.573 95.8687 160.399 95.8687 162.221Z" fill="black"/>
<path d="M54.9754 155.431C54.9801 156.417 54.9801 157.408 54.9704 158.399L54.2522 158.292L54.0484 155.281L52.8838 138.031L51.7628 119.897L51.6462 117.969C51.8889 117.954 52.1365 117.939 52.3791 117.925C52.4713 118.576 52.5587 119.222 52.6412 119.872C52.8499 121.538 53.039 123.209 53.2186 124.879C53.4757 127.05 53.6409 129.231 53.8494 131.401L54.3396 137.933C54.456 140.114 54.592 142.295 54.6939 144.475C54.7666 146.656 54.8832 148.836 54.9074 151.022C54.9413 152.488 54.9639 153.958 54.9754 155.431Z" fill="black"/>
<path d="M77.6277 161.769L76.8512 161.657L76.5261 158.962L74.2162 139.818L71.8335 119.207L71.7341 117.575L72.4279 117.537C72.5834 118.343 72.5517 118.362 72.6974 119.173C73.0419 121.14 73.362 123.112 73.6727 125.083C74.0705 127.502 74.3812 129.93 74.7354 132.358L75.6623 139.648L76.4581 146.952C76.6764 149.395 76.9385 151.828 77.1133 154.275C77.2443 155.888 77.3656 157.5 77.4675 159.117C77.5257 160.001 77.5791 160.885 77.6277 161.769Z" fill="black"/>
<path d="M68.2377 101.509C68.0057 101.212 67.8218 100.881 67.6925 100.527C67.5677 100.195 67.4761 99.8511 67.4192 99.5008C67.361 99.1508 67.3383 98.7958 67.3516 98.4413C67.3615 98.0645 67.4313 97.6917 67.5583 97.3369C67.7913 97.633 67.9757 97.9643 68.1047 98.3184C68.2298 98.6504 68.3209 98.9942 68.3768 99.3446C68.4339 99.6948 68.4561 100.05 68.4431 100.404C68.4328 100.781 68.3635 101.154 68.2377 101.509Z" fill="black"/>
<path d="M68.6221 159.05C68.9926 160.08 69.6336 160.992 70.4775 161.69C71.3215 162.387 72.3375 162.844 73.4188 163.013C74.5002 163.182 75.6071 163.057 76.6233 162.65C77.6396 162.243 78.5277 161.571 79.1947 160.702L68.6221 159.05Z" fill="black"/>
<path d="M21.1482 54.5509C20.9301 54.4797 20.7452 54.3319 20.6276 54.1348C20.51 53.9378 20.4676 53.7048 20.5082 53.4789C20.5489 53.253 20.6698 53.0495 20.8488 52.9059C21.0277 52.7623 21.2525 52.6883 21.4817 52.6977L21.534 52.7001C22.4053 52.7464 23.2787 52.7786 24.1421 52.8669L25.441 52.9797L26.0903 53.0361C26.3075 53.058 26.5677 53.0957 26.804 53.1355C28.7707 53.4671 30.6173 54.3052 32.1623 55.5674C33.7174 56.8342 34.9219 58.479 35.6606 60.3447C36.0238 61.2683 36.2671 62.2347 36.3845 63.2202L36.5238 64.5717L36.6641 65.8638L37.2119 71.0336L38.2838 81.3762C38.6511 84.8224 38.9729 88.2747 39.3112 91.7247C39.646 95.1752 39.9889 98.6247 40.2934 102.079C40.9279 108.985 41.5324 115.894 42.0463 122.816C40.904 115.977 39.8522 109.127 38.8305 102.272C38.307 98.8463 37.8215 95.4156 37.3284 91.9859C36.8387 88.5559 36.3323 85.1279 35.8715 81.694L34.459 71.3962L33.7648 66.2457L33.5944 64.9576C33.5531 64.5458 33.487 64.1368 33.3965 63.7329C33.2189 63.0106 32.9692 62.308 32.6511 61.6358C32.0138 60.2984 31.1069 59.1074 29.9873 58.1379C28.8677 57.1683 27.5598 56.4411 26.1457 56.0021L23.7018 55.3216C22.8616 55.1027 22.0314 54.8278 21.1987 54.5671L21.1482 54.5509Z" fill="black"/>
<path d="M83.493 95.0431C83.442 92.9924 83.3025 90.9488 83.2047 88.9018C83.0804 86.857 82.9195 84.8151 82.7788 82.7716L82.2198 76.6522C81.9864 74.6161 81.7998 72.5764 81.5203 70.5441C81.4033 69.6109 81.2805 68.6782 81.152 67.7458L80.2427 68.0017L80.1587 67.8326L81.3286 82.8888L82.5132 97.0518L83.547 96.6758C83.5308 96.1315 83.5128 95.5872 83.493 95.0431Z" fill="black"/>
<path d="M92.0838 92.0429C92.0328 89.9921 91.8933 87.9485 91.7955 85.9015C91.6712 83.8568 91.5103 81.8149 91.3696 79.7714L90.8106 73.6519C90.5772 71.6159 90.3906 69.5761 90.1111 67.5438C89.9941 66.6107 89.8713 65.6779 89.7428 64.7456L88.8335 65.0015L88.7495 64.8324L89.9194 79.8885L91.1041 94.0515L92.1379 93.6755C92.1216 93.1312 92.1036 92.587 92.0838 92.0429Z" fill="black"/>
<path d="M72.2289 95.0431C72.1778 92.9924 72.0383 90.9488 71.9405 88.9018C71.8162 86.857 71.6553 84.8151 71.5146 82.7716L70.9556 76.6522C70.7222 74.6161 70.5356 72.5764 70.2562 70.5441C70.1391 69.6109 70.0163 68.6782 69.8878 67.7458L68.9785 68.0017L68.8945 67.8326L70.0645 82.8888L71.2491 97.0518L72.2829 96.6758C72.2666 96.1315 72.2486 95.5872 72.2289 95.0431Z" fill="black"/>
<path d="M59.8888 96.1701C59.8377 93.9208 59.6983 91.6793 59.6004 89.4341C59.4761 87.1913 59.3152 84.9517 59.1745 82.7103L58.6155 75.9983C58.3821 73.7651 58.1955 71.5278 57.9161 69.2987C57.799 68.2752 57.6762 67.2521 57.5477 66.2295L56.6385 66.5102L56.5544 66.3247L57.7244 82.8388L58.909 98.3733L59.9428 97.9609C59.9266 97.3638 59.9086 96.7669 59.8888 96.1701Z" fill="black"/>
<path d="M48.0865 95.4184C48.0355 93.1304 47.896 90.8505 47.7982 88.5667C47.6739 86.2855 47.513 84.0074 47.3722 81.7276L46.8133 74.9004C46.5799 72.6289 46.3933 70.3532 46.1138 68.0858C45.9968 67.0447 45.874 66.0041 45.7455 64.964L44.8362 65.2494L44.7522 65.0608L45.9221 81.8583L47.1068 97.6593L48.1406 97.2399C48.1243 96.6326 48.1063 96.0254 48.0865 95.4184Z" fill="black"/>
<path d="M101.988 89.1963C101.937 87.1455 101.797 85.1019 101.7 83.0549C101.575 81.0101 101.414 78.9682 101.274 76.9248L100.715 70.8053C100.481 68.7693 100.295 66.7295 100.015 64.6972C99.8981 63.764 99.7749 63.4447 99.6469 62.5123L98.7376 62.7682L98.6536 62.5991L99.8235 77.0419L101.008 90.4987L102.042 90.1227C102.042 90.1227 102.008 89.7404 101.988 89.1963Z" fill="black"/>
<path d="M84.296 106.191C82.6795 106.321 81.0632 106.468 79.4469 106.656L79.4386 106.657C79.4202 106.66 79.4034 106.669 79.3915 106.683C79.3796 106.697 79.3736 106.715 79.3746 106.734C79.3757 106.752 79.3837 106.769 79.3972 106.782C79.4106 106.795 79.4284 106.802 79.4469 106.802L83.9193 106.814C84.0373 106.61 84.1635 106.402 84.296 106.191Z" fill="black"/>
<path d="M123.809 105.924C122.175 105.826 120.541 105.745 118.907 105.68C116.715 105.568 114.522 105.55 112.33 105.48L105.753 105.419C103.561 105.443 101.369 105.446 99.1769 105.488C97.6707 105.534 96.1645 105.562 94.6584 105.611C93.9873 106.126 93.2442 106.539 92.4529 106.838L105.753 106.875L124.654 106.823C124.654 106.594 124.567 106.373 124.41 106.206C124.253 106.039 124.038 105.938 123.809 105.924Z" fill="black"/>
<path d="M103.119 147.93L102.925 147.949L100.688 129.335L99.2998 116.674L100.416 116.222C100.697 117.427 100.954 118.633 101.187 119.84C101.517 121.375 101.726 122.924 101.993 124.468C102.221 126.013 102.41 127.562 102.614 129.111C102.76 130.67 102.934 132.224 103.061 133.778C103.148 135.342 103.294 136.901 103.323 138.47C103.472 141.624 103.404 144.785 103.119 147.93Z" fill="black"/>
</g>
<defs>
<clipPath id="clip0_2_844">
<rect width="180" height="180" fill="white" transform="translate(0 0.940796)"/>
</clipPath>
</defs>
</svg>
