<svg xmlns="http://www.w3.org/2000/svg" viewBox="0 0 297.64 297.64"><g id="Layer_2" data-name="Layer 2"><path d="M119.87,235.62c-3.79.27-7.58.45-11.36.66s-7.58.38-11.37.55q-11.37.48-22.74.81c-7.59.2-15.17.41-22.75.54s-15.16.15-22.75.17h0a2,2,0,0,1-2-2h0c0-5.22.08-10.44.15-15.66s.17-10.44.29-15.66v0a1.61,1.61,0,0,1,1.58-1.56q22.58-.24,45.14-.08c7.53.07,15,.15,22.57.34s15,.41,22.56.69h0a.65.65,0,0,1,.61.65c-.17,10.1.21,20.24,0,30.37a.21.21,0,0,1-.21.2.2.2,0,0,1-.19-.2c-.13-10.12-.81-20.22-.94-30.37l.63.64q-11.28-.13-22.55-.11c-7.52,0-15,0-22.54.13q-22.54.25-45.08,1l1.58-1.59q0,7.82.06,15.62l.26,15.63-2-2c7.59-.14,15.17-.29,22.75-.3s15.17,0,22.75.07,15.17.18,22.75.35c3.79.09,7.59.17,11.38.31s7.59.24,11.38.42a.21.21,0,0,1,.19.21A.2.2,0,0,1,119.87,235.62Z"/><path d="M212.94,235.57c-3.79.26-7.58.44-11.37.65s-7.58.38-11.37.55q-11.37.48-22.74.81c-7.58.2-15.16.42-22.74.54s-15.17.15-22.75.17h0a2,2,0,0,1-2-2h0c0-5.23.07-10.45.15-15.67s.16-10.44.29-15.66v0a1.6,1.6,0,0,1,1.58-1.56q22.56-.24,45.14-.08c7.52.07,15,.15,22.57.34s15,.41,22.55.69h0a.63.63,0,0,1,.61.65c-.16,10.1.22,20.24,0,30.38a.19.19,0,0,1-.2.19.2.2,0,0,1-.2-.19c-.13-10.13-.8-20.23-.93-30.38l.62.64q-11.27-.13-22.55-.11c-7.51,0-15,0-22.54.13q-22.55.25-45.08,1l1.58-1.59q0,7.82.07,15.63l.25,15.62-2-2c7.58-.14,15.16-.29,22.75-.3s15.16,0,22.75.07,15.16.18,22.75.35c3.79.09,7.58.18,11.38.32s7.58.23,11.37.42a.19.19,0,0,1,.19.21A.19.19,0,0,1,212.94,235.57Z"/><path d="M104.91,201.54c-3.79.22-7.57.37-11.35.54s-7.56.32-11.35.45q-11.34.38-22.69.6c-7.56.14-15.13.28-22.69.33s-15.13,0-22.7,0h0a2,2,0,0,1-2-2c0-5.22.07-10.44.15-15.66s.17-10.45.29-15.67v0a1.6,1.6,0,0,1,1.58-1.56q22.58-.24,45.14-.08c7.52.07,15,.15,22.57.34s15,.41,22.56.69h0a.63.63,0,0,1,.6.65c-.16,10.38.22,20.79.06,31.21a.21.21,0,0,1-.21.19.19.19,0,0,1-.19-.19c-.14-10.4-.81-20.79-.94-31.21l.63.64q-11.28-.14-22.55-.11c-7.52,0-15,0-22.55.13q-22.53.26-45.07,1l1.58-1.59q0,7.82.06,15.62l.25,15.63-2-2c7.56-.07,15.13-.15,22.69-.09s15.13.16,22.7.28,15.13.32,22.69.55c3.78.13,7.57.25,11.35.42s7.56.31,11.35.53a.19.19,0,0,1,.18.21A.19.19,0,0,1,104.91,201.54Z"/><path d="M140.66,167.45c-3.78.22-7.57.37-11.35.55s-7.56.31-11.34.44q-11.35.38-22.7.61c-7.56.13-15.13.27-22.69.33s-15.13,0-22.69,0h0a2,2,0,0,1-2-2c0-5.23.08-10.45.15-15.67s.17-10.44.29-15.66v0a1.61,1.61,0,0,1,1.58-1.56q22.57-.24,45.14-.08c7.53.07,15,.15,22.57.34s15,.41,22.56.69h0a.65.65,0,0,1,.61.65c-.16,10.38.21,20.79.05,31.21a.2.2,0,0,1-.4,0c-.14-10.4-.81-20.79-.94-31.21l.63.64q-11.28-.13-22.55-.11c-7.52,0-15,0-22.54.13q-22.54.26-45.08,1l1.58-1.59q0,7.81.06,15.63l.26,15.62-2-2c7.57-.07,15.13-.15,22.7-.09s15.12.16,22.69.28,15.13.32,22.69.55c3.78.13,7.57.25,11.35.42s7.56.31,11.35.53a.2.2,0,0,1,.19.21A.21.21,0,0,1,140.66,167.45Z"/><path d="M180.63,133.77c-3.78.23-7.56.38-11.35.55s-7.56.31-11.34.44c-7.57.26-15.13.45-22.69.61s-15.13.27-22.7.33-15.13,0-22.69,0h0a2,2,0,0,1-1.95-2c0-5.23.07-10.45.15-15.67s.16-10.44.29-15.66v0a1.6,1.6,0,0,1,1.57-1.56q22.58-.24,45.15-.08c7.52.07,15,.15,22.56.34s15,.41,22.56.69h0a.63.63,0,0,1,.61.64c-.16,10.38.21,20.79.05,31.21a.19.19,0,0,1-.2.19.2.2,0,0,1-.2-.19c-.13-10.4-.8-20.79-.94-31.21l.63.64q-11.28-.14-22.55-.11c-7.51,0-15,0-22.54.13q-22.54.26-45.08,1l1.58-1.59q0,7.81.06,15.63l.26,15.62-2-2c7.56-.07,15.12-.15,22.69-.09s15.13.16,22.69.28,15.13.32,22.7.55c3.78.13,7.56.25,11.34.42s7.57.31,11.35.53a.19.19,0,0,1,.19.21A.21.21,0,0,1,180.63,133.77Z"/><path d="M277,133.77c-3.78.23-7.57.38-11.35.55s-7.56.31-11.34.44c-7.57.26-15.13.45-22.7.61s-15.12.27-22.69.33-15.13,0-22.69,0h0a2,2,0,0,1-2-2c0-5.23.08-10.45.15-15.67s.17-10.44.29-15.66v0a1.62,1.62,0,0,1,1.58-1.56q22.57-.24,45.14-.08c7.53.07,15.05.15,22.57.34s15,.41,22.56.69h0a.63.63,0,0,1,.61.64c-.16,10.38.21,20.79.05,31.21a.19.19,0,0,1-.2.19.2.2,0,0,1-.2-.19c-.14-10.4-.8-20.79-.94-31.21l.63.64q-11.28-.14-22.55-.11c-7.51,0-15,0-22.54.13q-22.54.26-45.08,1l1.58-1.59q0,7.81.06,15.63l.26,15.62-2-2c7.57-.07,15.13-.15,22.7-.09s15.13.16,22.69.28,15.13.32,22.69.55c3.79.13,7.57.25,11.35.42s7.57.31,11.35.53a.2.2,0,0,1,.19.21A.21.21,0,0,1,277,133.77Z"/><path d="M225.12,99.87c-3.78.23-7.57.38-11.35.55s-7.56.31-11.34.45q-11.35.38-22.7.6c-7.56.14-15.13.28-22.69.33s-15.13,0-22.69,0h0a2,2,0,0,1-2-2c0-5.22.08-10.44.15-15.67s.17-10.44.29-15.66v0a1.61,1.61,0,0,1,1.58-1.56q22.57-.25,45.14-.09c7.53.08,15.05.16,22.57.35s15,.41,22.56.69h0a.64.64,0,0,1,.61.64c-.16,10.39.21,20.8,0,31.21a.2.2,0,0,1-.21.2.2.2,0,0,1-.19-.2c-.14-10.4-.81-20.78-.94-31.21l.63.65Q213.33,69,202.06,69c-7.52,0-15,0-22.54.13q-22.54.24-45.08,1L136,68.5q0,7.81.06,15.63l.26,15.63-2-2c7.57-.07,15.13-.14,22.7-.08s15.12.16,22.69.28,15.13.31,22.69.55c3.79.12,7.57.24,11.35.42s7.56.3,11.35.52a.21.21,0,0,1,.19.21A.2.2,0,0,1,225.12,99.87Z"/><path d="M115.59,55.86c-1.81,3.33-3.68,6.62-5.53,9.93s-3.73,6.58-5.61,9.87Q98.8,85.5,93,95.25c-3.88,6.5-7.75,13-11.7,19.45s-8,12.86-12,19.26l0,0a2,2,0,0,1-2.71.62c-4.44-2.76-8.84-5.58-13.23-8.4s-8.78-5.65-13.15-8.51l0,0a1.6,1.6,0,0,1-.49-2.16q11.7-19.3,23.75-38.39c4-6.35,8.07-12.7,12.2-19s8.29-12.56,12.5-18.79v0a.64.64,0,0,1,.86-.18c8.74,5.62,17.78,10.8,26.54,16.43a.21.21,0,0,1,.06.28.2.2,0,0,1-.27.06c-8.9-5.37-18.08-10.29-27-15.67l.87-.2q-6.06,9.51-12,19.1c-3.94,6.39-7.9,12.78-11.79,19.21q-11.69,19.29-23,38.8L41.91,115q6.65,4.14,13.31,8.2l13.41,8-2.73.65c3.93-6.46,7.86-12.93,11.9-19.32S85.92,99.77,90,93.41s8.25-12.68,12.45-19c2.1-3.15,4.2-6.3,6.34-9.42s4.25-6.27,6.44-9.36a.19.19,0,0,1,.27,0A.21.21,0,0,1,115.59,55.86Z"/><path d="M234.65,167.66c-3.78.23-7.56.38-11.35.55s-7.56.31-11.34.45q-11.36.38-22.69.6c-7.57.14-15.13.28-22.7.33s-15.13,0-22.69,0h0a2,2,0,0,1-2-2c0-5.22.07-10.44.15-15.67s.16-10.44.29-15.66v0a1.6,1.6,0,0,1,1.57-1.56q22.57-.25,45.15-.09c7.52.08,15,.16,22.56.35s15,.41,22.56.69h0a.64.64,0,0,1,.61.64c-.16,10.39.21,20.8,0,31.21a.2.2,0,1,1-.4,0c-.13-10.4-.8-20.78-.94-31.21l.63.64q-11.28-.12-22.55-.1c-7.51,0-15,0-22.54.13q-22.55.24-45.08,1l1.58-1.59q0,7.82.06,15.63l.26,15.63-2-2c7.56-.07,15.12-.14,22.69-.08s15.13.16,22.69.28,15.13.31,22.7.55c3.78.12,7.56.24,11.34.42s7.57.3,11.35.52a.21.21,0,0,1,.19.21A.2.2,0,0,1,234.65,167.66Z"/><path d="M276.93,241.88c-3.35-1.77-6.66-3.61-10-5.42s-6.63-3.67-9.93-5.52q-9.88-5.56-19.7-11.26c-6.54-3.82-13.08-7.62-19.57-11.51s-12.94-7.84-19.37-11.81l0,0a2,2,0,0,1-.65-2.7c2.71-4.46,5.48-8.89,8.26-13.31s5.57-8.84,8.38-13.24l0,0a1.61,1.61,0,0,1,2.16-.51q19.41,11.5,38.62,23.37c6.39,4,12.78,8,19.11,12s12.64,8.16,18.92,12.31h0a.63.63,0,0,1,.19.86c-5.53,8.79-10.62,17.89-16.16,26.7a.21.21,0,0,1-.28.06.2.2,0,0,1-.07-.27c5.29-8.95,10.11-18.17,15.41-27.16l.2.88q-9.57-6-19.21-11.8c-6.44-3.88-12.87-7.77-19.33-11.6q-19.4-11.49-39-22.58l2.18-.54Q213,175.48,209,182.19l-7.9,13.49-.68-2.73c6.5,3.87,13,7.74,19.44,11.71s12.84,8,19.25,12,12.76,8.12,19.1,12.26c3.17,2.07,6.34,4.13,9.48,6.25s6.31,4.18,9.43,6.34a.2.2,0,0,1-.21.34Z"/><path d="M197.48,201.55c-3.79.23-7.57.38-11.35.55s-7.56.31-11.35.45q-11.34.38-22.69.6c-7.56.14-15.13.28-22.69.33s-15.13,0-22.69,0h0a2,2,0,0,1-2-2c0-5.22.07-10.44.15-15.67s.17-10.44.29-15.66v0a1.6,1.6,0,0,1,1.58-1.56q22.58-.26,45.14-.09c7.52.07,15,.16,22.57.35s15,.41,22.56.69h0a.62.62,0,0,1,.6.64c-.16,10.39.22,20.8.06,31.21a.22.22,0,0,1-.21.2.19.19,0,0,1-.19-.2c-.14-10.4-.81-20.78-.94-31.21l.63.64q-11.28-.12-22.55-.1c-7.52,0-15,0-22.55.13q-22.53.24-45.07,1l1.58-1.59q0,7.81.06,15.63l.25,15.63-2-2c7.56-.07,15.13-.14,22.69-.09s15.13.17,22.7.28,15.13.32,22.69.56c3.78.12,7.57.24,11.35.42s7.56.3,11.35.52a.19.19,0,0,1,.18.21A.18.18,0,0,1,197.48,201.55Z"/></g></svg>