<svg width="351" height="200" viewBox="0 0 351 200" fill="none" xmlns="http://www.w3.org/2000/svg">
<path d="M103.852 197.246L86.6516 187.846C81.8516 181.046 76.1182 175.379 69.4516 170.846C62.9182 166.312 55.5849 162.712 47.4516 160.046C39.4516 157.246 30.7849 155.379 21.4516 154.446L8.45156 120.046C15.6516 115.512 23.4516 111.179 31.8516 107.046C40.2516 102.912 48.9849 99.2457 58.0516 96.0457C67.2516 92.7124 76.4516 90.0457 85.6516 88.0457L83.0516 101.446V83.6457H9.45156L0.0515623 66.4457H120.252L129.852 83.6457H106.052V196.646L103.852 197.246ZM83.0516 173.246V110.646L87.0516 120.246C82.6516 121.312 77.9182 122.846 72.8516 124.846C67.9182 126.712 62.9849 128.846 58.0516 131.246C53.1182 133.512 48.5182 135.912 44.2516 138.446L43.2516 134.046C48.8516 135.379 54.3849 137.579 59.8516 140.646C65.3182 143.712 70.3849 147.579 75.0516 152.246C79.7182 156.779 83.6516 162.179 86.8516 168.446L83.0516 173.246ZM158.909 199.446L138.109 191.046V102.446C137.576 97.779 136.243 93.5124 134.109 89.6457C131.976 85.6457 128.843 83.6457 124.709 83.6457H123.909L114.309 66.4457H121.109C125.376 66.4457 128.843 67.4457 131.509 69.4457C134.176 71.3124 136.309 74.179 137.909 78.0457C139.643 81.779 141.109 86.5124 142.309 92.2457L139.709 92.8457C139.176 88.179 138.776 83.4457 138.509 78.6457C138.243 73.7124 138.109 70.179 138.109 68.0457V46.8457L139.909 46.0457L156.709 53.6457L158.709 66.4457H175.309L184.909 83.6457H161.109V198.846L158.909 199.446ZM292.988 199.446L272.188 191.046V121.646L274.988 135.446C270.854 125.846 266.188 118.046 260.988 112.046C255.788 105.912 250.388 101.379 244.788 98.4457C239.188 95.5124 233.788 94.0457 228.587 94.0457C224.054 94.0457 219.988 94.8457 216.388 96.4457C212.788 98.0457 209.921 100.379 207.788 103.446C205.788 106.512 204.788 110.179 204.788 114.446C204.788 119.112 206.054 122.646 208.588 125.046C211.121 127.312 213.921 128.446 216.988 128.446C218.321 128.446 219.721 128.379 221.188 128.246C222.654 128.112 224.054 127.912 225.388 127.646L212.988 136.846C212.188 135.512 211.588 133.846 211.188 131.846C210.788 129.712 210.588 127.512 210.588 125.246C210.588 119.646 212.321 115.046 215.788 111.446C219.388 107.846 224.054 106.046 229.788 106.046C236.721 106.046 242.054 108.312 245.788 112.846C249.654 117.379 251.588 122.846 251.588 129.246C251.588 136.179 249.388 141.912 244.988 146.446C240.588 150.846 234.188 153.046 225.788 153.046C220.721 153.046 215.654 152.179 210.588 150.446C205.654 148.712 201.121 145.979 196.988 142.246C192.854 138.512 189.521 133.779 186.988 128.046C184.454 122.179 183.188 115.179 183.188 107.046C183.188 97.7124 184.988 89.9124 188.588 83.6457C192.188 77.379 196.854 72.6457 202.588 69.4457C208.454 66.2457 214.721 64.6457 221.388 64.6457C229.788 64.6457 237.254 66.779 243.788 71.0457C250.454 75.179 256.454 80.979 261.788 88.4457C267.254 95.779 272.321 104.179 276.988 113.646L274.588 115.646C274.188 110.446 273.788 105.179 273.388 99.8457C272.988 94.379 272.654 88.9124 272.388 83.4457C272.254 77.979 272.188 72.6457 272.188 67.4457V46.8457L273.988 46.0457L290.788 53.6457L292.788 66.4457H309.388L318.988 83.6457H295.188V198.846L292.988 199.446ZM347.972 199.446L327.172 191.046V83.6457H312.972L303.372 66.4457H328.172C328.172 55.779 325.105 47.3124 318.972 41.0457C312.839 34.6457 304.372 30.0457 293.572 27.2457C282.772 24.3124 270.372 22.8457 256.372 22.8457C245.305 22.8457 236.639 23.1124 230.372 23.6457C224.105 24.179 219.772 24.979 217.372 26.0457C214.839 27.1124 213.572 28.379 213.572 29.8457C213.572 31.179 214.305 32.1124 215.772 32.6457C217.105 33.179 219.239 33.4457 222.172 33.4457C226.839 33.4457 231.839 33.1124 237.172 32.4457C242.372 31.779 248.039 31.4457 254.172 31.4457C264.572 31.4457 273.372 34.1124 280.572 39.4457C287.639 44.6457 291.772 51.579 292.972 60.2457L293.972 67.8457H272.172C272.039 61.579 270.639 57.4457 267.972 55.4457C265.305 53.3124 262.039 52.2457 258.172 52.2457C254.839 52.2457 251.772 52.5124 248.972 53.0457C246.039 53.579 242.972 54.1124 239.772 54.6457C236.572 55.179 232.705 55.4457 228.172 55.4457C222.305 55.4457 217.172 54.579 212.772 52.8457C208.239 51.1124 204.772 48.4457 202.372 44.8457C199.839 41.2457 198.572 36.7124 198.572 31.2457C198.572 26.179 200.505 21.3124 204.372 16.6457C208.105 11.8457 214.372 7.91236 223.172 4.84569C231.972 1.64569 243.839 0.045692 258.772 0.045692C269.305 0.045692 279.172 1.11236 288.372 3.2457C297.572 5.2457 305.972 8.24569 313.572 12.2457C321.172 16.1124 327.705 20.9124 333.172 26.6457C338.639 32.379 342.839 38.9124 345.772 46.2457C348.705 53.4457 350.172 61.379 350.172 70.0457V198.846L347.972 199.446Z" fill="url(#paint0_linear_1_1087)"/>
<defs>
<linearGradient id="paint0_linear_1_1087" x1="7.5" y1="131.846" x2="362.5" y2="131.846" gradientUnits="userSpaceOnUse">
<stop stop-color="#BF2C2D"/>
<stop offset="1" stop-color="#9C012F"/>
</linearGradient>
</defs>
</svg>
