<svg width="396" height="182" viewBox="0 0 396 182" fill="none" xmlns="http://www.w3.org/2000/svg">
<path d="M66.6109 157.446C60.8776 157.446 55.3443 156.446 50.0109 154.446C44.6776 152.446 39.8776 149.779 35.6109 146.446C30.9443 142.579 27.1443 138.179 24.2109 133.246C21.4109 128.179 20.0109 122.912 20.0109 117.446C20.0109 111.846 21.4109 106.846 24.2109 102.446C27.1443 98.0457 31.0776 94.579 36.0109 92.0457C40.9443 89.5124 46.4776 88.2457 52.6109 88.2457C58.6109 88.2457 64.2109 89.2457 69.4109 91.2457C74.7443 93.1124 79.6109 95.9124 84.0109 99.6457V116.046C80.8109 114.312 77.4776 113.046 74.0109 112.246C70.6776 111.446 66.9443 111.046 62.8109 111.046C58.6776 111.046 54.9443 111.712 51.6109 113.046C48.4109 114.379 45.8109 116.246 43.8109 118.646C41.9443 120.912 41.0109 123.579 41.0109 126.646C41.0109 129.712 42.2109 132.312 44.6109 134.446C47.1443 136.446 50.4109 137.446 54.4109 137.446C59.0776 137.446 63.7443 136.246 68.4109 133.846C73.2109 131.312 79.0776 126.979 86.0109 120.846V149.846C83.3443 152.246 80.3443 154.112 77.0109 155.446C73.6776 156.779 70.2109 157.446 66.6109 157.446ZM104.811 181.646L79.0109 165.246V68.2457H107.811V181.646H104.811ZM12.6109 77.2457L0.610937 57.6457V54.4457H122.411L134.411 74.2457V77.2457H12.6109ZM159.452 181.646L133.852 165.246V68.2457H162.652V181.646H159.452ZM119.252 77.2457L107.252 57.6457V54.4457H177.252L189.252 74.2457V77.2457H119.252ZM234.734 151.846C229.401 151.846 224.268 150.846 219.334 148.846C214.534 146.712 209.668 143.646 204.734 139.646C199.668 135.246 195.401 130.246 191.934 124.646C188.468 119.046 186.734 112.446 186.734 104.846V68.4457H215.734V116.646C215.734 121.179 216.668 124.646 218.534 127.046C220.401 129.446 223.001 130.646 226.334 130.646C230.068 130.646 232.801 129.112 234.534 126.046C236.401 122.846 237.334 118.112 237.334 111.846V68.6457H266.334V118.046C266.334 128.579 263.534 136.846 257.934 142.846C252.468 148.846 244.734 151.846 234.734 151.846ZM310.934 181.646L284.934 165.246V68.4457H313.934V181.646H310.934ZM174.134 77.2457L162.134 57.6457V54.4457H328.534L340.534 74.2457V77.2457H174.134ZM297.106 57.2457C294.306 54.8457 291.64 52.0457 289.106 48.8457C286.44 45.5124 284.373 41.979 282.906 38.2457C281.306 34.379 280.506 30.379 280.506 26.2457C280.506 18.779 283.24 12.579 288.706 7.64569C294.04 2.71236 301.04 0.245691 309.706 0.245691C317.04 0.245691 323.506 1.97903 329.106 5.4457C334.706 8.77903 339.64 13.2457 343.906 18.8457C348.306 24.3124 352.106 30.379 355.306 37.0457C358.506 43.7124 361.306 50.379 363.706 57.0457H349.706C347.04 50.5124 344.24 45.0457 341.306 40.6457C338.506 36.1124 335.373 32.7124 331.906 30.4457C328.573 28.0457 324.706 26.8457 320.306 26.8457C316.04 26.8457 312.573 28.179 309.906 30.8457C307.24 33.379 305.906 36.8457 305.906 41.2457C305.906 44.3124 306.506 47.2457 307.706 50.0457C308.773 52.7124 310.106 55.1124 311.706 57.2457H297.106ZM365.506 181.646L339.906 165.246V68.2457H368.706V181.646H365.506ZM325.306 77.2457L313.306 57.6457V54.4457H383.306L395.306 74.2457V77.2457H325.306Z" fill="url(#paint0_linear_1_1036)"/>
<defs>
<linearGradient id="paint0_linear_1_1036" x1="14" y1="148.846" x2="382" y2="148.846" gradientUnits="userSpaceOnUse">
<stop stop-color="#BF2C2D"/>
<stop offset="1" stop-color="#9C012F"/>
</linearGradient>
</defs>
</svg>
