<svg width="464" height="149" viewBox="0 0 464 149" fill="none" xmlns="http://www.w3.org/2000/svg">
<path fill-rule="evenodd" clip-rule="evenodd" d="M442.146 28.3722C444.566 25.4557 446.026 21.7259 446.026 17.6494C446.027 13.3796 444.443 9.49643 441.816 6.52627C438.703 2.98771 434.144 0.762452 429.042 0.762452C423.885 0.761401 419.269 3.04024 416.169 6.66075C413.612 9.60254 412.067 13.4437 412.067 17.6441V17.6652V17.6658C412.067 17.7714 412.067 17.8866 412.081 17.9898C412.081 18.1968 412.081 18.4048 412.095 18.6118C412.109 18.8335 412.122 19.0541 412.15 19.2747V19.3998C413.039 27.8837 420.266 34.5174 429.037 34.5185C432.846 34.5185 436.363 33.2756 439.199 31.1627C439.519 30.9274 439.825 30.6921 440.117 30.4168C440.136 30.4168 440.149 30.4025 440.165 30.3843C440.171 30.377 440.178 30.369 440.187 30.3611L440.192 30.361C440.193 30.3609 440.195 30.3608 440.196 30.3605C440.198 30.3598 440.2 30.3584 440.202 30.3557C440.205 30.3518 440.208 30.3452 440.214 30.3338C440.881 29.7812 441.493 29.1592 442.049 28.4826L442.061 28.47L442.061 28.4698L442.062 28.4692C442.089 28.4421 442.123 28.4072 442.146 28.3722ZM369.06 144.814L403.821 109.544L401.996 107.708L399.063 110.686C398.987 110.785 398.895 110.872 398.806 110.956C398.769 110.991 398.733 111.026 398.698 111.06C397.43 112.331 395.819 113.217 394.014 113.634C393.914 113.655 393.816 113.668 393.718 113.681C393.617 113.694 393.516 113.708 393.413 113.73C393.252 113.773 393.08 113.794 392.897 113.815C392.836 113.818 392.773 113.822 392.71 113.826C392.549 113.837 392.382 113.848 392.22 113.848C392.158 113.848 392.096 113.853 392.038 113.859C391.984 113.864 391.934 113.869 391.887 113.869C386.677 113.848 382.444 109.64 382.444 104.451V50.5906L382.423 50.6116C382.444 50.4088 382.444 50.2165 382.444 50.0138C382.444 45.0379 378.394 40.9909 373.39 40.9909C370.725 40.9909 368.34 42.134 366.676 43.96L332.752 78.3432L332.773 50.5906H332.752L332.74 50.6116C332.744 50.5469 332.748 50.4832 332.753 50.4199C332.763 50.285 332.773 50.1518 332.773 50.0138C332.773 45.0169 328.701 40.9909 323.696 40.9909C321.031 40.9909 318.647 42.134 317.003 43.9379L284.175 77.2107L284.572 77.5847L285.486 78.5135L286.023 79.0472L287.054 78.0007C288.665 76.2073 291.018 75.0863 293.617 75.0863C298.365 75.0863 302.244 78.877 302.34 83.5754V145.615L332.794 145.625L332.752 88.4126L332.794 88.3695L343.44 77.2968C343.987 76.7305 344.611 76.325 345.266 76.0791C348.306 74.9045 352.034 77.0405 352.034 80.724V82.4218L352.001 118.054L352.013 138.375H352.034C352.034 143.714 356.395 148.06 361.787 148.06C364.29 148.06 366.557 147.11 368.287 145.582L368.383 145.487C368.444 145.426 368.507 145.366 368.569 145.306L368.57 145.305C368.704 145.177 368.836 145.051 368.952 144.92L369.06 144.814ZM239.315 92.9401H239.305C239.305 95.8335 239.305 98.0872 239.294 98.1513C239.294 98.311 239.283 98.4927 239.261 98.6524C238.982 100.896 237.811 102.774 236.361 104.355L236.007 104.707L235.76 104.964L229.057 111.937L228.809 112.192C228.466 112.556 228.079 112.844 227.681 113.068C227.681 113.068 227.681 113.079 227.671 113.079C224.781 115.343 220.366 113.389 220.28 109.576C220.28 109.565 220.269 109.555 220.28 109.544C220.237 109.288 220.215 109.032 220.215 108.765V106.49L220.237 98.7596V96.7203L220.205 92.1931V92.171V92.15V92.1069C220.205 91.9147 220.205 91.7339 220.227 91.5627C220.227 91.4019 220.248 91.2212 220.269 91.0605C220.56 88.7974 221.752 86.8747 223.223 85.2946L223.245 85.2736H223.223L223.546 84.9636L224.18 84.3122L230.69 77.5209L230.743 77.4673C231.119 77.0723 231.537 76.7623 231.978 76.528L231.994 76.5183L232.015 76.5054L232.032 76.4961L232.032 76.4958C232.051 76.4851 232.069 76.4744 232.086 76.4639C234.986 74.3385 239.315 76.3568 239.315 80.158V80.5215C239.337 80.6497 239.337 80.7674 239.337 80.8955V83.2448L239.315 92.9401ZM287.322 109.534L286.205 110.655C286.087 110.794 285.968 110.932 285.829 111.05C284.583 112.299 282.951 113.207 281.146 113.602C281.035 113.634 280.917 113.655 280.799 113.675C280.763 113.681 280.728 113.688 280.692 113.694L280.676 113.697C280.639 113.704 280.602 113.711 280.565 113.72C280.474 113.73 280.385 113.744 280.297 113.757C280.208 113.77 280.12 113.784 280.028 113.794C279.973 113.8 279.917 113.804 279.86 113.807C279.836 113.808 279.812 113.81 279.788 113.811L279.698 113.815C279.585 113.821 279.47 113.826 279.352 113.837C279.306 113.837 279.254 113.842 279.201 113.847C279.142 113.853 279.08 113.858 279.019 113.858C273.808 113.837 269.576 109.63 269.576 104.44L269.555 50.5373C269.576 50.345 269.597 50.1422 269.597 49.95C269.597 49.727 269.576 49.5145 269.555 49.3009V49.3007L269.555 49.2986C269.243 44.6327 265.322 40.9376 260.553 40.9165H260.52C258.372 40.9165 256.427 41.653 254.871 42.8917C254.494 43.1702 254.139 43.5116 253.818 43.8636L229.776 68.1985L221.279 76.7844L194.423 103.938L194.422 103.939L194.423 103.938L194.487 103.81L187.763 110.665C187.731 110.7 187.699 110.737 187.668 110.773C187.583 110.872 187.497 110.972 187.388 111.05C186.141 112.299 184.508 113.207 182.703 113.602C182.538 113.65 182.357 113.681 182.181 113.71L182.123 113.72C182.049 113.728 181.976 113.74 181.904 113.753L181.904 113.753C181.799 113.77 181.694 113.788 181.586 113.794C181.48 113.805 181.371 113.81 181.261 113.815C181.149 113.821 181.034 113.826 180.92 113.837C180.89 113.837 180.86 113.838 180.831 113.839C180.803 113.84 180.775 113.841 180.748 113.843C180.691 113.845 180.635 113.848 180.577 113.848C175.377 113.837 171.134 109.63 171.134 104.43L171.113 50.5373C171.116 50.5059 171.119 50.4747 171.123 50.4438C171.126 50.4182 171.129 50.3928 171.132 50.3676L171.132 50.3672C171.15 50.2255 171.166 50.0877 171.166 49.95C171.166 49.7878 171.149 49.6312 171.132 49.4717L171.121 49.3759C171.118 49.3468 171.115 49.3175 171.113 49.288C170.801 44.6327 166.891 40.9376 162.121 40.9165H162.079C159.93 40.9165 157.985 41.6425 156.439 42.8917C156.063 43.1807 155.698 43.5011 155.374 43.8636L131.334 68.1985L122.837 76.7949L94.1017 105.839C92.3936 107.58 91.4054 109.886 91.3409 112.299C91.3187 112.396 91.3187 112.491 91.3187 112.588V138.344H91.3409V138.706C91.3647 138.802 91.3706 138.898 91.3766 138.994C91.3775 139.009 91.3784 139.024 91.3794 139.039C91.3805 139.056 91.3818 139.073 91.3832 139.091V139.155C91.9095 144.066 96.0887 147.932 101.181 147.932C103.383 147.932 105.434 147.216 107.057 145.989C107.261 145.849 107.433 145.711 107.594 145.551L107.647 145.508C107.65 145.508 107.652 145.508 107.654 145.508C107.655 145.507 107.656 145.507 107.657 145.506C107.658 145.505 107.658 145.503 107.658 145.497L107.69 145.454C107.895 145.284 108.099 145.081 108.281 144.879L108.378 144.782L108.7 144.43L108.765 144.376L140.712 111.979V138.344C140.744 141.034 141.83 143.436 143.59 145.198C145.342 146.928 147.791 148.028 150.466 148.028C152.969 148.028 155.268 147.088 156.986 145.572L157.084 145.476C157.298 145.284 157.47 145.102 157.652 144.91L157.749 144.814L189.782 112.299V112.289L189.782 112.288L189.782 112.289V112.299C189.762 112.396 189.762 112.491 189.762 112.588V138.344H189.782V138.706C189.794 138.777 189.799 138.843 189.805 138.909C189.81 138.971 189.815 139.034 189.825 139.101V139.155C190.341 144.077 194.531 147.921 199.622 147.921C201.825 147.921 203.877 147.216 205.499 145.989C205.703 145.849 205.875 145.711 206.036 145.551L206.079 145.518C206.1 145.518 206.1 145.518 206.1 145.497L206.132 145.454C206.336 145.274 206.53 145.081 206.712 144.889L206.756 144.846L206.809 144.782L207.153 144.43L207.207 144.366L239.155 111.979V138.344C239.176 141.034 240.271 143.436 242.044 145.198C243.784 146.939 246.233 148.028 248.919 148.028C251.422 148.028 253.698 147.099 255.429 145.572L255.536 145.476C255.602 145.407 255.667 145.342 255.73 145.277C255.853 145.153 255.971 145.033 256.084 144.9L256.192 144.803L289.148 111.349L287.322 109.534ZM140.862 98.1618V92.9401L140.884 83.2448V80.8955C140.884 80.7674 140.884 80.6497 140.862 80.5215V80.1695C140.862 76.2927 136.404 74.2859 133.483 76.549C133.063 76.7844 132.655 77.0828 132.291 77.4673L132.237 77.5209L125.189 84.868L125.093 84.9636L124.781 85.2736V85.2946C123.32 86.8747 122.117 88.7974 121.827 91.0605C121.806 91.2212 121.784 91.4019 121.784 91.5627C121.762 91.7445 121.762 91.9147 121.762 92.1174V92.15V92.171V92.1931L121.784 96.7203V97.0082L121.762 106.49V108.765C121.762 109.085 121.795 109.385 121.849 109.683V109.716C122.031 113.453 126.426 115.331 129.272 113.047L129.282 113.036C129.658 112.822 130.023 112.535 130.356 112.192L130.604 111.937L136.608 105.69L136.662 105.636L137.919 104.366C139.369 102.774 140.54 100.906 140.809 98.6419C140.841 98.4927 140.862 98.3215 140.862 98.1618ZM463.591 109.552L428.808 144.822L428.755 144.885L428.712 144.918C428.575 145.07 428.432 145.21 428.287 145.351C428.255 145.383 428.222 145.415 428.19 145.447L428.142 145.494L428.046 145.59H428.034C426.317 147.118 424.039 148.057 421.536 148.057C418.84 148.057 416.412 146.978 414.639 145.228C412.877 143.466 411.781 141.052 411.771 138.383L411.804 65.2066H411.846L433.642 42.5264C434.19 41.9601 434.812 41.5545 435.469 41.3087C438.508 40.1341 442.236 42.27 442.236 45.9536L442.193 104.469C442.193 109.659 446.415 113.855 451.624 113.876C451.656 113.876 451.686 113.875 451.716 113.873C451.743 113.871 451.77 113.868 451.797 113.866C451.853 113.861 451.909 113.855 451.968 113.855C452.023 113.853 452.078 113.851 452.133 113.849C452.304 113.843 452.474 113.837 452.645 113.812C452.827 113.802 453 113.77 453.172 113.738C453.364 113.706 453.559 113.674 453.752 113.631C455.556 113.225 457.179 112.328 458.457 111.068L458.466 111.059C458.592 110.945 458.717 110.83 458.822 110.694L461.754 107.715L463.591 109.552ZM115.704 62.8461L115.78 62.7715L115.769 32.5529C115.769 28.0783 110.29 25.8898 107.185 29.1247L71.715 65.4947L72.2414 66.0285L73.5298 67.3208L76.5485 64.4798C76.6105 64.4242 76.6725 64.3655 76.7345 64.3067C76.7908 64.2533 76.8472 64.1999 76.9036 64.1489C79.825 61.725 83.7569 62.056 86.3242 64.1594C87.0874 64.7687 87.7311 65.5483 88.1834 66.455C88.6982 67.4269 92.7273 75.7563 80.7921 88.1854C76.9268 92.2132 65.3636 103.683 64.4358 104.604L64.3776 104.662C63.0997 105.911 61.4784 106.808 59.6837 107.224C59.4797 107.257 59.2862 107.288 59.0928 107.321C59.0494 107.329 59.006 107.337 58.9624 107.346C58.8334 107.372 58.7032 107.398 58.5664 107.406C58.3519 107.427 58.1151 107.437 57.9006 107.437C57.8346 107.437 57.7741 107.443 57.7151 107.449C57.6588 107.454 57.6038 107.459 57.5465 107.459C52.6792 107.437 48.6839 103.785 48.1787 99.0659C48.1565 98.7885 48.1353 98.5006 48.1353 98.2012L48.147 63.5721H48.1142V63.3273C48.1353 63.2201 48.147 63.1129 48.147 62.9848C48.147 62.8671 48.1353 62.74 48.1142 62.6223V56.6525C48.1353 56.5464 48.147 56.4288 48.147 56.3111C48.147 56.2521 48.144 56.1905 48.1411 56.129C48.1382 56.0678 48.1353 56.0068 48.1353 55.9486V50.5988H48.1142C48.1353 50.438 48.147 50.2783 48.147 50.107C48.147 49.9043 48.1353 49.691 48.1142 49.4662L48.0825 49.2109C48.0709 49.0932 48.0603 48.986 48.0497 48.8578C48.0304 48.7799 48.019 48.6981 48.008 48.6194C48.0009 48.5688 47.994 48.5194 47.9853 48.4733C47.2443 44.2235 43.527 40.999 39.0476 40.999C36.3841 40.999 34.0197 42.1411 32.355 43.9566L0.408447 76.3321L0.933757 76.8669L2.22325 78.1581L5.24191 75.3182L5.60762 74.9873C10.3333 71.0684 17.6707 74.3569 17.6812 80.6145L17.6918 81.3941L17.6812 95.0188V95.0409L17.6918 113.684V131.966C17.6918 132.003 17.6947 132.035 17.6976 132.066C17.7005 132.098 17.7034 132.13 17.7034 132.168V138.319C17.7246 140.166 18.2298 141.874 19.1314 143.348C20.0446 144.8 21.3013 146.006 22.8265 146.829C24.2016 147.566 25.7923 147.993 27.4676 147.993C29.981 147.993 32.2482 147.064 33.9668 145.516L33.9774 145.526L34.0313 145.473L34.0746 145.419C34.2681 145.238 34.4604 145.057 34.6433 144.864L34.6866 144.811L34.7405 144.757L115.704 62.8461Z" fill="url(#paint0_linear_2_760)"/>
<defs>
<linearGradient id="paint0_linear_2_760" x1="0.408447" y1="74.411" x2="463.591" y2="74.411" gradientUnits="userSpaceOnUse">
<stop stop-color="#BF2C2D"/>
<stop offset="1" stop-color="#9C012F"/>
</linearGradient>
</defs>
</svg>
