<svg width="362" height="338" viewBox="0 0 362 338" fill="none" xmlns="http://www.w3.org/2000/svg">
<g clip-path="url(#clip0_1_1095)">
<path d="M80.4346 252.209C80.4509 253.794 80.0288 255.353 79.2148 256.714C78.4009 258.074 77.2268 259.183 75.8222 259.918C71.7574 261.816 67.2716 262.633 62.7986 262.29C62.7986 262.29 39.6281 238.834 38.7277 254.669C38.7277 254.669 20.4328 241.272 21.9703 257.107C21.9703 257.107 9.42947 251.265 9.29782 259.106L-4.25317 257.414L6.42091 245.203H54.6286C54.5187 248.585 62.4693 246.148 68.3772 243.886C70.2098 243.184 72.2236 243.109 74.1032 243.673C75.9829 244.237 77.6224 245.409 78.7654 247.004C79.8483 248.524 80.4317 250.343 80.4346 252.209Z" fill="black"/>
<path d="M387.974 664.287L390.973 675.776L393.712 687.333L396.238 698.948C396.999 702.838 397.789 706.725 398.485 710.632C399.857 718.449 400.938 726.324 401.728 734.256C402.106 738.225 402.407 742.207 402.511 746.222C402.569 748.229 402.595 750.24 402.529 752.271C402.505 754.379 402.333 756.482 402.013 758.565C401.97 758.834 401.871 759.091 401.723 759.319C401.574 759.547 401.38 759.742 401.152 759.891L401.066 759.946C396.26 762.859 390.91 764.762 385.343 765.539C380.02 766.392 374.645 766.881 369.255 767.003C358.614 767.226 347.969 766.856 337.369 765.895C326.806 765.01 316.292 763.833 305.81 762.564L274.458 758.552C269.273 757.946 263.983 757.15 258.923 756.984C257.644 756.924 256.374 756.798 255.086 756.791L251.211 756.829L247.333 756.849L243.441 757.076C233.004 757.723 222.612 758.961 212.315 760.783C201.974 762.553 191.676 764.67 181.431 767.047C171.19 769.419 160.979 772.046 150.918 775.05L150.887 775.059C150.593 775.147 150.276 775.114 150.006 774.968C149.735 774.822 149.534 774.575 149.446 774.281C149.415 774.174 149.399 774.064 149.398 773.952L149.27 710.828C149.199 700.306 149.419 689.788 149.436 679.267C149.463 668.745 149.48 658.222 149.656 647.702C149.991 605.613 151.108 563.54 153.008 521.481C154.858 479.432 157.088 437.396 160.18 395.418C161.757 374.431 163.368 353.447 165.363 332.488C166.323 322.011 167.336 311.523 168.49 301.037L170.31 285.343L171.293 277.491L171.827 273.556C172.029 272.195 172.173 271.03 172.486 269.455C172.599 268.885 172.915 268.376 173.376 268.023C173.836 267.669 174.409 267.494 174.989 267.532L175.007 267.533C192.987 268.701 211.021 269.618 229.044 270.166C238.056 270.419 247.071 270.682 256.081 270.635C260.585 270.606 265.089 270.521 269.577 270.266C271.82 270.137 274.066 269.998 276.288 269.718C278.501 269.537 280.68 269.062 282.767 268.303L282.788 268.294C282.867 268.26 282.956 268.259 283.036 268.29C283.116 268.321 283.181 268.382 283.216 268.46C283.252 268.539 283.255 268.627 283.226 268.708C283.197 268.789 283.138 268.855 283.061 268.893C280.947 269.804 278.72 270.425 276.44 270.738C274.198 271.141 271.945 271.422 269.689 271.654C265.177 272.112 260.656 272.399 256.135 272.629C247.093 273.053 238.049 273.279 229.003 273.307C210.912 273.345 192.846 273.015 174.753 272.43L177.274 270.509C176.933 272.764 176.614 275.561 176.331 278.1L175.509 285.92L174.007 301.601C173.068 312.044 172.267 322.513 171.516 332.999L167.138 395.907C164.346 437.857 161.523 479.807 159.194 521.788C156.907 563.77 154.708 605.762 153.097 647.785C152.651 658.29 152.363 668.799 152.066 679.308C151.74 689.818 151.573 700.33 151.497 710.843C151.449 721.355 151.183 731.869 151.312 742.382L151.736 773.916L150.217 772.819C170.38 766.416 190.852 761.032 211.555 756.687C221.966 754.514 232.491 752.931 243.08 751.948L247.073 751.592L251.1 751.445L255.131 751.322C256.477 751.307 257.838 751.414 259.191 751.455C264.679 751.56 269.848 752.264 275.138 752.791C296.149 755.207 316.965 758.332 337.858 760.256C348.295 761.154 358.751 761.934 369.139 761.79C374.294 761.762 379.44 761.384 384.544 760.658C389.468 760.116 394.237 758.603 398.575 756.209L397.628 757.59C397.943 755.769 398.14 753.931 398.218 752.085C398.338 750.168 398.371 748.221 398.372 746.277C398.388 742.385 398.209 738.469 397.955 734.558C397.43 726.731 396.543 718.907 395.472 711.101C394.962 707.194 394.357 703.297 393.78 699.394L391.805 687.72C390.392 679.951 388.868 672.198 387.333 664.439C387.324 664.397 387.323 664.353 387.331 664.311C387.339 664.268 387.355 664.228 387.378 664.191C387.402 664.155 387.432 664.124 387.468 664.099C387.504 664.074 387.544 664.057 387.586 664.048C387.669 664.032 387.755 664.047 387.827 664.092C387.899 664.136 387.951 664.206 387.974 664.287Z" fill="black"/>
<path d="M226.433 1.7533C226.433 1.7533 222.471 29.4835 199.312 38.016C199.312 38.016 190.344 30.4279 188.388 41.4181C187.59 45.7327 188.379 50.1904 190.61 53.9688C192.775 57.5513 196.387 60.6267 201.75 56.6043C201.75 56.6043 230.394 75.1927 226.433 91.9527C222.471 108.713 190.475 120.292 185.599 114.807C180.724 109.322 172.801 70.6218 175.543 51.424C178.286 32.2261 180.114 7.54302 216.986 1.7533H226.433Z" fill="black"/>
<path d="M247.765 34.3585C248.647 34.7681 249.409 35.398 249.977 36.1875C250.675 37.0572 251.017 38.1598 250.934 39.2723C250.809 39.9838 250.41 40.6183 249.824 41.0401C249.318 41.3593 248.736 41.5388 248.138 41.5602C247.143 41.5752 246.165 41.296 245.327 40.7577C246.256 40.3729 247.1 40.1642 247.804 39.8794C248.078 39.7627 248.33 39.5996 248.549 39.3972C248.668 39.278 248.743 39.122 248.762 38.9546C248.78 38.2773 248.676 37.6023 248.455 36.9618C248.23 36.1665 247.957 35.3302 247.765 34.3585Z" fill="black"/>
<path d="M219.12 28.5696C219.623 27.3975 220.45 26.3937 221.505 25.6766C222.547 24.9238 223.733 24.3942 224.989 24.1212C226.239 23.856 227.53 23.8416 228.787 24.0788C230.027 24.2925 231.202 24.7862 232.223 25.5224C230.956 25.6706 229.813 25.6742 228.693 25.79C227.603 25.8765 226.521 26.0357 225.454 26.2665C224.389 26.4883 223.344 26.7917 222.326 27.1741C221.234 27.5831 220.163 28.0489 219.12 28.5696Z" fill="black"/>
<path d="M245.327 24.8978C245.734 24.0705 246.396 23.3955 247.215 22.9719C247.989 22.5401 248.834 22.2489 249.709 22.112C251.46 21.8055 253.261 22.1516 254.773 23.0847C253.991 23.4267 253.174 23.6829 252.337 23.8487C251.559 24.049 250.794 24.1337 250.047 24.2808L245.327 24.8978Z" fill="black"/>
<path d="M227.347 36.6063C228.088 36.5807 228.79 36.2685 229.304 35.7355C229.819 35.2026 230.107 34.4905 230.107 33.7495C230.107 33.0085 229.819 32.2965 229.304 31.7635C228.79 31.2306 228.088 30.9184 227.347 30.8927C226.607 30.9184 225.905 31.2306 225.39 31.7635C224.876 32.2965 224.588 33.0085 224.588 33.7495C224.588 34.4905 224.876 35.2026 225.39 35.7355C225.905 36.2685 226.607 36.5807 227.347 36.6063Z" fill="black"/>
<path d="M196.513 54.8969C197.253 54.8713 197.955 54.5591 198.47 54.0262C198.985 53.4932 199.272 52.7811 199.272 52.0401C199.272 51.299 198.985 50.5869 198.47 50.054C197.955 49.521 197.253 49.2088 196.513 49.1832C195.772 49.2088 195.07 49.521 194.555 50.054C194.04 50.5869 193.753 51.299 193.753 52.0401C193.753 52.7811 194.04 53.4932 194.555 54.0262C195.07 54.5591 195.772 54.8713 196.513 54.8969Z" fill="black"/>
<path d="M238.167 23.7786C238.908 23.753 239.61 23.4409 240.125 22.9079C240.639 22.3749 240.927 21.6628 240.927 20.9218C240.927 20.1807 240.639 19.4686 240.125 18.9357C239.61 18.4027 238.908 18.0905 238.167 18.0649C237.427 18.0905 236.725 18.4027 236.21 18.9357C235.695 19.4686 235.407 20.1807 235.407 20.9218C235.407 21.6628 235.695 22.3749 236.21 22.9079C236.725 23.4409 237.427 23.753 238.167 23.7786Z" fill="#BF2C2D"/>
<path d="M251.727 34.169C252.467 34.1433 253.169 33.8311 253.684 33.2981C254.198 32.7652 254.486 32.0531 254.486 31.3122C254.486 30.5712 254.198 29.8591 253.684 29.3262C253.169 28.7932 252.467 28.481 251.727 28.4553C250.986 28.481 250.284 28.7932 249.77 29.3262C249.255 29.8591 248.967 30.5712 248.967 31.3122C248.967 32.0531 249.255 32.7652 249.77 33.2981C250.284 33.8311 250.986 34.1433 251.727 34.169Z" fill="black"/>
<path d="M210.429 109.577C214.331 114.688 218.683 119.439 223.433 123.773C225.721 125.852 228.337 127.539 231.175 128.765C231.858 129.003 232.552 129.207 233.255 129.375C233.938 129.471 234.626 129.527 235.316 129.541C236.65 129.454 237.937 129.014 239.045 128.266C241.387 126.508 243.187 124.127 244.238 121.394C245.484 118.538 246.464 115.573 247.165 112.538C248.556 106.346 249.444 100.051 249.819 93.7157L251.724 95.689C251.016 95.6654 250.32 95.4993 249.678 95.2007C249.035 94.9021 248.46 94.4771 247.985 93.9511C247.234 93.1162 246.631 92.1585 246.203 91.1196C245.474 89.2981 244.967 87.3958 244.691 85.4534C244.14 81.7555 243.905 78.0173 243.989 74.2795L243.99 74.2252C243.995 73.9381 244.094 73.6607 244.274 73.4366C244.453 73.2126 244.702 73.0548 244.982 72.9881C247.274 72.4508 249.385 71.3185 251.101 69.7052C252.842 68.0095 254.226 65.9815 255.169 63.7412C257.024 59.0656 257.983 54.0825 257.995 49.0522C258.208 44.0135 257.426 38.9823 255.694 34.2459C254.857 31.913 253.715 29.5539 252.89 27.0953C252.033 24.6489 251.294 22.1934 250.654 19.6599L251.854 20.5159C248.962 20.8092 246.043 20.3627 243.372 19.2183C240.773 18.1288 238.343 16.6741 236.155 14.8984C233.968 13.1957 231.937 11.3032 230.083 9.24291C228.203 7.2044 226.457 5.04541 224.857 2.77968C224.665 2.50414 224.551 2.18116 224.528 1.8456C224.505 1.51004 224.575 1.17465 224.729 0.875678C224.883 0.576706 225.116 0.325511 225.402 0.149212C225.688 -0.0270865 226.018 -0.121781 226.354 -0.124645L226.389 -0.12494C230.301 -0.140261 234.194 0.422452 237.941 1.54497C241.72 2.64011 245.292 4.35361 248.512 6.61593C250.132 7.77437 251.648 9.0708 253.044 10.4907C254.389 11.968 255.593 13.5676 256.64 15.2686C257.709 16.949 258.603 18.7347 259.307 20.5977C259.964 22.4568 260.523 24.3488 260.984 26.2659L260.788 25.6936C262.476 28.9884 264.465 32.1202 266.73 35.0493C267.773 36.4229 268.992 37.6545 270.354 38.713C271.993 39.8745 273.568 41.1244 275.072 42.4571C281.169 47.6607 286.271 53.9274 290.13 60.9529C292.143 64.6087 293.187 68.7191 293.161 72.8924C293.092 75.0244 292.599 77.1212 291.709 79.0598C291.263 80.0132 290.724 80.9197 290.098 81.7658C289.785 82.183 289.488 82.6133 289.161 83.0138L288.083 84.1211C285.164 86.8821 281.717 89.0249 277.949 90.4209C274.31 91.8495 270.548 92.9437 266.71 93.69C266.682 93.6962 266.653 93.6968 266.625 93.6917C266.596 93.6866 266.569 93.676 266.545 93.6605C266.521 93.6449 266.5 93.6247 266.483 93.601C266.467 93.5774 266.455 93.5507 266.449 93.5225C266.439 93.4682 266.449 93.412 266.477 93.3645C266.505 93.317 266.55 93.2814 266.602 93.2643C273.874 90.8945 281.35 87.9185 286.346 82.4869C288.799 79.888 290.128 76.4262 290.044 72.8532C289.838 69.2515 288.765 65.7528 286.918 62.6538C283.007 56.2407 278.016 50.5516 272.167 45.8376C270.752 44.6249 269.271 43.4915 267.731 42.4426C265.998 41.1689 264.442 39.6691 263.106 37.983C260.587 34.8156 258.404 31.3946 256.592 27.7753C256.529 27.6532 256.479 27.5246 256.444 27.3916L256.396 27.2021C255.687 23.8437 254.455 20.6175 252.745 17.6414C251.888 16.1756 250.897 14.7919 249.785 13.5079C248.612 12.2704 247.336 11.1343 245.972 10.1119C243.175 8.05862 240.058 6.48271 236.747 5.44813C233.418 4.39604 229.965 3.78581 226.476 3.63307L228.008 0.72901C229.427 2.90125 230.985 4.98017 232.671 6.95295C234.347 8.9392 236.166 10.7997 238.115 12.5195C240.003 14.2456 242.127 15.6933 244.424 16.8189C246.644 17.9354 249.114 18.4596 251.595 18.3406L251.663 18.3357C251.925 18.3166 252.184 18.3937 252.392 18.5523C252.601 18.7108 252.744 18.9401 252.795 19.1969C253.286 21.6456 253.896 24.1224 254.61 26.537C255.272 28.9737 256.302 31.2567 257.133 33.753C258.775 38.6914 259.522 43.8838 259.337 49.085C259.349 54.2974 258.482 59.4744 256.774 64.3989C255.865 66.9338 254.465 69.2645 252.655 71.2578C250.746 73.2841 248.337 74.7715 245.67 75.5701L246.661 74.2794C246.796 77.8259 247.23 81.3547 247.958 84.8283C248.298 86.477 248.82 88.0828 249.514 89.616C249.796 90.2571 250.183 90.8462 250.66 91.3586C250.792 91.5138 250.955 91.6399 251.138 91.7287C251.322 91.8175 251.521 91.8672 251.725 91.8746L251.744 91.8747C252.248 91.8776 252.73 92.0805 253.084 92.4387C253.438 92.7969 253.635 93.2811 253.632 93.7848L253.631 93.8484C253.405 100.464 252.485 107.037 250.887 113.46C250.095 116.733 248.97 119.915 247.529 122.958C246.107 126.252 243.774 129.071 240.805 131.086L239.568 131.781L238.198 132.228C237.279 132.488 236.33 132.627 235.375 132.643C234.449 132.593 233.527 132.474 232.618 132.287C231.757 132.043 230.91 131.749 230.083 131.408C227.024 129.916 224.255 127.893 221.904 125.432C217.39 120.688 213.42 115.454 210.067 109.828C210.037 109.778 210.027 109.718 210.041 109.661C210.054 109.605 210.089 109.556 210.139 109.525C210.185 109.497 210.24 109.487 210.294 109.497C210.347 109.506 210.395 109.535 210.429 109.577Z" fill="black"/>
<path d="M266.729 94.8841C318.276 81.7759 274.886 44.415 269.401 40.8374C263.916 37.2598 258.692 26.7333 258.692 26.7333C253.468 1.12865 226.434 1.75331 226.434 1.75331C226.434 1.75331 238.928 20.9511 251.727 19.4275C252.622 23.4144 253.825 27.3257 255.326 31.1262C257.455 36.0992 258.597 41.4384 258.69 46.847C258.765 57.0882 256.717 71.2412 245.327 74.2785C245.327 74.2785 245.327 93.7811 251.727 93.7811L266.729 94.8841Z" fill="black"/>
<path d="M251.705 93.5617C255.994 93.2539 260.302 93.3288 264.578 93.7855C268.855 94.1234 273.106 94.6901 277.333 95.377C285.796 96.7044 294.189 98.379 302.512 100.401C306.665 101.42 310.825 102.42 314.955 103.522C317.049 104.088 319.036 104.536 321.219 105.201C323.356 105.881 325.429 106.748 327.414 107.792C331.404 109.864 334.986 112.642 337.986 115.991C339.476 117.663 340.8 119.476 341.94 121.404C343.028 123.307 344.087 125.188 345.026 127.146C348.793 134.908 351.663 143.074 353.582 151.486C355.549 159.829 356.911 168.303 357.657 176.843C358.393 185.385 358.593 193.964 358.257 202.532C357.97 211.114 357.183 219.673 355.899 228.164C355.843 228.564 355.649 228.932 355.352 229.206C355.054 229.48 354.671 229.641 354.267 229.664L354.176 229.668C341.995 230.333 329.807 230.769 317.623 231.325C305.439 231.879 293.25 232.289 281.056 232.557L281.01 232.558C280.437 232.57 279.88 232.362 279.456 231.976C279.031 231.59 278.771 231.056 278.728 230.484C278.25 223.822 278.07 217.213 278.016 210.571C277.972 203.936 278.053 197.297 278.435 190.662C278.805 184.013 279.583 177.393 280.763 170.839C281.376 167.548 282.251 164.311 283.38 161.16C284.393 157.92 286.251 155.009 288.765 152.727C288.809 152.692 288.864 152.675 288.92 152.68C288.976 152.684 289.028 152.71 289.065 152.751C289.103 152.793 289.123 152.848 289.121 152.904C289.12 152.959 289.097 153.013 289.057 153.053L289.043 153.067C286.884 155.488 285.367 158.412 284.632 161.571C283.794 164.722 283.186 167.931 282.812 171.17C282.029 177.676 281.646 184.224 281.664 190.777C281.459 203.889 282.193 217.071 283.233 230.112L280.906 228.039C293.091 227.514 305.28 227.113 317.473 226.834C329.667 226.577 341.857 226.2 354.055 226.052L352.332 227.557C355.278 210.918 357.452 193.929 356.163 176.959C355.311 159.983 350.606 143.423 342.406 128.536C341.397 126.698 340.261 124.922 339.136 123.182C337.999 121.501 336.718 119.923 335.307 118.466C332.489 115.554 329.214 113.124 325.61 111.271C323.808 110.352 321.937 109.573 320.015 108.942C318.133 108.319 315.97 107.77 313.961 107.18C309.876 105.995 305.766 104.911 301.66 103.808C293.42 101.725 285.189 99.6014 276.883 97.814C268.621 95.8686 260.216 94.5927 251.749 93.9987L251.719 93.9976C251.664 93.9956 251.611 93.9727 251.572 93.9335C251.533 93.8943 251.51 93.8417 251.509 93.7863C251.507 93.731 251.526 93.677 251.562 93.6353C251.599 93.5936 251.65 93.5673 251.705 93.5617L251.705 93.5617Z" fill="black"/>
<path d="M298.655 131.103C300.381 128.306 302.622 125.861 305.259 123.898C307.889 121.869 310.841 120.298 313.993 119.25C317.137 118.173 320.444 117.649 323.766 117.7C325.411 117.701 327.052 117.845 328.671 118.13C330.267 118.459 331.844 118.875 333.394 119.376C330.212 119.14 327.017 119.152 323.837 119.412C320.722 119.668 317.652 120.312 314.697 121.329C311.724 122.307 308.881 123.642 306.228 125.303C303.511 126.971 300.973 128.915 298.655 131.103Z" fill="black"/>
<path d="M182.12 107.03C178.016 110.359 174.274 114.111 170.955 118.223C167.647 122.261 164.805 126.658 162.481 131.332C160.15 135.929 158.448 140.819 157.423 145.871C157.133 147.118 156.93 148.383 156.815 149.658C156.61 150.919 156.481 152.191 156.428 153.468C156.398 156.03 156.282 158.535 156.365 161.254C156.581 171.933 156.172 182.596 155.457 193.226C154.653 203.855 153.565 214.436 151.908 224.985L150.558 223.452C155.027 223.601 159.496 223.786 163.965 224.038C168.435 224.268 172.904 224.473 177.373 224.814C172.904 225.154 168.435 225.359 163.965 225.589C159.496 225.841 155.027 226.026 150.558 226.175C150.384 226.181 150.212 226.153 150.049 226.092C149.887 226.031 149.738 225.939 149.611 225.82C149.485 225.702 149.383 225.56 149.311 225.402C149.239 225.244 149.199 225.073 149.194 224.9L149.197 224.748L149.206 224.641C150.077 214.112 150.777 203.532 151.279 192.974C151.82 182.414 152.138 171.848 152.118 161.298C152.049 158.71 152.208 155.912 152.359 153.17C152.462 151.798 152.644 150.434 152.904 149.083C153.075 147.72 153.337 146.369 153.689 145.041L154.752 141.065C155.209 139.773 155.722 138.501 156.206 137.223C156.689 135.946 157.25 134.699 157.885 133.49C158.452 132.252 159.087 131.046 159.788 129.879C162.485 125.181 165.789 120.859 169.615 117.024C173.34 113.173 177.543 109.815 182.12 107.03Z" fill="black"/>
<path d="M187.925 156.048C186.298 160.224 184.935 164.498 183.845 168.845C182.757 173.139 181.957 177.501 181.45 181.902C180.959 186.253 180.896 190.641 181.263 195.004C181.643 199.331 182.457 203.608 183.694 207.772L183.751 207.982C183.851 208.354 183.808 208.751 183.63 209.093C177.416 221.257 174.748 234.924 175.931 248.533L175.074 247.634C179.545 247.887 184.033 248.062 188.516 248.202L201.953 248.733C210.899 249.206 219.855 249.382 228.789 249.725C237.726 250.047 246.657 250.362 255.578 250.432C260.035 250.421 264.499 250.471 268.941 250.212C273.386 250.087 277.803 249.472 282.112 248.379L282.123 248.375C282.176 248.36 282.233 248.365 282.282 248.389C282.331 248.413 282.37 248.455 282.39 248.506C282.41 248.557 282.41 248.614 282.39 248.665C282.371 248.716 282.333 248.758 282.283 248.783C280.232 249.784 278.081 250.563 275.864 251.107C273.667 251.694 271.438 252.159 269.19 252.499C264.707 253.194 260.202 253.721 255.69 254.004C246.667 254.628 237.639 254.674 228.636 254.419C219.629 254.172 210.656 253.399 201.691 252.693C197.214 252.256 192.737 251.834 188.273 251.277L174.888 249.528L174.802 249.516C174.587 249.488 174.39 249.383 174.248 249.219C174.106 249.055 174.028 248.845 174.031 248.629C174.067 245.153 174.101 241.692 174.388 238.242C174.624 234.79 175.04 231.356 175.557 227.934C176.054 224.509 176.696 221.099 177.484 217.704C178.272 214.27 179.316 210.899 180.607 207.621L180.543 208.941C178.779 204.593 177.693 200.001 177.323 195.324C177.003 190.683 177.226 186.021 177.987 181.432C178.736 176.891 179.921 172.433 181.526 168.119C182.314 165.972 183.216 163.87 184.229 161.819C185.197 159.754 186.303 157.756 187.54 155.839C187.572 155.79 187.622 155.756 187.679 155.744C187.736 155.732 187.796 155.743 187.844 155.775C187.887 155.805 187.918 155.848 187.933 155.898C187.947 155.947 187.945 156 187.925 156.048Z" fill="black"/>
<path d="M170.914 293.601L156.682 290.919C151.939 290.028 147.199 289.124 142.472 288.165L114.078 282.651C109.351 281.745 104.615 280.863 99.8919 280.11C97.6274 279.71 95.341 279.446 93.045 279.319L92.722 279.321C92.848 279.319 92.9688 279.27 93.0611 279.184C93.1874 279.078 92.9807 279.195 92.886 279.237L92.5386 279.394L91.8277 279.673C91.097 279.86 90.4587 279.996 89.811 280.106C88.5544 280.305 87.3205 280.457 86.1011 280.58C76.3481 281.404 66.7187 281.595 57.0272 281.571L58.2489 281.02C56.9229 282.36 55.2224 283.267 53.371 283.622C51.6633 283.923 49.913 283.883 48.2205 283.506C46.6202 283.185 45.058 282.697 43.5592 282.05C42.0734 281.427 40.6385 280.689 39.2676 279.842L40.4432 279.925C35.6484 281.524 30.4316 281.293 25.7969 279.276C21.2425 277.545 17.1684 274.749 13.9147 271.122C12.3106 269.287 10.9904 267.222 9.99813 264.995C8.92408 262.722 8.50811 260.193 8.79743 257.696C8.9582 257.012 9.28782 256.38 9.75608 255.856C10.2243 255.333 10.8164 254.935 11.478 254.699C12.7076 254.298 14.0147 254.193 15.2926 254.393C17.7114 254.723 20.0699 255.401 22.2953 256.404L21.2005 257.179C20.8443 255.035 21.1503 252.834 22.0776 250.869C22.6953 249.817 23.6982 249.046 24.8739 248.721C25.9659 248.447 27.1042 248.414 28.2103 248.623C30.2597 249.019 32.2426 249.703 34.0994 250.657C35.9374 251.559 37.7085 252.592 39.3989 253.748L37.59 254.602C37.6074 253.061 38.0001 251.547 38.7341 250.193C39.1941 249.415 39.8704 248.789 40.6805 248.389C41.4709 248.032 42.3333 247.862 43.2003 247.893C46.0963 248.226 48.8678 249.258 51.2756 250.901C55.8842 253.818 60.1669 257.22 64.0504 261.05L62.8634 260.527C65.1801 260.597 67.4973 260.41 69.773 259.97C70.8758 259.751 71.9584 259.441 73.0098 259.042C73.9925 258.696 74.9245 258.22 75.7812 257.626C76.5302 257.052 77.1485 256.325 77.5948 255.493C78.0411 254.661 78.3052 253.744 78.3697 252.802C78.442 251.859 78.3186 250.91 78.0075 250.017C77.6963 249.124 77.2039 248.304 76.5612 247.61C75.9277 246.924 75.1572 246.378 74.2995 246.008C73.4419 245.638 72.5161 245.451 71.582 245.462C70.6161 245.47 69.6622 245.676 68.7785 246.066C67.6188 246.518 66.4326 246.949 65.2353 247.355C62.7332 248.282 60.1217 248.882 57.4659 249.139C56.5259 249.199 55.5839 249.06 54.7011 248.732C53.9962 248.464 53.3907 247.986 52.967 247.362C52.5349 246.704 52.311 245.932 52.3243 245.145C52.3777 244.197 52.6339 243.271 53.0756 242.431C53.3974 241.783 53.7648 241.159 54.1748 240.564L54.0119 240.84L54.3166 240.332L54.325 240.319L54.4169 240.179C56.9485 236.637 60.5181 233.968 64.6323 232.542C68.7465 231.117 73.2021 231.004 77.3829 232.221C79.4572 232.808 81.4335 233.698 83.2481 234.862C85.0419 236.051 86.6487 237.501 88.0157 239.163C89.4097 240.821 90.3715 242.283 91.5705 243.853L94.9796 248.499L93.349 247.642C107.344 248.461 121.344 249.146 135.334 250.074L140.581 250.418L143.18 250.577C143.965 250.614 144.752 250.566 145.527 250.434C147.915 250.005 150.098 248.805 151.74 247.018C153.382 245.231 154.394 242.956 154.62 240.539C154.751 238.885 154.755 237.062 154.829 235.332L155.216 224.819C155.218 224.763 155.242 224.709 155.283 224.669C155.324 224.63 155.379 224.608 155.436 224.608C155.493 224.608 155.547 224.63 155.588 224.669C155.629 224.709 155.653 224.763 155.655 224.819L156.043 235.332C156.082 237.105 156.197 238.789 156.174 240.635C156.118 242.52 155.648 244.37 154.799 246.054C153.916 247.757 152.671 249.245 151.15 250.413C149.63 251.581 147.871 252.401 145.999 252.815C145.054 253.023 144.09 253.128 143.123 253.129L140.469 253.094L135.212 253.001C121.193 252.764 107.185 252.285 93.1704 251.94C92.8681 251.933 92.571 251.859 92.3001 251.725C92.0292 251.59 91.791 251.398 91.6024 251.162L91.5393 251.082C89.1873 248.112 86.8442 244.84 84.5631 242.058C82.3778 239.443 79.4316 237.574 76.1344 236.711C72.8591 235.816 69.3925 235.907 66.1692 236.974C62.9781 238.087 60.2042 240.15 58.2202 242.886L58.3199 242.734L58.1859 242.928L58.0225 243.205C57.7319 243.615 57.4685 244.044 57.2341 244.489C57.0987 244.734 56.9972 244.996 56.9321 245.269C56.9659 245.158 56.921 245.07 56.7753 244.791C56.6584 244.697 56.6517 244.62 56.5665 244.568C56.4546 244.516 56.444 244.511 56.4679 244.507C56.7449 244.579 57.0314 244.607 57.3172 244.591C59.5463 244.378 61.7408 243.893 63.8523 243.147C64.982 242.785 66.1073 242.397 67.2381 241.977C68.6241 241.422 70.1046 241.142 71.5974 241.153C73.1163 241.167 74.6159 241.496 76.001 242.119C77.3862 242.743 78.6269 243.647 79.6445 244.775C80.6621 245.902 81.4345 247.229 81.9128 248.671C82.391 250.113 82.5648 251.638 82.423 253.15C82.2913 254.66 81.8385 256.124 81.0951 257.445C80.3516 258.766 79.3344 259.912 78.1119 260.808C76.9388 261.594 75.6626 262.214 74.3194 262.651C73.0644 263.086 71.7755 263.416 70.466 263.639C67.9109 264.06 65.3171 264.197 62.7319 264.048L62.7037 264.046C62.2652 264.025 61.851 263.839 61.544 263.525C59.7466 261.688 57.8085 259.873 55.8367 258.173C53.8952 256.451 51.8444 254.855 49.6972 253.397C47.7549 251.935 45.5006 250.943 43.1107 250.497C42.6644 250.419 42.205 250.474 41.7897 250.655C41.3743 250.836 41.0212 251.135 40.7742 251.515C40.2235 252.501 39.9114 253.602 39.8628 254.731L39.8573 254.788C39.827 255.087 39.6791 255.362 39.446 255.552C39.213 255.743 38.9139 255.832 38.6145 255.802C38.4115 255.781 38.2177 255.706 38.0533 255.585C36.4995 254.437 34.8663 253.401 33.166 252.484C31.5137 251.553 29.7387 250.859 27.8931 250.422C27.115 250.132 26.2639 250.101 25.4666 250.333C24.6694 250.566 23.9685 251.05 23.4684 251.713C22.7081 253.375 22.454 255.224 22.7377 257.03C22.746 257.132 22.7341 257.234 22.7027 257.332C22.6713 257.429 22.6211 257.52 22.5547 257.598C22.4884 257.676 22.4074 257.74 22.3162 257.787C22.2251 257.833 22.1256 257.862 22.0235 257.87C21.893 257.879 21.7622 257.857 21.6423 257.805C19.5748 256.84 17.3803 256.175 15.125 255.83C12.9221 255.465 10.5546 255.976 10.1075 258.014C9.86911 260.228 10.2668 262.464 11.2538 264.46C12.2072 266.537 13.4642 268.46 14.9837 270.166C18.1334 273.523 22.0666 276.046 26.431 277.508C30.607 279.12 35.228 279.15 39.4251 277.594C39.6006 277.517 39.7913 277.481 39.9828 277.489C40.1744 277.497 40.3616 277.548 40.5305 277.638L40.6019 277.677C43.1255 279.102 45.874 280.085 48.7288 280.584C50.0486 280.825 51.4032 280.802 52.714 280.516C53.8799 280.239 54.9366 279.62 55.7497 278.74C56.0549 278.41 56.4774 278.212 56.9265 278.191L56.9719 278.189C66.5697 277.738 76.2484 277.462 85.7266 276.651C86.91 276.553 88.0719 276.43 89.2021 276.271C89.744 276.193 90.2892 276.075 90.728 275.984C90.7692 275.96 90.8142 275.945 90.861 275.937L90.9359 275.931C90.9824 275.921 90.9126 275.973 91.188 275.839C91.5751 275.666 91.9869 275.554 92.4086 275.508L92.9897 275.502C95.5105 275.66 98.0183 275.984 100.497 276.471C105.288 277.323 110.024 278.294 114.756 279.288C124.227 281.231 133.597 283.587 142.985 285.843C147.68 286.966 152.356 288.168 157.024 289.406C161.695 290.629 166.365 291.853 171.012 293.173C171.069 293.188 171.116 293.225 171.145 293.276C171.174 293.327 171.181 293.387 171.166 293.443C171.151 293.496 171.117 293.541 171.07 293.57C171.023 293.599 170.968 293.61 170.914 293.601Z" fill="black"/>
<path d="M3.98254 221.157C7.17477 223.153 10.1379 225.494 12.8186 228.137C15.5666 230.711 18.0199 233.582 20.1331 236.698C16.9381 234.707 13.9744 232.366 11.2966 229.719C8.55217 227.142 6.09942 224.271 3.98254 221.157Z" fill="black"/>
<path d="M35.3693 211.068C36.1397 213.643 36.5099 216.321 36.4669 219.008C36.5145 221.695 36.1442 224.374 35.3693 226.948C34.594 224.374 34.2238 221.695 34.2717 219.008C34.2287 216.321 34.5989 213.643 35.3693 211.068Z" fill="black"/>
<path d="M51.5215 228.928C52.4927 226.406 53.8438 224.048 55.5278 221.934C57.1399 219.765 59.0778 217.858 61.2728 216.281C60.3057 218.805 58.9541 221.164 57.2659 223.274C55.6504 225.441 53.7132 227.347 51.5215 228.928Z" fill="black"/>
<path d="M22.7837 256.387C25.3678 259.535 28.0511 262.644 30.8485 265.623C32.248 267.114 33.6786 268.578 35.1923 269.948C36.5923 271.436 38.3237 272.573 40.2458 273.266C38.2421 272.738 36.3907 271.747 34.8416 270.371C33.1921 269.125 31.6225 267.782 30.0828 266.41C26.9995 263.663 24.0437 260.8 21.1404 257.844C20.9361 257.636 20.8227 257.355 20.8252 257.064C20.8278 256.772 20.9461 256.494 21.1541 256.289C21.3621 256.085 21.6428 255.972 21.9344 255.974C22.226 255.977 22.5046 256.095 22.7089 256.303C22.7316 256.326 22.7533 256.35 22.7732 256.374L22.7837 256.387Z" fill="black"/>
<path d="M39.6064 254.029C41.9328 257.452 44.4399 260.749 47.1172 263.905C48.4554 265.486 49.8767 266.995 51.375 268.426C52.8331 269.907 54.5305 271.132 56.3959 272.048C54.4359 271.289 52.6176 270.205 51.0171 268.842C49.3769 267.531 47.8075 266.133 46.3155 264.656C43.325 261.7 40.4946 258.587 37.8362 255.329C37.6514 255.104 37.5637 254.814 37.5925 254.524C37.6213 254.233 37.7642 253.967 37.9898 253.782C38.2153 253.597 38.505 253.509 38.7952 253.538C39.0854 253.567 39.3523 253.71 39.5372 253.935C39.5576 253.96 39.5765 253.985 39.5943 254.011L39.6064 254.029Z" fill="black"/>
<path d="M180.012 249.044C180.786 252.48 181.155 255.995 181.109 259.517C181.159 263.039 180.791 266.555 180.012 269.99C179.232 266.555 178.864 263.039 178.914 259.517C178.869 255.995 179.237 252.48 180.012 249.044Z" fill="black"/>
<path d="M284.87 230.157C285.873 239.955 285.993 249.823 285.229 259.642C284.784 264.57 284.079 269.471 283.116 274.324C282.083 279.207 280.646 283.996 278.82 288.641C278.073 290.935 277.194 293.093 276.567 295.441C275.956 297.786 275.245 300.088 274.715 302.465L273.102 309.585L271.676 316.763C269.809 326.346 268.277 336.005 266.698 345.659C263.62 364.979 260.478 384.313 257.653 403.698L255.574 418.243C254.842 423.074 254.478 427.962 253.933 432.83L253.214 440.14L252.862 443.797C252.704 444.977 252.641 446.168 252.675 447.359C252.799 449.703 253.555 451.969 254.862 453.919L259.024 459.962L259.054 460.01L259.075 460.048C260.819 463.493 263.321 466.499 266.394 468.838C267.876 469.929 269.637 470.576 271.473 470.703C273.285 470.613 275.032 469.996 276.499 468.928C276.626 468.847 276.77 468.795 276.921 468.779C277.071 468.763 277.223 468.781 277.365 468.834C280.075 469.9 282.94 470.518 285.849 470.663C287.174 470.736 288.496 470.459 289.68 469.86C290.184 469.554 290.615 469.141 290.94 468.649C291.266 468.157 291.479 467.6 291.563 467.016C291.62 466.739 291.774 466.491 291.996 466.316C292.219 466.141 292.496 466.051 292.778 466.061L292.8 466.062C295.09 466.191 297.383 465.873 299.551 465.126C300.498 464.82 301.334 464.245 301.959 463.471C302.457 462.728 302.677 461.832 302.58 460.943C302.566 460.649 302.64 460.358 302.791 460.106C302.943 459.854 303.166 459.653 303.432 459.528C304.85 458.851 306.217 458.072 307.523 457.198C308.822 456.346 310.033 455.367 311.139 454.276C312.202 453.279 313.069 452.092 313.692 450.775C314.242 449.594 314.417 448.274 314.193 446.991L316.014 448.36L299.88 449.911C299.386 449.959 298.893 449.808 298.51 449.492C298.126 449.176 297.885 448.721 297.837 448.227L297.828 448.052V447.975C297.845 443.008 297.487 438.047 296.758 433.134C296.406 430.732 295.855 428.362 295.111 426.051C294.525 423.917 293.457 421.946 291.988 420.291C291.657 419.97 291.439 419.55 291.37 419.095C291.3 418.639 291.382 418.173 291.602 417.768L291.629 417.721C299.594 403.158 306.736 388.017 313.46 372.785C320.141 357.515 326.255 341.998 331.55 326.207C336.921 310.443 341.098 294.298 344.048 277.907C345.522 269.715 346.459 261.435 346.851 253.12C347.295 244.791 347.001 236.439 345.972 228.162C345.968 228.133 345.97 228.104 345.977 228.076C345.984 228.048 345.996 228.022 346.013 227.998C346.031 227.975 346.052 227.956 346.077 227.941C346.102 227.926 346.129 227.916 346.158 227.912C346.214 227.905 346.27 227.919 346.316 227.952C346.362 227.985 346.394 228.033 346.406 228.088C349.282 244.702 349.417 261.674 346.806 278.332C345.699 286.678 344.147 294.96 342.155 303.14C340.216 311.328 337.991 319.439 335.482 327.474C330.458 343.523 324.541 359.278 317.759 374.667C311.017 390.074 303.589 405.114 295.316 419.824L294.956 417.255C296.898 419.398 298.302 421.971 299.054 424.763C299.838 427.299 300.41 429.897 300.763 432.528C301.48 437.678 301.763 442.88 301.611 448.077L299.559 446.142L315.725 444.951L315.783 444.946C316.195 444.918 316.603 445.042 316.928 445.296C317.254 445.549 317.474 445.914 317.547 446.32C317.876 448.315 317.577 450.362 316.691 452.179C315.864 453.84 314.722 455.326 313.328 456.551C312.04 457.74 310.638 458.799 309.141 459.712C307.669 460.628 306.131 461.434 304.54 462.122L305.391 460.708C305.504 462.291 305.041 463.861 304.086 465.128C303.13 466.266 301.865 467.103 300.444 467.537C299.177 467.962 297.863 468.234 296.531 468.347C295.231 468.465 293.924 468.479 292.621 468.387L293.858 467.433C293.69 468.341 293.324 469.201 292.787 469.952C292.251 470.703 291.555 471.327 290.75 471.779C289.212 472.531 287.5 472.858 285.793 472.726C282.649 472.489 279.567 471.734 276.67 470.491L277.535 470.396C275.786 471.704 273.65 472.387 271.468 472.338C269.285 472.289 267.182 471.51 265.495 470.125C263.824 468.913 262.339 467.464 261.087 465.823C259.827 464.219 258.721 462.5 257.783 460.688L257.833 460.774L253.724 454.668C252.324 452.501 251.501 450.012 251.335 447.438C251.287 446.18 251.341 444.919 251.498 443.67L251.822 440.008L252.455 432.684C253.165 422.907 254.229 413.134 255.285 403.396C257.439 383.906 259.68 364.413 262.817 345.034C264.334 335.337 266.153 325.684 268.123 316.05L269.661 308.832L271.395 301.641C271.966 299.243 272.732 296.867 273.392 294.481C274.039 292.097 275.107 289.737 275.96 287.404C277.869 282.986 279.41 278.418 280.565 273.746C281.671 269.02 282.525 264.238 283.126 259.422C284.331 249.729 284.767 239.957 284.433 230.196C284.431 230.167 284.434 230.138 284.444 230.111C284.453 230.083 284.467 230.058 284.486 230.036C284.505 230.015 284.528 229.997 284.554 229.984C284.58 229.971 284.608 229.964 284.637 229.962C284.693 229.96 284.748 229.979 284.791 230.015C284.834 230.051 284.862 230.101 284.87 230.157Z" fill="black"/>
<path d="M349.964 459.323L349.907 459.169V459.171C347.353 449.176 345.224 439.107 343.246 429.014C341.241 418.925 339.487 408.793 337.782 398.654C336.161 388.501 334.59 378.34 333.273 368.138C331.929 357.941 330.738 347.719 329.979 337.431C332.542 347.432 334.675 357.5 336.654 367.593C338.661 377.68 340.415 387.809 342.116 397.946C343.735 408.096 345.305 418.254 346.623 428.455C347.969 438.651 349.164 448.872 349.934 459.167V459.169C349.947 459.22 349.957 459.271 349.964 459.323Z" fill="black"/>
<path d="M347.542 259.104C348.881 290.071 329.862 337.708 329.862 337.708L345.675 433.75C354.921 448.246 393.422 433.75 393.422 433.75C369.965 416.554 347.542 259.104 347.542 259.104ZM352.286 430.873C351.432 430.843 350.624 430.482 350.031 429.868C349.438 429.253 349.107 428.433 349.107 427.579C349.107 426.725 349.438 425.904 350.031 425.29C350.624 424.675 351.432 424.315 352.286 424.284C353.139 424.315 353.947 424.675 354.54 425.29C355.133 425.904 355.465 426.725 355.465 427.579C355.465 428.433 355.133 429.253 354.54 429.868C353.947 430.482 353.139 430.843 352.286 430.873ZM366.913 432.059C366.059 432.029 365.251 431.668 364.658 431.054C364.065 430.439 363.734 429.619 363.734 428.765C363.734 427.911 364.065 427.09 364.658 426.476C365.251 425.861 366.059 425.501 366.913 425.47C367.766 425.501 368.574 425.861 369.167 426.476C369.76 427.09 370.091 427.911 370.091 428.765C370.091 429.619 369.76 430.439 369.167 431.054C368.574 431.668 367.766 432.029 366.913 432.059ZM380.749 431.269C379.896 431.238 379.087 430.878 378.494 430.263C377.901 429.649 377.57 428.828 377.57 427.974C377.57 427.12 377.901 426.3 378.494 425.685C379.087 425.071 379.896 424.71 380.749 424.68C381.603 424.71 382.411 425.071 383.004 425.685C383.597 426.3 383.928 427.12 383.928 427.974C383.928 428.828 383.597 429.649 383.004 430.263C382.411 430.878 381.603 431.238 380.749 431.269Z" fill="black"/>
<path d="M252.678 50.9132C251.886 51.8679 250.921 52.6648 249.834 53.2621C248.757 53.8856 247.592 54.3407 246.378 54.6115C245.118 54.9113 243.807 54.9206 242.543 54.6386C241.901 54.5133 241.292 54.2576 240.753 53.8873C240.215 53.517 239.758 53.04 239.411 52.4859C240.482 52.8349 241.607 52.9872 242.733 52.9353C243.806 52.88 244.871 52.7229 245.914 52.466C248.073 52.0285 250.218 51.325 252.678 50.9132Z" fill="black"/>
<path d="M278.12 96.7798C252.731 108.31 180.013 200.707 180.013 200.707C180.013 200.707 177.136 228.665 170.965 259.105C164.815 289.523 161.082 433.751 161.082 433.751C228.309 422.66 304.585 102.732 304.585 102.732C288.354 86.6991 278.12 96.7798 278.12 96.7798ZM167.67 424.549C166.817 424.518 166.009 424.158 165.416 423.544C164.823 422.929 164.491 422.108 164.491 421.255C164.491 420.401 164.823 419.58 165.416 418.966C166.009 418.351 166.817 417.991 167.67 417.96C168.524 417.991 169.332 418.351 169.925 418.966C170.518 419.58 170.849 420.401 170.849 421.255C170.849 422.108 170.518 422.929 169.925 423.544C169.332 424.158 168.524 424.518 167.67 424.549ZM180.716 411.899C179.863 411.868 179.054 411.508 178.461 410.893C177.868 410.279 177.537 409.458 177.537 408.604C177.537 407.75 177.868 406.93 178.461 406.315C179.054 405.701 179.863 405.34 180.716 405.31C181.569 405.34 182.378 405.701 182.971 406.315C183.564 406.93 183.895 407.75 183.895 408.604C183.895 409.458 183.564 410.279 182.971 410.893C182.378 411.508 181.569 411.868 180.716 411.899ZM195.343 392.923C194.49 392.893 193.682 392.532 193.089 391.918C192.496 391.303 192.164 390.483 192.164 389.629C192.164 388.775 192.496 387.954 193.089 387.339C193.682 386.725 194.49 386.365 195.343 386.334C196.197 386.365 197.005 386.725 197.598 387.339C198.191 387.954 198.523 388.775 198.523 389.629C198.523 390.483 198.191 391.303 197.598 391.918C197.005 392.532 196.197 392.893 195.343 392.923ZM196.793 211.71C195.158 212.556 193.34 212.986 191.5 212.962C189.664 212.949 187.854 212.521 186.207 211.71C184.589 210.944 183.186 209.789 182.122 208.35C185.04 209.833 188.249 210.658 191.522 210.766C193.098 210.786 194.669 210.563 196.178 210.107C197.789 209.627 199.367 209.04 200.9 208.35C199.81 209.773 198.404 210.924 196.793 211.71ZM207.598 372.761C206.745 372.731 205.936 372.371 205.343 371.756C204.75 371.142 204.419 370.321 204.419 369.467C204.419 368.613 204.75 367.792 205.343 367.178C205.936 366.563 206.745 366.203 207.598 366.173C208.452 366.203 209.26 366.563 209.853 367.178C210.446 367.792 210.777 368.613 210.777 369.467C210.777 370.321 210.446 371.142 209.853 371.756C209.26 372.371 208.452 372.731 207.598 372.761ZM217.877 349.437C217.023 349.407 216.215 349.046 215.622 348.432C215.029 347.817 214.697 346.997 214.697 346.143C214.697 345.289 215.029 344.468 215.622 343.854C216.215 343.239 217.023 342.879 217.877 342.848C218.73 342.879 219.539 343.239 220.132 343.854C220.725 344.468 221.056 345.289 221.056 346.143C221.056 346.997 220.725 347.817 220.132 348.432C219.539 349.046 218.73 349.407 217.877 349.437ZM226.179 328.485C225.325 328.454 224.517 328.094 223.924 327.48C223.331 326.865 222.999 326.044 222.999 325.19C222.999 324.336 223.331 323.516 223.924 322.901C224.517 322.287 225.325 321.926 226.179 321.896C227.032 321.926 227.84 322.287 228.434 322.901C229.027 323.516 229.358 324.336 229.358 325.19C229.358 326.044 229.027 326.865 228.434 327.48C227.84 328.094 227.032 328.454 226.179 328.485ZM234.48 305.951C233.627 305.921 232.819 305.56 232.226 304.946C231.633 304.331 231.301 303.511 231.301 302.657C231.301 301.803 231.633 300.982 232.226 300.368C232.819 299.753 233.627 299.393 234.48 299.362C235.334 299.393 236.142 299.753 236.735 300.367C237.329 300.982 237.66 301.803 237.66 302.657C237.66 303.511 237.329 304.332 236.735 304.946C236.142 305.561 235.334 305.921 234.48 305.951ZM231.977 213.291C229.801 212.196 228.004 210.475 226.815 208.35C230.197 211.289 234.572 212.829 239.049 212.654C241.234 212.46 243.384 211.972 245.44 211.205C246.494 210.809 247.504 210.326 248.581 209.887C249.591 209.36 250.623 208.833 251.721 208.35C250.931 209.206 250.03 209.997 249.152 210.81C248.186 211.516 247.181 212.169 246.142 212.764C243.987 213.94 241.607 214.643 239.159 214.829C236.67 214.966 234.191 214.435 231.977 213.291ZM243.178 283.813C242.324 283.783 241.516 283.422 240.923 282.808C240.33 282.193 239.998 281.373 239.998 280.519C239.998 279.665 240.33 278.844 240.923 278.229C241.516 277.615 242.324 277.255 243.178 277.224C244.031 277.255 244.839 277.615 245.432 278.229C246.025 278.844 246.357 279.665 246.357 280.519C246.357 281.373 246.025 282.193 245.432 282.808C244.839 283.422 244.031 283.783 243.178 283.813ZM251.48 260.489C250.626 260.458 249.818 260.098 249.225 259.483C248.632 258.869 248.3 258.048 248.3 257.194C248.3 256.34 248.632 255.52 249.225 254.905C249.818 254.291 250.626 253.93 251.48 253.9C252.333 253.93 253.141 254.291 253.734 254.905C254.327 255.52 254.659 256.34 254.659 257.194C254.659 258.048 254.327 258.869 253.734 259.483C253.141 260.098 252.333 260.458 251.48 260.489ZM259.781 236.769C258.928 236.739 258.119 236.378 257.526 235.764C256.933 235.149 256.602 234.329 256.602 233.475C256.602 232.621 256.933 231.8 257.526 231.186C258.119 230.571 258.928 230.211 259.781 230.18C260.635 230.21 261.443 230.571 262.036 231.185C262.63 231.8 262.961 232.621 262.961 233.475C262.961 234.329 262.63 235.149 262.036 235.764C261.443 236.379 260.635 236.739 259.781 236.769ZM268.874 211.864C268.021 211.833 267.212 211.473 266.619 210.858C266.026 210.244 265.694 209.423 265.694 208.569C265.694 207.715 266.026 206.894 266.619 206.28C267.212 205.665 268.021 205.305 268.874 205.275C269.728 205.305 270.536 205.665 271.129 206.28C271.723 206.894 272.054 207.715 272.054 208.569C272.054 209.423 271.723 210.244 271.129 210.859C270.536 211.473 269.728 211.833 268.874 211.864ZM275.99 188.539C275.136 188.509 274.328 188.149 273.735 187.534C273.142 186.92 272.81 186.099 272.81 185.245C272.81 184.391 273.142 183.57 273.735 182.956C274.328 182.341 275.136 181.981 275.99 181.951C276.843 181.981 277.652 182.341 278.245 182.956C278.838 183.57 279.17 184.391 279.17 185.245C279.17 186.099 278.838 186.92 278.245 187.534C277.652 188.149 276.843 188.509 275.99 188.539ZM283.106 162.448C282.252 162.418 281.444 162.057 280.851 161.443C280.258 160.828 279.926 160.007 279.926 159.153C279.926 158.299 280.258 157.479 280.851 156.864C281.444 156.25 282.252 155.889 283.106 155.859C283.959 155.889 284.768 156.25 285.361 156.864C285.954 157.479 286.286 158.299 286.286 159.153C286.286 160.008 285.954 160.828 285.361 161.443C284.768 162.057 283.959 162.418 283.106 162.448ZM289.826 137.542C288.973 137.512 288.164 137.152 287.571 136.537C286.978 135.923 286.647 135.102 286.647 134.248C286.647 133.394 286.978 132.573 287.571 131.959C288.164 131.344 288.973 130.984 289.826 130.953C290.68 130.984 291.488 131.344 292.081 131.958C292.675 132.573 293.006 133.394 293.006 134.248C293.006 135.102 292.675 135.923 292.081 136.537C291.488 137.152 290.68 137.512 289.826 137.542ZM297.337 110.265C296.484 110.234 295.676 109.874 295.083 109.26C294.49 108.645 294.158 107.824 294.158 106.97C294.158 106.116 294.49 105.296 295.083 104.681C295.676 104.067 296.484 103.706 297.337 103.676C298.191 103.706 298.999 104.067 299.593 104.681C300.186 105.296 300.517 106.116 300.517 106.97C300.517 107.824 300.186 108.645 299.593 109.26C298.999 109.874 298.191 110.235 297.337 110.265Z" fill="black"/>
<path d="M157.784 220.562C158.638 220.533 159.447 220.173 160.041 219.558C160.634 218.944 160.966 218.122 160.966 217.268C160.966 216.413 160.634 215.592 160.041 214.978C159.447 214.363 158.638 214.003 157.784 213.974C156.93 214.003 156.121 214.363 155.527 214.978C154.933 215.592 154.602 216.413 154.602 217.268C154.602 218.122 154.933 218.944 155.527 219.558C156.121 220.173 156.93 220.533 157.784 220.562Z" fill="black"/>
<path d="M170.437 220.827C171.291 220.798 172.1 220.438 172.694 219.823C173.287 219.208 173.619 218.387 173.619 217.533C173.619 216.678 173.287 215.857 172.694 215.242C172.1 214.628 171.291 214.268 170.437 214.238C169.582 214.268 168.773 214.628 168.18 215.242C167.586 215.857 167.254 216.678 167.254 217.533C167.254 218.387 167.586 219.208 168.18 219.823C168.773 220.438 169.582 220.798 170.437 220.827Z" fill="black"/>
<path d="M290.088 223.726C290.942 223.696 291.751 223.336 292.345 222.722C292.938 222.107 293.27 221.286 293.27 220.431C293.27 219.577 292.938 218.756 292.345 218.141C291.751 217.526 290.942 217.166 290.088 217.137C289.234 217.166 288.424 217.526 287.831 218.141C287.237 218.756 286.905 219.577 286.905 220.431C286.905 221.286 287.237 222.107 287.831 222.722C288.424 223.336 289.234 223.696 290.088 223.726Z" fill="black"/>
<path d="M307.218 222.143C308.072 222.113 308.881 221.753 309.475 221.138C310.069 220.524 310.4 219.703 310.4 218.848C310.4 217.994 310.069 217.173 309.475 216.558C308.881 215.943 308.072 215.583 307.218 215.554C306.364 215.583 305.555 215.943 304.961 216.558C304.367 217.173 304.035 217.994 304.035 218.848C304.035 219.703 304.367 220.524 304.961 221.138C305.555 221.753 306.364 222.113 307.218 222.143Z" fill="black"/>
<path d="M325.93 221.617C326.784 221.588 327.593 221.228 328.186 220.613C328.78 219.998 329.112 219.177 329.112 218.323C329.112 217.468 328.78 216.647 328.186 216.033C327.593 215.418 326.784 215.058 325.93 215.028C325.076 215.058 324.266 215.418 323.673 216.033C323.079 216.647 322.747 217.468 322.747 218.323C322.747 219.177 323.079 219.998 323.673 220.613C324.266 221.228 325.076 221.588 325.93 221.617Z" fill="black"/>
<path d="M344.115 220.562C344.969 220.533 345.778 220.173 346.372 219.558C346.965 218.944 347.297 218.122 347.297 217.268C347.297 216.413 346.965 215.592 346.372 214.978C345.778 214.363 344.969 214.003 344.115 213.974C343.261 214.003 342.452 214.363 341.858 214.978C341.264 215.592 340.933 216.413 340.933 217.268C340.933 218.122 341.264 218.944 341.858 219.558C342.452 220.173 343.261 220.533 344.115 220.562Z" fill="black"/>
</g>
<defs>
<clipPath id="clip0_1_1095">
<rect width="360.221" height="337.708" fill="white" transform="translate(0.889282 0.0595703)"/>
</clipPath>
</defs>
</svg>
