<svg width="36" height="37" viewBox="0 0 36 37" fill="none" xmlns="http://www.w3.org/2000/svg">
<path fill-rule="evenodd" clip-rule="evenodd" d="M30.8923 7.6309C32.3132 8.01121 33.4298 9.12769 33.81 10.5484C34.4973 13.1209 34.5 18.4915 34.5 18.4915C34.5 18.4915 34.5 23.862 33.81 26.4345C33.4298 27.8553 32.3132 28.9717 30.8923 29.352C28.32 30.042 18 30.042 18 30.042C18 30.042 7.68003 30.042 5.1075 29.352C3.68677 28.9717 2.5703 27.8553 2.18999 26.4345C1.5 23.862 1.5 18.4915 1.5 18.4915C1.5 18.4915 1.5 13.1209 2.18999 10.5484C2.5703 9.12769 3.68677 8.01121 5.1075 7.6309C7.68003 6.94092 18 6.94092 18 6.94092C18 6.94092 28.32 6.94092 30.8923 7.6309ZM23.2701 18.492L14.6968 23.4414V13.5424L23.2701 18.492Z" fill="white"/>
</svg>
